<?xml version="1.0" encoding="UTF-8" standalone="no"?><svg xmlns="http://www.w3.org/2000/svg" xmlns:xlink="http://www.w3.org/1999/xlink" contentScriptType="application/ecmascript" contentStyleType="text/css" height="1000px" preserveAspectRatio="none" style="width:1983px;height:1000px;" version="1.1" viewBox="0 0 1983 1000" width="1983px" zoomAndPan="magnify"><defs/><g><text fill="#888888" font-family="sans-serif" font-size="18" lengthAdjust="spacingAndGlyphs" textLength="143" x="919" y="19.2419">instance-a (base)</text><text fill="#888888" font-family="sans-serif" font-size="11" font-style="italic" lengthAdjust="spacingAndGlyphs" textLength="376" x="802.5" y="36.2748">guards against: a query that returns an internally consistent, numerically valid</text><text fill="#888888" font-family="sans-serif" font-size="11" font-style="italic" lengthAdjust="spacingAndGlyphs" textLength="365" x="808" y="51.2566">figure that violates a handbook clause (gross instead of net; login-only users</text><text fill="#888888" font-family="sans-serif" font-size="11" font-style="italic" lengthAdjust="spacingAndGlyphs" textLength="89" x="946" y="66.2385">counted as active).</text><!--MD5=[16666313b46a364dfa6fcce22871d203]
entity A_sentinel--><rect fill="#E8541E" height="39.0679" style="stroke: #555555; stroke-width: 1.5;" width="220.3333" x="6" y="518.6915"/><path d="M21.6667,534.9261 C19.0965,534.9261 17,537.0226 17,539.5928 C17,542.1629 19.0965,544.2594 21.6667,544.2594 C24.2368,544.2594 26.3333,542.1629 26.3333,539.5928 C26.3333,537.0226 24.2368,534.9261 21.6667,534.9261 M21.6667,536.0928 C23.6068,536.0928 25.1667,537.6526 25.1667,539.5928 C25.1667,541.5329 23.6068,543.0928 21.6667,543.0928 C19.7265,543.0928 18.1667,541.5329 18.1667,539.5928 C18.1667,537.6526 19.7265,536.0928 21.6667,536.0928 M24,537.2594 L20.5,538.4261 L19.3333,541.9261 L22.8333,540.7594 L24,537.2594 M21.6667,539.0094 C21.9933,539.0094 22.25,539.2661 22.25,539.5928 C22.25,539.9194 21.9933,540.1761 21.6667,540.1761 C21.34,540.1761 21.0833,539.9194 21.0833,539.5928 C21.0833,539.2661 21.34,539.0094 21.6667,539.0094 " fill="#000000" style="stroke: ; stroke-width: 0.0; stroke-dasharray: ;"/><text fill="#000000" font-family="sans-serif" font-size="14" lengthAdjust="spacingAndGlyphs" textLength="185" x="31.3333" y="543.6574">Gate sentinel / orchestrator</text><!--MD5=[181cff270489bda44ca31ebad832d943]
entity A_implementer--><rect fill="#E8541E" height="39.0679" style="stroke: #555555; stroke-width: 1.5;" width="191.3333" x="1196.67" y="362.6915"/><path d="M1214.0867,378.9261 C1212.4767,378.9261 1211.17,380.2328 1211.17,381.8428 C1211.17,382.2161 1211.261,382.5731 1211.3893,382.8998 L1207.999,386.2539 C1207.544,386.7089 1207.544,387.4393 1207.999,387.8943 C1208.2323,388.1276 1208.5345,388.2594 1208.8378,388.2594 C1209.1412,388.2594 1209.4433,388.1533 1209.6767,387.9316 L1213.0308,384.5774 C1213.3575,384.6941 1213.7145,384.7594 1214.0878,384.7594 C1215.6978,384.7594 1217.0045,383.4528 1217.0045,381.8428 C1217.0045,381.6561 1216.9672,381.4963 1216.931,381.3318 L1215.8367,382.4261 L1213.5033,382.4261 L1213.5033,380.0928 L1214.5977,378.9984 C1214.4343,378.9634 1214.2745,378.9261 1214.0867,378.9249 M1208.8367,386.5083 C1209.1633,386.5083 1209.42,386.7649 1209.42,387.0916 C1209.42,387.4183 1209.1633,387.6749 1208.8367,387.6749 C1208.51,387.6749 1208.2533,387.4183 1208.2533,387.0916 C1208.2533,386.7649 1208.51,386.5083 1208.8367,386.5083 " fill="#000000" style="stroke: ; stroke-width: 0.0; stroke-dasharray: ;"/><text fill="#000000" font-family="sans-serif" font-size="14" lengthAdjust="spacingAndGlyphs" textLength="156" x="1222.0033" y="387.6574">Analytical implementer</text><!--MD5=[71f63620eca0e672333d873ac415471c]
entity A_exerciser--><rect fill="#E8541E" height="39.0679" style="stroke: #555555; stroke-width: 1.5;" width="188.3333" x="569.33" y="436.6915"/><path d="M584.4133,452.9261 C582.1652,452.9261 580.33,454.7613 580.33,457.0094 C580.33,459.2576 582.1652,461.0928 584.4133,461.0928 C585.104,461.0928 585.7737,460.9236 586.3453,460.6191 A1.1667,1.1667 0 0 0 586.4912,460.7649 L587.6578,461.9316 A1.1853,1.1853 0 1 0 589.3355,460.2539 L588.1688,459.0873 A1.1667,1.1667 0 0 0 587.9868,458.9414 C588.2972,458.3663 588.4978,457.7059 588.4978,457.0094 C588.4978,454.7613 586.6627,452.9261 584.4145,452.9261 M584.4145,454.0928 C586.0327,454.0928 587.3312,455.3913 587.3312,457.0094 C587.3312,457.7806 587.05,458.4946 586.5658,459.0149 L586.5297,459.0511 A1.1667,1.1667 0 0 0 586.3838,459.1969 C585.8682,459.6601 585.167,459.9261 584.4145,459.9261 C582.7963,459.9261 581.4978,458.6276 581.4978,457.0094 C581.4978,455.3913 582.7963,454.0928 584.4145,454.0928 " fill="#000000" style="stroke: ; stroke-width: 0.0; stroke-dasharray: ;"/><text fill="#000000" font-family="sans-serif" font-size="14" lengthAdjust="spacingAndGlyphs" textLength="153" x="594.6633" y="461.6574">Independent exerciser</text><!--MD5=[f3027e33b13629511a37dae10e00893b]
entity S_metric_handbook--><rect fill="#C9E7CB" height="39.0679" style="stroke: #555555; stroke-width: 1.5;" width="269.3333" x="1657.5" y="172.6915"/><path d="M1668.5,188.9261 L1668.5,198.2594 L1676.6667,198.2594 L1676.6667,193.5928 L1672,193.5928 L1672,188.9261 L1668.5,188.9261 M1673.1667,188.9261 L1673.1667,192.4261 L1676.6667,192.4261 L1673.1667,188.9261 M1669.6667,191.2594 L1670.8333,191.2594 L1670.8333,192.4261 L1669.6667,192.4261 L1669.6667,191.2594 M1669.6667,193.5928 L1670.8333,193.5928 L1670.8333,194.7594 L1669.6667,194.7594 L1669.6667,193.5928 M1669.6667,195.9261 L1674.3333,195.9261 L1674.3333,197.0928 L1669.6667,197.0928 L1669.6667,195.9261 " fill="#000000" style="stroke: ; stroke-width: 0.0; stroke-dasharray: ;"/><text fill="#000000" font-family="sans-serif" font-size="14" lengthAdjust="spacingAndGlyphs" textLength="234" x="1682.8333" y="197.6574">Metric Handbook (binding clauses)</text><!--MD5=[988f4d94b01039bda40cd035da8c6cde]
entity S_warehouse_db--><rect fill="#F3CBD0" height="39.0679" style="stroke: #555555; stroke-width: 1.5;" width="310.3333" x="1637" y="272.6915"/><path d="M1652.0833,288.9261 L1651.5,290.3121 L1651.1722,290.4579 L1649.7862,289.8746 L1648.9473,290.7134 L1649.5307,292.0994 L1649.3848,292.4273 L1647.9988,293.0106 L1647.9988,294.1773 L1649.3848,294.7606 L1649.5307,295.1258 L1648.9473,296.4744 L1649.7862,297.3133 L1651.1722,296.7299 L1651.5,296.8758 L1652.0833,298.2618 L1653.25,298.2618 L1653.8333,296.8758 L1654.1612,296.7299 L1655.5472,297.3133 L1656.386,296.4744 L1655.8027,295.0884 L1655.9485,294.7606 L1657.3345,294.1773 L1657.3345,293.0106 L1655.9485,292.4273 L1655.8027,292.0994 L1656.3498,290.7134 L1655.5472,289.8746 L1654.1612,290.4579 L1653.8333,290.3121 L1653.25,288.9261 L1652.0833,288.9261 M1652.6667,291.8428 C1653.635,291.8428 1654.4167,292.6244 1654.4167,293.5928 C1654.4167,294.5611 1653.635,295.3428 1652.6667,295.3428 C1651.6983,295.3428 1650.9167,294.5611 1650.9167,293.5928 C1650.9167,292.6244 1651.6983,291.8428 1652.6667,291.8428 " fill="#000000" style="stroke: ; stroke-width: 0.0; stroke-dasharray: ;"/><text fill="#000000" font-family="sans-serif" font-size="14" lengthAdjust="spacingAndGlyphs" textLength="275" x="1662.3333" y="297.6574">Frozen SQLite warehouse (storage plane)</text><!--MD5=[2bf6ebf98b7cc1323f6d11332b099971]
entity S_history_ledger--><rect fill="#F3CBD0" height="39.0679" style="stroke: #555555; stroke-width: 1.5;" width="349.3333" x="1117.67" y="615.6915"/><path d="M1133.3367,633.0928 C1131.4105,633.0928 1129.8367,634.6666 1129.8367,636.5928 L1128.67,636.5928 L1130.42,638.9261 L1132.17,636.5928 L1131.0033,636.5928 C1131.0033,635.2989 1132.0428,634.2594 1133.3367,634.2594 L1133.3367,633.0928 M1136.2533,634.2594 L1134.5033,636.5928 L1135.67,636.5928 C1135.67,637.8866 1134.6305,638.9261 1133.3367,638.9261 L1133.3367,640.0928 C1135.2628,640.0928 1136.8367,638.5189 1136.8367,636.5928 L1138.0033,636.5928 L1136.2533,634.2594 " fill="#000000" style="stroke: ; stroke-width: 0.0; stroke-dasharray: ;"/><text fill="#000000" font-family="sans-serif" font-size="14" lengthAdjust="spacingAndGlyphs" textLength="314" x="1143.0033" y="640.6574">Certified baseline + signature (invariant plane)</text><!--MD5=[643221a31f4c044bb3f4c389501e507f]
entity S_impl_query--><rect fill="#E2E2E2" height="39.0679" style="stroke: #555555; stroke-width: 1.5;" width="267.3333" x="1658.5" y="490.6915"/><path d="M1669.5,506.9261 L1669.5,508.0928 L1678.8333,508.0928 L1678.8333,506.9261 L1669.5,506.9261 M1669.5,509.2594 L1669.5,516.1498 C1669.5,516.2198 1669.5397,516.2594 1669.6097,516.2594 L1678.7248,516.2594 C1678.7948,516.2594 1678.8345,516.2198 1678.8345,516.1498 L1678.8345,509.2594 L1675.3707,509.2594 L1675.3707,510.4623 L1673.0012,510.4623 L1673.0012,509.2594 L1669.5012,509.2594 " fill="#000000" style="stroke: ; stroke-width: 0.0; stroke-dasharray: ;"/><text fill="#000000" font-family="sans-serif" font-size="14" lengthAdjust="spacingAndGlyphs" textLength="232" x="1683.8333" y="515.6574">Implementer's metric query/result</text><!--MD5=[e7e592d5b1d99d3f6618c6109045dd72]
entity S_validation_matrix--><rect fill="#E2E2E2" height="39.0679" style="stroke: #555555; stroke-width: 1.5;" width="342.3333" x="1621" y="572.6915"/><path d="M1632,588.9261 L1632,590.0928 L1641.3333,590.0928 L1641.3333,588.9261 L1632,588.9261 M1632,591.2594 L1632,598.1498 C1632,598.2198 1632.0397,598.2594 1632.1097,598.2594 L1641.2248,598.2594 C1641.2948,598.2594 1641.3345,598.2198 1641.3345,598.1498 L1641.3345,591.2594 L1637.8707,591.2594 L1637.8707,592.4623 L1635.5012,592.4623 L1635.5012,591.2594 L1632.0012,591.2594 " fill="#000000" style="stroke: ; stroke-width: 0.0; stroke-dasharray: ;"/><text fill="#000000" font-family="sans-serif" font-size="14" lengthAdjust="spacingAndGlyphs" textLength="307" x="1646.3333" y="597.6574">Exerciser's positive/negative validation matrix</text><!--MD5=[2c143d72f5c629845dafeed7fbf3baf3]
link A_sentinel to S_metric_handbook--><path d="M123.18,518.4615 C138.1,472.6815 181.14,358.5315 256.33,296.2215 C369.75,202.2315 427.95,228.5615 569.33,187.2215 C953.21,74.9815 1069.19,82.9515 1467,124.2215 C1551.36,132.9715 1646.12,154.2115 1711.29,170.6415 " fill="none" id="A_sentinel-&gt;S_metric_handbook" style="stroke: #A80036; stroke-width: 1.0;"/><polygon fill="#A80036" points="1716.03,171.8515,1708.2857,165.7667,1711.1827,170.6254,1706.3239,173.5224,1716.03,171.8515" style="stroke: #A80036; stroke-width: 1.0;"/><text fill="#888888" font-family="sans-serif" font-size="13" lengthAdjust="spacingAndGlyphs" textLength="10" x="932.67" y="92.1385">U</text><!--MD5=[3435264e405b081144994243ff5e568a]
link A_sentinel to S_warehouse_db--><path d="M131.66,518.4415 C154.83,488.1315 203.05,430.1515 256.33,396.2215 C591.26,182.9915 721.75,189.0415 1117.67,159.2215 C1272.49,147.5615 1315.26,126.3515 1467,159.2215 C1540.48,175.1415 1551.48,200.5915 1621,229.2215 C1656.1,243.6715 1695.86,258.4815 1728.12,270.1015 " fill="none" id="A_sentinel-&gt;S_warehouse_db" style="stroke: #A80036; stroke-width: 1.0;"/><polygon fill="#A80036" points="1732.62,271.7215,1725.4923,264.9248,1727.9119,270.038,1722.7987,272.4577,1732.62,271.7215" style="stroke: #A80036; stroke-width: 1.0;"/><text fill="#888888" font-family="sans-serif" font-size="13" lengthAdjust="spacingAndGlyphs" textLength="7" x="934.17" y="157.7785">L</text><!--MD5=[a6a6b956874dbe1943a0fdb0af35ce9b]
link A_sentinel to S_history_ledger--><path d="M226.8,550.5415 C359.47,565.1315 589.71,589.4415 787.67,605.2215 C894.79,613.7615 1014.91,621.0015 1110.97,626.2315 " fill="none" id="A_sentinel-&gt;S_history_ledger" style="stroke: #A80036; stroke-width: 1.0;"/><polygon fill="#A80036" points="1115.75,626.4915,1106.9801,622.0095,1110.7574,626.2205,1106.5464,629.9978,1115.75,626.4915" style="stroke: #A80036; stroke-width: 1.0;"/><text fill="#888888" font-family="sans-serif" font-size="13" lengthAdjust="spacingAndGlyphs" textLength="7" x="660" y="582.0885">L</text><!--MD5=[b7476451023a478827ca45cb4003817a]
link A_sentinel to S_impl_query--><path d="M162.05,558.1715 C188.9,569.3015 223.98,582.4415 256.33,590.2215 C518.52,653.2615 1211.45,758.2915 1467,672.2215 C1548.46,644.7915 1543.75,592.9315 1621,555.2215 C1640.37,545.7715 1661.99,538.1015 1683.14,531.9715 " fill="none" id="A_sentinel-&gt;S_impl_query" style="stroke: #A80036; stroke-width: 1.0;"/><polygon fill="#A80036" points="1687.93,530.6115,1678.1774,529.2379,1683.1224,531.9851,1680.3752,536.9301,1687.93,530.6115" style="stroke: #A80036; stroke-width: 1.0;"/><text fill="#888888" font-family="sans-serif" font-size="13" lengthAdjust="spacingAndGlyphs" textLength="7" x="934.17" y="676.1085">L</text><!--MD5=[5c47ca7f4422083b851507e89fad0cc4]
link A_sentinel to S_validation_matrix--><path d="M134.71,558.1715 C159.12,584.4815 206.03,630.0515 256.33,652.2215 C749.33,869.5015 938.95,820.1015 1467,713.2215 C1569.67,692.4415 1682.87,643.8315 1744.63,614.9415 " fill="none" id="A_sentinel-&gt;S_validation_matrix" style="stroke: #A80036; stroke-width: 1.0;"/><polygon fill="#A80036" points="1749.07,612.8515,1739.2236,613.0719,1744.5475,614.9839,1742.6355,620.3079,1749.07,612.8515" style="stroke: #A80036; stroke-width: 1.0;"/><text fill="#888888" font-family="sans-serif" font-size="13" lengthAdjust="spacingAndGlyphs" textLength="7" x="934.17" y="781.5885">L</text><!--MD5=[d2f4488649f720e9321c878de68bd65e]
link A_implementer to S_metric_handbook--><path d="M1388.49,364.3315 C1414.79,357.3115 1442.75,347.8315 1467,335.2215 C1482.4,327.2115 1482.26,319.3815 1497,310.2215 C1566.72,266.8915 1655.08,233.9815 1716.68,214.0715 " fill="none" id="A_implementer-&gt;S_metric_handbook" style="stroke: #A80036; stroke-width: 1.0;"/><polygon fill="#A80036" points="1721.12,212.6515,1711.3278,211.5965,1716.3597,214.1811,1713.7751,219.213,1721.12,212.6515" style="stroke: #A80036; stroke-width: 1.0;"/><text fill="#888888" font-family="sans-serif" font-size="13" lengthAdjust="spacingAndGlyphs" textLength="10" x="1539" y="258.0685">U</text><!--MD5=[bbfe310f3b21106cdeaff290cb438cfa]
link A_implementer to S_warehouse_db--><path d="M1388.47,369.5915 C1447.05,361.3915 1523.58,349.8815 1591,337.2215 C1627.73,330.3215 1667.98,321.5215 1702.69,313.5315 " fill="none" id="A_implementer-&gt;S_warehouse_db" style="stroke: #A80036; stroke-width: 1.0;"/><polygon fill="#A80036" points="1707.19,312.5015,1697.5194,310.636,1702.319,313.63,1699.325,318.4295,1707.19,312.5015" style="stroke: #A80036; stroke-width: 1.0;"/><text fill="#888888" font-family="sans-serif" font-size="13" lengthAdjust="spacingAndGlyphs" textLength="7" x="1540.5" y="333.1185">L</text><!--MD5=[8a4da4d9cbaa0a08ff219dbcce272ad6]
link A_implementer to S_impl_query--><path d="M1388.26,393.1115 C1447.26,401.1215 1524.32,413.8415 1591,432.2215 C1643.78,446.7715 1701.84,470.2815 1741.77,487.6915 " fill="none" id="A_implementer-&gt;S_impl_query" style="stroke: #A80036; stroke-width: 1.0; stroke-dasharray: 7.0,7.0;"/><polygon fill="#A80036" points="1746.14,489.6015,1739.5086,482.3198,1741.5622,487.5907,1736.2912,489.6443,1746.14,489.6015" style="stroke: #A80036; stroke-width: 1.0;"/><text fill="#888888" font-family="sans-serif" font-size="13" lengthAdjust="spacingAndGlyphs" textLength="56" x="1516" y="407.6085">produces</text><!--MD5=[c80f7db739ed6b10a00de50464de4af6]
link A_exerciser to S_metric_handbook--><path d="M670.89,436.2015 C684.81,396.2415 722.03,307.0915 787.67,268.2215 C929.88,183.9915 1410,182.7515 1650.88,187.8415 " fill="none" id="A_exerciser-&gt;S_metric_handbook" style="stroke: #A80036; stroke-width: 1.0;"/><polygon fill="#A80036" points="1655.72,187.9415,1646.8138,183.7369,1650.7213,187.8273,1646.6309,191.7348,1655.72,187.9415" style="stroke: #A80036; stroke-width: 1.0;"/><text fill="#888888" font-family="sans-serif" font-size="13" lengthAdjust="spacingAndGlyphs" textLength="10" x="1287.33" y="182.1085">U</text><!--MD5=[706f386672559db734d30af9513901f4]
link A_exerciser to S_warehouse_db--><path d="M674.89,436.4015 C692.91,404.4315 733.29,342.5115 787.67,317.2215 C932.65,249.7915 1385.37,266.1815 1630.18,280.8815 " fill="none" id="A_exerciser-&gt;S_warehouse_db" style="stroke: #A80036; stroke-width: 1.0;"/><polygon fill="#A80036" points="1635.13,281.1715,1626.3865,276.6382,1630.139,280.8712,1625.906,284.6237,1635.13,281.1715" style="stroke: #A80036; stroke-width: 1.0;"/><text fill="#888888" font-family="sans-serif" font-size="13" lengthAdjust="spacingAndGlyphs" textLength="7" x="1288.83" y="263.6785">L</text><!--MD5=[82913d456be10e2ac4c6873d0a34ee3e]
link A_exerciser to S_history_ledger--><path d="M678.99,476.2515 C699.72,503.1715 740.57,550.2015 787.67,572.2215 C909.31,629.1115 954.43,591.4015 1087.67,608.2215 C1103.21,610.1815 1119.41,612.2715 1135.59,614.3715 " fill="none" id="A_exerciser-&gt;S_history_ledger" style="stroke: #A80036; stroke-width: 1.0;"/><polygon fill="#A80036" points="1140.53,615.0215,1132.1192,609.8973,1135.5715,614.3785,1131.0903,617.8308,1140.53,615.0215" style="stroke: #A80036; stroke-width: 1.0;"/><text fill="#888888" font-family="sans-serif" font-size="13" lengthAdjust="spacingAndGlyphs" textLength="7" x="934.17" y="568.1185">L</text><!--MD5=[4f7aee87684caca9a5c5e4c59c63c8e6]
link A_exerciser to S_validation_matrix--><path d="M746.73,476.2515 C760.35,479.1915 774.37,481.9715 787.67,484.2215 C1075.37,532.8915 1413.39,563.9415 1614.54,579.7015 " fill="none" id="A_exerciser-&gt;S_validation_matrix" style="stroke: #A80036; stroke-width: 1.0; stroke-dasharray: 7.0,7.0;"/><polygon fill="#A80036" points="1619.23,580.0715,1610.5653,575.3892,1614.2449,579.6858,1609.9483,583.3654,1619.23,580.0715" style="stroke: #A80036; stroke-width: 1.0;"/><text fill="#888888" font-family="sans-serif" font-size="13" lengthAdjust="spacingAndGlyphs" textLength="56" x="1264.33" y="527.6485">produces</text><!--MD5=[f185f4c1e2af1312d45b8d38f975621b]
link A_implementer to S_validation_matrix--><path d="M1388.36,398.4615 C1414.94,405.4815 1443.08,415.3715 1467,429.2215 C1483.32,438.6715 1482.59,447.0515 1497,459.2215 C1548.63,502.8215 1559.8,518.5715 1621,547.2215 C1641.11,556.6415 1663.52,564.3315 1685.29,570.5315 " fill="none" id="A_implementer-&gt;S_validation_matrix" style="stroke: #FF0000; stroke-width: 1.0; stroke-dasharray: 7.0,7.0;"/><polygon fill="#FF0000" points="1689.96,571.8315,1682.3656,565.5605,1685.1438,570.4881,1680.2162,573.2664,1689.96,571.8315" style="stroke: #FF0000; stroke-width: 1.0;"/><text fill="#888888" font-family="sans-serif" font-size="13" lengthAdjust="spacingAndGlyphs" textLength="92" x="1498" y="455.1185">✗ must not see</text><!--MD5=[294111e32c325a35de4d48005eae299c]
link A_exerciser to S_impl_query--><path d="M758.14,460.7115 C956.28,470.2115 1418.85,492.3815 1651.83,503.5415 " fill="none" id="A_exerciser-&gt;S_impl_query" style="stroke: #FF0000; stroke-width: 1.0; stroke-dasharray: 7.0,7.0;"/><polygon fill="#FF0000" points="1656.81,503.7815,1648.0147,499.3496,1651.8159,503.5389,1647.6265,507.3402,1656.81,503.7815" style="stroke: #FF0000; stroke-width: 1.0;"/><text fill="#888888" font-family="sans-serif" font-size="13" lengthAdjust="spacingAndGlyphs" textLength="92" x="1246.33" y="474.6385">✗ must not see</text><!--MD5=[11131312ba3848239124113e0e091658]
link A_exerciser to A_implementer--><path d="M757.8,436.2315 C767.85,434.3915 777.96,432.6715 787.67,431.2215 C926.39,410.4515 1087.98,396.5315 1189.96,388.9915 " fill="none" id="A_exerciser-&gt;A_implementer" style="stroke: #0000FF; stroke-width: 1.0;"/><polygon fill="#0000FF" points="1194.78,388.6415,1185.5077,385.3212,1189.7938,389.013,1186.102,393.2991,1194.78,388.6415" style="stroke: #0000FF; stroke-width: 1.0;"/><text fill="#888888" font-family="sans-serif" font-size="13" lengthAdjust="spacingAndGlyphs" textLength="236" x="819.67" y="340.2185">catches: a coherent-and-wrong query: a</text><text fill="#888888" font-family="sans-serif" font-size="13" lengthAdjust="spacingAndGlyphs" textLength="265" x="805.17" y="357.9245">consistent number that violates a handbook</text><text fill="#888888" font-family="sans-serif" font-size="13" lengthAdjust="spacingAndGlyphs" textLength="298" x="788.67" y="375.6306">clause — via independently recomputed expected</text><text fill="#888888" font-family="sans-serif" font-size="13" lengthAdjust="spacingAndGlyphs" textLength="174" x="850.67" y="393.3366">value; Gate B value mismatch</text><!--MD5=[7b2ba98715a0d64db676df08bab5052e]
link A_sentinel to A_exerciser--><path d="M226.54,521.7715 C324.81,507.0015 467.89,485.4815 563,471.1815 " fill="none" id="A_sentinel-&gt;A_exerciser" style="stroke: #0000FF; stroke-width: 1.0;"/><polygon fill="#0000FF" points="567.7,470.4815,558.2055,467.8635,562.7555,471.2246,559.3944,475.7747,567.7,470.4815" style="stroke: #0000FF; stroke-width: 1.0;"/><text fill="#888888" font-family="sans-serif" font-size="13" lengthAdjust="spacingAndGlyphs" textLength="253" x="271.33" y="418.9385">catches: a vacuous negative mutation that</text><text fill="#888888" font-family="sans-serif" font-size="13" lengthAdjust="spacingAndGlyphs" textLength="258" x="268.83" y="436.6445">fails to diverge from the correct value — via</text><text fill="#888888" font-family="sans-serif" font-size="13" lengthAdjust="spacingAndGlyphs" textLength="281" x="257.33" y="454.3506">Gate B negatives require each named mutation</text><text fill="#888888" font-family="sans-serif" font-size="13" lengthAdjust="spacingAndGlyphs" textLength="254" x="270.83" y="472.0566">to actually diverge; Gate C clause-coverage</text><rect fill="#DDDDDD" height="166.5433" rx="5" ry="5" style="stroke: #000000; stroke-width: 1.0;" width="357.3333" x="1614.6667" y="822.4615"/><text fill="#000000" font-family="sans-serif" font-size="14" font-weight="bold" lengthAdjust="spacingAndGlyphs" textLength="46" x="1624.6667" y="844.4274">Colour</text><text fill="#000000" font-family="sans-serif" font-size="14" font-weight="bold" lengthAdjust="spacingAndGlyphs" textLength="0" x="1682.6667" y="844.4274"/><text fill="#000000" font-family="sans-serif" font-size="14" font-weight="bold" lengthAdjust="spacingAndGlyphs" textLength="60" x="1698" y="844.4274">Meaning</text><rect fill="#E8541E" height="19.0679" style="stroke: none; stroke-width: 1.0;" width="54" x="1620.6667" y="848.5294"/><text fill="#000000" font-family="sans-serif" font-size="14" lengthAdjust="spacingAndGlyphs" textLength="0" x="1624.6667" y="863.4954"/><text fill="#000000" font-family="sans-serif" font-size="14" lengthAdjust="spacingAndGlyphs" textLength="0" x="1678.6667" y="863.4954"/><path d="M1684.3333,854.764 C1681.7632,854.764 1679.6667,856.8605 1679.6667,859.4307 C1679.6667,862.0008 1681.7632,864.0973 1684.3333,864.0973 C1686.9035,864.0973 1689,862.0008 1689,859.4307 C1689,856.8605 1686.9035,854.764 1684.3333,854.764 M1684.3333,855.9307 C1686.2735,855.9307 1687.8333,857.4905 1687.8333,859.4307 C1687.8333,861.3708 1686.2735,862.9307 1684.3333,862.9307 C1682.3932,862.9307 1680.8333,861.3708 1680.8333,859.4307 C1680.8333,857.4905 1682.3932,855.9307 1684.3333,855.9307 M1686.6667,857.0973 L1683.1667,858.264 L1682,861.764 L1685.5,860.5973 L1686.6667,857.0973 M1684.3333,858.8473 C1684.66,858.8473 1684.9167,859.104 1684.9167,859.4307 C1684.9167,859.7573 1684.66,860.014 1684.3333,860.014 C1684.0067,860.014 1683.75,859.7573 1683.75,859.4307 C1683.75,859.104 1684.0067,858.8473 1684.3333,858.8473 " fill="#000000" style="stroke: ; stroke-width: 0.0; stroke-dasharray: ;"/><text fill="#000000" font-family="sans-serif" font-size="14" lengthAdjust="spacingAndGlyphs" textLength="0" x="1694" y="863.4954"/><text fill="#000000" font-family="sans-serif" font-size="14" lengthAdjust="spacingAndGlyphs" textLength="80" x="1698" y="863.4954">Coordinator</text><rect fill="#E8541E" height="19.0679" style="stroke: none; stroke-width: 1.0;" width="54" x="1620.6667" y="867.5973"/><text fill="#000000" font-family="sans-serif" font-size="14" lengthAdjust="spacingAndGlyphs" textLength="0" x="1624.6667" y="882.5633"/><text fill="#000000" font-family="sans-serif" font-size="14" lengthAdjust="spacingAndGlyphs" textLength="0" x="1678.6667" y="882.5633"/><path d="M1686.0833,873.8319 C1684.4733,873.8319 1683.1667,875.1386 1683.1667,876.7486 C1683.1667,877.1219 1683.2577,877.4789 1683.386,877.8056 L1679.9957,881.1598 C1679.5407,881.6148 1679.5407,882.3451 1679.9957,882.8001 C1680.229,883.0334 1680.5312,883.1653 1680.8345,883.1653 C1681.1378,883.1653 1681.44,883.0591 1681.6733,882.8374 L1685.0275,879.4833 C1685.3542,879.5999 1685.7112,879.6653 1686.0845,879.6653 C1687.6945,879.6653 1689.0012,878.3586 1689.0012,876.7486 C1689.0012,876.5619 1688.9638,876.4021 1688.9277,876.2376 L1687.8333,877.3319 L1685.5,877.3319 L1685.5,874.9986 L1686.5943,873.9043 C1686.431,873.8693 1686.2712,873.8319 1686.0833,873.8308 M1680.8333,881.4141 C1681.16,881.4141 1681.4167,881.6708 1681.4167,881.9974 C1681.4167,882.3241 1681.16,882.5808 1680.8333,882.5808 C1680.5067,882.5808 1680.25,882.3241 1680.25,881.9974 C1680.25,881.6708 1680.5067,881.4141 1680.8333,881.4141 " fill="#000000" style="stroke: ; stroke-width: 0.0; stroke-dasharray: ;"/><text fill="#000000" font-family="sans-serif" font-size="14" lengthAdjust="spacingAndGlyphs" textLength="0" x="1694" y="882.5633"/><text fill="#000000" font-family="sans-serif" font-size="14" lengthAdjust="spacingAndGlyphs" textLength="88" x="1698" y="882.5633">Implementer</text><rect fill="#E8541E" height="19.0679" style="stroke: none; stroke-width: 1.0;" width="54" x="1620.6667" y="886.6653"/><text fill="#000000" font-family="sans-serif" font-size="14" lengthAdjust="spacingAndGlyphs" textLength="0" x="1624.6667" y="901.6312"/><text fill="#000000" font-family="sans-serif" font-size="14" lengthAdjust="spacingAndGlyphs" textLength="0" x="1678.6667" y="901.6312"/><path d="M1683.75,892.8998 C1681.5018,892.8998 1679.6667,894.735 1679.6667,896.9832 C1679.6667,899.2313 1681.5018,901.0665 1683.75,901.0665 C1684.4407,901.0665 1685.1103,900.8973 1685.682,900.5928 A1.1667,1.1667 0 0 0 1685.8278,900.7387 L1686.9945,901.9053 A1.1853,1.1853 0 1 0 1688.6722,900.2277 L1687.5055,899.061 A1.1667,1.1667 0 0 0 1687.3235,898.9152 C1687.6338,898.34 1687.8345,897.6797 1687.8345,896.9832 C1687.8345,894.735 1685.9993,892.8998 1683.7512,892.8998 M1683.7512,894.0665 C1685.3693,894.0665 1686.6678,895.365 1686.6678,896.9832 C1686.6678,897.7543 1686.3867,898.4683 1685.9025,898.9887 L1685.8663,899.0248 A1.1667,1.1667 0 0 0 1685.7205,899.1707 C1685.2048,899.6338 1684.5037,899.8998 1683.7512,899.8998 C1682.133,899.8998 1680.8345,898.6013 1680.8345,896.9832 C1680.8345,895.365 1682.133,894.0665 1683.7512,894.0665 " fill="#000000" style="stroke: ; stroke-width: 0.0; stroke-dasharray: ;"/><text fill="#000000" font-family="sans-serif" font-size="14" lengthAdjust="spacingAndGlyphs" textLength="0" x="1694" y="901.6312"/><text fill="#000000" font-family="sans-serif" font-size="14" lengthAdjust="spacingAndGlyphs" textLength="61" x="1698" y="901.6312">Exerciser</text><rect fill="#C9E7CB" height="19.0679" style="stroke: none; stroke-width: 1.0;" width="54" x="1620.6667" y="905.7332"/><text fill="#000000" font-family="sans-serif" font-size="14" lengthAdjust="spacingAndGlyphs" textLength="0" x="1624.6667" y="920.6991"/><text fill="#000000" font-family="sans-serif" font-size="14" lengthAdjust="spacingAndGlyphs" textLength="0" x="1678.6667" y="920.6991"/><path d="M1679.6667,911.9678 L1679.6667,921.3011 L1687.8333,921.3011 L1687.8333,916.6344 L1683.1667,916.6344 L1683.1667,911.9678 L1679.6667,911.9678 M1684.3333,911.9678 L1684.3333,915.4678 L1687.8333,915.4678 L1684.3333,911.9678 M1680.8333,914.3011 L1682,914.3011 L1682,915.4678 L1680.8333,915.4678 L1680.8333,914.3011 M1680.8333,916.6344 L1682,916.6344 L1682,917.8011 L1680.8333,917.8011 L1680.8333,916.6344 M1680.8333,918.9678 L1685.5,918.9678 L1685.5,920.1344 L1680.8333,920.1344 L1680.8333,918.9678 " fill="#000000" style="stroke: ; stroke-width: 0.0; stroke-dasharray: ;"/><text fill="#000000" font-family="sans-serif" font-size="14" lengthAdjust="spacingAndGlyphs" textLength="0" x="1694" y="920.6991"/><text fill="#000000" font-family="sans-serif" font-size="14" lengthAdjust="spacingAndGlyphs" textLength="251" x="1698" y="920.6991">Soft authority — transcribed/external</text><rect fill="#F3CBD0" height="19.0679" style="stroke: none; stroke-width: 1.0;" width="54" x="1620.6667" y="924.8011"/><text fill="#000000" font-family="sans-serif" font-size="14" lengthAdjust="spacingAndGlyphs" textLength="0" x="1624.6667" y="939.767"/><text fill="#000000" font-family="sans-serif" font-size="14" lengthAdjust="spacingAndGlyphs" textLength="0" x="1678.6667" y="939.767"/><path d="M1683.75,931.0357 L1683.1667,932.4217 L1682.8388,932.5675 L1681.4528,931.9842 L1680.614,932.823 L1681.1973,934.209 L1681.0515,934.5368 L1679.6655,935.1202 L1679.6655,936.2868 L1681.0515,936.8702 L1681.1973,937.2353 L1680.614,938.584 L1681.4528,939.4228 L1682.8388,938.8395 L1683.1667,938.9853 L1683.75,940.3713 L1684.9167,940.3713 L1685.5,938.9853 L1685.8278,938.8395 L1687.2138,939.4228 L1688.0527,938.584 L1687.4693,937.198 L1687.6152,936.8702 L1689.0012,936.2868 L1689.0012,935.1202 L1687.6152,934.5368 L1687.4693,934.209 L1688.0165,932.823 L1687.2138,931.9842 L1685.8278,932.5675 L1685.5,932.4217 L1684.9167,931.0357 L1683.75,931.0357 M1684.3333,933.9523 C1685.3017,933.9523 1686.0833,934.734 1686.0833,935.7023 C1686.0833,936.6707 1685.3017,937.4523 1684.3333,937.4523 C1683.365,937.4523 1682.5833,936.6707 1682.5833,935.7023 C1682.5833,934.734 1683.365,933.9523 1684.3333,933.9523 " fill="#000000" style="stroke: ; stroke-width: 0.0; stroke-dasharray: ;"/><text fill="#000000" font-family="sans-serif" font-size="14" lengthAdjust="spacingAndGlyphs" textLength="0" x="1694" y="939.767"/><text fill="#000000" font-family="sans-serif" font-size="14" lengthAdjust="spacingAndGlyphs" textLength="253" x="1698" y="939.767">Executable oracle — point/recompute</text><rect fill="#F3CBD0" height="19.0679" style="stroke: none; stroke-width: 1.0;" width="54" x="1620.6667" y="943.869"/><text fill="#000000" font-family="sans-serif" font-size="14" lengthAdjust="spacingAndGlyphs" textLength="0" x="1624.6667" y="958.8349"/><text fill="#000000" font-family="sans-serif" font-size="14" lengthAdjust="spacingAndGlyphs" textLength="0" x="1678.6667" y="958.8349"/><path d="M1684.3333,951.2703 C1682.4072,951.2703 1680.8333,952.8441 1680.8333,954.7703 L1679.6667,954.7703 L1681.4167,957.1036 L1683.1667,954.7703 L1682,954.7703 C1682,953.4764 1683.0395,952.4369 1684.3333,952.4369 L1684.3333,951.2703 M1687.25,952.4369 L1685.5,954.7703 L1686.6667,954.7703 C1686.6667,956.0641 1685.6272,957.1036 1684.3333,957.1036 L1684.3333,958.2703 C1686.2595,958.2703 1687.8333,956.6964 1687.8333,954.7703 L1689,954.7703 L1687.25,952.4369 " fill="#000000" style="stroke: ; stroke-width: 0.0; stroke-dasharray: ;"/><text fill="#000000" font-family="sans-serif" font-size="14" lengthAdjust="spacingAndGlyphs" textLength="0" x="1694" y="958.8349"/><text fill="#000000" font-family="sans-serif" font-size="14" lengthAdjust="spacingAndGlyphs" textLength="264" x="1698" y="958.8349">Executable oracle — standing invariant</text><rect fill="#E2E2E2" height="19.0679" style="stroke: none; stroke-width: 1.0;" width="54" x="1620.6667" y="962.9369"/><text fill="#000000" font-family="sans-serif" font-size="14" lengthAdjust="spacingAndGlyphs" textLength="0" x="1624.6667" y="977.9029"/><text fill="#000000" font-family="sans-serif" font-size="14" lengthAdjust="spacingAndGlyphs" textLength="0" x="1678.6667" y="977.9029"/><path d="M1679.6667,969.1715 L1679.6667,970.3382 L1689,970.3382 L1689,969.1715 L1679.6667,969.1715 M1679.6667,971.5048 L1679.6667,978.3952 C1679.6667,978.4652 1679.7063,978.5048 1679.7763,978.5048 L1688.8915,978.5048 C1688.9615,978.5048 1689.0012,978.4652 1689.0012,978.3952 L1689.0012,971.5048 L1685.5373,971.5048 L1685.5373,972.7077 L1683.1678,972.7077 L1683.1678,971.5048 L1679.6678,971.5048 " fill="#000000" style="stroke: ; stroke-width: 0.0; stroke-dasharray: ;"/><text fill="#000000" font-family="sans-serif" font-size="14" lengthAdjust="spacingAndGlyphs" textLength="0" x="1694" y="977.9029"/><text fill="#000000" font-family="sans-serif" font-size="14" lengthAdjust="spacingAndGlyphs" textLength="49" x="1698" y="977.9029">Artifact</text><line style="stroke: #000000; stroke-width: 1.0;" x1="1620.6667" x2="1966" y1="829.4615" y2="829.4615"/><line style="stroke: #000000; stroke-width: 1.0;" x1="1620.6667" x2="1966" y1="848.5294" y2="848.5294"/><line style="stroke: #000000; stroke-width: 1.0;" x1="1620.6667" x2="1966" y1="867.5973" y2="867.5973"/><line style="stroke: #000000; stroke-width: 1.0;" x1="1620.6667" x2="1966" y1="886.6653" y2="886.6653"/><line style="stroke: #000000; stroke-width: 1.0;" x1="1620.6667" x2="1966" y1="905.7332" y2="905.7332"/><line style="stroke: #000000; stroke-width: 1.0;" x1="1620.6667" x2="1966" y1="924.8011" y2="924.8011"/><line style="stroke: #000000; stroke-width: 1.0;" x1="1620.6667" x2="1966" y1="943.869" y2="943.869"/><line style="stroke: #000000; stroke-width: 1.0;" x1="1620.6667" x2="1966" y1="962.9369" y2="962.9369"/><line style="stroke: #000000; stroke-width: 1.0;" x1="1620.6667" x2="1966" y1="982.0048" y2="982.0048"/><line style="stroke: #000000; stroke-width: 1.0;" x1="1620.6667" x2="1620.6667" y1="829.4615" y2="982.0048"/><line style="stroke: #000000; stroke-width: 1.0;" x1="1674.6667" x2="1674.6667" y1="829.4615" y2="982.0048"/><line style="stroke: #000000; stroke-width: 1.0;" x1="1694" x2="1694" y1="829.4615" y2="982.0048"/><line style="stroke: #000000; stroke-width: 1.0;" x1="1966" x2="1966" y1="829.4615" y2="982.0048"/><!--MD5=[e4741020bbc870d37e3b4f4a39ac6db4]
@startuml instance-a
title instance-a (base)\n<size:11><i>guards against: a query that returns an internally consistent, numerically valid</i></size>\n<size:11><i>figure that violates a handbook clause (gross instead of net; login-only users</i></size>\n<size:11><i>counted as active).</i></size>
left to right direction
skinparam rectangleBorderColor #555
skinparam shadowing false
skinparam ArrowFontColor #888888
skinparam TitleFontColor #888888

rectangle "<&compass> Gate sentinel / orchestrator" as A_sentinel #E8541E
rectangle "<&wrench> Analytical implementer" as A_implementer #E8541E
rectangle "<&magnifying-glass> Independent exerciser" as A_exerciser #E8541E

rectangle "<&document> Metric Handbook (binding clauses)" as S_metric_handbook #C9E7CB
rectangle "<&cog> Frozen SQLite warehouse (storage plane)" as S_warehouse_db #F3CBD0
rectangle "<&loop-circular> Certified baseline + signature (invariant plane)" as S_history_ledger #F3CBD0
rectangle "<&box> Implementer's metric query/result" as S_impl_query #E2E2E2
rectangle "<&box> Exerciser's positive/negative validation matrix" as S_validation_matrix #E2E2E2

A_sentinel - -> S_metric_handbook : U
A_sentinel - -> S_warehouse_db : L
A_sentinel - -> S_history_ledger : L
A_sentinel - -> S_impl_query : L
A_sentinel - -> S_validation_matrix : L
A_implementer - -> S_metric_handbook : U
A_implementer - -> S_warehouse_db : L
A_implementer ..> S_impl_query : produces
A_exerciser - -> S_metric_handbook : U
A_exerciser - -> S_warehouse_db : L
A_exerciser - -> S_history_ledger : L
A_exerciser ..> S_validation_matrix : produces

A_implementer -[#red,dashed]-> S_validation_matrix : ✗ must not see
A_exerciser -[#red,dashed]-> S_impl_query : ✗ must not see

A_exerciser -[#blue]-> A_implementer : catches: a coherent-and-wrong query: a\nconsistent number that violates a handbook\nclause — via independently recomputed expected\nvalue; Gate B value mismatch
A_sentinel -[#blue]-> A_exerciser : catches: a vacuous negative mutation that\nfails to diverge from the correct value — via\nGate B negatives require each named mutation\nto actually diverge; Gate C clause-coverage

legend right
|= Colour |=  |= Meaning |
|<#E8541E>| <&compass> | Coordinator |
|<#E8541E>| <&wrench> | Implementer |
|<#E8541E>| <&magnifying-glass> | Exerciser |
|<#C9E7CB>| <&document> | Soft authority — transcribed/external |
|<#F3CBD0>| <&cog> | Executable oracle — point/recompute |
|<#F3CBD0>| <&loop-circular> | Executable oracle — standing invariant |
|<#E2E2E2>| <&box> | Artifact |
endlegend
@enduml

PlantUML version 1.2020.02(Sun Mar 01 11:22:07 CET 2020)
(GPL source distribution)
Java Runtime: OpenJDK Runtime Environment
JVM: OpenJDK 64-Bit Server VM
Java Version: 25.0.3+9-2-26.04.2-Ubuntu
Operating System: Linux
Default Encoding: UTF-8
Language: en
Country: US
--></g></svg>