<?xml version="1.0" encoding="UTF-8" standalone="no"?><svg xmlns="http://www.w3.org/2000/svg" xmlns:xlink="http://www.w3.org/1999/xlink" contentScriptType="application/ecmascript" contentStyleType="text/css" height="1313px" preserveAspectRatio="none" style="width:1901px;height:1313px;" version="1.1" viewBox="0 0 1901 1313" width="1901px" zoomAndPan="magnify"><defs/><g><text fill="#888888" font-family="sans-serif" font-size="18" lengthAdjust="spacingAndGlyphs" textLength="142" x="878.5" y="19.2419">instance-c (base)</text><text fill="#888888" font-family="sans-serif" font-size="11" font-style="italic" lengthAdjust="spacingAndGlyphs" textLength="395" x="752" y="36.2748">guards against: blending — a clean schema masking broken runtime behaviour (id</text><text fill="#888888" font-family="sans-serif" font-size="11" font-style="italic" lengthAdjust="spacingAndGlyphs" textLength="318" x="790.5" y="51.2566">leaks, tracebacks, missing auth), or a clean runtime escaping stale</text><text fill="#888888" font-family="sans-serif" font-size="11" font-style="italic" lengthAdjust="spacingAndGlyphs" textLength="76" x="911.5" y="66.2385">documentation.</text><!--MD5=[16666313b46a364dfa6fcce22871d203]
entity A_sentinel--><rect fill="#E8541E" height="39.0679" style="stroke: #555555; stroke-width: 1.5;" width="251.3333" x="6" y="690.8915"/><path d="M21.6667,707.1261 C19.0965,707.1261 17,709.2226 17,711.7928 C17,714.3629 19.0965,716.4594 21.6667,716.4594 C24.2368,716.4594 26.3333,714.3629 26.3333,711.7928 C26.3333,709.2226 24.2368,707.1261 21.6667,707.1261 M21.6667,708.2928 C23.6068,708.2928 25.1667,709.8526 25.1667,711.7928 C25.1667,713.7329 23.6068,715.2928 21.6667,715.2928 C19.7265,715.2928 18.1667,713.7329 18.1667,711.7928 C18.1667,709.8526 19.7265,708.2928 21.6667,708.2928 M24,709.4594 L20.5,710.6261 L19.3333,714.1261 L22.8333,712.9594 L24,709.4594 M21.6667,711.2094 C21.9933,711.2094 22.25,711.4661 22.25,711.7928 C22.25,712.1194 21.9933,712.3761 21.6667,712.3761 C21.34,712.3761 21.0833,712.1194 21.0833,711.7928 C21.0833,711.4661 21.34,711.2094 21.6667,711.2094 " fill="#000000" style="stroke: ; stroke-width: 0.0; stroke-dasharray: ;"/><text fill="#000000" font-family="sans-serif" font-size="14" lengthAdjust="spacingAndGlyphs" textLength="216" x="31.3333" y="715.8574">Gate sentinel / no-blend referee</text><!--MD5=[181cff270489bda44ca31ebad832d943]
entity A_implementer--><rect fill="#E8541E" height="39.0679" style="stroke: #555555; stroke-width: 1.5;" width="148.3333" x="1254.67" y="514.8915"/><path d="M1272.0867,531.1261 C1270.4767,531.1261 1269.17,532.4328 1269.17,534.0428 C1269.17,534.4161 1269.261,534.7731 1269.3893,535.0998 L1265.999,538.4539 C1265.544,538.9089 1265.544,539.6393 1265.999,540.0943 C1266.2323,540.3276 1266.5345,540.4594 1266.8378,540.4594 C1267.1412,540.4594 1267.4433,540.3533 1267.6767,540.1316 L1271.0308,536.7774 C1271.3575,536.8941 1271.7145,536.9594 1272.0878,536.9594 C1273.6978,536.9594 1275.0045,535.6528 1275.0045,534.0428 C1275.0045,533.8561 1274.9672,533.6963 1274.931,533.5318 L1273.8367,534.6261 L1271.5033,534.6261 L1271.5033,532.2928 L1272.5977,531.1984 C1272.4343,531.1634 1272.2745,531.1261 1272.0867,531.1249 M1266.8367,538.7083 C1267.1633,538.7083 1267.42,538.9649 1267.42,539.2916 C1267.42,539.6183 1267.1633,539.8749 1266.8367,539.8749 C1266.51,539.8749 1266.2533,539.6183 1266.2533,539.2916 C1266.2533,538.9649 1266.51,538.7083 1266.8367,538.7083 " fill="#000000" style="stroke: ; stroke-width: 0.0; stroke-dasharray: ;"/><text fill="#000000" font-family="sans-serif" font-size="14" lengthAdjust="spacingAndGlyphs" textLength="113" x="1280.0033" y="539.8574">API implementer</text><!--MD5=[71f63620eca0e672333d873ac415471c]
entity A_exerciser--><rect fill="#E8541E" height="39.0679" style="stroke: #555555; stroke-width: 1.5;" width="190.3333" x="658.33" y="557.8915"/><path d="M673.4133,574.1261 C671.1652,574.1261 669.33,575.9613 669.33,578.2094 C669.33,580.4576 671.1652,582.2928 673.4133,582.2928 C674.104,582.2928 674.7737,582.1236 675.3453,581.8191 A1.1667,1.1667 0 0 0 675.4912,581.9649 L676.6578,583.1316 A1.1853,1.1853 0 1 0 678.3355,581.4539 L677.1688,580.2873 A1.1667,1.1667 0 0 0 676.9868,580.1414 C677.2972,579.5663 677.4978,578.9059 677.4978,578.2094 C677.4978,575.9613 675.6627,574.1261 673.4145,574.1261 M673.4145,575.2928 C675.0327,575.2928 676.3312,576.5913 676.3312,578.2094 C676.3312,578.9806 676.05,579.6946 675.5658,580.2149 L675.5297,580.2511 A1.1667,1.1667 0 0 0 675.3838,580.3969 C674.8682,580.8601 674.167,581.1261 673.4145,581.1261 C671.7963,581.1261 670.4978,579.8276 670.4978,578.2094 C670.4978,576.5913 671.7963,575.2928 673.4145,575.2928 " fill="#000000" style="stroke: ; stroke-width: 0.0; stroke-dasharray: ;"/><text fill="#000000" font-family="sans-serif" font-size="14" lengthAdjust="spacingAndGlyphs" textLength="155" x="683.6633" y="582.8574">Conformance exerciser</text><!--MD5=[7218b540e24071e09f4da126b789d2a2]
entity S_api_policy--><rect fill="#C9E7CB" height="39.0679" style="stroke: #555555; stroke-width: 1.5;" width="301.3333" x="1568.5" y="160.8915"/><path d="M1579.5,177.1261 L1579.5,186.4594 L1587.6667,186.4594 L1587.6667,181.7928 L1583,181.7928 L1583,177.1261 L1579.5,177.1261 M1584.1667,177.1261 L1584.1667,180.6261 L1587.6667,180.6261 L1584.1667,177.1261 M1580.6667,179.4594 L1581.8333,179.4594 L1581.8333,180.6261 L1580.6667,180.6261 L1580.6667,179.4594 M1580.6667,181.7928 L1581.8333,181.7928 L1581.8333,182.9594 L1580.6667,182.9594 L1580.6667,181.7928 M1580.6667,184.1261 L1585.3333,184.1261 L1585.3333,185.2928 L1580.6667,185.2928 L1580.6667,184.1261 " fill="#000000" style="stroke: ; stroke-width: 0.0; stroke-dasharray: ;"/><text fill="#000000" font-family="sans-serif" font-size="14" lengthAdjust="spacingAndGlyphs" textLength="266" x="1593.8333" y="185.8574">API governance policy (API_POLICY_081)</text><!--MD5=[d1fc631d634b650fdc9b479fdc6a4a46]
entity S_base_schema--><rect fill="#C9E7CB" height="39.0679" style="stroke: #555555; stroke-width: 1.5;" width="223.3333" x="1607.5" y="360.8915"/><path d="M1618.5,377.1261 L1618.5,386.4594 L1626.6667,386.4594 L1626.6667,381.7928 L1622,381.7928 L1622,377.1261 L1618.5,377.1261 M1623.1667,377.1261 L1623.1667,380.6261 L1626.6667,380.6261 L1623.1667,377.1261 M1619.6667,379.4594 L1620.8333,379.4594 L1620.8333,380.6261 L1619.6667,380.6261 L1619.6667,379.4594 M1619.6667,381.7928 L1620.8333,381.7928 L1620.8333,382.9594 L1619.6667,382.9594 L1619.6667,381.7928 M1619.6667,384.1261 L1624.3333,384.1261 L1624.3333,385.2928 L1619.6667,385.2928 L1619.6667,384.1261 " fill="#000000" style="stroke: ; stroke-width: 0.0; stroke-dasharray: ;"/><text fill="#000000" font-family="sans-serif" font-size="14" lengthAdjust="spacingAndGlyphs" textLength="188" x="1632.8333" y="385.8574">Canonical OpenAPI contract</text><!--MD5=[eb74a2fc80a76f28710581366cc3b65f]
entity S_schema_linter--><rect fill="#F3CBD0" height="39.0679" style="stroke: #555555; stroke-width: 1.5;" width="240.3333" x="1599" y="800.8915"/><path d="M1614.0833,817.1261 L1613.5,818.5121 L1613.1722,818.6579 L1611.7862,818.0746 L1610.9473,818.9134 L1611.5307,820.2994 L1611.3848,820.6273 L1609.9988,821.2106 L1609.9988,822.3773 L1611.3848,822.9606 L1611.5307,823.3258 L1610.9473,824.6744 L1611.7862,825.5133 L1613.1722,824.9299 L1613.5,825.0758 L1614.0833,826.4618 L1615.25,826.4618 L1615.8333,825.0758 L1616.1612,824.9299 L1617.5472,825.5133 L1618.386,824.6744 L1617.8027,823.2884 L1617.9485,822.9606 L1619.3345,822.3773 L1619.3345,821.2106 L1617.9485,820.6273 L1617.8027,820.2994 L1618.3498,818.9134 L1617.5472,818.0746 L1616.1612,818.6579 L1615.8333,818.5121 L1615.25,817.1261 L1614.0833,817.1261 M1614.6667,820.0428 C1615.635,820.0428 1616.4167,820.8244 1616.4167,821.7928 C1616.4167,822.7611 1615.635,823.5428 1614.6667,823.5428 C1613.6983,823.5428 1612.9167,822.7611 1612.9167,821.7928 C1612.9167,820.8244 1613.6983,820.0428 1614.6667,820.0428 " fill="#000000" style="stroke: ; stroke-width: 0.0; stroke-dasharray: ;"/><text fill="#000000" font-family="sans-serif" font-size="14" lengthAdjust="spacingAndGlyphs" textLength="205" x="1624.3333" y="825.8574">Document-plane linter (oracle)</text><!--MD5=[395e1b6aee8d6547532a41f6b67cf7d4]
entity S_app_db--><rect fill="#F3CBD0" height="39.0679" style="stroke: #555555; stroke-width: 1.5;" width="170.3333" x="1634" y="260.8915"/><path d="M1649.0833,277.1261 L1648.5,278.5121 L1648.1722,278.6579 L1646.7862,278.0746 L1645.9473,278.9134 L1646.5307,280.2994 L1646.3848,280.6273 L1644.9988,281.2106 L1644.9988,282.3773 L1646.3848,282.9606 L1646.5307,283.3258 L1645.9473,284.6744 L1646.7862,285.5133 L1648.1722,284.9299 L1648.5,285.0758 L1649.0833,286.4618 L1650.25,286.4618 L1650.8333,285.0758 L1651.1612,284.9299 L1652.5472,285.5133 L1653.386,284.6744 L1652.8027,283.2884 L1652.9485,282.9606 L1654.3345,282.3773 L1654.3345,281.2106 L1652.9485,280.6273 L1652.8027,280.2994 L1653.3498,278.9134 L1652.5472,278.0746 L1651.1612,278.6579 L1650.8333,278.5121 L1650.25,277.1261 L1649.0833,277.1261 M1649.6667,280.0428 C1650.635,280.0428 1651.4167,280.8244 1651.4167,281.7928 C1651.4167,282.7611 1650.635,283.5428 1649.6667,283.5428 C1648.6983,283.5428 1647.9167,282.7611 1647.9167,281.7928 C1647.9167,280.8244 1648.6983,280.0428 1649.6667,280.0428 " fill="#000000" style="stroke: ; stroke-width: 0.0; stroke-dasharray: ;"/><text fill="#000000" font-family="sans-serif" font-size="14" lengthAdjust="spacingAndGlyphs" textLength="135" x="1659.3333" y="285.8574">Frozen app state DB</text><!--MD5=[5dd91f224c32c321dd65f4fa1047e65f]
entity S_ty0_baseline--><rect fill="#F3CBD0" height="39.0679" style="stroke: #555555; stroke-width: 1.5;" width="312.3333" x="597.33" y="763.8915"/><path d="M612.9967,781.2928 C611.0705,781.2928 609.4967,782.8666 609.4967,784.7928 L608.33,784.7928 L610.08,787.1261 L611.83,784.7928 L610.6633,784.7928 C610.6633,783.4989 611.7028,782.4594 612.9967,782.4594 L612.9967,781.2928 M615.9133,782.4594 L614.1633,784.7928 L615.33,784.7928 C615.33,786.0866 614.2905,787.1261 612.9967,787.1261 L612.9967,788.2928 C614.9228,788.2928 616.4967,786.7189 616.4967,784.7928 L617.6633,784.7928 L615.9133,782.4594 " fill="#000000" style="stroke: ; stroke-width: 0.0; stroke-dasharray: ;"/><text fill="#000000" font-family="sans-serif" font-size="14" lengthAdjust="spacingAndGlyphs" textLength="277" x="622.6633" y="788.8574">Legacy route-signature regression oracle</text><!--MD5=[6571ffd962e78b1619a828400c073e81]
entity S_impl_server--><rect fill="#E2E2E2" height="39.0679" style="stroke: #555555; stroke-width: 1.5;" width="228.3333" x="1605" y="474.8915"/><path d="M1616,491.1261 L1616,492.2928 L1625.3333,492.2928 L1625.3333,491.1261 L1616,491.1261 M1616,493.4594 L1616,500.3498 C1616,500.4198 1616.0397,500.4594 1616.1097,500.4594 L1625.2248,500.4594 C1625.2948,500.4594 1625.3345,500.4198 1625.3345,500.3498 L1625.3345,493.4594 L1621.8707,493.4594 L1621.8707,494.6623 L1619.5012,494.6623 L1619.5012,493.4594 L1616.0012,493.4594 " fill="#000000" style="stroke: ; stroke-width: 0.0; stroke-dasharray: ;"/><text fill="#000000" font-family="sans-serif" font-size="14" lengthAdjust="spacingAndGlyphs" textLength="193" x="1630.3333" y="499.8574">Implementer's server source</text><!--MD5=[6b0fe90f21b4f38e30c9996c77dddfa4]
entity S_impl_openapi--><rect fill="#E2E2E2" height="39.0679" style="stroke: #555555; stroke-width: 1.5;" width="324.3333" x="1557" y="690.8915"/><path d="M1568,707.1261 L1568,708.2928 L1577.3333,708.2928 L1577.3333,707.1261 L1568,707.1261 M1568,709.4594 L1568,716.3498 C1568,716.4198 1568.0397,716.4594 1568.1097,716.4594 L1577.2248,716.4594 C1577.2948,716.4594 1577.3345,716.4198 1577.3345,716.3498 L1577.3345,709.4594 L1573.8707,709.4594 L1573.8707,710.6623 L1571.5012,710.6623 L1571.5012,709.4594 L1568.0012,709.4594 " fill="#000000" style="stroke: ; stroke-width: 0.0; stroke-dasharray: ;"/><text fill="#000000" font-family="sans-serif" font-size="14" lengthAdjust="spacingAndGlyphs" textLength="289" x="1582.3333" y="715.8574">Implementer's published OpenAPI schema</text><!--MD5=[5dcdc01364a7b66e99b8dd1dc37b1e9a]
entity S_runtime_oracle--><rect fill="#F3CBD0" height="39.0679" style="stroke: #555555; stroke-width: 1.5;" width="290.3333" x="1574" y="936.8915"/><path d="M1589.0833,953.1261 L1588.5,954.5121 L1588.1722,954.6579 L1586.7862,954.0746 L1585.9473,954.9134 L1586.5307,956.2994 L1586.3848,956.6273 L1584.9988,957.2106 L1584.9988,958.3773 L1586.3848,958.9606 L1586.5307,959.3258 L1585.9473,960.6744 L1586.7862,961.5133 L1588.1722,960.9299 L1588.5,961.0758 L1589.0833,962.4618 L1590.25,962.4618 L1590.8333,961.0758 L1591.1612,960.9299 L1592.5472,961.5133 L1593.386,960.6744 L1592.8027,959.2884 L1592.9485,958.9606 L1594.3345,958.3773 L1594.3345,957.2106 L1592.9485,956.6273 L1592.8027,956.2994 L1593.3498,954.9134 L1592.5472,954.0746 L1591.1612,954.6579 L1590.8333,954.5121 L1590.25,953.1261 L1589.0833,953.1261 M1589.6667,956.0428 C1590.635,956.0428 1591.4167,956.8244 1591.4167,957.7928 C1591.4167,958.7611 1590.635,959.5428 1589.6667,959.5428 C1588.6983,959.5428 1587.9167,958.7611 1587.9167,957.7928 C1587.9167,956.8244 1588.6983,956.0428 1589.6667,956.0428 " fill="#000000" style="stroke: ; stroke-width: 0.0; stroke-dasharray: ;"/><text fill="#000000" font-family="sans-serif" font-size="14" lengthAdjust="spacingAndGlyphs" textLength="255" x="1599.3333" y="961.8574">Live server runtime behaviour (oracle)</text><!--MD5=[8d3d15441849e562a9f547edab4a6930]
entity S_conformance_matrix--><rect fill="#E2E2E2" height="39.0679" style="stroke: #555555; stroke-width: 1.5;" width="274.3333" x="1582" y="1018.8915"/><path d="M1593,1035.1261 L1593,1036.2928 L1602.3333,1036.2928 L1602.3333,1035.1261 L1593,1035.1261 M1593,1037.4594 L1593,1044.3498 C1593,1044.4198 1593.0397,1044.4594 1593.1097,1044.4594 L1602.2248,1044.4594 C1602.2948,1044.4594 1602.3345,1044.4198 1602.3345,1044.3498 L1602.3345,1037.4594 L1598.8707,1037.4594 L1598.8707,1038.6623 L1596.5012,1038.6623 L1596.5012,1037.4594 L1593.0012,1037.4594 " fill="#000000" style="stroke: ; stroke-width: 0.0; stroke-dasharray: ;"/><text fill="#000000" font-family="sans-serif" font-size="14" lengthAdjust="spacingAndGlyphs" textLength="239" x="1607.3333" y="1043.8574">Exerciser's conformance test matrix</text><!--MD5=[4fae269766820b970143d26951d2aa0b]
link A_sentinel to S_api_policy--><path d="M135.97,690.5015 C146.8,631.1915 186.46,453.5815 287.33,352.4215 C505.79,133.3315 633.88,156.5115 939.67,109.4215 C1189.64,70.9315 1488.21,126.1015 1632.16,158.9715 " fill="none" id="A_sentinel-&gt;S_api_policy" style="stroke: #A80036; stroke-width: 1.0;"/><polygon fill="#A80036" points="1637.01,160.0815,1629.1285,154.1754,1632.1359,158.9666,1627.3447,161.974,1637.01,160.0815" style="stroke: #A80036; stroke-width: 1.0;"/><text fill="#888888" font-family="sans-serif" font-size="13" lengthAdjust="spacingAndGlyphs" textLength="10" x="1077.17" y="92.1885">U</text><!--MD5=[53cdec3ed23a315b659263f7ae8ddf95]
link A_sentinel to S_base_schema--><path d="M147.23,690.5715 C172.22,657.9215 226.52,592.9615 287.33,557.4215 C735.35,295.6015 914.49,352.8815 1433,332.4215 C1474.75,330.7715 1485.54,327.3015 1527,332.4215 C1568.09,337.5015 1613.05,348.5015 1649.03,358.6915 " fill="none" id="A_sentinel-&gt;S_base_schema" style="stroke: #A80036; stroke-width: 1.0;"/><polygon fill="#A80036" points="1653.73,360.0415,1646.1752,353.7229,1648.9224,358.6679,1643.9774,361.4151,1653.73,360.0415" style="stroke: #A80036; stroke-width: 1.0;"/><text fill="#888888" font-family="sans-serif" font-size="13" lengthAdjust="spacingAndGlyphs" textLength="10" x="1077.17" y="333.6885">U</text><!--MD5=[dc4c3fe6a1b002564cd25091a3eff26d]
link A_sentinel to S_schema_linter--><path d="M163.22,730.3815 C193.42,749.0415 241.63,775.9815 287.33,789.4215 C420.18,828.4815 459.1,812.3715 597.33,820.4215 C968.16,842.0315 1061.55,831.3115 1433,834.4215 C1474.78,834.7715 1485.25,835.9515 1527,834.4215 C1548.11,833.6515 1570.51,832.4015 1592.25,830.9615 " fill="none" id="A_sentinel-&gt;S_schema_linter" style="stroke: #A80036; stroke-width: 1.0;"/><polygon fill="#A80036" points="1597.16,830.6315,1587.9164,827.232,1592.1708,830.9603,1588.4425,835.2147,1597.16,830.6315" style="stroke: #A80036; stroke-width: 1.0;"/><text fill="#888888" font-family="sans-serif" font-size="13" lengthAdjust="spacingAndGlyphs" textLength="7" x="1078.67" y="829.6885">L</text><!--MD5=[46949acc2d50d991b822dc5843a10e2e]
link A_sentinel to S_app_db--><path d="M140.11,690.5315 C158.31,644.4115 209.35,529.0915 287.33,463.4215 C526.95,261.6315 636.97,277.1215 939.67,196.4215 C1139.46,143.1615 1200.11,114.5315 1403,154.4215 C1475.56,168.6915 1488.34,189.9615 1557,217.4215 C1591.26,231.1215 1629.74,246.1815 1660.5,258.1315 " fill="none" id="A_sentinel-&gt;S_app_db" style="stroke: #A80036; stroke-width: 1.0;"/><polygon fill="#A80036" points="1665.14,259.9315,1658.1801,252.963,1660.4744,258.1337,1655.3037,260.428,1665.14,259.9315" style="stroke: #A80036; stroke-width: 1.0;"/><text fill="#888888" font-family="sans-serif" font-size="13" lengthAdjust="spacingAndGlyphs" textLength="7" x="1078.67" y="131.9485">L</text><!--MD5=[ac67cbbfb01a5bfcd90e295750c69aa5]
link A_sentinel to S_ty0_baseline--><path d="M189.97,730.4115 C218.82,739.6215 254.54,749.7415 287.33,755.4215 C387.17,772.7315 500.66,779.8015 590.54,782.5115 " fill="none" id="A_sentinel-&gt;S_ty0_baseline" style="stroke: #A80036; stroke-width: 1.0;"/><polygon fill="#A80036" points="595.46,782.6615,586.5901,778.3808,590.4625,782.5044,586.3388,786.3768,595.46,782.6615" style="stroke: #A80036; stroke-width: 1.0;"/><text fill="#888888" font-family="sans-serif" font-size="13" lengthAdjust="spacingAndGlyphs" textLength="7" x="423.83" y="751.3185">L</text><!--MD5=[86092ffbd84a00abe05e666bd18ce1af]
link A_sentinel to S_runtime_oracle--><path d="M152.14,730.2015 C179.65,756.8515 232.66,803.7115 287.33,827.4215 C687.58,1001.0515 819.97,957.1715 1254.67,994.4215 C1371.05,1004.3915 1503.92,990.9615 1597.47,977.3915 " fill="none" id="A_sentinel-&gt;S_runtime_oracle" style="stroke: #A80036; stroke-width: 1.0;"/><polygon fill="#A80036" points="1602.36,976.6715,1592.874,974.0227,1597.4131,977.3986,1594.0373,981.9377,1602.36,976.6715" style="stroke: #A80036; stroke-width: 1.0;"/><text fill="#888888" font-family="sans-serif" font-size="13" lengthAdjust="spacingAndGlyphs" textLength="7" x="1078.67" y="971.3485">L</text><!--MD5=[d80dcdd2e5e0e740638b7ddb9bd03a70]
link A_sentinel to S_impl_openapi--><path d="M257.83,716.1115 C411.39,723.1115 679.69,735.4315 909.67,746.4215 C1063.01,753.7515 1101.19,759.6415 1254.67,763.4215 C1320.57,765.0415 1337.3,768.9115 1403,763.4215 C1475.43,757.3715 1556.26,743.6415 1617.93,731.6615 " fill="none" id="A_sentinel-&gt;S_impl_openapi" style="stroke: #A80036; stroke-width: 1.0;"/><polygon fill="#A80036" points="1622.73,730.7315,1613.1301,728.5311,1617.8227,731.6901,1614.6638,736.3827,1622.73,730.7315" style="stroke: #A80036; stroke-width: 1.0;"/><text fill="#888888" font-family="sans-serif" font-size="13" lengthAdjust="spacingAndGlyphs" textLength="7" x="1078.67" y="743.8185">L</text><!--MD5=[aa5f7d624d484f407d317f46e6470fd3]
link A_sentinel to S_conformance_matrix--><path d="M139.99,730.3615 C157.62,775.2515 206.98,884.2115 287.33,934.4215 C721.19,1205.5115 1379.98,1108.5315 1623.43,1059.6115 " fill="none" id="A_sentinel-&gt;S_conformance_matrix" style="stroke: #A80036; stroke-width: 1.0;"/><polygon fill="#A80036" points="1627.98,1058.6915,1618.3679,1056.545,1623.0782,1059.6776,1619.9456,1064.3879,1627.98,1058.6915" style="stroke: #A80036; stroke-width: 1.0;"/><text fill="#888888" font-family="sans-serif" font-size="13" lengthAdjust="spacingAndGlyphs" textLength="7" x="1078.67" y="1108.2385">L</text><!--MD5=[9adba8c292137dbd268e3a8afbe96575]
link A_implementer to S_api_policy--><path d="M1370.7,514.4515 C1382.8,506.6515 1394.95,496.6215 1403,484.4215 C1440.91,426.9415 1395.75,390.3415 1433,332.4215 C1477.34,263.4915 1563.94,223.7315 1630.13,202.3015 " fill="none" id="A_implementer-&gt;S_api_policy" style="stroke: #A80036; stroke-width: 1.0;"/><polygon fill="#A80036" points="1634.62,200.8715,1624.8278,199.8165,1629.8597,202.4011,1627.2751,207.433,1634.62,200.8715" style="stroke: #A80036; stroke-width: 1.0;"/><text fill="#888888" font-family="sans-serif" font-size="13" lengthAdjust="spacingAndGlyphs" textLength="10" x="1475" y="246.6385">U</text><!--MD5=[aae85aff8ac404719ad01ee5e81d1c83]
link A_implementer to S_base_schema--><path d="M1380.2,514.4515 C1452.81,485.6515 1586.44,432.6615 1662.09,402.6615 " fill="none" id="A_implementer-&gt;S_base_schema" style="stroke: #A80036; stroke-width: 1.0;"/><polygon fill="#A80036" points="1666.48,400.9215,1656.6392,400.524,1661.8327,402.7661,1659.5906,407.9597,1666.48,400.9215" style="stroke: #A80036; stroke-width: 1.0;"/><text fill="#888888" font-family="sans-serif" font-size="13" lengthAdjust="spacingAndGlyphs" textLength="10" x="1475" y="453.3185">U</text><!--MD5=[a82082cbbb8f6f0589c2b60f94e3ad1a]
link A_implementer to S_app_db--><path d="M1365.93,514.5015 C1378.66,506.3115 1392.43,496.0215 1403,484.4215 C1421.5,464.1315 1414.63,450.8215 1433,430.4215 C1478.05,380.3915 1497.67,375.2415 1557,343.4215 C1586.79,327.4515 1621.52,313.3515 1651.09,302.5615 " fill="none" id="A_implementer-&gt;S_app_db" style="stroke: #A80036; stroke-width: 1.0;"/><polygon fill="#A80036" points="1655.51,300.9615,1645.6861,300.2612,1650.8081,302.6622,1648.4072,307.7842,1655.51,300.9615" style="stroke: #A80036; stroke-width: 1.0;"/><text fill="#888888" font-family="sans-serif" font-size="13" lengthAdjust="spacingAndGlyphs" textLength="7" x="1476.5" y="355.7785">L</text><!--MD5=[5d357e697961c00a1ba64b82c9a4d122]
link A_implementer to S_schema_linter--><path d="M1369.95,554.3415 C1381.72,561.6315 1393.87,570.7515 1403,581.4215 C1424.47,606.5215 1412.78,623.3015 1433,649.4215 C1476,704.9715 1497.01,710.8815 1557,747.4215 C1589.6,767.2815 1628.53,785.0615 1659.96,798.1015 " fill="none" id="A_implementer-&gt;S_schema_linter" style="stroke: #A80036; stroke-width: 1.0;"/><polygon fill="#A80036" points="1664.33,799.9015,1657.542,792.7655,1659.7096,797.9906,1654.4845,800.1582,1664.33,799.9015" style="stroke: #A80036; stroke-width: 1.0;"/><text fill="#888888" font-family="sans-serif" font-size="13" lengthAdjust="spacingAndGlyphs" textLength="7" x="1476.5" y="645.3185">L</text><!--MD5=[12ce8d576860a5456fed1331193eabb8]
link A_implementer to S_impl_server--><path d="M1403.37,536.8215 C1413.33,537.0715 1423.41,537.2815 1433,537.4215 C1474.77,538.0315 1485.48,542.0315 1527,537.4215 C1565.03,533.2015 1606.55,524.3815 1641.15,515.8315 " fill="none" id="A_implementer-&gt;S_impl_server" style="stroke: #A80036; stroke-width: 1.0; stroke-dasharray: 7.0,7.0;"/><polygon fill="#A80036" points="1645.62,514.7115,1635.9174,513.0205,1640.7701,515.9276,1637.8631,520.7803,1645.62,514.7115" style="stroke: #A80036; stroke-width: 1.0;"/><text fill="#888888" font-family="sans-serif" font-size="13" lengthAdjust="spacingAndGlyphs" textLength="56" x="1452" y="533.3185">produces</text><!--MD5=[df3aa21ed8189639faf53a6c252ddc9f]
link A_implementer to S_impl_openapi--><path d="M1374,554.4415 C1446.85,587.4615 1591.72,653.1215 1668.2,687.7815 " fill="none" id="A_implementer-&gt;S_impl_openapi" style="stroke: #A80036; stroke-width: 1.0; stroke-dasharray: 7.0,7.0;"/><polygon fill="#A80036" points="1672.66,689.8015,1666.1219,682.4358,1668.1082,687.7325,1662.8115,689.7187,1672.66,689.8015" style="stroke: #A80036; stroke-width: 1.0;"/><text fill="#888888" font-family="sans-serif" font-size="13" lengthAdjust="spacingAndGlyphs" textLength="56" x="1452" y="577.5185">produces</text><!--MD5=[8f3c3088c7ec55f02b407301db6a184a]
link A_implementer to S_runtime_oracle--><path d="M1373.52,554.2715 C1384.72,561.3315 1395.66,570.3515 1403,581.4215 C1446.35,646.8415 1393.56,687.5815 1433,755.4215 C1484.89,844.6815 1594.11,904.1915 1661.31,933.9915 " fill="none" id="A_implementer-&gt;S_runtime_oracle" style="stroke: #A80036; stroke-width: 1.0; stroke-dasharray: 7.0,7.0;"/><polygon fill="#A80036" points="1665.49,935.8315,1658.8586,928.5498,1660.9122,933.8207,1655.6412,935.8743,1665.49,935.8315" style="stroke: #A80036; stroke-width: 1.0;"/><text fill="#888888" font-family="sans-serif" font-size="13" lengthAdjust="spacingAndGlyphs" textLength="56" x="1452" y="751.3185">produces</text><!--MD5=[2fa54b9bd8787b095c94a8d9a2b3422a]
link A_exerciser to S_api_policy--><path d="M759,557.7715 C773.48,499.5615 824.76,327.4815 939.67,253.4215 C1039.21,189.2615 1364.7,178.6515 1561.9,178.4015 " fill="none" id="A_exerciser-&gt;S_api_policy" style="stroke: #A80036; stroke-width: 1.0;"/><polygon fill="#A80036" points="1566.76,178.3915,1557.7486,174.4172,1561.76,178.4058,1557.7715,182.4172,1566.76,178.3915" style="stroke: #A80036; stroke-width: 1.0;"/><text fill="#888888" font-family="sans-serif" font-size="13" lengthAdjust="spacingAndGlyphs" textLength="10" x="1323.83" y="177.1085">U</text><!--MD5=[9833cb8076c5a011685e70e4bb0b2623]
link A_exerciser to S_base_schema--><path d="M769.71,557.6315 C798.42,522.0215 864.5,448.0115 939.67,417.4215 C1056.08,370.0615 1413.47,371.9515 1600.81,376.5515 " fill="none" id="A_exerciser-&gt;S_base_schema" style="stroke: #A80036; stroke-width: 1.0;"/><polygon fill="#A80036" points="1605.62,376.6715,1596.7258,372.4415,1600.6217,376.543,1596.5202,380.4388,1605.62,376.6715" style="stroke: #A80036; stroke-width: 1.0;"/><text fill="#888888" font-family="sans-serif" font-size="13" lengthAdjust="spacingAndGlyphs" textLength="10" x="1323.83" y="370.2785">U</text><!--MD5=[4c1654d0b9a507d76bb6f2b22a1d6331]
link A_exerciser to S_runtime_oracle--><path d="M825.76,597.3415 C939.42,629.7915 1155.94,694.5215 1224.67,735.4215 C1317.71,790.8115 1326.88,824.4015 1403,901.4215 C1416.93,915.5215 1415.2,925.7115 1433,934.4215 C1474,954.4815 1522.33,962.9715 1567.43,965.6115 " fill="none" id="A_exerciser-&gt;S_runtime_oracle" style="stroke: #A80036; stroke-width: 1.0;"/><polygon fill="#A80036" points="1572.26,965.8715,1563.478,961.4133,1567.2666,965.614,1563.0659,969.4026,1572.26,965.8715" style="stroke: #A80036; stroke-width: 1.0;"/><text fill="#888888" font-family="sans-serif" font-size="13" lengthAdjust="spacingAndGlyphs" textLength="7" x="1325.33" y="750.7685">L</text><!--MD5=[e62e458ee1c49d3b4422f5d0d6495f96]
link A_exerciser to S_conformance_matrix--><path d="M780.03,597.3115 C815.15,626.1615 877.67,683.1515 909.67,746.4215 C940.94,808.2615 890.25,850.8415 939.67,899.4215 C984.47,943.4815 1363.31,995.6115 1575.53,1021.7315 " fill="none" id="A_exerciser-&gt;S_conformance_matrix" style="stroke: #A80036; stroke-width: 1.0; stroke-dasharray: 7.0,7.0;"/><polygon fill="#A80036" points="1580.26,1022.3115,1571.8202,1017.2351,1575.298,1021.6966,1570.8364,1025.1743,1580.26,1022.3115" style="stroke: #A80036; stroke-width: 1.0;"/><text fill="#888888" font-family="sans-serif" font-size="13" lengthAdjust="spacingAndGlyphs" textLength="56" x="1300.83" y="974.7785">produces</text><!--MD5=[c5f616dae0a1b22a0f11b8abe3b21dae]
link A_implementer to S_conformance_matrix--><path d="M1374.8,554.4315 C1385.73,561.4215 1396.21,570.3515 1403,581.4215 C1472.58,694.9015 1373.44,760.3715 1433,879.4215 C1466.49,946.3715 1491.59,957.0215 1557,993.4215 C1574.14,1002.9615 1593.45,1010.6015 1612.59,1016.6715 " fill="none" id="A_implementer-&gt;S_conformance_matrix" style="stroke: #FF0000; stroke-width: 1.0; stroke-dasharray: 7.0,7.0;"/><polygon fill="#FF0000" points="1617.08,1018.0615,1609.6761,1011.5667,1612.3061,1016.575,1607.2977,1019.205,1617.08,1018.0615" style="stroke: #FF0000; stroke-width: 1.0;"/><text fill="#888888" font-family="sans-serif" font-size="13" lengthAdjust="spacingAndGlyphs" textLength="92" x="1434" y="875.3185">✗ must not see</text><!--MD5=[5a806b5ab93bc79137afbe680837db35]
link A_exerciser to S_impl_server--><path d="M777,557.4515 C809.95,529.6615 874.52,480.5715 939.67,461.4215 C1182.57,390.0215 1486.4,440.6615 1632.25,473.0515 " fill="none" id="A_exerciser-&gt;S_impl_server" style="stroke: #FF0000; stroke-width: 1.0; stroke-dasharray: 7.0,7.0;"/><polygon fill="#FF0000" points="1636.74,474.0615,1628.822,468.2044,1631.8591,472.9769,1627.0866,476.0139,1636.74,474.0615" style="stroke: #FF0000; stroke-width: 1.0;"/><text fill="#888888" font-family="sans-serif" font-size="13" lengthAdjust="spacingAndGlyphs" textLength="92" x="1282.83" y="421.6585">✗ must not see</text><!--MD5=[b01ffa5701d6d85c9e3b9e498941f275]
link A_exerciser to S_impl_openapi--><path d="M849.1,579.3315 C977.92,584.5215 1214.11,603.3015 1403,670.4215 C1417.65,675.6315 1418.19,683.7015 1433,688.4215 C1470.05,700.2415 1511.11,706.8815 1550.27,710.4115 " fill="none" id="A_exerciser-&gt;S_impl_openapi" style="stroke: #FF0000; stroke-width: 1.0; stroke-dasharray: 7.0,7.0;"/><polygon fill="#FF0000" points="1555.03,710.8215,1546.4056,706.0654,1550.0484,710.3933,1545.7205,714.036,1555.03,710.8215" style="stroke: #FF0000; stroke-width: 1.0;"/><text fill="#888888" font-family="sans-serif" font-size="13" lengthAdjust="spacingAndGlyphs" textLength="92" x="1282.83" y="625.5785">✗ must not see</text><!--MD5=[11131312ba3848239124113e0e091658]
link A_exerciser to A_implementer--><path d="M848.97,577.2715 C944.17,576.1115 1095.13,571.5415 1224.67,555.4215 C1232.33,554.4715 1240.27,553.2615 1248.19,551.9015 " fill="none" id="A_exerciser-&gt;A_implementer" style="stroke: #0000FF; stroke-width: 1.0;"/><polygon fill="#0000FF" points="1252.75,551.1015,1243.1977,548.7027,1247.8239,551.9582,1244.5685,556.5844,1252.75,551.1015" style="stroke: #0000FF; stroke-width: 1.0;"/><text fill="#888888" font-family="sans-serif" font-size="13" lengthAdjust="spacingAndGlyphs" textLength="280" x="942.17" y="480.3185">catches: a blend: a clean schema or happy-path</text><text fill="#888888" font-family="sans-serif" font-size="13" lengthAdjust="spacingAndGlyphs" textLength="273" x="945.67" y="498.0245">runtime hiding an id leak / missing auth on an</text><text fill="#888888" font-family="sans-serif" font-size="13" lengthAdjust="spacingAndGlyphs" textLength="283" x="940.67" y="515.7306">untested route — via Gate B runtime assertions</text><text fill="#888888" font-family="sans-serif" font-size="13" lengthAdjust="spacingAndGlyphs" textLength="261" x="951.67" y="533.4366">(status, exact keys, no forbidden patterns) +</text><text fill="#888888" font-family="sans-serif" font-size="13" lengthAdjust="spacingAndGlyphs" textLength="230" x="967.17" y="551.1426">the document-plane route cross-check</text><!--MD5=[7b2ba98715a0d64db676df08bab5052e]
link A_sentinel to A_exerciser--><path d="M225.8,690.4415 C340.68,665.7915 535.17,624.0615 652.93,598.7915 " fill="none" id="A_sentinel-&gt;A_exerciser" style="stroke: #0000FF; stroke-width: 1.0;"/><polygon fill="#0000FF" points="657.7,597.7615,648.0576,595.7553,652.8131,598.8189,649.7495,603.5744,657.7,597.7615" style="stroke: #0000FF; stroke-width: 1.0;"/><text fill="#888888" font-family="sans-serif" font-size="13" lengthAdjust="spacingAndGlyphs" textLength="278" x="288.33" y="580.3385">catches: a weak happy-path matrix that misses</text><text fill="#888888" font-family="sans-serif" font-size="13" lengthAdjust="spacingAndGlyphs" textLength="275" x="289.83" y="598.0445">a clause corner — via Gate C clause coverage +</text><text fill="#888888" font-family="sans-serif" font-size="13" lengthAdjust="spacingAndGlyphs" textLength="277" x="288.83" y="615.7506">seeded coherent-and-wrong negative controls</text><rect fill="#DDDDDD" height="166.5433" rx="5" ry="5" style="stroke: #000000; stroke-width: 1.0;" width="357.3333" x="1532.6667" y="1135.4615"/><text fill="#000000" font-family="sans-serif" font-size="14" font-weight="bold" lengthAdjust="spacingAndGlyphs" textLength="46" x="1542.6667" y="1157.4274">Colour</text><text fill="#000000" font-family="sans-serif" font-size="14" font-weight="bold" lengthAdjust="spacingAndGlyphs" textLength="0" x="1600.6667" y="1157.4274"/><text fill="#000000" font-family="sans-serif" font-size="14" font-weight="bold" lengthAdjust="spacingAndGlyphs" textLength="60" x="1616" y="1157.4274">Meaning</text><rect fill="#E8541E" height="19.0679" style="stroke: none; stroke-width: 1.0;" width="54" x="1538.6667" y="1161.5294"/><text fill="#000000" font-family="sans-serif" font-size="14" lengthAdjust="spacingAndGlyphs" textLength="0" x="1542.6667" y="1176.4954"/><text fill="#000000" font-family="sans-serif" font-size="14" lengthAdjust="spacingAndGlyphs" textLength="0" x="1596.6667" y="1176.4954"/><path d="M1602.3333,1167.764 C1599.7632,1167.764 1597.6667,1169.8605 1597.6667,1172.4307 C1597.6667,1175.0008 1599.7632,1177.0973 1602.3333,1177.0973 C1604.9035,1177.0973 1607,1175.0008 1607,1172.4307 C1607,1169.8605 1604.9035,1167.764 1602.3333,1167.764 M1602.3333,1168.9307 C1604.2735,1168.9307 1605.8333,1170.4905 1605.8333,1172.4307 C1605.8333,1174.3708 1604.2735,1175.9307 1602.3333,1175.9307 C1600.3932,1175.9307 1598.8333,1174.3708 1598.8333,1172.4307 C1598.8333,1170.4905 1600.3932,1168.9307 1602.3333,1168.9307 M1604.6667,1170.0973 L1601.1667,1171.264 L1600,1174.764 L1603.5,1173.5973 L1604.6667,1170.0973 M1602.3333,1171.8473 C1602.66,1171.8473 1602.9167,1172.104 1602.9167,1172.4307 C1602.9167,1172.7573 1602.66,1173.014 1602.3333,1173.014 C1602.0067,1173.014 1601.75,1172.7573 1601.75,1172.4307 C1601.75,1172.104 1602.0067,1171.8473 1602.3333,1171.8473 " fill="#000000" style="stroke: ; stroke-width: 0.0; stroke-dasharray: ;"/><text fill="#000000" font-family="sans-serif" font-size="14" lengthAdjust="spacingAndGlyphs" textLength="0" x="1612" y="1176.4954"/><text fill="#000000" font-family="sans-serif" font-size="14" lengthAdjust="spacingAndGlyphs" textLength="80" x="1616" y="1176.4954">Coordinator</text><rect fill="#E8541E" height="19.0679" style="stroke: none; stroke-width: 1.0;" width="54" x="1538.6667" y="1180.5973"/><text fill="#000000" font-family="sans-serif" font-size="14" lengthAdjust="spacingAndGlyphs" textLength="0" x="1542.6667" y="1195.5633"/><text fill="#000000" font-family="sans-serif" font-size="14" lengthAdjust="spacingAndGlyphs" textLength="0" x="1596.6667" y="1195.5633"/><path d="M1604.0833,1186.8319 C1602.4733,1186.8319 1601.1667,1188.1386 1601.1667,1189.7486 C1601.1667,1190.1219 1601.2577,1190.4789 1601.386,1190.8056 L1597.9957,1194.1598 C1597.5407,1194.6148 1597.5407,1195.3451 1597.9957,1195.8001 C1598.229,1196.0334 1598.5312,1196.1653 1598.8345,1196.1653 C1599.1378,1196.1653 1599.44,1196.0591 1599.6733,1195.8374 L1603.0275,1192.4833 C1603.3542,1192.5999 1603.7112,1192.6653 1604.0845,1192.6653 C1605.6945,1192.6653 1607.0012,1191.3586 1607.0012,1189.7486 C1607.0012,1189.5619 1606.9638,1189.4021 1606.9277,1189.2376 L1605.8333,1190.3319 L1603.5,1190.3319 L1603.5,1187.9986 L1604.5943,1186.9043 C1604.431,1186.8693 1604.2712,1186.8319 1604.0833,1186.8308 M1598.8333,1194.4141 C1599.16,1194.4141 1599.4167,1194.6708 1599.4167,1194.9974 C1599.4167,1195.3241 1599.16,1195.5808 1598.8333,1195.5808 C1598.5067,1195.5808 1598.25,1195.3241 1598.25,1194.9974 C1598.25,1194.6708 1598.5067,1194.4141 1598.8333,1194.4141 " fill="#000000" style="stroke: ; stroke-width: 0.0; stroke-dasharray: ;"/><text fill="#000000" font-family="sans-serif" font-size="14" lengthAdjust="spacingAndGlyphs" textLength="0" x="1612" y="1195.5633"/><text fill="#000000" font-family="sans-serif" font-size="14" lengthAdjust="spacingAndGlyphs" textLength="88" x="1616" y="1195.5633">Implementer</text><rect fill="#E8541E" height="19.0679" style="stroke: none; stroke-width: 1.0;" width="54" x="1538.6667" y="1199.6653"/><text fill="#000000" font-family="sans-serif" font-size="14" lengthAdjust="spacingAndGlyphs" textLength="0" x="1542.6667" y="1214.6312"/><text fill="#000000" font-family="sans-serif" font-size="14" lengthAdjust="spacingAndGlyphs" textLength="0" x="1596.6667" y="1214.6312"/><path d="M1601.75,1205.8998 C1599.5018,1205.8998 1597.6667,1207.735 1597.6667,1209.9832 C1597.6667,1212.2313 1599.5018,1214.0665 1601.75,1214.0665 C1602.4407,1214.0665 1603.1103,1213.8973 1603.682,1213.5928 A1.1667,1.1667 0 0 0 1603.8278,1213.7387 L1604.9945,1214.9053 A1.1853,1.1853 0 1 0 1606.6722,1213.2277 L1605.5055,1212.061 A1.1667,1.1667 0 0 0 1605.3235,1211.9152 C1605.6338,1211.34 1605.8345,1210.6797 1605.8345,1209.9832 C1605.8345,1207.735 1603.9993,1205.8998 1601.7512,1205.8998 M1601.7512,1207.0665 C1603.3693,1207.0665 1604.6678,1208.365 1604.6678,1209.9832 C1604.6678,1210.7543 1604.3867,1211.4683 1603.9025,1211.9887 L1603.8663,1212.0248 A1.1667,1.1667 0 0 0 1603.7205,1212.1707 C1603.2048,1212.6338 1602.5037,1212.8998 1601.7512,1212.8998 C1600.133,1212.8998 1598.8345,1211.6013 1598.8345,1209.9832 C1598.8345,1208.365 1600.133,1207.0665 1601.7512,1207.0665 " fill="#000000" style="stroke: ; stroke-width: 0.0; stroke-dasharray: ;"/><text fill="#000000" font-family="sans-serif" font-size="14" lengthAdjust="spacingAndGlyphs" textLength="0" x="1612" y="1214.6312"/><text fill="#000000" font-family="sans-serif" font-size="14" lengthAdjust="spacingAndGlyphs" textLength="61" x="1616" y="1214.6312">Exerciser</text><rect fill="#C9E7CB" height="19.0679" style="stroke: none; stroke-width: 1.0;" width="54" x="1538.6667" y="1218.7332"/><text fill="#000000" font-family="sans-serif" font-size="14" lengthAdjust="spacingAndGlyphs" textLength="0" x="1542.6667" y="1233.6991"/><text fill="#000000" font-family="sans-serif" font-size="14" lengthAdjust="spacingAndGlyphs" textLength="0" x="1596.6667" y="1233.6991"/><path d="M1597.6667,1224.9678 L1597.6667,1234.3011 L1605.8333,1234.3011 L1605.8333,1229.6344 L1601.1667,1229.6344 L1601.1667,1224.9678 L1597.6667,1224.9678 M1602.3333,1224.9678 L1602.3333,1228.4678 L1605.8333,1228.4678 L1602.3333,1224.9678 M1598.8333,1227.3011 L1600,1227.3011 L1600,1228.4678 L1598.8333,1228.4678 L1598.8333,1227.3011 M1598.8333,1229.6344 L1600,1229.6344 L1600,1230.8011 L1598.8333,1230.8011 L1598.8333,1229.6344 M1598.8333,1231.9678 L1603.5,1231.9678 L1603.5,1233.1344 L1598.8333,1233.1344 L1598.8333,1231.9678 " fill="#000000" style="stroke: ; stroke-width: 0.0; stroke-dasharray: ;"/><text fill="#000000" font-family="sans-serif" font-size="14" lengthAdjust="spacingAndGlyphs" textLength="0" x="1612" y="1233.6991"/><text fill="#000000" font-family="sans-serif" font-size="14" lengthAdjust="spacingAndGlyphs" textLength="251" x="1616" y="1233.6991">Soft authority — transcribed/external</text><rect fill="#F3CBD0" height="19.0679" style="stroke: none; stroke-width: 1.0;" width="54" x="1538.6667" y="1237.8011"/><text fill="#000000" font-family="sans-serif" font-size="14" lengthAdjust="spacingAndGlyphs" textLength="0" x="1542.6667" y="1252.767"/><text fill="#000000" font-family="sans-serif" font-size="14" lengthAdjust="spacingAndGlyphs" textLength="0" x="1596.6667" y="1252.767"/><path d="M1601.75,1244.0357 L1601.1667,1245.4217 L1600.8388,1245.5675 L1599.4528,1244.9842 L1598.614,1245.823 L1599.1973,1247.209 L1599.0515,1247.5368 L1597.6655,1248.1202 L1597.6655,1249.2868 L1599.0515,1249.8702 L1599.1973,1250.2353 L1598.614,1251.584 L1599.4528,1252.4228 L1600.8388,1251.8395 L1601.1667,1251.9853 L1601.75,1253.3713 L1602.9167,1253.3713 L1603.5,1251.9853 L1603.8278,1251.8395 L1605.2138,1252.4228 L1606.0527,1251.584 L1605.4693,1250.198 L1605.6152,1249.8702 L1607.0012,1249.2868 L1607.0012,1248.1202 L1605.6152,1247.5368 L1605.4693,1247.209 L1606.0165,1245.823 L1605.2138,1244.9842 L1603.8278,1245.5675 L1603.5,1245.4217 L1602.9167,1244.0357 L1601.75,1244.0357 M1602.3333,1246.9523 C1603.3017,1246.9523 1604.0833,1247.734 1604.0833,1248.7023 C1604.0833,1249.6707 1603.3017,1250.4523 1602.3333,1250.4523 C1601.365,1250.4523 1600.5833,1249.6707 1600.5833,1248.7023 C1600.5833,1247.734 1601.365,1246.9523 1602.3333,1246.9523 " fill="#000000" style="stroke: ; stroke-width: 0.0; stroke-dasharray: ;"/><text fill="#000000" font-family="sans-serif" font-size="14" lengthAdjust="spacingAndGlyphs" textLength="0" x="1612" y="1252.767"/><text fill="#000000" font-family="sans-serif" font-size="14" lengthAdjust="spacingAndGlyphs" textLength="253" x="1616" y="1252.767">Executable oracle — point/recompute</text><rect fill="#F3CBD0" height="19.0679" style="stroke: none; stroke-width: 1.0;" width="54" x="1538.6667" y="1256.869"/><text fill="#000000" font-family="sans-serif" font-size="14" lengthAdjust="spacingAndGlyphs" textLength="0" x="1542.6667" y="1271.8349"/><text fill="#000000" font-family="sans-serif" font-size="14" lengthAdjust="spacingAndGlyphs" textLength="0" x="1596.6667" y="1271.8349"/><path d="M1602.3333,1264.2703 C1600.4072,1264.2703 1598.8333,1265.8441 1598.8333,1267.7703 L1597.6667,1267.7703 L1599.4167,1270.1036 L1601.1667,1267.7703 L1600,1267.7703 C1600,1266.4764 1601.0395,1265.4369 1602.3333,1265.4369 L1602.3333,1264.2703 M1605.25,1265.4369 L1603.5,1267.7703 L1604.6667,1267.7703 C1604.6667,1269.0641 1603.6272,1270.1036 1602.3333,1270.1036 L1602.3333,1271.2703 C1604.2595,1271.2703 1605.8333,1269.6964 1605.8333,1267.7703 L1607,1267.7703 L1605.25,1265.4369 " fill="#000000" style="stroke: ; stroke-width: 0.0; stroke-dasharray: ;"/><text fill="#000000" font-family="sans-serif" font-size="14" lengthAdjust="spacingAndGlyphs" textLength="0" x="1612" y="1271.8349"/><text fill="#000000" font-family="sans-serif" font-size="14" lengthAdjust="spacingAndGlyphs" textLength="264" x="1616" y="1271.8349">Executable oracle — standing invariant</text><rect fill="#E2E2E2" height="19.0679" style="stroke: none; stroke-width: 1.0;" width="54" x="1538.6667" y="1275.9369"/><text fill="#000000" font-family="sans-serif" font-size="14" lengthAdjust="spacingAndGlyphs" textLength="0" x="1542.6667" y="1290.9029"/><text fill="#000000" font-family="sans-serif" font-size="14" lengthAdjust="spacingAndGlyphs" textLength="0" x="1596.6667" y="1290.9029"/><path d="M1597.6667,1282.1715 L1597.6667,1283.3382 L1607,1283.3382 L1607,1282.1715 L1597.6667,1282.1715 M1597.6667,1284.5048 L1597.6667,1291.3952 C1597.6667,1291.4652 1597.7063,1291.5048 1597.7763,1291.5048 L1606.8915,1291.5048 C1606.9615,1291.5048 1607.0012,1291.4652 1607.0012,1291.3952 L1607.0012,1284.5048 L1603.5373,1284.5048 L1603.5373,1285.7077 L1601.1678,1285.7077 L1601.1678,1284.5048 L1597.6678,1284.5048 " fill="#000000" style="stroke: ; stroke-width: 0.0; stroke-dasharray: ;"/><text fill="#000000" font-family="sans-serif" font-size="14" lengthAdjust="spacingAndGlyphs" textLength="0" x="1612" y="1290.9029"/><text fill="#000000" font-family="sans-serif" font-size="14" lengthAdjust="spacingAndGlyphs" textLength="49" x="1616" y="1290.9029">Artifact</text><line style="stroke: #000000; stroke-width: 1.0;" x1="1538.6667" x2="1884" y1="1142.4615" y2="1142.4615"/><line style="stroke: #000000; stroke-width: 1.0;" x1="1538.6667" x2="1884" y1="1161.5294" y2="1161.5294"/><line style="stroke: #000000; stroke-width: 1.0;" x1="1538.6667" x2="1884" y1="1180.5973" y2="1180.5973"/><line style="stroke: #000000; stroke-width: 1.0;" x1="1538.6667" x2="1884" y1="1199.6653" y2="1199.6653"/><line style="stroke: #000000; stroke-width: 1.0;" x1="1538.6667" x2="1884" y1="1218.7332" y2="1218.7332"/><line style="stroke: #000000; stroke-width: 1.0;" x1="1538.6667" x2="1884" y1="1237.8011" y2="1237.8011"/><line style="stroke: #000000; stroke-width: 1.0;" x1="1538.6667" x2="1884" y1="1256.869" y2="1256.869"/><line style="stroke: #000000; stroke-width: 1.0;" x1="1538.6667" x2="1884" y1="1275.9369" y2="1275.9369"/><line style="stroke: #000000; stroke-width: 1.0;" x1="1538.6667" x2="1884" y1="1295.0048" y2="1295.0048"/><line style="stroke: #000000; stroke-width: 1.0;" x1="1538.6667" x2="1538.6667" y1="1142.4615" y2="1295.0048"/><line style="stroke: #000000; stroke-width: 1.0;" x1="1592.6667" x2="1592.6667" y1="1142.4615" y2="1295.0048"/><line style="stroke: #000000; stroke-width: 1.0;" x1="1612" x2="1612" y1="1142.4615" y2="1295.0048"/><line style="stroke: #000000; stroke-width: 1.0;" x1="1884" x2="1884" y1="1142.4615" y2="1295.0048"/><!--MD5=[2278a76b71ddff32d778f44924d56428]
@startuml instance-c
title instance-c (base)\n<size:11><i>guards against: blending — a clean schema masking broken runtime behaviour (id</i></size>\n<size:11><i>leaks, tracebacks, missing auth), or a clean runtime escaping stale</i></size>\n<size:11><i>documentation.</i></size>
left to right direction
skinparam rectangleBorderColor #555
skinparam shadowing false
skinparam ArrowFontColor #888888
skinparam TitleFontColor #888888

rectangle "<&compass> Gate sentinel / no-blend referee" as A_sentinel #E8541E
rectangle "<&wrench> API implementer" as A_implementer #E8541E
rectangle "<&magnifying-glass> Conformance exerciser" as A_exerciser #E8541E

rectangle "<&document> API governance policy (API_POLICY_081)" as S_api_policy #C9E7CB
rectangle "<&document> Canonical OpenAPI contract" as S_base_schema #C9E7CB
rectangle "<&cog> Document-plane linter (oracle)" as S_schema_linter #F3CBD0
rectangle "<&cog> Frozen app state DB" as S_app_db #F3CBD0
rectangle "<&loop-circular> Legacy route-signature regression oracle" as S_ty0_baseline #F3CBD0
rectangle "<&box> Implementer's server source" as S_impl_server #E2E2E2
rectangle "<&box> Implementer's published OpenAPI schema" as S_impl_openapi #E2E2E2
rectangle "<&cog> Live server runtime behaviour (oracle)" as S_runtime_oracle #F3CBD0
rectangle "<&box> Exerciser's conformance test matrix" as S_conformance_matrix #E2E2E2

A_sentinel - -> S_api_policy : U
A_sentinel - -> S_base_schema : U
A_sentinel - -> S_schema_linter : L
A_sentinel - -> S_app_db : L
A_sentinel - -> S_ty0_baseline : L
A_sentinel - -> S_runtime_oracle : L
A_sentinel - -> S_impl_openapi : L
A_sentinel - -> S_conformance_matrix : L
A_implementer - -> S_api_policy : U
A_implementer - -> S_base_schema : U
A_implementer - -> S_app_db : L
A_implementer - -> S_schema_linter : L
A_implementer ..> S_impl_server : produces
A_implementer ..> S_impl_openapi : produces
A_implementer ..> S_runtime_oracle : produces
A_exerciser - -> S_api_policy : U
A_exerciser - -> S_base_schema : U
A_exerciser - -> S_runtime_oracle : L
A_exerciser ..> S_conformance_matrix : produces

A_implementer -[#red,dashed]-> S_conformance_matrix : ✗ must not see
A_exerciser -[#red,dashed]-> S_impl_server : ✗ must not see
A_exerciser -[#red,dashed]-> S_impl_openapi : ✗ must not see

A_exerciser -[#blue]-> A_implementer : catches: a blend: a clean schema or happy-path\nruntime hiding an id leak / missing auth on an\nuntested route — via Gate B runtime assertions\n(status, exact keys, no forbidden patterns) +\nthe document-plane route cross-check
A_sentinel -[#blue]-> A_exerciser : catches: a weak happy-path matrix that misses\na clause corner — via Gate C clause coverage +\nseeded coherent-and-wrong negative controls

legend right
|= Colour |=  |= Meaning |
|<#E8541E>| <&compass> | Coordinator |
|<#E8541E>| <&wrench> | Implementer |
|<#E8541E>| <&magnifying-glass> | Exerciser |
|<#C9E7CB>| <&document> | Soft authority — transcribed/external |
|<#F3CBD0>| <&cog> | Executable oracle — point/recompute |
|<#F3CBD0>| <&loop-circular> | Executable oracle — standing invariant |
|<#E2E2E2>| <&box> | Artifact |
endlegend
@enduml

PlantUML version 1.2020.02(Sun Mar 01 11:22:07 CET 2020)
(GPL source distribution)
Java Runtime: OpenJDK Runtime Environment
JVM: OpenJDK 64-Bit Server VM
Java Version: 25.0.3+9-2-26.04.2-Ubuntu
Operating System: Linux
Default Encoding: UTF-8
Language: en
Country: US
--></g></svg>