<?xml version="1.0" encoding="UTF-8" standalone="no"?><svg xmlns="http://www.w3.org/2000/svg" xmlns:xlink="http://www.w3.org/1999/xlink" contentScriptType="application/ecmascript" contentStyleType="text/css" height="1584px" preserveAspectRatio="none" style="width:1993px;height:1584px;" version="1.1" viewBox="0 0 1993 1584" width="1993px" zoomAndPan="magnify"><defs/><g><text fill="#888888" font-family="sans-serif" font-size="18" lengthAdjust="spacingAndGlyphs" textLength="144" x="923.5" y="19.2419">instance-d (base)</text><text fill="#888888" font-family="sans-serif" font-size="11" font-style="italic" lengthAdjust="spacingAndGlyphs" textLength="359" x="816" y="36.2748">guards against: the prover discharges (Qed.) an adjacent weaker claim (e.g.</text><text fill="#888888" font-family="sans-serif" font-size="11" font-style="italic" lengthAdjust="spacingAndGlyphs" textLength="383" x="804" y="51.2566">right-identity n+0=n instead of n+m=m+n) under the intended theorem name, or</text><text fill="#888888" font-family="sans-serif" font-size="11" font-style="italic" lengthAdjust="spacingAndGlyphs" textLength="97" x="947" y="66.2385">smuggles an axiom.</text><!--MD5=[16666313b46a364dfa6fcce22871d203]
entity A_sentinel--><rect fill="#E8541E" height="39.0679" style="stroke: #555555; stroke-width: 1.5;" width="220.3333" x="6" y="920.1215"/><path d="M21.6667,936.3561 C19.0965,936.3561 17,938.4526 17,941.0228 C17,943.5929 19.0965,945.6894 21.6667,945.6894 C24.2368,945.6894 26.3333,943.5929 26.3333,941.0228 C26.3333,938.4526 24.2368,936.3561 21.6667,936.3561 M21.6667,937.5228 C23.6068,937.5228 25.1667,939.0826 25.1667,941.0228 C25.1667,942.9629 23.6068,944.5228 21.6667,944.5228 C19.7265,944.5228 18.1667,942.9629 18.1667,941.0228 C18.1667,939.0826 19.7265,937.5228 21.6667,937.5228 M24,938.6894 L20.5,939.8561 L19.3333,943.3561 L22.8333,942.1894 L24,938.6894 M21.6667,940.4394 C21.9933,940.4394 22.25,940.6961 22.25,941.0228 C22.25,941.3494 21.9933,941.6061 21.6667,941.6061 C21.34,941.6061 21.0833,941.3494 21.0833,941.0228 C21.0833,940.6961 21.34,940.4394 21.6667,940.4394 " fill="#000000" style="stroke: ; stroke-width: 0.0; stroke-dasharray: ;"/><text fill="#000000" font-family="sans-serif" font-size="14" lengthAdjust="spacingAndGlyphs" textLength="185" x="31.3333" y="945.0874">Gate sentinel / orchestrator</text><!--MD5=[ab9dd12809e291f4f90a71800b9f45ec]
entity A_formalizer--><rect fill="#E8541E" height="39.0679" style="stroke: #555555; stroke-width: 1.5;" width="168.3333" x="1262.67" y="484.1215"/><path d="M1277.17,500.3561 C1276.5283,500.3561 1276.0033,500.8811 1276.0033,501.5228 L1276.0033,507.9394 C1276.0033,508.2661 1275.7467,508.5228 1275.42,508.5228 C1275.0933,508.5228 1274.8367,508.2661 1274.8367,507.9394 L1274.8367,506.1894 L1273.67,506.1894 L1273.67,508.5228 C1273.67,509.1644 1274.195,509.6894 1274.8367,509.6894 L1280.67,509.6894 C1281.3117,509.6894 1281.8367,509.1644 1281.8367,508.5228 L1281.8367,505.0228 L1277.17,505.0228 L1277.17,502.1061 C1277.17,501.7794 1277.4267,501.5228 1277.7533,501.5228 C1278.08,501.5228 1278.3367,501.7794 1278.3367,502.1061 L1278.3367,503.8561 L1283.0033,503.8561 L1283.0033,501.5228 C1283.0033,500.8811 1282.4783,500.3561 1281.8367,500.3561 L1277.17,500.3561 " fill="#000000" style="stroke: ; stroke-width: 0.0; stroke-dasharray: ;"/><text fill="#000000" font-family="sans-serif" font-size="14" lengthAdjust="spacingAndGlyphs" textLength="133" x="1288.0033" y="509.0874">Theorem formalizer</text><!--MD5=[109e757265757af36986a9750ca24e44]
entity A_prover--><rect fill="#E8541E" height="39.0679" style="stroke: #555555; stroke-width: 1.5;" width="134.3333" x="1279.67" y="659.1215"/><path d="M1297.0867,675.3561 C1295.4767,675.3561 1294.17,676.6628 1294.17,678.2728 C1294.17,678.6461 1294.261,679.0031 1294.3893,679.3298 L1290.999,682.6839 C1290.544,683.1389 1290.544,683.8693 1290.999,684.3243 C1291.2323,684.5576 1291.5345,684.6894 1291.8378,684.6894 C1292.1412,684.6894 1292.4433,684.5833 1292.6767,684.3616 L1296.0308,681.0074 C1296.3575,681.1241 1296.7145,681.1894 1297.0878,681.1894 C1298.6978,681.1894 1300.0045,679.8828 1300.0045,678.2728 C1300.0045,678.0861 1299.9672,677.9263 1299.931,677.7618 L1298.8367,678.8561 L1296.5033,678.8561 L1296.5033,676.5228 L1297.5977,675.4284 C1297.4343,675.3934 1297.2745,675.3561 1297.0867,675.3549 M1291.8367,682.9383 C1292.1633,682.9383 1292.42,683.1949 1292.42,683.5216 C1292.42,683.8483 1292.1633,684.1049 1291.8367,684.1049 C1291.51,684.1049 1291.2533,683.8483 1291.2533,683.5216 C1291.2533,683.1949 1291.51,682.9383 1291.8367,682.9383 " fill="#000000" style="stroke: ; stroke-width: 0.0; stroke-dasharray: ;"/><text fill="#000000" font-family="sans-serif" font-size="14" lengthAdjust="spacingAndGlyphs" textLength="99" x="1305.0033" y="684.0874">Tactical prover</text><!--MD5=[71f63620eca0e672333d873ac415471c]
entity A_exerciser--><rect fill="#E8541E" height="39.0679" style="stroke: #555555; stroke-width: 1.5;" width="161.3333" x="648.83" y="558.1215"/><path d="M663.9133,574.3561 C661.6652,574.3561 659.83,576.1913 659.83,578.4394 C659.83,580.6876 661.6652,582.5228 663.9133,582.5228 C664.604,582.5228 665.2737,582.3536 665.8453,582.0491 A1.1667,1.1667 0 0 0 665.9912,582.1949 L667.1578,583.3616 A1.1853,1.1853 0 1 0 668.8355,581.6839 L667.6688,580.5173 A1.1667,1.1667 0 0 0 667.4868,580.3714 C667.7972,579.7963 667.9978,579.1359 667.9978,578.4394 C667.9978,576.1913 666.1627,574.3561 663.9145,574.3561 M663.9145,575.5228 C665.5327,575.5228 666.8312,576.8213 666.8312,578.4394 C666.8312,579.2106 666.55,579.9246 666.0658,580.4449 L666.0297,580.4811 A1.1667,1.1667 0 0 0 665.8838,580.6269 C665.3682,581.0901 664.667,581.3561 663.9145,581.3561 C662.2963,581.3561 660.9978,580.0576 660.9978,578.4394 C660.9978,576.8213 662.2963,575.5228 663.9145,575.5228 " fill="#000000" style="stroke: ; stroke-width: 0.0; stroke-dasharray: ;"/><text fill="#000000" font-family="sans-serif" font-size="14" lengthAdjust="spacingAndGlyphs" textLength="126" x="674.1633" y="583.0874">Mutation exerciser</text><!--MD5=[956debff80b36a9cd1d16d6933e54298]
entity S_textbook_manifest--><rect fill="#C9E7CB" height="39.0679" style="stroke: #555555; stroke-width: 1.5;" width="388.3333" x="1585" y="99.1215"/><path d="M1596,115.3561 L1596,124.6894 L1604.1667,124.6894 L1604.1667,120.0228 L1599.5,120.0228 L1599.5,115.3561 L1596,115.3561 M1600.6667,115.3561 L1600.6667,118.8561 L1604.1667,118.8561 L1600.6667,115.3561 M1597.1667,117.6894 L1598.3333,117.6894 L1598.3333,118.8561 L1597.1667,118.8561 L1597.1667,117.6894 M1597.1667,120.0228 L1598.3333,120.0228 L1598.3333,121.1894 L1597.1667,121.1894 L1597.1667,120.0228 M1597.1667,122.3561 L1601.8333,122.3561 L1601.8333,123.5228 L1597.1667,123.5228 L1597.1667,122.3561 " fill="#000000" style="stroke: ; stroke-width: 0.0; stroke-dasharray: ;"/><text fill="#000000" font-family="sans-serif" font-size="14" lengthAdjust="spacingAndGlyphs" textLength="353" x="1610.3333" y="124.0874">Textbook exercise manifest (English + scope clauses)</text><!--MD5=[94ea9e6b65220a12b32231281208f8b1]
entity S_rocq_stdlib--><rect fill="#F3CBD0" height="39.0679" style="stroke: #555555; stroke-width: 1.5;" width="232.3333" x="1663" y="232.1215"/><path d="M1678.0833,248.3561 L1677.5,249.7421 L1677.1722,249.8879 L1675.7862,249.3046 L1674.9473,250.1434 L1675.5307,251.5294 L1675.3848,251.8573 L1673.9988,252.4406 L1673.9988,253.6073 L1675.3848,254.1906 L1675.5307,254.5558 L1674.9473,255.9044 L1675.7862,256.7433 L1677.1722,256.1599 L1677.5,256.3058 L1678.0833,257.6918 L1679.25,257.6918 L1679.8333,256.3058 L1680.1612,256.1599 L1681.5472,256.7433 L1682.386,255.9044 L1681.8027,254.5184 L1681.9485,254.1906 L1683.3345,253.6073 L1683.3345,252.4406 L1681.9485,251.8573 L1681.8027,251.5294 L1682.3498,250.1434 L1681.5472,249.3046 L1680.1612,249.8879 L1679.8333,249.7421 L1679.25,248.3561 L1678.0833,248.3561 M1678.6667,251.2728 C1679.635,251.2728 1680.4167,252.0544 1680.4167,253.0228 C1680.4167,253.9911 1679.635,254.7728 1678.6667,254.7728 C1677.6983,254.7728 1676.9167,253.9911 1676.9167,253.0228 C1676.9167,252.0544 1677.6983,251.2728 1678.6667,251.2728 " fill="#000000" style="stroke: ; stroke-width: 0.0; stroke-dasharray: ;"/><text fill="#000000" font-family="sans-serif" font-size="14" lengthAdjust="spacingAndGlyphs" textLength="197" x="1688.3333" y="257.0874">Pinned Rocq standard library</text><!--MD5=[7dfdfa3a63234ad402a501393237a410]
entity S_coqc--><rect fill="#F3CBD0" height="39.0679" style="stroke: #555555; stroke-width: 1.5;" width="257.3333" x="1650.5" y="609.1215"/><path d="M1665.5833,625.3561 L1665,626.7421 L1664.6722,626.8879 L1663.2862,626.3046 L1662.4473,627.1434 L1663.0307,628.5294 L1662.8848,628.8573 L1661.4988,629.4406 L1661.4988,630.6073 L1662.8848,631.1906 L1663.0307,631.5558 L1662.4473,632.9044 L1663.2862,633.7433 L1664.6722,633.1599 L1665,633.3058 L1665.5833,634.6918 L1666.75,634.6918 L1667.3333,633.3058 L1667.6612,633.1599 L1669.0472,633.7433 L1669.886,632.9044 L1669.3027,631.5184 L1669.4485,631.1906 L1670.8345,630.6073 L1670.8345,629.4406 L1669.4485,628.8573 L1669.3027,628.5294 L1669.8498,627.1434 L1669.0472,626.3046 L1667.6612,626.8879 L1667.3333,626.7421 L1666.75,625.3561 L1665.5833,625.3561 M1666.1667,628.2728 C1667.135,628.2728 1667.9167,629.0544 1667.9167,630.0228 C1667.9167,630.9911 1667.135,631.7728 1666.1667,631.7728 C1665.1983,631.7728 1664.4167,630.9911 1664.4167,630.0228 C1664.4167,629.0544 1665.1983,628.2728 1666.1667,628.2728 " fill="#000000" style="stroke: ; stroke-width: 0.0; stroke-dasharray: ;"/><text fill="#000000" font-family="sans-serif" font-size="14" lengthAdjust="spacingAndGlyphs" textLength="222" x="1675.8333" y="634.0874">Rocq kernel checker (coqc 8.20.1)</text><!--MD5=[c17c9fd87390e669395e7ec3c69806f8]
entity S_rocqchk--><rect fill="#F3CBD0" height="39.0679" style="stroke: #555555; stroke-width: 1.5;" width="332.3333" x="1613" y="1188.1215"/><path d="M1628.0833,1204.3561 L1627.5,1205.7421 L1627.1722,1205.8879 L1625.7862,1205.3046 L1624.9473,1206.1434 L1625.5307,1207.5294 L1625.3848,1207.8573 L1623.9988,1208.4406 L1623.9988,1209.6073 L1625.3848,1210.1906 L1625.5307,1210.5558 L1624.9473,1211.9044 L1625.7862,1212.7433 L1627.1722,1212.1599 L1627.5,1212.3058 L1628.0833,1213.6918 L1629.25,1213.6918 L1629.8333,1212.3058 L1630.1612,1212.1599 L1631.5472,1212.7433 L1632.386,1211.9044 L1631.8027,1210.5184 L1631.9485,1210.1906 L1633.3345,1209.6073 L1633.3345,1208.4406 L1631.9485,1207.8573 L1631.8027,1207.5294 L1632.3498,1206.1434 L1631.5472,1205.3046 L1630.1612,1205.8879 L1629.8333,1205.7421 L1629.25,1204.3561 L1628.0833,1204.3561 M1628.6667,1207.2728 C1629.635,1207.2728 1630.4167,1208.0544 1630.4167,1209.0228 C1630.4167,1209.9911 1629.635,1210.7728 1628.6667,1210.7728 C1627.6983,1210.7728 1626.9167,1209.9911 1626.9167,1209.0228 C1626.9167,1208.0544 1627.6983,1207.2728 1628.6667,1207.2728 " fill="#000000" style="stroke: ; stroke-width: 0.0; stroke-dasharray: ;"/><text fill="#000000" font-family="sans-serif" font-size="14" lengthAdjust="spacingAndGlyphs" textLength="297" x="1638.3333" y="1213.0874">Axiom auditor (rocqchk --print-assumptions)</text><!--MD5=[cd3177cf756c9ac38b161624a3101b22]
entity S_proof_registry--><rect fill="#F3CBD0" height="39.0679" style="stroke: #555555; stroke-width: 1.5;" width="366.3333" x="546.33" y="1314.1215"/><path d="M561.9967,1331.5228 C560.0705,1331.5228 558.4967,1333.0966 558.4967,1335.0228 L557.33,1335.0228 L559.08,1337.3561 L560.83,1335.0228 L559.6633,1335.0228 C559.6633,1333.7289 560.7028,1332.6894 561.9967,1332.6894 L561.9967,1331.5228 M564.9133,1332.6894 L563.1633,1335.0228 L564.33,1335.0228 C564.33,1336.3166 563.2905,1337.3561 561.9967,1337.3561 L561.9967,1338.5228 C563.9228,1338.5228 565.4967,1336.9489 565.4967,1335.0228 L566.6633,1335.0228 L564.9133,1332.6894 " fill="#000000" style="stroke: ; stroke-width: 0.0; stroke-dasharray: ;"/><text fill="#000000" font-family="sans-serif" font-size="14" lengthAdjust="spacingAndGlyphs" textLength="331" x="571.6633" y="1339.0874">Prior-proofs registry + signature (invariant plane)</text><!--MD5=[e2c8e1a34a650792fc563e2072035fd0]
entity S_formal_statement--><rect fill="#E2E2E2" height="39.0679" style="stroke: #555555; stroke-width: 1.5;" width="294.3333" x="1632" y="382.1215"/><path d="M1643,398.3561 L1643,399.5228 L1652.3333,399.5228 L1652.3333,398.3561 L1643,398.3561 M1643,400.6894 L1643,407.5798 C1643,407.6498 1643.0397,407.6894 1643.1097,407.6894 L1652.2248,407.6894 C1652.2948,407.6894 1652.3345,407.6498 1652.3345,407.5798 L1652.3345,400.6894 L1648.8707,400.6894 L1648.8707,401.8923 L1646.5012,401.8923 L1646.5012,400.6894 L1643.0012,400.6894 " fill="#000000" style="stroke: ; stroke-width: 0.0; stroke-dasharray: ;"/><text fill="#000000" font-family="sans-serif" font-size="14" lengthAdjust="spacingAndGlyphs" textLength="259" x="1657.3333" y="407.0874">Formalizer's naked theorem statement</text><!--MD5=[2de61d9611206922c5cf66842c06a498]
entity S_proof_script--><rect fill="#E2E2E2" height="39.0679" style="stroke: #555555; stroke-width: 1.5;" width="180.3333" x="1689" y="886.1215"/><path d="M1700,902.3561 L1700,903.5228 L1709.3333,903.5228 L1709.3333,902.3561 L1700,902.3561 M1700,904.6894 L1700,911.5798 C1700,911.6498 1700.0397,911.6894 1700.1097,911.6894 L1709.2248,911.6894 C1709.2948,911.6894 1709.3345,911.6498 1709.3345,911.5798 L1709.3345,904.6894 L1705.8707,904.6894 L1705.8707,905.8923 L1703.5012,905.8923 L1703.5012,904.6894 L1700.0012,904.6894 " fill="#000000" style="stroke: ; stroke-width: 0.0; stroke-dasharray: ;"/><text fill="#000000" font-family="sans-serif" font-size="14" lengthAdjust="spacingAndGlyphs" textLength="145" x="1714.3333" y="911.0874">Prover's tactical proof</text><!--MD5=[7876d374d4af6b2f10f7223d159ff0a8]
entity S_mutation_matrix--><rect fill="#E2E2E2" height="39.0679" style="stroke: #555555; stroke-width: 1.5;" width="276.3333" x="1641" y="1072.1215"/><path d="M1652,1088.3561 L1652,1089.5228 L1661.3333,1089.5228 L1661.3333,1088.3561 L1652,1088.3561 M1652,1090.6894 L1652,1097.5798 C1652,1097.6498 1652.0397,1097.6894 1652.1097,1097.6894 L1661.2248,1097.6894 C1661.2948,1097.6894 1661.3345,1097.6498 1661.3345,1097.5798 L1661.3345,1090.6894 L1657.8707,1090.6894 L1657.8707,1091.8923 L1655.5012,1091.8923 L1655.5012,1090.6894 L1652.0012,1090.6894 " fill="#000000" style="stroke: ; stroke-width: 0.0; stroke-dasharray: ;"/><text fill="#000000" font-family="sans-serif" font-size="14" lengthAdjust="spacingAndGlyphs" textLength="241" x="1666.3333" y="1097.0874">Exerciser's false-theorem mutations</text><!--MD5=[6b2faa31e64a0adbe9d5707e75faa70d]
link A_sentinel to S_textbook_manifest--><path d="M118.8,919.9815 C125.23,852.9315 153.65,629.5015 256.33,483.6515 C348.85,352.2415 405.8,345.6115 546.33,267.6515 C711.73,175.9015 757.49,151.1815 942.67,112.6515 C1082,83.6615 1120.37,103.3215 1262.67,100.6515 C1337.47,99.2515 1356.19,99.7515 1431,100.6515 C1486.12,101.3215 1499.93,101.1415 1555,103.6515 C1562.73,104.0015 1570.6,104.3915 1578.56,104.8115 " fill="none" id="A_sentinel-&gt;S_textbook_manifest" style="stroke: #A80036; stroke-width: 1.0;"/><polygon fill="#A80036" points="1583.15,105.0515,1574.3801,100.5695,1578.1574,104.7805,1573.9464,108.5578,1583.15,105.0515" style="stroke: #A80036; stroke-width: 1.0;"/><text fill="#888888" font-family="sans-serif" font-size="13" lengthAdjust="spacingAndGlyphs" textLength="10" x="1082.67" y="92.4885">U</text><!--MD5=[3ea5c5db710691d7a69c3b26de2ad07e]
link A_sentinel to S_rocq_stdlib--><path d="M121,919.6515 C132.33,865.4915 170.36,714.0915 256.33,624.6515 C601.48,265.5915 777.48,244.1115 1262.67,131.6515 C1438.73,90.8415 1648.54,183.5715 1736.32,228.7415 " fill="none" id="A_sentinel-&gt;S_rocq_stdlib" style="stroke: #A80036; stroke-width: 1.0;"/><polygon fill="#A80036" points="1740.58,230.9415,1734.4459,223.2361,1736.1456,228.6316,1730.7501,230.3312,1740.58,230.9415" style="stroke: #A80036; stroke-width: 1.0;"/><text fill="#888888" font-family="sans-serif" font-size="13" lengthAdjust="spacingAndGlyphs" textLength="7" x="1084.17" y="135.1985">L</text><!--MD5=[227c5e4b4abca9d97b50c40cb01f2072]
link A_sentinel to S_coqc--><path d="M226.56,932.4715 C236.62,931.8415 246.67,931.2315 256.33,930.6515 C778.26,899.5615 914.92,950.4815 1431,866.6515 C1487.41,857.4915 1504.96,860.2515 1555,832.6515 C1641.97,784.6815 1722.29,696.1815 1758.28,653.2715 " fill="none" id="A_sentinel-&gt;S_coqc" style="stroke: #A80036; stroke-width: 1.0;"/><polygon fill="#A80036" points="1761.27,649.6815,1752.437,654.038,1758.0705,653.5238,1758.5847,659.1572,1761.27,649.6815" style="stroke: #A80036; stroke-width: 1.0;"/><text fill="#888888" font-family="sans-serif" font-size="13" lengthAdjust="spacingAndGlyphs" textLength="7" x="1084.17" y="891.3485">L</text><!--MD5=[6ee6599303d8c7020553ec16c4e76690]
link A_sentinel to S_rocqchk--><path d="M141.81,959.5915 C168.51,980.2515 213.11,1012.0515 256.33,1030.6515 C378.03,1083.0215 416.16,1075.0215 546.33,1099.6515 C920.33,1170.4115 1367.16,1194.9615 1606.54,1203.3715 " fill="none" id="A_sentinel-&gt;S_rocqchk" style="stroke: #A80036; stroke-width: 1.0;"/><polygon fill="#A80036" points="1611.34,1203.5315,1602.4823,1199.2255,1606.3429,1203.3602,1602.2082,1207.2208,1611.34,1203.5315" style="stroke: #A80036; stroke-width: 1.0;"/><text fill="#888888" font-family="sans-serif" font-size="13" lengthAdjust="spacingAndGlyphs" textLength="7" x="1084.17" y="1153.4285">L</text><!--MD5=[059e02224c6e418d62e58d551c878702]
link A_sentinel to S_proof_registry--><path d="M117.73,959.4615 C120.69,1022.5715 139.34,1219.7515 256.33,1305.6515 C367.69,1387.4115 536.59,1373.8115 639.32,1354.8715 " fill="none" id="A_sentinel-&gt;S_proof_registry" style="stroke: #A80036; stroke-width: 1.0;"/><polygon fill="#A80036" points="644.19,1353.9515,634.6102,1351.6652,639.2743,1354.866,636.0735,1359.5302,644.19,1353.9515" style="stroke: #A80036; stroke-width: 1.0;"/><text fill="#888888" font-family="sans-serif" font-size="13" lengthAdjust="spacingAndGlyphs" textLength="7" x="382.83" y="1301.5485">L</text><!--MD5=[780bd8092108b5c6aa85340e27653441]
link A_sentinel to S_proof_script--><path d="M226.4,946.9515 C455.25,961.8215 1001.84,995.2115 1461,1006.6515 C1502.76,1007.6915 1514.16,1015.4615 1555,1006.6515 C1624.03,991.7615 1697.4,953.6915 1740.44,928.7815 " fill="none" id="A_sentinel-&gt;S_proof_script" style="stroke: #A80036; stroke-width: 1.0;"/><polygon fill="#A80036" points="1744.74,926.2715,1734.9501,927.3472,1740.4201,928.7891,1738.9782,934.2591,1744.74,926.2715" style="stroke: #A80036; stroke-width: 1.0;"/><text fill="#888888" font-family="sans-serif" font-size="13" lengthAdjust="spacingAndGlyphs" textLength="7" x="1084.17" y="983.5085">L</text><!--MD5=[fd8349b712112a9df42713c17a58525f]
link A_sentinel to S_mutation_matrix--><path d="M196.02,959.6315 C215.65,964.2515 236.7,968.9015 256.33,972.6515 C787.77,1074.0515 921.38,1108.6615 1461,1147.6515 C1502.67,1150.6615 1513.54,1152.7715 1555,1147.6515 C1607.82,1141.1315 1666.11,1126.2215 1709.86,1113.4315 " fill="none" id="A_sentinel-&gt;S_mutation_matrix" style="stroke: #A80036; stroke-width: 1.0;"/><polygon fill="#A80036" points="1714.49,1112.0715,1704.7264,1110.7783,1709.6939,1113.4847,1706.9875,1118.4521,1714.49,1112.0715" style="stroke: #A80036; stroke-width: 1.0;"/><text fill="#888888" font-family="sans-serif" font-size="13" lengthAdjust="spacingAndGlyphs" textLength="7" x="1084.17" y="1093.2285">L</text><!--MD5=[3bfbb9643f8696a3f6b273ba2f7c7dc2]
link A_formalizer to S_textbook_manifest--><path d="M1368.16,483.6615 C1386.76,464.4015 1413.9,433.6915 1431,402.6515 C1451.55,365.3515 1436.51,346.4915 1461,311.6515 C1522.56,224.0715 1637.74,168.9015 1711.05,140.9415 " fill="none" id="A_formalizer-&gt;S_textbook_manifest" style="stroke: #A80036; stroke-width: 1.0;"/><polygon fill="#A80036" points="1715.72,139.1815,1705.887,138.6226,1711.0431,140.9496,1708.716,146.1057,1715.72,139.1815" style="stroke: #A80036; stroke-width: 1.0;"/><text fill="#888888" font-family="sans-serif" font-size="13" lengthAdjust="spacingAndGlyphs" textLength="10" x="1503" y="217.5385">U</text><!--MD5=[2d504c45bfd37d22b7bb794c6a2fa7ee]
link A_formalizer to S_rocq_stdlib--><path d="M1363.65,483.8315 C1384.03,459.3315 1421.56,417.5715 1461,390.6515 C1539.45,337.1115 1641.86,296.7215 1708.78,273.6315 " fill="none" id="A_formalizer-&gt;S_rocq_stdlib" style="stroke: #A80036; stroke-width: 1.0;"/><polygon fill="#A80036" points="1713.31,272.0815,1703.5003,271.2038,1708.5781,273.6969,1706.085,278.7747,1713.31,272.0815" style="stroke: #A80036; stroke-width: 1.0;"/><text fill="#888888" font-family="sans-serif" font-size="13" lengthAdjust="spacingAndGlyphs" textLength="7" x="1504.5" y="334.4885">L</text><!--MD5=[5d2cab02e8df0178e8c0a22725d39729]
link A_formalizer to S_coqc--><path d="M1426.27,523.6015 C1465.11,533.7015 1512.64,546.3915 1555,558.6515 C1607.71,573.9115 1666.96,592.5615 1711.16,606.7815 " fill="none" id="A_formalizer-&gt;S_coqc" style="stroke: #A80036; stroke-width: 1.0;"/><polygon fill="#A80036" points="1715.85,608.2915,1708.5051,601.73,1711.0897,606.7619,1706.0578,609.3465,1715.85,608.2915" style="stroke: #A80036; stroke-width: 1.0;"/><text fill="#888888" font-family="sans-serif" font-size="13" lengthAdjust="spacingAndGlyphs" textLength="7" x="1504.5" y="529.4985">L</text><!--MD5=[6c59756750a3fd60283a9e8c596382bc]
link A_formalizer to S_formal_statement--><path d="M1376.18,483.7915 C1398.26,469.3715 1430.21,450.6915 1461,440.6515 C1513.08,423.6715 1572.17,413.9915 1625.11,408.5015 " fill="none" id="A_formalizer-&gt;S_formal_statement" style="stroke: #A80036; stroke-width: 1.0; stroke-dasharray: 7.0,7.0;"/><polygon fill="#A80036" points="1630.03,408.0015,1620.6758,404.9195,1625.055,408.5004,1621.4741,412.8796,1630.03,408.0015" style="stroke: #A80036; stroke-width: 1.0;"/><text fill="#888888" font-family="sans-serif" font-size="13" lengthAdjust="spacingAndGlyphs" textLength="56" x="1480" y="414.0385">produces</text><!--MD5=[37c51fd36dedcfa700fcdb89e5453e5e]
link A_prover to S_formal_statement--><path d="M1402.63,658.7115 C1445.6,642.0015 1506.1,616.0215 1555,585.6515 C1633.3,537.0315 1714.03,463.5515 1753.47,425.8415 " fill="none" id="A_prover-&gt;S_formal_statement" style="stroke: #A80036; stroke-width: 1.0;"/><polygon fill="#A80036" points="1756.98,422.4815,1747.7179,425.8303,1753.3736,425.9448,1753.2591,431.6005,1756.98,422.4815" style="stroke: #A80036; stroke-width: 1.0;"/><text fill="#888888" font-family="sans-serif" font-size="13" lengthAdjust="spacingAndGlyphs" textLength="10" x="1503" y="581.5485">U</text><!--MD5=[d3738c5fd148f613647f89cf1ddc88d9]
link A_prover to S_rocq_stdlib--><path d="M1387.74,658.8015 C1403.31,649.2315 1420.01,636.3815 1431,620.6515 C1461,577.7015 1426.56,546.1315 1461,506.6515 C1490.74,472.5715 1524.82,501.3415 1555,467.6515 C1586.81,432.1415 1555.67,402.2515 1585,364.6515 C1618.32,321.9315 1672.65,292.2315 1715.22,274.0315 " fill="none" id="A_prover-&gt;S_rocq_stdlib" style="stroke: #A80036; stroke-width: 1.0;"/><polygon fill="#A80036" points="1719.75,272.1215,1709.9031,271.9275,1715.1418,274.0618,1713.0075,279.3006,1719.75,272.1215" style="stroke: #A80036; stroke-width: 1.0;"/><text fill="#888888" font-family="sans-serif" font-size="13" lengthAdjust="spacingAndGlyphs" textLength="7" x="1504.5" y="463.5485">L</text><!--MD5=[d696739600bd9afa1385e2c06a42d1bc]
link A_prover to S_coqc--><path d="M1414.25,680.7115 C1429.6,681.1015 1445.87,681.4515 1461,681.6515 C1502.77,682.2015 1513.51,686.5115 1555,681.6515 C1606.18,675.6615 1662.65,662.1815 1705.98,650.3215 " fill="none" id="A_prover-&gt;S_coqc" style="stroke: #A80036; stroke-width: 1.0;"/><polygon fill="#A80036" points="1710.54,649.0615,1700.8002,647.5998,1705.7202,650.3916,1702.9284,655.3116,1710.54,649.0615" style="stroke: #A80036; stroke-width: 1.0;"/><text fill="#888888" font-family="sans-serif" font-size="13" lengthAdjust="spacingAndGlyphs" textLength="7" x="1504.5" y="677.5485">L</text><!--MD5=[f6f5270098bb266f045e8fc8abe989aa]
link A_prover to S_rocqchk--><path d="M1372.03,698.5315 C1391.55,716.0815 1417.84,743.5215 1431,773.6515 C1482.16,890.7815 1390.56,953.0115 1461,1059.6515 C1506.52,1128.5715 1593.12,1166.0215 1664.34,1186.0015 " fill="none" id="A_prover-&gt;S_rocqchk" style="stroke: #A80036; stroke-width: 1.0;"/><polygon fill="#A80036" points="1668.85,1187.2415,1661.2384,1180.9915,1664.0302,1185.9114,1659.1102,1188.7032,1668.85,1187.2415" style="stroke: #A80036; stroke-width: 1.0;"/><text fill="#888888" font-family="sans-serif" font-size="13" lengthAdjust="spacingAndGlyphs" textLength="7" x="1504.5" y="1055.5485">L</text><!--MD5=[37f59a634025063ac31fa47e3c14ff5b]
link A_prover to S_proof_script--><path d="M1364.37,698.5915 C1390.01,729.1015 1438.73,785.3615 1461,799.6515 C1528.8,843.1815 1616.29,870.6615 1682.21,886.7115 " fill="none" id="A_prover-&gt;S_proof_script" style="stroke: #A80036; stroke-width: 1.0; stroke-dasharray: 7.0,7.0;"/><polygon fill="#A80036" points="1687.05,887.8715,1679.222,881.8947,1682.1861,886.7128,1677.368,889.6769,1687.05,887.8715" style="stroke: #A80036; stroke-width: 1.0;"/><text fill="#888888" font-family="sans-serif" font-size="13" lengthAdjust="spacingAndGlyphs" textLength="56" x="1480" y="795.5485">produces</text><!--MD5=[360efa6fb9029238809ee5ac5e27687d]
link A_exerciser to S_textbook_manifest--><path d="M739.96,557.8115 C765.23,507.0615 839.44,371.7015 942.67,303.6515 C1134.2,177.3815 1398.67,136.1315 1578.39,123.2815 " fill="none" id="A_exerciser-&gt;S_textbook_manifest" style="stroke: #A80036; stroke-width: 1.0;"/><polygon fill="#A80036" points="1583.23,122.9415,1573.9672,119.5948,1578.2428,123.2988,1574.5388,127.5743,1583.23,122.9415" style="stroke: #A80036; stroke-width: 1.0;"/><text fill="#888888" font-family="sans-serif" font-size="13" lengthAdjust="spacingAndGlyphs" textLength="10" x="1341.83" y="136.2585">U</text><!--MD5=[41d7126ab934ad8bf2a479382d8e7ed0]
link A_exerciser to S_formal_statement--><path d="M748.91,557.7715 C783.09,522.4115 860.42,449.4915 942.67,419.6515 C1184.04,332.0915 1490.98,356.9915 1657.47,380.7115 " fill="none" id="A_exerciser-&gt;S_formal_statement" style="stroke: #A80036; stroke-width: 1.0;"/><polygon fill="#A80036" points="1662.33,381.4115,1653.9925,376.1688,1657.3811,380.6984,1652.8515,384.087,1662.33,381.4115" style="stroke: #A80036; stroke-width: 1.0;"/><text fill="#888888" font-family="sans-serif" font-size="13" lengthAdjust="spacingAndGlyphs" textLength="10" x="1341.83" y="354.1785">U</text><!--MD5=[7a9266b60a3f23dcdfad3d541c8bee31]
link A_exerciser to S_rocq_stdlib--><path d="M744.42,557.7515 C775.09,515.4815 852.93,416.4215 942.67,365.6515 C1137.37,255.4815 1227.45,336.4615 1431,243.6515 C1445.81,236.9015 1445.48,227.5415 1461,222.6515 C1500.85,210.0915 1513.31,219.9515 1555,222.6515 C1588.03,224.7915 1623.65,228.6915 1656.51,232.9515 " fill="none" id="A_exerciser-&gt;S_rocq_stdlib" style="stroke: #A80036; stroke-width: 1.0;"/><polygon fill="#A80036" points="1661.12,233.5515,1652.7237,228.4035,1656.1634,232.8944,1651.6724,236.3341,1661.12,233.5515" style="stroke: #A80036; stroke-width: 1.0;"/><text fill="#888888" font-family="sans-serif" font-size="13" lengthAdjust="spacingAndGlyphs" textLength="7" x="1343.33" y="239.5485">L</text><!--MD5=[8b75eaff08f79f18ce936f5c570642b3]
link A_exerciser to S_coqc--><path d="M810.52,577.0715 C958,576.5915 1282.51,578.3715 1555,599.6515 C1583.82,601.9015 1614.62,605.2715 1643.85,608.9315 " fill="none" id="A_exerciser-&gt;S_coqc" style="stroke: #A80036; stroke-width: 1.0;"/><polygon fill="#A80036" points="1648.56,609.5315,1640.1328,604.4342,1643.5995,608.9043,1639.1293,612.371,1648.56,609.5315" style="stroke: #A80036; stroke-width: 1.0;"/><text fill="#888888" font-family="sans-serif" font-size="13" lengthAdjust="spacingAndGlyphs" textLength="7" x="1343.33" y="579.8485">L</text><!--MD5=[22ce9bbb52a778dbdb960520f08344be]
link A_exerciser to S_mutation_matrix--><path d="M736.31,597.4415 C755.13,657.9115 820.37,841.5515 942.67,931.6515 C957.4,942.5015 1244.73,1006.0415 1262.67,1009.6515 C1387.56,1034.7615 1530.73,1057.0215 1634.45,1071.9915 " fill="none" id="A_exerciser-&gt;S_mutation_matrix" style="stroke: #A80036; stroke-width: 1.0; stroke-dasharray: 7.0,7.0;"/><polygon fill="#A80036" points="1639.1,1072.6615,1630.7625,1067.4188,1634.1511,1071.9484,1629.6215,1075.337,1639.1,1072.6615" style="stroke: #A80036; stroke-width: 1.0;"/><text fill="#888888" font-family="sans-serif" font-size="13" lengthAdjust="spacingAndGlyphs" textLength="56" x="1318.83" y="1005.5485">produces</text><!--MD5=[c2480ba7218574404074f9ce1309c5fc]
link A_formalizer to S_proof_script--><path d="M1399.04,523.4515 C1411.16,530.3615 1422.9,539.3215 1431,550.6515 C1473.09,609.5015 1420,651.0415 1461,710.6515 C1470.09,723.8815 1656.03,833.9815 1738.9,882.6615 " fill="none" id="A_formalizer-&gt;S_proof_script" style="stroke: #FF0000; stroke-width: 1.0; stroke-dasharray: 7.0,7.0;"/><polygon fill="#FF0000" points="1742.9,885.0115,1737.1776,876.9956,1738.5925,882.4727,1733.1155,883.8876,1742.9,885.0115" style="stroke: #FF0000; stroke-width: 1.0;"/><text fill="#888888" font-family="sans-serif" font-size="13" lengthAdjust="spacingAndGlyphs" textLength="92" x="1462" y="706.5485">✗ must not see</text><!--MD5=[3081d29fb05d2681583307aa0fb0126e]
link A_formalizer to S_mutation_matrix--><path d="M1400.62,523.4515 C1412.42,530.3115 1423.61,539.2415 1431,550.6515 C1508.9,670.9115 1388.18,748.2515 1461,871.6515 C1486.69,915.1815 1513.4,906.9515 1555,935.6515 C1622.68,982.3415 1701.41,1037.6015 1744.93,1068.2315 " fill="none" id="A_formalizer-&gt;S_mutation_matrix" style="stroke: #FF0000; stroke-width: 1.0; stroke-dasharray: 7.0,7.0;"/><polygon fill="#FF0000" points="1748.82,1070.9715,1743.7566,1062.5239,1744.7292,1068.0965,1739.1566,1069.0692,1748.82,1070.9715" style="stroke: #FF0000; stroke-width: 1.0;"/><text fill="#888888" font-family="sans-serif" font-size="13" lengthAdjust="spacingAndGlyphs" textLength="92" x="1462" y="867.5485">✗ must not see</text><!--MD5=[5120cc2eb8127e55394ef2e49de46a51]
link A_prover to S_mutation_matrix--><path d="M1371.22,698.3715 C1390.5,716.0315 1416.9,743.7015 1431,773.6515 C1466.47,849.0215 1409.45,893.2215 1461,958.6515 C1508.17,1018.5215 1587.15,1051.7515 1654.5,1070.0315 " fill="none" id="A_prover-&gt;S_mutation_matrix" style="stroke: #FF0000; stroke-width: 1.0; stroke-dasharray: 7.0,7.0;"/><polygon fill="#FF0000" points="1659.1,1071.2515,1651.4277,1065.0761,1654.2674,1069.9685,1649.3749,1072.8082,1659.1,1071.2515" style="stroke: #FF0000; stroke-width: 1.0;"/><text fill="#888888" font-family="sans-serif" font-size="13" lengthAdjust="spacingAndGlyphs" textLength="92" x="1462" y="954.5485">✗ must not see</text><!--MD5=[6fe234d7fdfd372fcbe62e7ac882a411]
link A_exerciser to S_proof_script--><path d="M764.16,597.6715 C805.88,622.4015 879.23,665.6215 942.67,701.6515 C1070.67,774.3515 1104.26,789.6815 1232.67,861.6515 C1334.53,918.7515 1348.11,961.7715 1461,991.6515 C1562.25,1018.4515 1681.38,962.5915 1740.69,928.8415 " fill="none" id="A_exerciser-&gt;S_proof_script" style="stroke: #FF0000; stroke-width: 1.0; stroke-dasharray: 7.0,7.0;"/><polygon fill="#FF0000" points="1744.93,926.4015,1735.1334,927.4147,1740.5941,928.8914,1739.1173,934.3521,1744.93,926.4015" style="stroke: #FF0000; stroke-width: 1.0;"/><text fill="#888888" font-family="sans-serif" font-size="13" lengthAdjust="spacingAndGlyphs" textLength="92" x="1300.83" y="876.0585">✗ must not see</text><!--MD5=[b06db6bd53855465669ffe1c27949721]
link A_exerciser to A_formalizer--><path d="M810.59,567.7715 C850.31,562.8915 899.01,556.9315 942.67,551.6515 C1050.43,538.6315 1174.42,523.9115 1256.13,514.2415 " fill="none" id="A_exerciser-&gt;A_formalizer" style="stroke: #0000FF; stroke-width: 1.0;"/><polygon fill="#0000FF" points="1260.93,513.6715,1251.5238,510.752,1255.9643,514.2565,1252.4598,518.6971,1260.93,513.6715" style="stroke: #0000FF; stroke-width: 1.0;"/><text fill="#888888" font-family="sans-serif" font-size="13" lengthAdjust="spacingAndGlyphs" textLength="268" x="953.67" y="442.2585">catches: a vacuous or inconsistent statement</text><text fill="#888888" font-family="sans-serif" font-size="13" lengthAdjust="spacingAndGlyphs" textLength="243" x="966.17" y="459.9645">(e.g. a false hypothesis that trivialises the</text><text fill="#888888" font-family="sans-serif" font-size="13" lengthAdjust="spacingAndGlyphs" textLength="286" x="944.67" y="477.6706">goal) — via a vacuous-hypothesis mutation that</text><text fill="#888888" font-family="sans-serif" font-size="13" lengthAdjust="spacingAndGlyphs" textLength="252" x="961.67" y="495.3766">should be rejected; the kernel/axiom audit</text><text fill="#888888" font-family="sans-serif" font-size="13" lengthAdjust="spacingAndGlyphs" textLength="154" x="1010.67" y="513.0826">catches smuggled axioms</text><!--MD5=[01d98496dfcb13c62dd38f08579201d9]
link A_exerciser to A_prover--><path d="M762.39,597.6715 C802.62,621.6415 874.76,660.4615 942.67,675.6515 C1055.84,700.9715 1191.4,694.7715 1272.96,687.2515 " fill="none" id="A_exerciser-&gt;A_prover" style="stroke: #0000FF; stroke-width: 1.0;"/><polygon fill="#0000FF" points="1277.71,686.8015,1268.3726,683.669,1272.7323,687.2735,1269.1278,691.6333,1277.71,686.8015" style="stroke: #0000FF; stroke-width: 1.0;"/><text fill="#888888" font-family="sans-serif" font-size="13" lengthAdjust="spacingAndGlyphs" textLength="288" x="943.67" y="618.5485">catches: discharges an adjacent weaker theorem</text><text fill="#888888" font-family="sans-serif" font-size="13" lengthAdjust="spacingAndGlyphs" textLength="260" x="957.67" y="636.2545">under the intended name — via identity-flip</text><text fill="#888888" font-family="sans-serif" font-size="13" lengthAdjust="spacingAndGlyphs" textLength="228" x="973.67" y="653.9606">mutations the kernel must reject; type</text><text fill="#888888" font-family="sans-serif" font-size="13" lengthAdjust="spacingAndGlyphs" textLength="278" x="948.67" y="671.6666">cross-check of the proof against the statement</text><!--MD5=[7b2ba98715a0d64db676df08bab5052e]
link A_sentinel to A_exerciser--><path d="M150.91,919.6715 C256.01,857.4315 577.22,667.2315 689.37,600.8215 " fill="none" id="A_sentinel-&gt;A_exerciser" style="stroke: #0000FF; stroke-width: 1.0;"/><polygon fill="#0000FF" points="693.56,598.3415,683.7771,599.4797,689.2562,600.8866,687.8493,606.3657,693.56,598.3415" style="stroke: #0000FF; stroke-width: 1.0;"/><text fill="#888888" font-family="sans-serif" font-size="13" lengthAdjust="spacingAndGlyphs" textLength="248" x="262.33" y="647.9785">catches: omits a mutation for some scope</text><text fill="#888888" font-family="sans-serif" font-size="13" lengthAdjust="spacingAndGlyphs" textLength="258" x="257.33" y="665.6845">clause — via Gate C requires every manifest</text><text fill="#888888" font-family="sans-serif" font-size="13" lengthAdjust="spacingAndGlyphs" textLength="216" x="278.33" y="683.3906">clause to appear in some mutation's</text><text fill="#888888" font-family="sans-serif" font-size="13" lengthAdjust="spacingAndGlyphs" textLength="86" x="343.33" y="701.0966">target_clauses</text><rect fill="#DDDDDD" height="185.6113" rx="5" ry="5" style="stroke: #000000; stroke-width: 1.0;" width="357.3333" x="1624.6667" y="1387.4615"/><text fill="#000000" font-family="sans-serif" font-size="14" font-weight="bold" lengthAdjust="spacingAndGlyphs" textLength="46" x="1634.6667" y="1409.4274">Colour</text><text fill="#000000" font-family="sans-serif" font-size="14" font-weight="bold" lengthAdjust="spacingAndGlyphs" textLength="0" x="1692.6667" y="1409.4274"/><text fill="#000000" font-family="sans-serif" font-size="14" font-weight="bold" lengthAdjust="spacingAndGlyphs" textLength="60" x="1708" y="1409.4274">Meaning</text><rect fill="#E8541E" height="19.0679" style="stroke: none; stroke-width: 1.0;" width="54" x="1630.6667" y="1413.5294"/><text fill="#000000" font-family="sans-serif" font-size="14" lengthAdjust="spacingAndGlyphs" textLength="0" x="1634.6667" y="1428.4954"/><text fill="#000000" font-family="sans-serif" font-size="14" lengthAdjust="spacingAndGlyphs" textLength="0" x="1688.6667" y="1428.4954"/><path d="M1694.3333,1419.764 C1691.7632,1419.764 1689.6667,1421.8605 1689.6667,1424.4307 C1689.6667,1427.0008 1691.7632,1429.0973 1694.3333,1429.0973 C1696.9035,1429.0973 1699,1427.0008 1699,1424.4307 C1699,1421.8605 1696.9035,1419.764 1694.3333,1419.764 M1694.3333,1420.9307 C1696.2735,1420.9307 1697.8333,1422.4905 1697.8333,1424.4307 C1697.8333,1426.3708 1696.2735,1427.9307 1694.3333,1427.9307 C1692.3932,1427.9307 1690.8333,1426.3708 1690.8333,1424.4307 C1690.8333,1422.4905 1692.3932,1420.9307 1694.3333,1420.9307 M1696.6667,1422.0973 L1693.1667,1423.264 L1692,1426.764 L1695.5,1425.5973 L1696.6667,1422.0973 M1694.3333,1423.8473 C1694.66,1423.8473 1694.9167,1424.104 1694.9167,1424.4307 C1694.9167,1424.7573 1694.66,1425.014 1694.3333,1425.014 C1694.0067,1425.014 1693.75,1424.7573 1693.75,1424.4307 C1693.75,1424.104 1694.0067,1423.8473 1694.3333,1423.8473 " fill="#000000" style="stroke: ; stroke-width: 0.0; stroke-dasharray: ;"/><text fill="#000000" font-family="sans-serif" font-size="14" lengthAdjust="spacingAndGlyphs" textLength="0" x="1704" y="1428.4954"/><text fill="#000000" font-family="sans-serif" font-size="14" lengthAdjust="spacingAndGlyphs" textLength="80" x="1708" y="1428.4954">Coordinator</text><rect fill="#E8541E" height="19.0679" style="stroke: none; stroke-width: 1.0;" width="54" x="1630.6667" y="1432.5973"/><text fill="#000000" font-family="sans-serif" font-size="14" lengthAdjust="spacingAndGlyphs" textLength="0" x="1634.6667" y="1447.5633"/><text fill="#000000" font-family="sans-serif" font-size="14" lengthAdjust="spacingAndGlyphs" textLength="0" x="1688.6667" y="1447.5633"/><path d="M1693.1667,1438.8319 C1692.525,1438.8319 1692,1439.3569 1692,1439.9986 L1692,1446.4153 C1692,1446.7419 1691.7433,1446.9986 1691.4167,1446.9986 C1691.09,1446.9986 1690.8333,1446.7419 1690.8333,1446.4153 L1690.8333,1444.6653 L1689.6667,1444.6653 L1689.6667,1446.9986 C1689.6667,1447.6403 1690.1917,1448.1653 1690.8333,1448.1653 L1696.6667,1448.1653 C1697.3083,1448.1653 1697.8333,1447.6403 1697.8333,1446.9986 L1697.8333,1443.4986 L1693.1667,1443.4986 L1693.1667,1440.5819 C1693.1667,1440.2553 1693.4233,1439.9986 1693.75,1439.9986 C1694.0767,1439.9986 1694.3333,1440.2553 1694.3333,1440.5819 L1694.3333,1442.3319 L1699,1442.3319 L1699,1439.9986 C1699,1439.3569 1698.475,1438.8319 1697.8333,1438.8319 L1693.1667,1438.8319 " fill="#000000" style="stroke: ; stroke-width: 0.0; stroke-dasharray: ;"/><text fill="#000000" font-family="sans-serif" font-size="14" lengthAdjust="spacingAndGlyphs" textLength="0" x="1704" y="1447.5633"/><text fill="#000000" font-family="sans-serif" font-size="14" lengthAdjust="spacingAndGlyphs" textLength="142" x="1708" y="1447.5633">Property/spec author</text><rect fill="#E8541E" height="19.0679" style="stroke: none; stroke-width: 1.0;" width="54" x="1630.6667" y="1451.6653"/><text fill="#000000" font-family="sans-serif" font-size="14" lengthAdjust="spacingAndGlyphs" textLength="0" x="1634.6667" y="1466.6312"/><text fill="#000000" font-family="sans-serif" font-size="14" lengthAdjust="spacingAndGlyphs" textLength="0" x="1688.6667" y="1466.6312"/><path d="M1696.0833,1457.8998 C1694.4733,1457.8998 1693.1667,1459.2065 1693.1667,1460.8165 C1693.1667,1461.1898 1693.2577,1461.5468 1693.386,1461.8735 L1689.9957,1465.2277 C1689.5407,1465.6827 1689.5407,1466.413 1689.9957,1466.868 C1690.229,1467.1013 1690.5312,1467.2332 1690.8345,1467.2332 C1691.1378,1467.2332 1691.44,1467.127 1691.6733,1466.9053 L1695.0275,1463.5512 C1695.3542,1463.6678 1695.7112,1463.7332 1696.0845,1463.7332 C1697.6945,1463.7332 1699.0012,1462.4265 1699.0012,1460.8165 C1699.0012,1460.6298 1698.9638,1460.47 1698.9277,1460.3055 L1697.8333,1461.3998 L1695.5,1461.3998 L1695.5,1459.0665 L1696.5943,1457.9722 C1696.431,1457.9372 1696.2712,1457.8998 1696.0833,1457.8987 M1690.8333,1465.482 C1691.16,1465.482 1691.4167,1465.7387 1691.4167,1466.0653 C1691.4167,1466.392 1691.16,1466.6487 1690.8333,1466.6487 C1690.5067,1466.6487 1690.25,1466.392 1690.25,1466.0653 C1690.25,1465.7387 1690.5067,1465.482 1690.8333,1465.482 " fill="#000000" style="stroke: ; stroke-width: 0.0; stroke-dasharray: ;"/><text fill="#000000" font-family="sans-serif" font-size="14" lengthAdjust="spacingAndGlyphs" textLength="0" x="1704" y="1466.6312"/><text fill="#000000" font-family="sans-serif" font-size="14" lengthAdjust="spacingAndGlyphs" textLength="88" x="1708" y="1466.6312">Implementer</text><rect fill="#E8541E" height="19.0679" style="stroke: none; stroke-width: 1.0;" width="54" x="1630.6667" y="1470.7332"/><text fill="#000000" font-family="sans-serif" font-size="14" lengthAdjust="spacingAndGlyphs" textLength="0" x="1634.6667" y="1485.6991"/><text fill="#000000" font-family="sans-serif" font-size="14" lengthAdjust="spacingAndGlyphs" textLength="0" x="1688.6667" y="1485.6991"/><path d="M1693.75,1476.9678 C1691.5018,1476.9678 1689.6667,1478.8029 1689.6667,1481.0511 C1689.6667,1483.2993 1691.5018,1485.1344 1693.75,1485.1344 C1694.4407,1485.1344 1695.1103,1484.9653 1695.682,1484.6608 A1.1667,1.1667 0 0 0 1695.8278,1484.8066 L1696.9945,1485.9733 A1.1853,1.1853 0 1 0 1698.6722,1484.2956 L1697.5055,1483.1289 A1.1667,1.1667 0 0 0 1697.3235,1482.9831 C1697.6338,1482.4079 1697.8345,1481.7476 1697.8345,1481.0511 C1697.8345,1478.8029 1695.9993,1476.9678 1693.7512,1476.9678 M1693.7512,1478.1344 C1695.3693,1478.1344 1696.6678,1479.4329 1696.6678,1481.0511 C1696.6678,1481.8223 1696.3867,1482.5363 1695.9025,1483.0566 L1695.8663,1483.0928 A1.1667,1.1667 0 0 0 1695.7205,1483.2386 C1695.2048,1483.7018 1694.5037,1483.9678 1693.7512,1483.9678 C1692.133,1483.9678 1690.8345,1482.6693 1690.8345,1481.0511 C1690.8345,1479.4329 1692.133,1478.1344 1693.7512,1478.1344 " fill="#000000" style="stroke: ; stroke-width: 0.0; stroke-dasharray: ;"/><text fill="#000000" font-family="sans-serif" font-size="14" lengthAdjust="spacingAndGlyphs" textLength="0" x="1704" y="1485.6991"/><text fill="#000000" font-family="sans-serif" font-size="14" lengthAdjust="spacingAndGlyphs" textLength="61" x="1708" y="1485.6991">Exerciser</text><rect fill="#C9E7CB" height="19.0679" style="stroke: none; stroke-width: 1.0;" width="54" x="1630.6667" y="1489.8011"/><text fill="#000000" font-family="sans-serif" font-size="14" lengthAdjust="spacingAndGlyphs" textLength="0" x="1634.6667" y="1504.767"/><text fill="#000000" font-family="sans-serif" font-size="14" lengthAdjust="spacingAndGlyphs" textLength="0" x="1688.6667" y="1504.767"/><path d="M1689.6667,1496.0357 L1689.6667,1505.369 L1697.8333,1505.369 L1697.8333,1500.7023 L1693.1667,1500.7023 L1693.1667,1496.0357 L1689.6667,1496.0357 M1694.3333,1496.0357 L1694.3333,1499.5357 L1697.8333,1499.5357 L1694.3333,1496.0357 M1690.8333,1498.369 L1692,1498.369 L1692,1499.5357 L1690.8333,1499.5357 L1690.8333,1498.369 M1690.8333,1500.7023 L1692,1500.7023 L1692,1501.869 L1690.8333,1501.869 L1690.8333,1500.7023 M1690.8333,1503.0357 L1695.5,1503.0357 L1695.5,1504.2023 L1690.8333,1504.2023 L1690.8333,1503.0357 " fill="#000000" style="stroke: ; stroke-width: 0.0; stroke-dasharray: ;"/><text fill="#000000" font-family="sans-serif" font-size="14" lengthAdjust="spacingAndGlyphs" textLength="0" x="1704" y="1504.767"/><text fill="#000000" font-family="sans-serif" font-size="14" lengthAdjust="spacingAndGlyphs" textLength="251" x="1708" y="1504.767">Soft authority — transcribed/external</text><rect fill="#F3CBD0" height="19.0679" style="stroke: none; stroke-width: 1.0;" width="54" x="1630.6667" y="1508.869"/><text fill="#000000" font-family="sans-serif" font-size="14" lengthAdjust="spacingAndGlyphs" textLength="0" x="1634.6667" y="1523.8349"/><text fill="#000000" font-family="sans-serif" font-size="14" lengthAdjust="spacingAndGlyphs" textLength="0" x="1688.6667" y="1523.8349"/><path d="M1693.75,1515.1036 L1693.1667,1516.4896 L1692.8388,1516.6354 L1691.4528,1516.0521 L1690.614,1516.8909 L1691.1973,1518.2769 L1691.0515,1518.6048 L1689.6655,1519.1881 L1689.6655,1520.3548 L1691.0515,1520.9381 L1691.1973,1521.3033 L1690.614,1522.6519 L1691.4528,1523.4908 L1692.8388,1522.9074 L1693.1667,1523.0533 L1693.75,1524.4393 L1694.9167,1524.4393 L1695.5,1523.0533 L1695.8278,1522.9074 L1697.2138,1523.4908 L1698.0527,1522.6519 L1697.4693,1521.2659 L1697.6152,1520.9381 L1699.0012,1520.3548 L1699.0012,1519.1881 L1697.6152,1518.6048 L1697.4693,1518.2769 L1698.0165,1516.8909 L1697.2138,1516.0521 L1695.8278,1516.6354 L1695.5,1516.4896 L1694.9167,1515.1036 L1693.75,1515.1036 M1694.3333,1518.0203 C1695.3017,1518.0203 1696.0833,1518.8019 1696.0833,1519.7703 C1696.0833,1520.7386 1695.3017,1521.5203 1694.3333,1521.5203 C1693.365,1521.5203 1692.5833,1520.7386 1692.5833,1519.7703 C1692.5833,1518.8019 1693.365,1518.0203 1694.3333,1518.0203 " fill="#000000" style="stroke: ; stroke-width: 0.0; stroke-dasharray: ;"/><text fill="#000000" font-family="sans-serif" font-size="14" lengthAdjust="spacingAndGlyphs" textLength="0" x="1704" y="1523.8349"/><text fill="#000000" font-family="sans-serif" font-size="14" lengthAdjust="spacingAndGlyphs" textLength="253" x="1708" y="1523.8349">Executable oracle — point/recompute</text><rect fill="#F3CBD0" height="19.0679" style="stroke: none; stroke-width: 1.0;" width="54" x="1630.6667" y="1527.9369"/><text fill="#000000" font-family="sans-serif" font-size="14" lengthAdjust="spacingAndGlyphs" textLength="0" x="1634.6667" y="1542.9029"/><text fill="#000000" font-family="sans-serif" font-size="14" lengthAdjust="spacingAndGlyphs" textLength="0" x="1688.6667" y="1542.9029"/><path d="M1694.3333,1535.3382 C1692.4072,1535.3382 1690.8333,1536.912 1690.8333,1538.8382 L1689.6667,1538.8382 L1691.4167,1541.1715 L1693.1667,1538.8382 L1692,1538.8382 C1692,1537.5443 1693.0395,1536.5048 1694.3333,1536.5048 L1694.3333,1535.3382 M1697.25,1536.5048 L1695.5,1538.8382 L1696.6667,1538.8382 C1696.6667,1540.132 1695.6272,1541.1715 1694.3333,1541.1715 L1694.3333,1542.3382 C1696.2595,1542.3382 1697.8333,1540.7643 1697.8333,1538.8382 L1699,1538.8382 L1697.25,1536.5048 " fill="#000000" style="stroke: ; stroke-width: 0.0; stroke-dasharray: ;"/><text fill="#000000" font-family="sans-serif" font-size="14" lengthAdjust="spacingAndGlyphs" textLength="0" x="1704" y="1542.9029"/><text fill="#000000" font-family="sans-serif" font-size="14" lengthAdjust="spacingAndGlyphs" textLength="264" x="1708" y="1542.9029">Executable oracle — standing invariant</text><rect fill="#E2E2E2" height="19.0679" style="stroke: none; stroke-width: 1.0;" width="54" x="1630.6667" y="1547.0048"/><text fill="#000000" font-family="sans-serif" font-size="14" lengthAdjust="spacingAndGlyphs" textLength="0" x="1634.6667" y="1561.9708"/><text fill="#000000" font-family="sans-serif" font-size="14" lengthAdjust="spacingAndGlyphs" textLength="0" x="1688.6667" y="1561.9708"/><path d="M1689.6667,1553.2394 L1689.6667,1554.4061 L1699,1554.4061 L1699,1553.2394 L1689.6667,1553.2394 M1689.6667,1555.5728 L1689.6667,1562.4631 C1689.6667,1562.5331 1689.7063,1562.5728 1689.7763,1562.5728 L1698.8915,1562.5728 C1698.9615,1562.5728 1699.0012,1562.5331 1699.0012,1562.4631 L1699.0012,1555.5728 L1695.5373,1555.5728 L1695.5373,1556.7756 L1693.1678,1556.7756 L1693.1678,1555.5728 L1689.6678,1555.5728 " fill="#000000" style="stroke: ; stroke-width: 0.0; stroke-dasharray: ;"/><text fill="#000000" font-family="sans-serif" font-size="14" lengthAdjust="spacingAndGlyphs" textLength="0" x="1704" y="1561.9708"/><text fill="#000000" font-family="sans-serif" font-size="14" lengthAdjust="spacingAndGlyphs" textLength="49" x="1708" y="1561.9708">Artifact</text><line style="stroke: #000000; stroke-width: 1.0;" x1="1630.6667" x2="1976" y1="1394.4615" y2="1394.4615"/><line style="stroke: #000000; stroke-width: 1.0;" x1="1630.6667" x2="1976" y1="1413.5294" y2="1413.5294"/><line style="stroke: #000000; stroke-width: 1.0;" x1="1630.6667" x2="1976" y1="1432.5973" y2="1432.5973"/><line style="stroke: #000000; stroke-width: 1.0;" x1="1630.6667" x2="1976" y1="1451.6653" y2="1451.6653"/><line style="stroke: #000000; stroke-width: 1.0;" x1="1630.6667" x2="1976" y1="1470.7332" y2="1470.7332"/><line style="stroke: #000000; stroke-width: 1.0;" x1="1630.6667" x2="1976" y1="1489.8011" y2="1489.8011"/><line style="stroke: #000000; stroke-width: 1.0;" x1="1630.6667" x2="1976" y1="1508.869" y2="1508.869"/><line style="stroke: #000000; stroke-width: 1.0;" x1="1630.6667" x2="1976" y1="1527.9369" y2="1527.9369"/><line style="stroke: #000000; stroke-width: 1.0;" x1="1630.6667" x2="1976" y1="1547.0048" y2="1547.0048"/><line style="stroke: #000000; stroke-width: 1.0;" x1="1630.6667" x2="1976" y1="1566.0728" y2="1566.0728"/><line style="stroke: #000000; stroke-width: 1.0;" x1="1630.6667" x2="1630.6667" y1="1394.4615" y2="1566.0728"/><line style="stroke: #000000; stroke-width: 1.0;" x1="1684.6667" x2="1684.6667" y1="1394.4615" y2="1566.0728"/><line style="stroke: #000000; stroke-width: 1.0;" x1="1704" x2="1704" y1="1394.4615" y2="1566.0728"/><line style="stroke: #000000; stroke-width: 1.0;" x1="1976" x2="1976" y1="1394.4615" y2="1566.0728"/><!--MD5=[19c54a2640a183a95773eb7430ff88d3]
@startuml instance-d
title instance-d (base)\n<size:11><i>guards against: the prover discharges (Qed.) an adjacent weaker claim (e.g.</i></size>\n<size:11><i>right-identity n+0=n instead of n+m=m+n) under the intended theorem name, or</i></size>\n<size:11><i>smuggles an axiom.</i></size>
left to right direction
skinparam rectangleBorderColor #555
skinparam shadowing false
skinparam ArrowFontColor #888888
skinparam TitleFontColor #888888

rectangle "<&compass> Gate sentinel / orchestrator" as A_sentinel #E8541E
rectangle "<&script> Theorem formalizer" as A_formalizer #E8541E
rectangle "<&wrench> Tactical prover" as A_prover #E8541E
rectangle "<&magnifying-glass> Mutation exerciser" as A_exerciser #E8541E

rectangle "<&document> Textbook exercise manifest (English + scope clauses)" as S_textbook_manifest #C9E7CB
rectangle "<&cog> Pinned Rocq standard library" as S_rocq_stdlib #F3CBD0
rectangle "<&cog> Rocq kernel checker (coqc 8.20.1)" as S_coqc #F3CBD0
rectangle "<&cog> Axiom auditor (rocqchk - -print-assumptions)" as S_rocqchk #F3CBD0
rectangle "<&loop-circular> Prior-proofs registry + signature (invariant plane)" as S_proof_registry #F3CBD0
rectangle "<&box> Formalizer's naked theorem statement" as S_formal_statement #E2E2E2
rectangle "<&box> Prover's tactical proof" as S_proof_script #E2E2E2
rectangle "<&box> Exerciser's false-theorem mutations" as S_mutation_matrix #E2E2E2

A_sentinel - -> S_textbook_manifest : U
A_sentinel - -> S_rocq_stdlib : L
A_sentinel - -> S_coqc : L
A_sentinel - -> S_rocqchk : L
A_sentinel - -> S_proof_registry : L
A_sentinel - -> S_proof_script : L
A_sentinel - -> S_mutation_matrix : L
A_formalizer - -> S_textbook_manifest : U
A_formalizer - -> S_rocq_stdlib : L
A_formalizer - -> S_coqc : L
A_formalizer ..> S_formal_statement : produces
A_prover - -> S_formal_statement : U
A_prover - -> S_rocq_stdlib : L
A_prover - -> S_coqc : L
A_prover - -> S_rocqchk : L
A_prover ..> S_proof_script : produces
A_exerciser - -> S_textbook_manifest : U
A_exerciser - -> S_formal_statement : U
A_exerciser - -> S_rocq_stdlib : L
A_exerciser - -> S_coqc : L
A_exerciser ..> S_mutation_matrix : produces

A_formalizer -[#red,dashed]-> S_proof_script : ✗ must not see
A_formalizer -[#red,dashed]-> S_mutation_matrix : ✗ must not see
A_prover -[#red,dashed]-> S_mutation_matrix : ✗ must not see
A_exerciser -[#red,dashed]-> S_proof_script : ✗ must not see

A_exerciser -[#blue]-> A_formalizer : catches: a vacuous or inconsistent statement\n(e.g. a false hypothesis that trivialises the\ngoal) — via a vacuous-hypothesis mutation that\nshould be rejected; the kernel/axiom audit\ncatches smuggled axioms
A_exerciser -[#blue]-> A_prover : catches: discharges an adjacent weaker theorem\nunder the intended name — via identity-flip\nmutations the kernel must reject; type\ncross-check of the proof against the statement
A_sentinel -[#blue]-> A_exerciser : catches: omits a mutation for some scope\nclause — via Gate C requires every manifest\nclause to appear in some mutation's\ntarget_clauses

legend right
|= Colour |=  |= Meaning |
|<#E8541E>| <&compass> | Coordinator |
|<#E8541E>| <&script> | Property/spec author |
|<#E8541E>| <&wrench> | Implementer |
|<#E8541E>| <&magnifying-glass> | Exerciser |
|<#C9E7CB>| <&document> | Soft authority — transcribed/external |
|<#F3CBD0>| <&cog> | Executable oracle — point/recompute |
|<#F3CBD0>| <&loop-circular> | Executable oracle — standing invariant |
|<#E2E2E2>| <&box> | Artifact |
endlegend
@enduml

PlantUML version 1.2020.02(Sun Mar 01 11:22:07 CET 2020)
(GPL source distribution)
Java Runtime: OpenJDK Runtime Environment
JVM: OpenJDK 64-Bit Server VM
Java Version: 25.0.3+9-2-26.04.2-Ubuntu
Operating System: Linux
Default Encoding: UTF-8
Language: en
Country: US
--></g></svg>