<?xml version="1.0" encoding="UTF-8" standalone="no"?><svg xmlns="http://www.w3.org/2000/svg" xmlns:xlink="http://www.w3.org/1999/xlink" contentScriptType="application/ecmascript" contentStyleType="text/css" height="1041px" preserveAspectRatio="none" style="width:4027px;height:1041px;" version="1.1" viewBox="0 0 4027 1041" width="4027px" zoomAndPan="magnify"><defs/><g><text fill="#888888" font-family="sans-serif" font-size="18" lengthAdjust="spacingAndGlyphs" textLength="211" x="1907" y="19.2419">instance-paper (monitor)</text><text fill="#888888" font-family="sans-serif" font-size="11" font-style="italic" lengthAdjust="spacingAndGlyphs" textLength="364" x="1830.5" y="36.2748">guards against: a manuscript whose prose reads as faithful to the literature</text><text fill="#888888" font-family="sans-serif" font-size="11" font-style="italic" lengthAdjust="spacingAndGlyphs" textLength="325" x="1850" y="51.2566">while a reported number does not recompute or overclaims a result.</text><!--MD5=[ba02ad718834564dcf804b9e9f1a41d8]
entity A_coordinator--><rect fill="#E8541E" height="39.0679" style="stroke: #555555; stroke-width: 1.5;" width="310.3333" x="2539" y="233.2096"/><path d="M2554.6667,249.4442 C2552.0965,249.4442 2550,251.5407 2550,254.1109 C2550,256.681 2552.0965,258.7775 2554.6667,258.7775 C2557.2368,258.7775 2559.3333,256.681 2559.3333,254.1109 C2559.3333,251.5407 2557.2368,249.4442 2554.6667,249.4442 M2554.6667,250.6109 C2556.6068,250.6109 2558.1667,252.1707 2558.1667,254.1109 C2558.1667,256.051 2556.6068,257.6109 2554.6667,257.6109 C2552.7265,257.6109 2551.1667,256.051 2551.1667,254.1109 C2551.1667,252.1707 2552.7265,250.6109 2554.6667,250.6109 M2557,251.7775 L2553.5,252.9442 L2552.3333,256.4442 L2555.8333,255.2775 L2557,251.7775 M2554.6667,253.5275 C2554.9933,253.5275 2555.25,253.7842 2555.25,254.1109 C2555.25,254.4375 2554.9933,254.6942 2554.6667,254.6942 C2554.34,254.6942 2554.0833,254.4375 2554.0833,254.1109 C2554.0833,253.7842 2554.34,253.5275 2554.6667,253.5275 " fill="#000000" style="stroke: ; stroke-width: 0.0; stroke-dasharray: ;"/><text fill="#000000" font-family="sans-serif" font-size="14" lengthAdjust="spacingAndGlyphs" textLength="275" x="2564.3333" y="258.1756">Main-thread coordinator (the only judge)</text><!--MD5=[121079c7d98e82f62ed0392fd09b3e43]
entity A_paper_lit--><rect fill="#E8541E" height="39.0679" style="stroke: #555555; stroke-width: 1.5;" width="320.3333" x="2838" y="593.3396"/><path d="M2852.5,609.5742 C2851.8583,609.5742 2851.3333,610.0992 2851.3333,610.7409 L2851.3333,617.1575 C2851.3333,617.4842 2851.0767,617.7409 2850.75,617.7409 C2850.4233,617.7409 2850.1667,617.4842 2850.1667,617.1575 L2850.1667,615.4075 L2849,615.4075 L2849,617.7409 C2849,618.3825 2849.525,618.9075 2850.1667,618.9075 L2856,618.9075 C2856.6417,618.9075 2857.1667,618.3825 2857.1667,617.7409 L2857.1667,614.2409 L2852.5,614.2409 L2852.5,611.3242 C2852.5,610.9975 2852.7567,610.7409 2853.0833,610.7409 C2853.41,610.7409 2853.6667,610.9975 2853.6667,611.3242 L2853.6667,613.0742 L2858.3333,613.0742 L2858.3333,610.7409 C2858.3333,610.0992 2857.8083,609.5742 2857.1667,609.5742 L2852.5,609.5742 " fill="#000000" style="stroke: ; stroke-width: 0.0; stroke-dasharray: ;"/><text fill="#000000" font-family="sans-serif" font-size="14" lengthAdjust="spacingAndGlyphs" textLength="285" x="2863.3333" y="618.3056">Literature agent (soft upper-bound guard)</text><!--MD5=[b4add19718a6c309c0b50a52cacb1650]
entity A_paper_writer--><rect fill="#E8541E" height="39.0679" style="stroke: #555555; stroke-width: 1.5;" width="233.3333" x="1992.5" y="593.3396"/><path d="M2009.9167,609.5742 C2008.3067,609.5742 2007,610.8809 2007,612.4909 C2007,612.8642 2007.091,613.2212 2007.2193,613.5479 L2003.829,616.902 C2003.374,617.357 2003.374,618.0874 2003.829,618.5424 C2004.0623,618.7757 2004.3645,618.9075 2004.6678,618.9075 C2004.9712,618.9075 2005.2733,618.8014 2005.5067,618.5797 L2008.8608,615.2255 C2009.1875,615.3422 2009.5445,615.4075 2009.9178,615.4075 C2011.5278,615.4075 2012.8345,614.1009 2012.8345,612.4909 C2012.8345,612.3042 2012.7972,612.1444 2012.761,611.9799 L2011.6667,613.0742 L2009.3333,613.0742 L2009.3333,610.7409 L2010.4277,609.6465 C2010.2643,609.6115 2010.1045,609.5742 2009.9167,609.573 M2004.6667,617.1564 C2004.9933,617.1564 2005.25,617.413 2005.25,617.7397 C2005.25,618.0664 2004.9933,618.323 2004.6667,618.323 C2004.34,618.323 2004.0833,618.0664 2004.0833,617.7397 C2004.0833,617.413 2004.34,617.1564 2004.6667,617.1564 " fill="#000000" style="stroke: ; stroke-width: 0.0; stroke-dasharray: ;"/><text fill="#000000" font-family="sans-serif" font-size="14" lengthAdjust="spacingAndGlyphs" textLength="198" x="2017.8333" y="618.3056">Writer agent (the deliverable)</text><!--MD5=[d9819a327fe97a4b8ae2992b19c1e671]
entity A_paper_verifier--><rect fill="#E8541E" height="39.0679" style="stroke: #555555; stroke-width: 1.5;" width="317.3333" x="1571.5" y="404.2796"/><path d="M1586.5833,420.5142 C1584.3352,420.5142 1582.5,422.3494 1582.5,424.5975 C1582.5,426.8457 1584.3352,428.6809 1586.5833,428.6809 C1587.274,428.6809 1587.9437,428.5117 1588.5153,428.2072 A1.1667,1.1667 0 0 0 1588.6612,428.353 L1589.8278,429.5197 A1.1853,1.1853 0 1 0 1591.5055,427.842 L1590.3388,426.6754 A1.1667,1.1667 0 0 0 1590.1568,426.5295 C1590.4672,425.9544 1590.6678,425.294 1590.6678,424.5975 C1590.6678,422.3494 1588.8327,420.5142 1586.5845,420.5142 M1586.5845,421.6809 C1588.2027,421.6809 1589.5012,422.9794 1589.5012,424.5975 C1589.5012,425.3687 1589.22,426.0827 1588.7358,426.603 L1588.6997,426.6392 A1.1667,1.1667 0 0 0 1588.5538,426.785 C1588.0382,427.2482 1587.337,427.5142 1586.5845,427.5142 C1584.9663,427.5142 1583.6678,426.2157 1583.6678,424.5975 C1583.6678,422.9794 1584.9663,421.6809 1586.5845,421.6809 " fill="#000000" style="stroke: ; stroke-width: 0.0; stroke-dasharray: ;"/><text fill="#000000" font-family="sans-serif" font-size="14" lengthAdjust="spacingAndGlyphs" textLength="282" x="1596.8333" y="429.2456">Verifier agent (independent re-derivation)</text><!--MD5=[7b66be13456ad8e88031e3df38200a71]
entity A_paper_bench--><rect fill="#E8541E" height="39.0679" style="stroke: #555555; stroke-width: 1.5;" width="307.3333" x="2260.5" y="593.3396"/><path d="M2273.068,609.5742 A0.5857,0.5857 0 0 0 2273.25,610.7409 L2273.8333,610.7409 L2273.8333,612.3812 C2273.7307,612.5819 2272.4403,615.0797 2271.9013,615.9909 C2271.7228,616.3035 2271.5,616.7049 2271.5,617.231 C2271.5,617.6779 2271.6622,618.1224 2271.9737,618.4339 C2272.277,618.7372 2272.7238,618.9075 2273.1765,618.9075 L2279.1557,618.9075 C2279.6025,618.9075 2280.047,618.7454 2280.3585,618.4339 C2280.6618,618.1305 2280.8322,617.6837 2280.8322,617.231 C2280.8322,616.7037 2280.6058,616.2965 2280.4308,615.9909 C2279.8907,615.0809 2278.6015,612.5819 2278.4988,612.3812 L2278.4988,610.7409 L2279.0822,610.7409 A0.5833,0.5833 0 1 0 2279.0822,609.5742 L2273.2488,609.5742 A0.5833,0.5833 0 0 0 2273.1392,609.5742 A0.5857,0.5857 0 0 0 2273.0657,609.5742 M2274.9977,610.7409 L2277.331,610.7409 L2277.331,612.6367 L2277.4045,612.7464 C2278.1652,614.1849 2278.1652,614.1849 2278.8267,615.4075 L2273.5032,615.4075 C2274.1647,614.1837 2274.9253,612.7464 2274.9253,612.7464 L2274.9988,612.6367 L2274.9988,610.7409 " fill="#000000" style="stroke: ; stroke-width: 0.0; stroke-dasharray: ;"/><text fill="#000000" font-family="sans-serif" font-size="14" lengthAdjust="spacingAndGlyphs" textLength="272" x="2285.8333" y="618.3056">Bench agent (hard lower-bound builder)</text><!--MD5=[ffe3707a316b040045f5d56f1f4c2a7b]
entity A_sub_a--><rect fill="#4E8FE8" height="39.0679" style="stroke: #555555; stroke-width: 1.5;" width="171.3333" x="317.5" y="593.3396"/><path d="M330.25,609.5742 C329.284,609.5742 328.5,610.3582 328.5,611.3242 C328.5,612.0895 328.983,612.7265 329.6667,612.9645 L329.6667,615.5172 C328.983,615.7552 328.5,616.3922 328.5,617.1575 C328.5,618.1235 329.284,618.9075 330.25,618.9075 C331.216,618.9075 332,618.1235 332,617.1575 C332,616.4634 331.6022,615.873 331.0153,615.5895 C331.1203,615.4845 331.2545,615.4075 331.4167,615.4075 L333.75,615.4075 C334.7102,615.4075 335.5,614.6177 335.5,613.6575 L335.5,612.9645 C336.1837,612.7265 336.6667,612.0895 336.6667,611.3242 C336.6667,610.3582 335.8827,609.5742 334.9167,609.5742 C333.9507,609.5742 333.1667,610.3582 333.1667,611.3242 C333.1667,612.0895 333.6497,612.7265 334.3333,612.9645 L334.3333,613.6575 C334.3333,613.9807 334.0732,614.2409 333.75,614.2409 L331.4167,614.2409 C331.2172,614.2409 331.013,614.2875 330.8333,614.3505 L330.8333,612.9645 C331.517,612.7265 332,612.0895 332,611.3242 C332,610.3582 331.216,609.5742 330.25,609.5742 " fill="#000000" style="stroke: ; stroke-width: 0.0; stroke-dasharray: ;"/><text fill="#000000" font-family="sans-serif" font-size="14" lengthAdjust="spacingAndGlyphs" textLength="136" x="342.8333" y="618.3056">Bridge -&gt; instance-a</text><!--MD5=[a72f01355bff2127189deecb1327e9c6]
entity A_sub_b--><rect fill="#4E8FE8" height="39.0679" style="stroke: #555555; stroke-width: 1.5;" width="172.3333" x="674" y="593.3396"/><path d="M686.75,609.5742 C685.784,609.5742 685,610.3582 685,611.3242 C685,612.0895 685.483,612.7265 686.1667,612.9645 L686.1667,615.5172 C685.483,615.7552 685,616.3922 685,617.1575 C685,618.1235 685.784,618.9075 686.75,618.9075 C687.716,618.9075 688.5,618.1235 688.5,617.1575 C688.5,616.4634 688.1022,615.873 687.5153,615.5895 C687.6203,615.4845 687.7545,615.4075 687.9167,615.4075 L690.25,615.4075 C691.2102,615.4075 692,614.6177 692,613.6575 L692,612.9645 C692.6837,612.7265 693.1667,612.0895 693.1667,611.3242 C693.1667,610.3582 692.3827,609.5742 691.4167,609.5742 C690.4507,609.5742 689.6667,610.3582 689.6667,611.3242 C689.6667,612.0895 690.1497,612.7265 690.8333,612.9645 L690.8333,613.6575 C690.8333,613.9807 690.5732,614.2409 690.25,614.2409 L687.9167,614.2409 C687.7172,614.2409 687.513,614.2875 687.3333,614.3505 L687.3333,612.9645 C688.017,612.7265 688.5,612.0895 688.5,611.3242 C688.5,610.3582 687.716,609.5742 686.75,609.5742 " fill="#000000" style="stroke: ; stroke-width: 0.0; stroke-dasharray: ;"/><text fill="#000000" font-family="sans-serif" font-size="14" lengthAdjust="spacingAndGlyphs" textLength="137" x="699.3333" y="618.3056">Bridge -&gt; instance-b</text><!--MD5=[b32ad5b4ed6d9c4a519c4298db63d465]
entity A_sub_c--><rect fill="#4E8FE8" height="39.0679" style="stroke: #555555; stroke-width: 1.5;" width="170.3333" x="1075" y="593.3396"/><path d="M1087.75,609.5742 C1086.784,609.5742 1086,610.3582 1086,611.3242 C1086,612.0895 1086.483,612.7265 1087.1667,612.9645 L1087.1667,615.5172 C1086.483,615.7552 1086,616.3922 1086,617.1575 C1086,618.1235 1086.784,618.9075 1087.75,618.9075 C1088.716,618.9075 1089.5,618.1235 1089.5,617.1575 C1089.5,616.4634 1089.1022,615.873 1088.5153,615.5895 C1088.6203,615.4845 1088.7545,615.4075 1088.9167,615.4075 L1091.25,615.4075 C1092.2102,615.4075 1093,614.6177 1093,613.6575 L1093,612.9645 C1093.6837,612.7265 1094.1667,612.0895 1094.1667,611.3242 C1094.1667,610.3582 1093.3827,609.5742 1092.4167,609.5742 C1091.4507,609.5742 1090.6667,610.3582 1090.6667,611.3242 C1090.6667,612.0895 1091.1497,612.7265 1091.8333,612.9645 L1091.8333,613.6575 C1091.8333,613.9807 1091.5732,614.2409 1091.25,614.2409 L1088.9167,614.2409 C1088.7172,614.2409 1088.513,614.2875 1088.3333,614.3505 L1088.3333,612.9645 C1089.017,612.7265 1089.5,612.0895 1089.5,611.3242 C1089.5,610.3582 1088.716,609.5742 1087.75,609.5742 " fill="#000000" style="stroke: ; stroke-width: 0.0; stroke-dasharray: ;"/><text fill="#000000" font-family="sans-serif" font-size="14" lengthAdjust="spacingAndGlyphs" textLength="135" x="1100.3333" y="618.3056">Bridge -&gt; instance-c</text><!--MD5=[50a4b331833e7751f0b46afb933348c1]
entity A_sub_d--><rect fill="#4E8FE8" height="39.0679" style="stroke: #555555; stroke-width: 1.5;" width="172.3333" x="1321" y="593.3396"/><path d="M1333.75,609.5742 C1332.784,609.5742 1332,610.3582 1332,611.3242 C1332,612.0895 1332.483,612.7265 1333.1667,612.9645 L1333.1667,615.5172 C1332.483,615.7552 1332,616.3922 1332,617.1575 C1332,618.1235 1332.784,618.9075 1333.75,618.9075 C1334.716,618.9075 1335.5,618.1235 1335.5,617.1575 C1335.5,616.4634 1335.1022,615.873 1334.5153,615.5895 C1334.6203,615.4845 1334.7545,615.4075 1334.9167,615.4075 L1337.25,615.4075 C1338.2102,615.4075 1339,614.6177 1339,613.6575 L1339,612.9645 C1339.6837,612.7265 1340.1667,612.0895 1340.1667,611.3242 C1340.1667,610.3582 1339.3827,609.5742 1338.4167,609.5742 C1337.4507,609.5742 1336.6667,610.3582 1336.6667,611.3242 C1336.6667,612.0895 1337.1497,612.7265 1337.8333,612.9645 L1337.8333,613.6575 C1337.8333,613.9807 1337.5732,614.2409 1337.25,614.2409 L1334.9167,614.2409 C1334.7172,614.2409 1334.513,614.2875 1334.3333,614.3505 L1334.3333,612.9645 C1335.017,612.7265 1335.5,612.0895 1335.5,611.3242 C1335.5,610.3582 1334.716,609.5742 1333.75,609.5742 " fill="#000000" style="stroke: ; stroke-width: 0.0; stroke-dasharray: ;"/><text fill="#000000" font-family="sans-serif" font-size="14" lengthAdjust="spacingAndGlyphs" textLength="137" x="1346.3333" y="618.3056">Bridge -&gt; instance-d</text><!--MD5=[46068043c2359803552d73e94f3c12d8]
entity A_human_reviewer--><rect fill="#E8541E" height="39.0679" style="stroke: #555555; stroke-width: 1.5;" width="286.3333" x="3488" y="62.1396"/><path d="M3503.6667,78.3742 C3502.3775,78.3742 3501.3333,79.6797 3501.3333,81.2909 C3501.3333,82.902 3502.3775,84.2075 3503.6667,84.2075 C3504.9558,84.2075 3506,82.902 3506,81.2909 C3506,79.6797 3504.9558,78.3742 3503.6667,78.3742 M3501.2237,84.2075 C3499.9753,84.2542 3499,85.2809 3499,86.5409 L3499,87.7075 L3508.3333,87.7075 L3508.3333,86.5409 C3508.3333,85.2809 3507.358,84.2542 3506.1097,84.2075 C3505.4797,84.9192 3504.6117,85.3742 3503.6667,85.3742 C3502.7217,85.3742 3501.8537,84.9192 3501.2237,84.2075 " fill="#000000" style="stroke: ; stroke-width: 0.0; stroke-dasharray: ;"/><text fill="#000000" font-family="sans-serif" font-size="14" lengthAdjust="spacingAndGlyphs" textLength="251" x="3513.3333" y="87.1056">External / human reviewer (terminus)</text><!--MD5=[9f5598f293c8d8a4c7988ef370353d32]
entity S_read_literature--><rect fill="#C9E7CB" height="39.0679" style="stroke: #555555; stroke-width: 1.5;" width="318.3333" x="3343" y="711.4096"/><path d="M3354,727.6442 L3354,736.9775 L3362.1667,736.9775 L3362.1667,732.3109 L3357.5,732.3109 L3357.5,727.6442 L3354,727.6442 M3358.6667,727.6442 L3358.6667,731.1442 L3362.1667,731.1442 L3358.6667,727.6442 M3355.1667,729.9775 L3356.3333,729.9775 L3356.3333,731.1442 L3355.1667,731.1442 L3355.1667,729.9775 M3355.1667,732.3109 L3356.3333,732.3109 L3356.3333,733.4775 L3355.1667,733.4775 L3355.1667,732.3109 M3355.1667,734.6442 L3359.8333,734.6442 L3359.8333,735.8109 L3355.1667,735.8109 L3355.1667,734.6442 " fill="#000000" style="stroke: ; stroke-width: 0.0; stroke-dasharray: ;"/><text fill="#000000" font-family="sans-serif" font-size="14" lengthAdjust="spacingAndGlyphs" textLength="283" x="3368.3333" y="736.3756">Read literature (archived reading records)</text><!--MD5=[86baec44b8767d6eeeb76635c3f31572]
entity S_paper_spec--><rect fill="#C9E7CB" height="39.0679" style="stroke: #555555; stroke-width: 1.5;" width="312.3333" x="2996" y="711.4096"/><path d="M3014,727.6442 L3012.8333,728.8109 L3015.1667,731.1442 L3016.3333,729.9775 L3014,727.6442 M3011.6667,729.9775 L3007,734.6442 L3007,736.9775 L3009.3333,736.9775 L3014,732.3109 L3011.6667,729.9775 " fill="#000000" style="stroke: ; stroke-width: 0.0; stroke-dasharray: ;"/><text fill="#000000" font-family="sans-serif" font-size="14" lengthAdjust="spacingAndGlyphs" textLength="277" x="3021.3333" y="736.3756">Paper-spec (paper-impl.md / paper-spec)</text><!--MD5=[e287adcf4d5eda218dbfa90dfb1bb86a]
entity S_repo_ground_truth--><rect fill="#F3CBD0" height="39.0679" style="stroke: #555555; stroke-width: 1.5;" width="227.3333" x="2369.5" y="711.4096"/><path d="M2384.5833,727.6442 L2384,729.0302 L2383.6722,729.176 L2382.2862,728.5927 L2381.4473,729.4315 L2382.0307,730.8175 L2381.8848,731.1454 L2380.4988,731.7287 L2380.4988,732.8954 L2381.8848,733.4787 L2382.0307,733.8439 L2381.4473,735.1925 L2382.2862,736.0314 L2383.6722,735.448 L2384,735.5939 L2384.5833,736.9799 L2385.75,736.9799 L2386.3333,735.5939 L2386.6612,735.448 L2388.0472,736.0314 L2388.886,735.1925 L2388.3027,733.8065 L2388.4485,733.4787 L2389.8345,732.8954 L2389.8345,731.7287 L2388.4485,731.1454 L2388.3027,730.8175 L2388.8498,729.4315 L2388.0472,728.5927 L2386.6612,729.176 L2386.3333,729.0302 L2385.75,727.6442 L2384.5833,727.6442 M2385.1667,730.5609 C2386.135,730.5609 2386.9167,731.3425 2386.9167,732.3109 C2386.9167,733.2792 2386.135,734.0609 2385.1667,734.0609 C2384.1983,734.0609 2383.4167,733.2792 2383.4167,732.3109 C2383.4167,731.3425 2384.1983,730.5609 2385.1667,730.5609 " fill="#000000" style="stroke: ; stroke-width: 0.0; stroke-dasharray: ;"/><text fill="#000000" font-family="sans-serif" font-size="14" lengthAdjust="spacingAndGlyphs" textLength="192" x="2394.8333" y="736.3756">Raw repository ground truth</text><!--MD5=[70a4aa3fe3cc02b95ae90f29f17234a1]
entity S_recompute_harness--><rect fill="#F3CBD0" height="39.0679" style="stroke: #555555; stroke-width: 1.5;" width="379.3333" x="1677.5" y="711.4096"/><path d="M1692.5833,727.6442 L1692,729.0302 L1691.6722,729.176 L1690.2862,728.5927 L1689.4473,729.4315 L1690.0307,730.8175 L1689.8848,731.1454 L1688.4988,731.7287 L1688.4988,732.8954 L1689.8848,733.4787 L1690.0307,733.8439 L1689.4473,735.1925 L1690.2862,736.0314 L1691.6722,735.448 L1692,735.5939 L1692.5833,736.9799 L1693.75,736.9799 L1694.3333,735.5939 L1694.6612,735.448 L1696.0472,736.0314 L1696.886,735.1925 L1696.3027,733.8065 L1696.4485,733.4787 L1697.8345,732.8954 L1697.8345,731.7287 L1696.4485,731.1454 L1696.3027,730.8175 L1696.8498,729.4315 L1696.0472,728.5927 L1694.6612,729.176 L1694.3333,729.0302 L1693.75,727.6442 L1692.5833,727.6442 M1693.1667,730.5609 C1694.135,730.5609 1694.9167,731.3425 1694.9167,732.3109 C1694.9167,733.2792 1694.135,734.0609 1693.1667,734.0609 C1692.1983,734.0609 1691.4167,733.2792 1691.4167,732.3109 C1691.4167,731.3425 1692.1983,730.5609 1693.1667,730.5609 " fill="#000000" style="stroke: ; stroke-width: 0.0; stroke-dasharray: ;"/><text fill="#000000" font-family="sans-serif" font-size="14" lengthAdjust="spacingAndGlyphs" textLength="344" x="1702.8333" y="736.3756">Recompute + build harness (the hard lower bound)</text><!--MD5=[83b381f98c8add4f988b4f876479c1db]
entity S_manuscript--><rect fill="#E2E2E2" height="39.0679" style="stroke: #555555; stroke-width: 1.5;" width="242.3333" x="2092" y="711.4096"/><path d="M2103,727.6442 L2103,728.8109 L2112.3333,728.8109 L2112.3333,727.6442 L2103,727.6442 M2103,729.9775 L2103,736.8679 C2103,736.9379 2103.0397,736.9775 2103.1097,736.9775 L2112.2248,736.9775 C2112.2948,736.9775 2112.3345,736.9379 2112.3345,736.8679 L2112.3345,729.9775 L2108.8707,729.9775 L2108.8707,731.1804 L2106.5012,731.1804 L2106.5012,729.9775 L2103.0012,729.9775 " fill="#000000" style="stroke: ; stroke-width: 0.0; stroke-dasharray: ;"/><text fill="#000000" font-family="sans-serif" font-size="14" lengthAdjust="spacingAndGlyphs" textLength="207" x="2117.3333" y="736.3756">The manuscript (tex/paper.tex)</text><!--MD5=[6282c77bb5933448847d94954b00c7e1]
entity S_claim_ledger--><rect fill="#E2E2E2" height="39.0679" style="stroke: #555555; stroke-width: 1.5;" width="248.3333" x="2632" y="711.4096"/><path d="M2643,727.6442 L2643,728.8109 L2652.3333,728.8109 L2652.3333,727.6442 L2643,727.6442 M2643,729.9775 L2643,736.8679 C2643,736.9379 2643.0397,736.9775 2643.1097,736.9775 L2652.2248,736.9775 C2652.2948,736.9775 2652.3345,736.9379 2652.3345,736.8679 L2652.3345,729.9775 L2648.8707,729.9775 L2648.8707,731.1804 L2646.5012,731.1804 L2646.5012,729.9775 L2643.0012,729.9775 " fill="#000000" style="stroke: ; stroke-width: 0.0; stroke-dasharray: ;"/><text fill="#000000" font-family="sans-serif" font-size="14" lengthAdjust="spacingAndGlyphs" textLength="213" x="2657.3333" y="736.3756">Claim ledger (claims/ledger.tsv)</text><!--MD5=[91bc99c6a73d1c019635c4dbfab0953d]
entity S_verifier_rederivation--><rect fill="#E2E2E2" height="39.0679" style="stroke: #555555; stroke-width: 1.5;" width="276.3333" x="6" y="711.4096"/><path d="M17,727.6442 L17,728.8109 L26.3333,728.8109 L26.3333,727.6442 L17,727.6442 M17,729.9775 L17,736.8679 C17,736.9379 17.0397,736.9775 17.1097,736.9775 L26.2248,736.9775 C26.2948,736.9775 26.3345,736.9379 26.3345,736.8679 L26.3345,729.9775 L22.8707,729.9775 L22.8707,731.1804 L20.5012,731.1804 L20.5012,729.9775 L17.0012,729.9775 " fill="#000000" style="stroke: ; stroke-width: 0.0; stroke-dasharray: ;"/><text fill="#000000" font-family="sans-serif" font-size="14" lengthAdjust="spacingAndGlyphs" textLength="241" x="31.3333" y="736.3756">Verifier's independent re-derivation</text><!--MD5=[2c72d9ce8ebf4580667ba595ea0d04a9]
entity S_result_a--><rect fill="#E2E2E2" height="39.0679" style="stroke: #555555; stroke-width: 1.5;" width="220.3333" x="317" y="711.4096"/><path d="M328,727.6442 L328,728.8109 L337.3333,728.8109 L337.3333,727.6442 L328,727.6442 M328,729.9775 L328,736.8679 C328,736.9379 328.0397,736.9775 328.1097,736.9775 L337.2248,736.9775 C337.2948,736.9775 337.3345,736.9379 337.3345,736.8679 L337.3345,729.9775 L333.8707,729.9775 L333.8707,731.1804 L331.5012,731.1804 L331.5012,729.9775 L328.0012,729.9775 " fill="#000000" style="stroke: ; stroke-width: 0.0; stroke-dasharray: ;"/><text fill="#000000" font-family="sans-serif" font-size="14" lengthAdjust="spacingAndGlyphs" textLength="185" x="342.3333" y="736.3756">Instance A returned results</text><!--MD5=[e351185b8bafcaae0ed7b6a6a584b192]
entity S_result_b--><rect fill="#E2E2E2" height="39.0679" style="stroke: #555555; stroke-width: 1.5;" width="220.3333" x="650" y="711.4096"/><path d="M661,727.6442 L661,728.8109 L670.3333,728.8109 L670.3333,727.6442 L661,727.6442 M661,729.9775 L661,736.8679 C661,736.9379 661.0397,736.9775 661.1097,736.9775 L670.2248,736.9775 C670.2948,736.9775 670.3345,736.9379 670.3345,736.8679 L670.3345,729.9775 L666.8707,729.9775 L666.8707,731.1804 L664.5012,731.1804 L664.5012,729.9775 L661.0012,729.9775 " fill="#000000" style="stroke: ; stroke-width: 0.0; stroke-dasharray: ;"/><text fill="#000000" font-family="sans-serif" font-size="14" lengthAdjust="spacingAndGlyphs" textLength="185" x="675.3333" y="736.3756">Instance B returned results</text><!--MD5=[9d9d8deba960ac0f18f8b4a1390f3564]
entity S_result_c--><rect fill="#E2E2E2" height="39.0679" style="stroke: #555555; stroke-width: 1.5;" width="220.3333" x="921" y="711.4096"/><path d="M932,727.6442 L932,728.8109 L941.3333,728.8109 L941.3333,727.6442 L932,727.6442 M932,729.9775 L932,736.8679 C932,736.9379 932.0397,736.9775 932.1097,736.9775 L941.2248,736.9775 C941.2948,736.9775 941.3345,736.9379 941.3345,736.8679 L941.3345,729.9775 L937.8707,729.9775 L937.8707,731.1804 L935.5012,731.1804 L935.5012,729.9775 L932.0012,729.9775 " fill="#000000" style="stroke: ; stroke-width: 0.0; stroke-dasharray: ;"/><text fill="#000000" font-family="sans-serif" font-size="14" lengthAdjust="spacingAndGlyphs" textLength="185" x="946.3333" y="736.3756">Instance C returned results</text><!--MD5=[9257220679d6441443015301d61d6c0a]
entity S_result_d--><rect fill="#E2E2E2" height="39.0679" style="stroke: #555555; stroke-width: 1.5;" width="221.3333" x="1421.5" y="711.4096"/><path d="M1432.5,727.6442 L1432.5,728.8109 L1441.8333,728.8109 L1441.8333,727.6442 L1432.5,727.6442 M1432.5,729.9775 L1432.5,736.8679 C1432.5,736.9379 1432.5397,736.9775 1432.6097,736.9775 L1441.7248,736.9775 C1441.7948,736.9775 1441.8345,736.9379 1441.8345,736.8679 L1441.8345,729.9775 L1438.3707,729.9775 L1438.3707,731.1804 L1436.0012,731.1804 L1436.0012,729.9775 L1432.5012,729.9775 " fill="#000000" style="stroke: ; stroke-width: 0.0; stroke-dasharray: ;"/><text fill="#000000" font-family="sans-serif" font-size="14" lengthAdjust="spacingAndGlyphs" textLength="186" x="1446.8333" y="736.3756">Instance D returned results</text><!--MD5=[6e1347ce24216ea84c704006d86e5b27]
entity S_external_review--><rect fill="#D9D2E9" height="39.0679" style="stroke: #555555; stroke-width: 1.5;" width="283.3333" x="3723.5" y="233.2096"/><path d="M3739.1667,249.4442 C3737.8775,249.4442 3736.8333,250.7497 3736.8333,252.3609 C3736.8333,253.972 3737.8775,255.2775 3739.1667,255.2775 C3740.4558,255.2775 3741.5,253.972 3741.5,252.3609 C3741.5,250.7497 3740.4558,249.4442 3739.1667,249.4442 M3736.7237,255.2775 C3735.4753,255.3242 3734.5,256.3509 3734.5,257.6109 L3734.5,258.7775 L3743.8333,258.7775 L3743.8333,257.6109 C3743.8333,256.3509 3742.858,255.3242 3741.6097,255.2775 C3740.9797,255.9892 3740.1117,256.4442 3739.1667,256.4442 C3738.2217,256.4442 3737.3537,255.9892 3736.7237,255.2775 " fill="#000000" style="stroke: ; stroke-width: 0.0; stroke-dasharray: ;"/><text fill="#000000" font-family="sans-serif" font-size="14" lengthAdjust="spacingAndGlyphs" textLength="248" x="3748.8333" y="258.1756">External / human reviewer judgment</text><!--MD5=[7ef827e5a6074a632ddba068e6b6abe3]
link A_coordinator to S_read_literature--><path d="M2849.56,257.9096 C3069.38,267.5196 3453.75,299.2996 3537.17,404.2796 C3608.99,494.6696 3544.88,646.5196 3515.27,705.4896 " fill="none" id="A_coordinator-&gt;S_read_literature" style="stroke: #A80036; stroke-width: 1.0;"/><polygon fill="#A80036" points="3513.03,709.8896,3520.6646,703.6676,3515.2889,705.429,3513.5275,700.0533,3513.03,709.8896" style="stroke: #A80036; stroke-width: 1.0;"/><text fill="#888888" font-family="sans-serif" font-size="13" lengthAdjust="spacingAndGlyphs" textLength="10" x="3570.99" y="523.7366">U</text><!--MD5=[cdd47a08aedfdac08c9a9cf17c7f35be]
link A_coordinator to S_paper_spec--><path d="M2849.77,262.6596 C2937.82,269.7996 3037.96,282.0596 3077.17,302.2796 C3210.92,371.2496 3236.54,443.4696 3250.17,593.3396 C3253.79,633.2196 3256.81,650.6596 3231.17,681.4096 C3222.5,691.8096 3211,700.6196 3199.46,707.7496 " fill="none" id="A_coordinator-&gt;S_paper_spec" style="stroke: #A80036; stroke-width: 1.0;"/><polygon fill="#A80036" points="3195.47,710.1396,3205.2472,708.9535,3199.7612,707.5734,3201.1413,702.0875,3195.47,710.1396" style="stroke: #A80036; stroke-width: 1.0;"/><text fill="#888888" font-family="sans-serif" font-size="13" lengthAdjust="spacingAndGlyphs" textLength="10" x="3248.13" y="523.7366">U</text><!--MD5=[6d959e7b82d08b1571c584aa1e7ffb90]
link A_coordinator to S_recompute_harness--><path d="M2716.88,272.4896 C2777.53,324.6596 2932.91,473.5596 2846.17,563.3396 C2812.52,598.1596 2021.17,578.2496 1975.17,593.3396 C1973.55,593.8696 1875.04,660.9496 1874.17,662.4096 C1866.65,675.0296 1864.79,691.3696 1864.87,704.8096 " fill="none" id="A_coordinator-&gt;S_recompute_harness" style="stroke: #A80036; stroke-width: 1.0;"/><polygon fill="#A80036" points="1865,709.6396,1868.7413,700.5291,1864.8572,704.6417,1860.7446,700.7575,1865,709.6396" style="stroke: #A80036; stroke-width: 1.0;"/><text fill="#888888" font-family="sans-serif" font-size="13" lengthAdjust="spacingAndGlyphs" textLength="7" x="2872.9" y="523.7366">L</text><!--MD5=[7830d9dd71a6bd2b9b26e8a30ccdb25b]
link A_coordinator to S_manuscript--><path d="M2842.12,272.7596 C2873.86,279.9296 2900.97,289.5496 2911.17,302.2796 C2983.75,392.8896 2982.58,479.6096 2902.17,563.3396 C2862.03,605.1296 2697.51,573.2596 2643.17,593.3396 C2614.01,604.1196 2612.4,617.4396 2585.17,632.4096 C2583.68,633.2296 2474.79,680.9096 2473.17,681.4096 C2430.81,694.4396 2383.44,704.5496 2340.86,712.0796 " fill="none" id="A_coordinator-&gt;S_manuscript" style="stroke: #A80036; stroke-width: 1.0;"/><polygon fill="#A80036" points="2336.1,712.9096,2345.6523,715.3084,2341.0261,712.0529,2344.2815,707.4267,2336.1,712.9096" style="stroke: #A80036; stroke-width: 1.0;"/><text fill="#888888" font-family="sans-serif" font-size="13" lengthAdjust="spacingAndGlyphs" textLength="7" x="2958.42" y="523.7366">L</text><!--MD5=[c664e55c0b6376e866d73b6cd8342a2f]
link A_coordinator to S_claim_ledger--><path d="M2849.64,267.5296 C2911.86,275.2496 2974.96,286.5596 3001.17,302.2796 C3140.24,385.6696 3169.6,439.5996 3221.17,593.3396 C3234.19,632.1596 3228.21,658.6796 3194.17,681.4096 C3181.36,689.9596 3011.36,706.9596 2886.99,718.3896 " fill="none" id="A_coordinator-&gt;S_claim_ledger" style="stroke: #A80036; stroke-width: 1.0;"/><polygon fill="#A80036" points="2882.24,718.8296,2891.5676,721.9911,2887.2191,718.3731,2890.8372,714.0246,2882.24,718.8296" style="stroke: #A80036; stroke-width: 1.0;"/><text fill="#888888" font-family="sans-serif" font-size="13" lengthAdjust="spacingAndGlyphs" textLength="7" x="3211.73" y="523.7366">L</text><!--MD5=[77ce4c366c0bcdd05c73b9cd3e624ec8]
link A_coordinator to S_verifier_rederivation--><path d="M2538.88,253.3896 C2014.48,252.6496 335.99,254.0696 231.17,302.2796 C139.3,344.5196 116.17,378.4796 81.17,473.3396 C50.57,556.2596 101.71,659.7096 128.89,705.8296 " fill="none" id="A_coordinator-&gt;S_verifier_rederivation" style="stroke: #A80036; stroke-width: 1.0;"/><polygon fill="#A80036" points="131.3,709.8596,130.1139,700.0825,128.7338,705.5684,123.2479,704.1884,131.3,709.8596" style="stroke: #A80036; stroke-width: 1.0;"/><text fill="#888888" font-family="sans-serif" font-size="13" lengthAdjust="spacingAndGlyphs" textLength="7" x="82.17" y="523.7366">L</text><!--MD5=[6d31c94e11872771c15440756e8d5c93]
link A_coordinator to S_result_a--><path d="M2538.55,253.9996 C2036.71,255.2296 487.7,262.2796 388.17,302.2796 C215.38,371.7096 20.95,481.5896 130.17,632.4096 C153.59,664.7596 248.23,692.1496 324.47,709.5896 " fill="none" id="A_coordinator-&gt;S_result_a" style="stroke: #A80036; stroke-width: 1.0;"/><polygon fill="#A80036" points="328.91,710.5996,321.0248,704.6985,324.0352,709.4878,319.2459,712.4982,328.91,710.5996" style="stroke: #A80036; stroke-width: 1.0;"/><text fill="#888888" font-family="sans-serif" font-size="13" lengthAdjust="spacingAndGlyphs" textLength="7" x="123.18" y="523.7366">L</text><!--MD5=[bae667b55dc7d9ee029f10b16d72f16e]
link A_coordinator to S_result_b--><path d="M2538.68,254.5896 C2090.71,257.4196 817.42,268.3996 632.17,302.2796 C497.77,326.8496 459.27,333.8896 342.17,404.2796 C303.33,427.6196 285.37,431.8396 267.17,473.3396 C238.17,539.4696 248.79,581.6796 300.17,632.4096 C337.1,668.8796 356.35,666.8396 406.17,681.4096 C449.44,694.0696 557.71,707.9996 643.21,717.6796 " fill="none" id="A_coordinator-&gt;S_result_b" style="stroke: #A80036; stroke-width: 1.0;"/><polygon fill="#A80036" points="648.08,718.2296,639.5815,713.2522,643.1111,717.6728,638.6905,721.2024,648.08,718.2296" style="stroke: #A80036; stroke-width: 1.0;"/><text fill="#888888" font-family="sans-serif" font-size="13" lengthAdjust="spacingAndGlyphs" textLength="7" x="268.17" y="523.7366">L</text><!--MD5=[ad0223ffc1ffce4b99cef1db02c7b2e2]
link A_coordinator to S_result_c--><path d="M2538.76,256.0596 C2032.34,265.2296 453.57,307.0196 304.17,473.3396 C277.44,503.0996 278.04,533.0496 304.17,563.3396 C333.81,597.7096 463.86,576.9296 506.17,593.3396 C535.14,604.5896 535.01,621.6596 564.17,632.4096 C674.13,672.9696 711.69,637.2796 826.17,662.4096 C878.49,673.8996 936.31,693.6196 977.17,708.7896 " fill="none" id="A_coordinator-&gt;S_result_c" style="stroke: #A80036; stroke-width: 1.0;"/><polygon fill="#A80036" points="981.65,710.4696,974.6091,703.583,976.9637,708.7265,971.8201,711.0811,981.65,710.4696" style="stroke: #A80036; stroke-width: 1.0;"/><text fill="#888888" font-family="sans-serif" font-size="13" lengthAdjust="spacingAndGlyphs" textLength="7" x="305.17" y="523.7366">L</text><!--MD5=[d44743f5fc881de284050c8e4815701a]
link A_coordinator to S_result_d--><path d="M2680.9,272.5096 C2634.31,338.2896 2480.2,554.7996 2464.17,563.3396 C2339.29,629.8696 1965.61,559.7496 1828.17,593.3396 C1776.83,605.8896 1642.87,672.8296 1574.16,708.1196 " fill="none" id="A_coordinator-&gt;S_result_d" style="stroke: #A80036; stroke-width: 1.0;"/><polygon fill="#A80036" points="1569.87,710.3296,1579.7029,709.7692,1574.3161,708.0422,1576.0431,702.6554,1569.87,710.3296" style="stroke: #A80036; stroke-width: 1.0;"/><text fill="#888888" font-family="sans-serif" font-size="13" lengthAdjust="spacingAndGlyphs" textLength="7" x="2534.78" y="523.7366">L</text><!--MD5=[b98342571c91f937b9964f7759fa694d]
link A_paper_lit to S_read_literature--><path d="M3080.55,632.8496 C3172.17,653.9496 3319.64,687.9096 3413.67,709.5696 " fill="none" id="A_paper_lit-&gt;S_read_literature" style="stroke: #A80036; stroke-width: 1.0;"/><polygon fill="#A80036" points="3418.31,710.6296,3410.445,704.7016,3413.439,709.5012,3408.6394,712.4952,3418.31,710.6296" style="stroke: #A80036; stroke-width: 1.0;"/><text fill="#888888" font-family="sans-serif" font-size="13" lengthAdjust="spacingAndGlyphs" textLength="10" x="3281.34" y="677.3066">U</text><!--MD5=[8e9adbb5d8e6d12dfc3b27d38fc686bd]
link A_paper_lit to S_recompute_harness--><path d="M2837.52,629.9296 C2828.61,630.7796 2819.78,631.6096 2811.17,632.4096 C2657.03,646.7096 2613.57,621.8896 2464.17,662.4096 C2445.17,667.5596 2443.16,676.2696 2424.17,681.4096 C2273.47,722.2196 2229.7,697.7796 2074.17,711.4096 C2070.68,711.7196 2067.17,712.0296 2063.63,712.3396 " fill="none" id="A_paper_lit-&gt;S_recompute_harness" style="stroke: #A80036; stroke-width: 1.0;"/><polygon fill="#A80036" points="2058.74,712.7696,2068.0503,715.9818,2063.7215,712.3402,2067.3632,708.0114,2058.74,712.7696" style="stroke: #A80036; stroke-width: 1.0;"/><text fill="#888888" font-family="sans-serif" font-size="13" lengthAdjust="spacingAndGlyphs" textLength="7" x="2465.17" y="677.3066">L</text><!--MD5=[9bffa4e9c714d2efd25de4a8a25c05df]
link A_paper_lit to S_paper_spec--><path d="M3063.27,632.8396 C3080.81,640.1096 3098.87,649.7896 3113.17,662.4096 C3126.31,674.0196 3136.14,691.1596 3142.64,705.2696 " fill="none" id="A_paper_lit-&gt;S_paper_spec" style="stroke: #A80036; stroke-width: 1.0; stroke-dasharray: 7.0,7.0;"/><polygon fill="#A80036" points="3144.61,709.7296,3144.6271,699.8808,3142.5872,705.157,3137.311,703.1172,3144.61,709.7296" style="stroke: #A80036; stroke-width: 1.0;"/><text fill="#888888" font-family="sans-serif" font-size="13" lengthAdjust="spacingAndGlyphs" textLength="56" x="3129.43" y="677.3066">produces</text><!--MD5=[1a5c804a1bf2e823f13a034bc17444f5]
link A_paper_writer to S_paper_spec--><path d="M2226.09,630.1296 C2231.86,630.9096 2237.58,631.6696 2243.17,632.4096 C2348.42,646.3496 2375.98,641.9796 2480.17,662.4096 C2512.22,668.6996 2518.98,675.8496 2551.17,681.4096 C2572.56,685.1096 2818.77,704.4096 2989.33,717.5296 " fill="none" id="A_paper_writer-&gt;S_paper_spec" style="stroke: #A80036; stroke-width: 1.0;"/><polygon fill="#A80036" points="2994.11,717.8896,2985.4453,713.2073,2989.1249,717.504,2984.8283,721.1835,2994.11,717.8896" style="stroke: #A80036; stroke-width: 1.0;"/><text fill="#888888" font-family="sans-serif" font-size="13" lengthAdjust="spacingAndGlyphs" textLength="10" x="2552.17" y="677.3066">U</text><!--MD5=[ca5c74bb346e47dcfaa841554ee16e23]
link A_paper_writer to S_read_literature--><path d="M2226.02,630.7496 C2231.81,631.3596 2237.55,631.9196 2243.17,632.4096 C2424.38,648.2296 2885.17,616.4396 3061.17,662.4096 C3079.05,667.0796 3080.49,675.9996 3098.17,681.4096 C3110.01,685.0396 3230.06,699.2496 3336.24,711.3596 " fill="none" id="A_paper_writer-&gt;S_read_literature" style="stroke: #A80036; stroke-width: 1.0;"/><polygon fill="#A80036" points="3341.07,711.9096,3332.5856,706.9081,3336.1027,711.3387,3331.6721,714.8557,3341.07,711.9096" style="stroke: #A80036; stroke-width: 1.0;"/><text fill="#888888" font-family="sans-serif" font-size="13" lengthAdjust="spacingAndGlyphs" textLength="10" x="3099.17" y="677.3066">U</text><!--MD5=[3855fd8b9afcf8e23993152b734bf42a]
link A_paper_writer to S_recompute_harness--><path d="M1992.02,631.2396 C1951.62,639.1796 1912.61,649.6896 1897.17,662.4096 C1884.17,673.1196 1876.61,690.5996 1872.34,705.0896 " fill="none" id="A_paper_writer-&gt;S_recompute_harness" style="stroke: #A80036; stroke-width: 1.0;"/><polygon fill="#A80036" points="1871.1,709.6296,1877.3233,701.9961,1872.4132,704.8051,1869.6041,699.895,1871.1,709.6296" style="stroke: #A80036; stroke-width: 1.0;"/><text fill="#888888" font-family="sans-serif" font-size="13" lengthAdjust="spacingAndGlyphs" textLength="7" x="1898.17" y="677.3066">L</text><!--MD5=[6cacc0fc777c6d2c29211dbfa831c6c8]
link A_paper_writer to S_manuscript--><path d="M2091.77,632.7396 C2080.87,646.9296 2070.71,666.4196 2081.17,681.4096 C2089.04,692.6996 2099.85,701.3696 2111.91,708.0296 " fill="none" id="A_paper_writer-&gt;S_manuscript" style="stroke: #A80036; stroke-width: 1.0; stroke-dasharray: 7.0,7.0;"/><polygon fill="#A80036" points="2116.2,710.2496,2110.0659,702.5442,2111.7656,707.9397,2106.3701,709.6394,2116.2,710.2496" style="stroke: #A80036; stroke-width: 1.0;"/><text fill="#888888" font-family="sans-serif" font-size="13" lengthAdjust="spacingAndGlyphs" textLength="56" x="2082.17" y="677.3066">produces</text><!--MD5=[d1f59381d0d63dbb1fa6f2086e48e444]
link A_paper_writer to S_claim_ledger--><path d="M2130.73,632.7696 C2150.45,648.8196 2181.19,670.8896 2212.17,681.4096 C2296.99,710.2196 2525.05,702.2796 2614.17,711.4096 C2617.81,711.7896 2621.51,712.1796 2625.23,712.5796 " fill="none" id="A_paper_writer-&gt;S_claim_ledger" style="stroke: #A80036; stroke-width: 1.0; stroke-dasharray: 7.0,7.0;"/><polygon fill="#A80036" points="2630.03,713.1196,2621.5189,708.1637,2625.0597,712.5753,2620.648,716.1161,2630.03,713.1196" style="stroke: #A80036; stroke-width: 1.0;"/><text fill="#888888" font-family="sans-serif" font-size="13" lengthAdjust="spacingAndGlyphs" textLength="56" x="2213.17" y="677.3066">produces</text><!--MD5=[b4002251b2587049b5447066285e2abb]
link A_paper_verifier to S_paper_spec--><path d="M1889.16,427.1496 C2198.27,432.2896 2853.82,446.3196 2895.17,473.3396 C2932.44,497.6996 2902.95,537.4396 2939.17,563.3396 C3025.52,625.1196 3096.41,523.2596 3176.17,593.3396 C3206.18,619.7096 3208.12,643.9796 3194.17,681.4096 C3190.69,690.7496 3184.51,699.4896 3177.95,706.8996 " fill="none" id="A_paper_verifier-&gt;S_paper_spec" style="stroke: #A80036; stroke-width: 1.0;"/><polygon fill="#A80036" points="3174.86,710.2296,3183.91,706.3441,3178.2573,706.5611,3178.0404,700.9084,3174.86,710.2296" style="stroke: #A80036; stroke-width: 1.0;"/><text fill="#888888" font-family="sans-serif" font-size="13" lengthAdjust="spacingAndGlyphs" textLength="10" x="3202.48" y="618.2766">U</text><!--MD5=[2e016e1cb56ffc31bc4c44639cc4c5e8]
link A_paper_verifier to S_read_literature--><path d="M1889.1,427.1496 C2204.51,432.3396 2888.2,446.5396 2992.17,473.3396 C3186.58,523.4596 3392.62,654.9096 3470.18,707.6196 " fill="none" id="A_paper_verifier-&gt;S_read_literature" style="stroke: #A80036; stroke-width: 1.0;"/><polygon fill="#A80036" points="3473.85,710.1196,3468.6862,701.733,3469.7252,707.2936,3464.1646,708.3327,3473.85,710.1196" style="stroke: #A80036; stroke-width: 1.0;"/><text fill="#888888" font-family="sans-serif" font-size="13" lengthAdjust="spacingAndGlyphs" textLength="10" x="3346.71" y="618.2766">U</text><!--MD5=[678db50c0140d69efd68e51e04972830]
link A_paper_verifier to S_recompute_harness--><path d="M1730.18,443.5896 C1730.33,491.5496 1731.55,615.9496 1740.17,632.4096 C1757.69,665.8996 1792.41,691.3196 1821.13,707.8096 " fill="none" id="A_paper_verifier-&gt;S_recompute_harness" style="stroke: #A80036; stroke-width: 1.0;"/><polygon fill="#A80036" points="1825.46,710.2396,1819.5658,702.3492,1821.0987,707.7944,1815.6535,709.3273,1825.46,710.2396" style="stroke: #A80036; stroke-width: 1.0;"/><text fill="#888888" font-family="sans-serif" font-size="13" lengthAdjust="spacingAndGlyphs" textLength="7" x="1741.17" y="618.2766">L</text><!--MD5=[61f548e24285c0c3f3343aa8788239a1]
link A_paper_verifier to S_result_a--><path d="M1571.09,427.9896 C1282.16,434.3196 697.29,449.9496 659.17,473.3396 C619.98,497.3896 636.6,527.2096 608.17,563.3396 C560.71,623.6496 538.94,629.7796 482.17,681.4096 C472.94,689.7996 462.72,698.8796 453.63,706.8796 " fill="none" id="A_paper_verifier-&gt;S_result_a" style="stroke: #A80036; stroke-width: 1.0;"/><polygon fill="#A80036" points="450.12,709.9596,459.5217,707.0257,453.8767,706.66,454.2424,701.015,450.12,709.9596" style="stroke: #A80036; stroke-width: 1.0;"/><text fill="#888888" font-family="sans-serif" font-size="13" lengthAdjust="spacingAndGlyphs" textLength="7" x="583.29" y="618.2766">L</text><!--MD5=[08ef11f54a8bce134644bbbb5c32d381]
link A_paper_verifier to S_result_b--><path d="M1571.23,427.7596 C1375.92,432.5896 1064.65,444.7196 1019.17,473.3396 C980.26,497.8296 997.66,528.0696 968.17,563.3396 C915.52,626.3096 890.81,630.8396 826.17,681.4096 C815.19,689.9996 802.95,699.1196 792.02,707.1096 " fill="none" id="A_paper_verifier-&gt;S_result_b" style="stroke: #A80036; stroke-width: 1.0;"/><polygon fill="#A80036" points="787.99,710.0396,797.617,707.9607,792.0275,707.0903,792.898,701.5008,787.99,710.0396" style="stroke: #A80036; stroke-width: 1.0;"/><text fill="#888888" font-family="sans-serif" font-size="13" lengthAdjust="spacingAndGlyphs" textLength="7" x="941.87" y="618.2766">L</text><!--MD5=[7a1aef307d83ddd8d3f2484c74933870]
link A_paper_verifier to S_result_c--><path d="M1571.18,426.8996 C1389.67,430.7896 1112.96,441.8596 1076.17,473.3396 C1008.45,531.2996 1018.32,652.0896 1026.46,704.6296 " fill="none" id="A_paper_verifier-&gt;S_result_c" style="stroke: #A80036; stroke-width: 1.0;"/><polygon fill="#A80036" points="1027.24,709.4896,1029.7463,699.965,1026.4389,704.5542,1021.8497,701.2468,1027.24,709.4896" style="stroke: #A80036; stroke-width: 1.0;"/><text fill="#888888" font-family="sans-serif" font-size="13" lengthAdjust="spacingAndGlyphs" textLength="7" x="1023.32" y="618.2766">L</text><!--MD5=[7cd8f76842eb4bb9f601e5a25e3d20c4]
link A_paper_verifier to S_result_d--><path d="M1727.24,443.8296 C1722.36,471.5896 1710.78,524.1596 1688.17,563.3396 C1654.18,622.2196 1595.69,677.0096 1560.79,706.7396 " fill="none" id="A_paper_verifier-&gt;S_result_d" style="stroke: #A80036; stroke-width: 1.0;"/><polygon fill="#A80036" points="1556.98,709.9696,1566.4338,707.2081,1560.7964,706.7393,1561.2652,701.1019,1556.98,709.9696" style="stroke: #A80036; stroke-width: 1.0;"/><text fill="#888888" font-family="sans-serif" font-size="13" lengthAdjust="spacingAndGlyphs" textLength="7" x="1668.42" y="618.2766">L</text><!--MD5=[782a50a7b32dd07c1a5cc0f986a20595]
link A_paper_verifier to S_verifier_rederivation--><path d="M1571.13,424.6396 C1190.02,424.9296 252.19,430.0696 200.17,473.3396 C131.08,530.8096 135.18,651.8596 140.72,704.5496 " fill="none" id="A_paper_verifier-&gt;S_verifier_rederivation" style="stroke: #A80036; stroke-width: 1.0; stroke-dasharray: 7.0,7.0;"/><polygon fill="#A80036" points="141.27,709.4196,144.2428,700.0301,140.7131,704.4507,136.2925,700.9211,141.27,709.4196" style="stroke: #A80036; stroke-width: 1.0;"/><text fill="#888888" font-family="sans-serif" font-size="13" lengthAdjust="spacingAndGlyphs" textLength="56" x="142.69" y="618.2766">produces</text><!--MD5=[9d6842b1f6fa461925981fbd85617791]
link A_paper_bench to S_paper_spec--><path d="M2568.06,625.6996 C2740.81,639.0696 2998.6,659.3996 3009.17,662.4096 C3026.94,667.4796 3029.54,673.3396 3046.17,681.4096 C3064.98,690.5396 3085.87,700.2096 3104.1,708.4896 " fill="none" id="A_paper_bench-&gt;S_paper_spec" style="stroke: #A80036; stroke-width: 1.0;"/><polygon fill="#A80036" points="3108.29,710.3896,3101.7519,703.0239,3103.7382,708.3206,3098.4415,710.3069,3108.29,710.3896" style="stroke: #A80036; stroke-width: 1.0;"/><text fill="#888888" font-family="sans-serif" font-size="13" lengthAdjust="spacingAndGlyphs" textLength="10" x="3047.17" y="677.3066">U</text><!--MD5=[b5389b99be9e01b744d455105f88d93a]
link A_paper_bench to S_repo_ground_truth--><path d="M2410.07,632.7596 C2407.99,646.9596 2407.33,666.4596 2415.17,681.4096 C2420.56,691.7096 2429.25,700.3196 2438.63,707.2796 " fill="none" id="A_paper_bench-&gt;S_repo_ground_truth" style="stroke: #A80036; stroke-width: 1.0;"/><polygon fill="#A80036" points="2442.66,710.1096,2437.5966,701.662,2438.5692,707.2346,2432.9966,708.2073,2442.66,710.1096" style="stroke: #A80036; stroke-width: 1.0;"/><text fill="#888888" font-family="sans-serif" font-size="13" lengthAdjust="spacingAndGlyphs" textLength="7" x="2416.17" y="677.3066">L</text><!--MD5=[b94348458a7dd8c47cd275e79df1a4dc]
link A_paper_bench to S_recompute_harness--><path d="M2260.06,631.2896 C2151.54,643.7396 2023.47,658.8896 2011.17,662.4096 C1973.59,673.1796 1933.54,692.6896 1905.24,707.9796 " fill="none" id="A_paper_bench-&gt;S_recompute_harness" style="stroke: #A80036; stroke-width: 1.0; stroke-dasharray: 7.0,7.0;"/><polygon fill="#A80036" points="1901.07,710.2596,1910.8854,709.4481,1905.4562,707.8594,1907.0449,702.4302,1901.07,710.2596" style="stroke: #A80036; stroke-width: 1.0;"/><text fill="#888888" font-family="sans-serif" font-size="13" lengthAdjust="spacingAndGlyphs" textLength="56" x="2012.17" y="677.3066">produces</text><!--MD5=[0b9648a9b9fce20f4d5e537116df2179]
link A_sub_a to S_result_a--><path d="M407.08,632.7796 C411.14,652.4296 417.52,683.2696 421.99,704.9196 " fill="none" id="A_sub_a-&gt;S_result_a" style="stroke: #A80036; stroke-width: 1.0; stroke-dasharray: 7.0,7.0;"/><polygon fill="#A80036" points="422.95,709.5696,425.0371,699.9444,421.9337,704.674,417.2041,701.5706,422.95,709.5696" style="stroke: #A80036; stroke-width: 1.0;"/><text fill="#888888" font-family="sans-serif" font-size="13" lengthAdjust="spacingAndGlyphs" textLength="56" x="417.6" y="677.3066">produces</text><!--MD5=[981da1a6047e0817f3466646ce85e1a7]
link A_sub_b to S_result_b--><path d="M760.17,632.7796 C760.17,652.3396 760.17,683.0096 760.17,704.6396 " fill="none" id="A_sub_b-&gt;S_result_b" style="stroke: #A80036; stroke-width: 1.0; stroke-dasharray: 7.0,7.0;"/><polygon fill="#A80036" points="760.17,709.5296,764.17,700.5296,760.17,704.5296,756.17,700.5296,760.17,709.5296" style="stroke: #A80036; stroke-width: 1.0;"/><text fill="#888888" font-family="sans-serif" font-size="13" lengthAdjust="spacingAndGlyphs" textLength="56" x="761.17" y="677.3066">produces</text><!--MD5=[7af455c28cf4428d16f91527e17833a6]
link A_sub_c to S_result_c--><path d="M1139.15,632.7796 C1116.66,653.0196 1080.97,685.1296 1056.84,706.8496 " fill="none" id="A_sub_c-&gt;S_result_c" style="stroke: #A80036; stroke-width: 1.0; stroke-dasharray: 7.0,7.0;"/><polygon fill="#A80036" points="1053.3,710.0396,1062.6655,706.9921,1057.0165,706.6948,1057.3138,701.0458,1053.3,710.0396" style="stroke: #A80036; stroke-width: 1.0;"/><text fill="#888888" font-family="sans-serif" font-size="13" lengthAdjust="spacingAndGlyphs" textLength="56" x="1104.39" y="677.3066">produces</text><!--MD5=[0e27c8cd8b8a2bf61999f2050bc0123f]
link A_sub_d to S_result_d--><path d="M1427.28,632.8596 C1441.69,646.4296 1461.57,665.0996 1479.17,681.4096 C1488.12,689.7096 1497.98,698.7596 1506.74,706.7696 " fill="none" id="A_sub_d-&gt;S_result_d" style="stroke: #A80036; stroke-width: 1.0; stroke-dasharray: 7.0,7.0;"/><polygon fill="#A80036" points="1510.36,710.0796,1506.419,701.0536,1506.6707,706.7049,1501.0194,706.9566,1510.36,710.0796" style="stroke: #A80036; stroke-width: 1.0;"/><text fill="#888888" font-family="sans-serif" font-size="13" lengthAdjust="spacingAndGlyphs" textLength="56" x="1480.17" y="677.3066">produces</text><!--MD5=[ebc209a6592b3ee5400ef2e7cce10d4c]
link A_human_reviewer to S_paper_spec--><path d="M3625.73,101.5696 C3603.64,175.8796 3514.66,452.7396 3366.17,632.4096 C3334.68,670.5096 3285.12,694.3896 3241.62,708.9696 " fill="none" id="A_human_reviewer-&gt;S_paper_spec" style="stroke: #A80036; stroke-width: 1.0;"/><polygon fill="#A80036" points="3236.96,710.4996,3246.7578,711.5014,3241.7119,708.9442,3244.2691,703.8983,3236.96,710.4996" style="stroke: #A80036; stroke-width: 1.0;"/><text fill="#888888" font-family="sans-serif" font-size="13" lengthAdjust="spacingAndGlyphs" textLength="10" x="3507.06" y="429.2066">U</text><!--MD5=[70ea3edc11ac2f23bc41b8f73e6c2a5d]
link A_human_reviewer to S_read_literature--><path d="M3638.5,101.6196 C3649.8,132.5396 3670.17,196.0096 3670.17,251.7396 C3670.17,251.7396 3670.17,251.7396 3670.17,613.8796 C3670.17,661.7196 3623.49,691.3696 3579.34,708.7196 " fill="none" id="A_human_reviewer-&gt;S_read_literature" style="stroke: #A80036; stroke-width: 1.0;"/><polygon fill="#A80036" points="3574.83,710.4396,3584.6655,710.9523,3579.4986,708.6495,3581.8014,703.4826,3574.83,710.4396" style="stroke: #A80036; stroke-width: 1.0;"/><text fill="#888888" font-family="sans-serif" font-size="13" lengthAdjust="spacingAndGlyphs" textLength="10" x="3671.17" y="429.2066">U</text><!--MD5=[83a1bb0e7d6982affcad9bef9e05559f]
link A_human_reviewer to S_external_review--><path d="M3657.1,101.4096 C3700.41,132.7096 3787.29,195.4796 3833.91,229.1596 " fill="none" id="A_human_reviewer-&gt;S_external_review" style="stroke: #A80036; stroke-width: 1.0; stroke-dasharray: 7.0,7.0;"/><polygon fill="#A80036" points="3837.89,232.0296,3832.9479,223.5105,3833.8408,229.0964,3828.2548,229.9893,3837.89,232.0296" style="stroke: #A80036; stroke-width: 1.0;"/><text fill="#888888" font-family="sans-serif" font-size="13" lengthAdjust="spacingAndGlyphs" textLength="56" x="3797.02" y="172.6066">produces</text><!--MD5=[fe3793b0ad2862e7eddb29c8f05f0bd0]
link A_paper_lit to S_manuscript--><path d="M2904.3,632.8896 C2863.84,641.4096 2816.05,651.8896 2773.17,662.4096 C2742.27,669.9896 2735.48,675.8196 2704.17,681.4096 C2549.6,709.0396 2508.25,694.3596 2352.17,711.4096 C2348.52,711.8096 2344.83,712.2296 2341.1,712.6496 " fill="none" id="A_paper_lit-&gt;S_manuscript" style="stroke: #FF0000; stroke-width: 1.0; stroke-dasharray: 7.0,7.0;"/><polygon fill="#FF0000" points="2336.3,713.2096,2345.7072,716.1259,2341.2655,712.6229,2344.7685,708.1812,2336.3,713.2096" style="stroke: #FF0000; stroke-width: 1.0;"/><text fill="#888888" font-family="sans-serif" font-size="13" lengthAdjust="spacingAndGlyphs" textLength="92" x="2774.17" y="677.3066">✗ must not see</text><!--MD5=[2473155f9e37031df3c292e9eb1725e7]
link A_paper_lit to S_claim_ledger--><path d="M2964.2,632.7896 C2930.96,651.2496 2884.07,677.1696 2875.17,681.4096 C2854.91,691.0696 2832.2,700.6196 2812.1,708.6696 " fill="none" id="A_paper_lit-&gt;S_claim_ledger" style="stroke: #FF0000; stroke-width: 1.0; stroke-dasharray: 7.0,7.0;"/><polygon fill="#FF0000" points="2807.63,710.4496,2817.4708,710.8471,2812.2773,708.605,2814.5194,703.4115,2807.63,710.4496" style="stroke: #FF0000; stroke-width: 1.0;"/><text fill="#888888" font-family="sans-serif" font-size="13" lengthAdjust="spacingAndGlyphs" textLength="92" x="2908.94" y="677.3066">✗ must not see</text><!--MD5=[1e6b9cdedb479859edd6a8740ac1aba5]
link A_paper_writer to S_verifier_rederivation--><path d="M1992.05,624.6196 C1960.31,627.3596 1925.93,630.1596 1894.17,632.4096 C1655.73,649.3496 1595.47,643.7196 1357.17,662.4096 C1273.44,668.9796 1252.96,675.7396 1169.17,681.4096 C783.15,707.5396 684.92,681.7496 299.17,711.4096 C295.87,711.6696 292.54,711.9396 289.18,712.2196 " fill="none" id="A_paper_writer-&gt;S_verifier_rederivation" style="stroke: #FF0000; stroke-width: 1.0; stroke-dasharray: 7.0,7.0;"/><polygon fill="#FF0000" points="284.21,712.6596,293.5286,715.8476,289.1904,712.2172,292.8208,707.879,284.21,712.6596" style="stroke: #FF0000; stroke-width: 1.0;"/><text fill="#888888" font-family="sans-serif" font-size="13" lengthAdjust="spacingAndGlyphs" textLength="92" x="1358.17" y="677.3066">✗ must not see</text><!--MD5=[35e240716360864ff0819395f0b19283]
link A_paper_verifier to S_manuscript--><path d="M1740.93,443.7296 C1759.68,476.4796 1797.88,542.2496 1814.17,563.3396 C1840.31,597.1896 1844.05,611.1696 1881.17,632.4096 C1930,660.3696 1950.03,647.0796 2004.17,662.4096 C2054.35,676.6196 2110.57,694.9196 2152.05,708.8896 " fill="none" id="A_paper_verifier-&gt;S_manuscript" style="stroke: #FF0000; stroke-width: 1.0; stroke-dasharray: 7.0,7.0;"/><polygon fill="#FF0000" points="2156.62,710.4296,2149.3769,703.756,2151.8838,708.827,2146.8127,711.3339,2156.62,710.4296" style="stroke: #FF0000; stroke-width: 1.0;"/><text fill="#888888" font-family="sans-serif" font-size="13" lengthAdjust="spacingAndGlyphs" textLength="92" x="1882.17" y="618.2766">✗ must not see</text><!--MD5=[ac206171ccc40cc690866f56ded6350b]
link A_paper_verifier to S_claim_ledger--><path d="M1889,426.1896 C2102.9,429.3296 2462.7,439.6296 2513.17,473.3396 C2550.19,498.0796 2528.15,529.5696 2557.17,563.3396 C2607.55,621.9896 2643.18,610.1496 2700.17,662.4096 C2714.56,675.6196 2728.59,692.5396 2739,706.1396 " fill="none" id="A_paper_verifier-&gt;S_claim_ledger" style="stroke: #FF0000; stroke-width: 1.0; stroke-dasharray: 7.0,7.0;"/><polygon fill="#FF0000" points="2741.76,709.7796,2739.5216,700.1885,2738.744,705.7917,2733.1409,705.0141,2741.76,709.7796" style="stroke: #FF0000; stroke-width: 1.0;"/><text fill="#888888" font-family="sans-serif" font-size="13" lengthAdjust="spacingAndGlyphs" textLength="92" x="2659.45" y="618.2766">✗ must not see</text><!--MD5=[d5da8223fee4abba1117e6fd5bba43f1]
link A_paper_bench to S_manuscript--><path d="M2367.83,632.8296 C2348.92,641.1296 2327.1,651.4796 2308.17,662.4096 C2284.94,675.8196 2260.3,693.4496 2241.94,707.3296 " fill="none" id="A_paper_bench-&gt;S_manuscript" style="stroke: #FF0000; stroke-width: 1.0; stroke-dasharray: 7.0,7.0;"/><polygon fill="#FF0000" points="2238.13,710.2296,2247.7121,707.9528,2242.1058,707.1977,2242.861,701.5915,2238.13,710.2296" style="stroke: #FF0000; stroke-width: 1.0;"/><text fill="#888888" font-family="sans-serif" font-size="13" lengthAdjust="spacingAndGlyphs" textLength="92" x="2309.17" y="677.3066">✗ must not see</text><!--MD5=[103c96360258ed073cf5454a1e9d97ba]
link A_paper_bench to S_claim_ledger--><path d="M2482.44,632.8696 C2508.96,640.9696 2539.35,651.1596 2566.17,662.4096 C2582.85,669.4096 2585.47,674.4396 2602.17,681.4096 C2627.19,691.8596 2655.3,701.3396 2680.58,709.0996 " fill="none" id="A_paper_bench-&gt;S_claim_ledger" style="stroke: #FF0000; stroke-width: 1.0; stroke-dasharray: 7.0,7.0;"/><polygon fill="#FF0000" points="2685.15,710.4896,2677.7053,704.0416,2680.3668,709.0332,2675.3751,711.6947,2685.15,710.4896" style="stroke: #FF0000; stroke-width: 1.0;"/><text fill="#888888" font-family="sans-serif" font-size="13" lengthAdjust="spacingAndGlyphs" textLength="92" x="2603.17" y="677.3066">✗ must not see</text><!--MD5=[db35ebfb6dc8619b3fb8d74ea96a2527]
link A_human_reviewer to A_coordinator--><path d="M3487.95,97.7896 C3415.8,106.1696 3327.1,117.6496 3248.17,131.2096 C3079.88,160.1196 2885.29,205.1896 2777.31,231.2496 " fill="none" id="A_human_reviewer-&gt;A_coordinator" style="stroke: #0000FF; stroke-width: 1.0;"/><polygon fill="#0000FF" points="2772.75,232.3496,2782.437,234.128,2777.6106,231.1774,2780.5613,226.351,2772.75,232.3496" style="stroke: #0000FF; stroke-width: 1.0;"/><text fill="#888888" font-family="sans-serif" font-size="13" lengthAdjust="spacingAndGlyphs" textLength="226" x="3275.67" y="146.1066">catches: its own un-squeezed editorial</text><text fill="#888888" font-family="sans-serif" font-size="13" lengthAdjust="spacingAndGlyphs" textLength="279" x="3249.17" y="163.8127">judgment of whether the paper faithfully reads</text><text fill="#888888" font-family="sans-serif" font-size="13" lengthAdjust="spacingAndGlyphs" textLength="272" x="3252.67" y="181.5187">the literature — via external/human review —</text><text fill="#888888" font-family="sans-serif" font-size="13" lengthAdjust="spacingAndGlyphs" textLength="220" x="3278.67" y="199.2247">the terminus that closes the soft side</text><!--MD5=[5441c17ddcf577dda61f1d43ffc773ff]
link A_paper_verifier to A_paper_lit--><path d="M1889.22,425.1196 C2113.59,426.9096 2501.71,435.5296 2554.17,473.3396 C2589.12,498.5396 2555.98,537.1196 2590.17,563.3396 C2595.21,567.2096 2720.94,581.7996 2831.5,593.9796 " fill="none" id="A_paper_verifier-&gt;A_paper_lit" style="stroke: #0000FF; stroke-width: 1.0;"/><polygon fill="#0000FF" points="2836.25,594.4996,2827.7531,589.5195,2831.2813,593.9412,2826.8596,597.4694,2836.25,594.4996" style="stroke: #0000FF; stroke-width: 1.0;"/><text fill="#888888" font-family="sans-serif" font-size="13" lengthAdjust="spacingAndGlyphs" textLength="250" x="2591.17" y="497.2366">catches: an over-broad reading: a cite that</text><text fill="#888888" font-family="sans-serif" font-size="13" lengthAdjust="spacingAndGlyphs" textLength="246" x="2593.17" y="514.9427">does not actually support the claim — via</text><text fill="#888888" font-family="sans-serif" font-size="13" lengthAdjust="spacingAndGlyphs" textLength="240" x="2596.17" y="532.6487">independent re-derivation requires each</text><text fill="#888888" font-family="sans-serif" font-size="13" lengthAdjust="spacingAndGlyphs" textLength="210" x="2611.17" y="550.3547">claim's source to actually support it</text><!--MD5=[eec3848e09cd6075d8f7bdd312526d5a]
link A_paper_verifier to A_paper_writer--><path d="M1773.16,443.7096 C1786.73,451.3396 1800.85,461.2396 1811.17,473.3396 C1839.11,506.1296 1813.85,536.0296 1847.17,563.3396 C1868.87,581.1396 1928.85,592.9696 1985.95,600.4896 " fill="none" id="A_paper_verifier-&gt;A_paper_writer" style="stroke: #0000FF; stroke-width: 1.0;"/><polygon fill="#0000FF" points="1990.68,601.0996,1982.2692,595.9754,1985.7215,600.4566,1981.2403,603.909,1990.68,601.0996" style="stroke: #0000FF; stroke-width: 1.0;"/><text fill="#888888" font-family="sans-serif" font-size="13" lengthAdjust="spacingAndGlyphs" textLength="215" x="1880.17" y="488.2366">catches: coherent-and-wrong prose:</text><text fill="#888888" font-family="sans-serif" font-size="13" lengthAdjust="spacingAndGlyphs" textLength="267" x="1854.17" y="505.9427">faithful-looking text whose number does not</text><text fill="#888888" font-family="sans-serif" font-size="13" lengthAdjust="spacingAndGlyphs" textLength="265" x="1855.17" y="523.6487">recompute or overclaims — via re-derivation</text><text fill="#888888" font-family="sans-serif" font-size="13" lengthAdjust="spacingAndGlyphs" textLength="279" x="1848.17" y="541.3547">from the hard ground truth; Gate B recompute</text><text fill="#888888" font-family="sans-serif" font-size="13" lengthAdjust="spacingAndGlyphs" textLength="59" x="1958.17" y="559.0607">mismatch</text><!--MD5=[69465b7d924c0e50ee09337613fae61f]
link A_coordinator to A_paper_verifier--><path d="M2538.71,264.2396 C2446.07,271.8496 2326.4,284.0496 2221.17,302.2796 C2069.89,328.4796 1896.12,375.1396 1801.22,402.0796 " fill="none" id="A_coordinator-&gt;A_paper_verifier" style="stroke: #0000FF; stroke-width: 1.0;"/><polygon fill="#0000FF" points="1796.54,403.4096,1806.2888,404.8101,1801.3514,402.0493,1804.1122,397.1119,1796.54,403.4096" style="stroke: #0000FF; stroke-width: 1.0;"/><text fill="#888888" font-family="sans-serif" font-size="13" lengthAdjust="spacingAndGlyphs" textLength="254" x="2222.17" y="317.1766">catches: a re-derivation that silently skips a</text><text fill="#888888" font-family="sans-serif" font-size="13" lengthAdjust="spacingAndGlyphs" textLength="165" x="2266.67" y="334.8827">ledgered claim — via Gate C</text><text fill="#888888" font-family="sans-serif" font-size="13" lengthAdjust="spacingAndGlyphs" textLength="206" x="2246.17" y="352.5887">ledger&lt;-&gt;reflexive-macro coverage</text><text fill="#888888" font-family="sans-serif" font-size="13" lengthAdjust="spacingAndGlyphs" textLength="80" x="2309.17" y="370.2947">reconciliation</text><!--MD5=[504bae790954cdfa7c050306d14cee72]
link A_paper_verifier to A_paper_bench--><path d="M1889.21,427.6996 C1984.6,432.4896 2094.51,444.3996 2132.17,473.3396 C2166.33,499.5996 2135.01,535.8396 2168.17,563.3396 C2182.87,575.5496 2216.43,585.0896 2254.18,592.3596 " fill="none" id="A_paper_verifier-&gt;A_paper_bench" style="stroke: #0000FF; stroke-width: 1.0;"/><polygon fill="#0000FF" points="2258.78,593.2296,2250.6635,587.6509,2253.8643,592.3151,2249.2002,595.516,2258.78,593.2296" style="stroke: #0000FF; stroke-width: 1.0;"/><text fill="#888888" font-family="sans-serif" font-size="13" lengthAdjust="spacingAndGlyphs" textLength="209" x="2209.67" y="497.2366">catches: a harness that computes a</text><text fill="#888888" font-family="sans-serif" font-size="13" lengthAdjust="spacingAndGlyphs" textLength="290" x="2169.17" y="514.9427">consistent-but-wrong number not matching raw</text><text fill="#888888" font-family="sans-serif" font-size="13" lengthAdjust="spacingAndGlyphs" textLength="249" x="2189.67" y="532.6487">data — via the verifier re-derives from raw</text><text fill="#888888" font-family="sans-serif" font-size="13" lengthAdjust="spacingAndGlyphs" textLength="251" x="2188.67" y="550.3547">source independently of the harness build</text><!--MD5=[cfe215ed9645830d8fcf5c3025828dd0]
link A_paper_verifier to A_sub_a--><path d="M1571.2,424.5196 C1214.95,424.6396 380.39,429.6296 338.17,473.3396 C310.38,502.1196 320.24,527.5896 338.17,563.3396 C343.28,573.5396 351.66,582.1496 360.74,589.1396 " fill="none" id="A_paper_verifier-&gt;A_sub_a" style="stroke: #0000FF; stroke-width: 1.0;"/><polygon fill="#0000FF" points="364.61,591.9696,359.7073,583.4277,360.5744,589.0178,354.9843,589.8848,364.61,591.9696" style="stroke: #0000FF; stroke-width: 1.0;"/><text fill="#888888" font-family="sans-serif" font-size="13" lengthAdjust="spacingAndGlyphs" textLength="169" x="386.67" y="497.2366">catches: instance-a reports a</text><text fill="#888888" font-family="sans-serif" font-size="13" lengthAdjust="spacingAndGlyphs" textLength="264" x="339.17" y="514.9427">coherent-and-wrong result — via the verifier</text><text fill="#888888" font-family="sans-serif" font-size="13" lengthAdjust="spacingAndGlyphs" textLength="217" x="362.67" y="532.6487">re-derives A's claimed result from A's</text><text fill="#888888" font-family="sans-serif" font-size="13" lengthAdjust="spacingAndGlyphs" textLength="187" x="377.67" y="550.3547">returned ground-truth outputs</text><!--MD5=[16f729928e7217888a8754388a6f0792]
link A_paper_verifier to A_sub_b--><path d="M1571.14,426.4996 C1286.17,430.3196 715.22,441.8696 685.17,473.3396 C657.55,502.2796 666.05,528.2096 685.17,563.3396 C690.97,574.0196 700.25,582.6996 710.33,589.6196 " fill="none" id="A_paper_verifier-&gt;A_sub_b" style="stroke: #0000FF; stroke-width: 1.0;"/><polygon fill="#0000FF" points="714.39,592.2496,709.022,583.9922,710.1971,589.5257,704.6637,590.7008,714.39,592.2496" style="stroke: #0000FF; stroke-width: 1.0;"/><text fill="#888888" font-family="sans-serif" font-size="13" lengthAdjust="spacingAndGlyphs" textLength="170" x="739.67" y="505.7366">catches: instance-b reports a</text><text fill="#888888" font-family="sans-serif" font-size="13" lengthAdjust="spacingAndGlyphs" textLength="277" x="686.17" y="523.4427">coherent-and-wrong result — via re-derivation</text><text fill="#888888" font-family="sans-serif" font-size="13" lengthAdjust="spacingAndGlyphs" textLength="156" x="746.67" y="541.1487">from B's returned outputs</text><!--MD5=[219170b83211ba0ec1dbaf64ab5efa70]
link A_paper_verifier to A_sub_c--><path d="M1571.33,426.0696 C1395.49,429.1596 1132.53,439.4596 1101.17,473.3396 C1073.99,502.6996 1084.09,527.1696 1101.17,563.3396 C1105.9,573.3596 1113.82,582.0096 1122.35,589.1196 " fill="none" id="A_paper_verifier-&gt;A_sub_c" style="stroke: #0000FF; stroke-width: 1.0;"/><polygon fill="#0000FF" points="1125.95,591.9596,1121.378,583.2363,1122.0304,588.8554,1116.4112,589.5077,1125.95,591.9596" style="stroke: #0000FF; stroke-width: 1.0;"/><text fill="#888888" font-family="sans-serif" font-size="13" lengthAdjust="spacingAndGlyphs" textLength="168" x="1156.67" y="505.7366">catches: instance-c reports a</text><text fill="#888888" font-family="sans-serif" font-size="13" lengthAdjust="spacingAndGlyphs" textLength="277" x="1102.17" y="523.4427">coherent-and-wrong result — via re-derivation</text><text fill="#888888" font-family="sans-serif" font-size="13" lengthAdjust="spacingAndGlyphs" textLength="156" x="1162.67" y="541.1487">from C's returned outputs</text><!--MD5=[9e6c321d8145e841dc02333b29ba5e8b]
link A_paper_verifier to A_sub_d--><path d="M1571.37,429.3896 C1500.32,435.1296 1427.51,447.4096 1405.17,473.3396 C1378.08,504.7796 1388.41,556.7496 1398.02,587.3096 " fill="none" id="A_paper_verifier-&gt;A_sub_d" style="stroke: #0000FF; stroke-width: 1.0;"/><polygon fill="#0000FF" points="1399.45,591.6896,1400.443,581.891,1397.8903,586.9391,1392.8422,584.3864,1399.45,591.6896" style="stroke: #0000FF; stroke-width: 1.0;"/><text fill="#888888" font-family="sans-serif" font-size="13" lengthAdjust="spacingAndGlyphs" textLength="170" x="1459.67" y="505.7366">catches: instance-d reports a</text><text fill="#888888" font-family="sans-serif" font-size="13" lengthAdjust="spacingAndGlyphs" textLength="277" x="1406.17" y="523.4427">coherent-and-wrong result — via re-derivation</text><text fill="#888888" font-family="sans-serif" font-size="13" lengthAdjust="spacingAndGlyphs" textLength="157" x="1466.17" y="541.1487">from D's returned outputs</text><rect fill="#DDDDDD" height="261.8829" rx="5" ry="5" style="stroke: #000000; stroke-width: 1.0;" width="346.3333" x="3669.6667" y="768.4796"/><text fill="#000000" font-family="sans-serif" font-size="14" font-weight="bold" lengthAdjust="spacingAndGlyphs" textLength="46" x="3679.6667" y="790.4456">Colour</text><text fill="#000000" font-family="sans-serif" font-size="14" font-weight="bold" lengthAdjust="spacingAndGlyphs" textLength="0" x="3737.6667" y="790.4456"/><text fill="#000000" font-family="sans-serif" font-size="14" font-weight="bold" lengthAdjust="spacingAndGlyphs" textLength="60" x="3753" y="790.4456">Meaning</text><rect fill="#E8541E" height="19.0679" style="stroke: none; stroke-width: 1.0;" width="54" x="3675.6667" y="794.5475"/><text fill="#000000" font-family="sans-serif" font-size="14" lengthAdjust="spacingAndGlyphs" textLength="0" x="3679.6667" y="809.5135"/><text fill="#000000" font-family="sans-serif" font-size="14" lengthAdjust="spacingAndGlyphs" textLength="0" x="3733.6667" y="809.5135"/><path d="M3739.3333,800.7821 C3736.7632,800.7821 3734.6667,802.8786 3734.6667,805.4488 C3734.6667,808.019 3736.7632,810.1155 3739.3333,810.1155 C3741.9035,810.1155 3744,808.019 3744,805.4488 C3744,802.8786 3741.9035,800.7821 3739.3333,800.7821 M3739.3333,801.9488 C3741.2735,801.9488 3742.8333,803.5086 3742.8333,805.4488 C3742.8333,807.389 3741.2735,808.9488 3739.3333,808.9488 C3737.3932,808.9488 3735.8333,807.389 3735.8333,805.4488 C3735.8333,803.5086 3737.3932,801.9488 3739.3333,801.9488 M3741.6667,803.1155 L3738.1667,804.2821 L3737,807.7821 L3740.5,806.6155 L3741.6667,803.1155 M3739.3333,804.8655 C3739.66,804.8655 3739.9167,805.1221 3739.9167,805.4488 C3739.9167,805.7755 3739.66,806.0321 3739.3333,806.0321 C3739.0067,806.0321 3738.75,805.7755 3738.75,805.4488 C3738.75,805.1221 3739.0067,804.8655 3739.3333,804.8655 " fill="#000000" style="stroke: ; stroke-width: 0.0; stroke-dasharray: ;"/><text fill="#000000" font-family="sans-serif" font-size="14" lengthAdjust="spacingAndGlyphs" textLength="0" x="3749" y="809.5135"/><text fill="#000000" font-family="sans-serif" font-size="14" lengthAdjust="spacingAndGlyphs" textLength="80" x="3753" y="809.5135">Coordinator</text><rect fill="#E8541E" height="19.0679" style="stroke: none; stroke-width: 1.0;" width="54" x="3675.6667" y="813.6155"/><text fill="#000000" font-family="sans-serif" font-size="14" lengthAdjust="spacingAndGlyphs" textLength="0" x="3679.6667" y="828.5814"/><text fill="#000000" font-family="sans-serif" font-size="14" lengthAdjust="spacingAndGlyphs" textLength="0" x="3733.6667" y="828.5814"/><path d="M3738.1667,819.85 C3737.525,819.85 3737,820.375 3737,821.0167 L3737,827.4334 C3737,827.76 3736.7433,828.0167 3736.4167,828.0167 C3736.09,828.0167 3735.8333,827.76 3735.8333,827.4334 L3735.8333,825.6834 L3734.6667,825.6834 L3734.6667,828.0167 C3734.6667,828.6584 3735.1917,829.1834 3735.8333,829.1834 L3741.6667,829.1834 C3742.3083,829.1834 3742.8333,828.6584 3742.8333,828.0167 L3742.8333,824.5167 L3738.1667,824.5167 L3738.1667,821.6 C3738.1667,821.2734 3738.4233,821.0167 3738.75,821.0167 C3739.0767,821.0167 3739.3333,821.2734 3739.3333,821.6 L3739.3333,823.35 L3744,823.35 L3744,821.0167 C3744,820.375 3743.475,819.85 3742.8333,819.85 L3738.1667,819.85 " fill="#000000" style="stroke: ; stroke-width: 0.0; stroke-dasharray: ;"/><text fill="#000000" font-family="sans-serif" font-size="14" lengthAdjust="spacingAndGlyphs" textLength="0" x="3749" y="828.5814"/><text fill="#000000" font-family="sans-serif" font-size="14" lengthAdjust="spacingAndGlyphs" textLength="142" x="3753" y="828.5814">Property/spec author</text><rect fill="#E8541E" height="19.0679" style="stroke: none; stroke-width: 1.0;" width="54" x="3675.6667" y="832.6834"/><text fill="#000000" font-family="sans-serif" font-size="14" lengthAdjust="spacingAndGlyphs" textLength="0" x="3679.6667" y="847.6493"/><text fill="#000000" font-family="sans-serif" font-size="14" lengthAdjust="spacingAndGlyphs" textLength="0" x="3733.6667" y="847.6493"/><path d="M3741.0833,838.918 C3739.4733,838.918 3738.1667,840.2246 3738.1667,841.8346 C3738.1667,842.208 3738.2577,842.565 3738.386,842.8916 L3734.9957,846.2458 C3734.5407,846.7008 3734.5407,847.4311 3734.9957,847.8861 C3735.229,848.1195 3735.5312,848.2513 3735.8345,848.2513 C3736.1378,848.2513 3736.44,848.1451 3736.6733,847.9235 L3740.0275,844.5693 C3740.3542,844.686 3740.7112,844.7513 3741.0845,844.7513 C3742.6945,844.7513 3744.0012,843.4446 3744.0012,841.8346 C3744.0012,841.648 3743.9638,841.4881 3743.9277,841.3236 L3742.8333,842.418 L3740.5,842.418 L3740.5,840.0846 L3741.5943,838.9903 C3741.431,838.9553 3741.2712,838.918 3741.0833,838.9168 M3735.8333,846.5001 C3736.16,846.5001 3736.4167,846.7568 3736.4167,847.0835 C3736.4167,847.4101 3736.16,847.6668 3735.8333,847.6668 C3735.5067,847.6668 3735.25,847.4101 3735.25,847.0835 C3735.25,846.7568 3735.5067,846.5001 3735.8333,846.5001 " fill="#000000" style="stroke: ; stroke-width: 0.0; stroke-dasharray: ;"/><text fill="#000000" font-family="sans-serif" font-size="14" lengthAdjust="spacingAndGlyphs" textLength="0" x="3749" y="847.6493"/><text fill="#000000" font-family="sans-serif" font-size="14" lengthAdjust="spacingAndGlyphs" textLength="88" x="3753" y="847.6493">Implementer</text><rect fill="#E8541E" height="19.0679" style="stroke: none; stroke-width: 1.0;" width="54" x="3675.6667" y="851.7513"/><text fill="#000000" font-family="sans-serif" font-size="14" lengthAdjust="spacingAndGlyphs" textLength="0" x="3679.6667" y="866.7172"/><text fill="#000000" font-family="sans-serif" font-size="14" lengthAdjust="spacingAndGlyphs" textLength="0" x="3733.6667" y="866.7172"/><path d="M3738.75,857.9859 C3736.5018,857.9859 3734.6667,859.821 3734.6667,862.0692 C3734.6667,864.3174 3736.5018,866.1525 3738.75,866.1525 C3739.4407,866.1525 3740.1103,865.9834 3740.682,865.6789 A1.1667,1.1667 0 0 0 3740.8278,865.8247 L3741.9945,866.9914 A1.1853,1.1853 0 1 0 3743.6722,865.3137 L3742.5055,864.147 A1.1667,1.1667 0 0 0 3742.3235,864.0012 C3742.6338,863.426 3742.8345,862.7657 3742.8345,862.0692 C3742.8345,859.821 3740.9993,857.9859 3738.7512,857.9859 M3738.7512,859.1525 C3740.3693,859.1525 3741.6678,860.451 3741.6678,862.0692 C3741.6678,862.8404 3741.3867,863.5544 3740.9025,864.0747 L3740.8663,864.1109 A1.1667,1.1667 0 0 0 3740.7205,864.2567 C3740.2048,864.7199 3739.5037,864.9859 3738.7512,864.9859 C3737.133,864.9859 3735.8345,863.6874 3735.8345,862.0692 C3735.8345,860.451 3737.133,859.1525 3738.7512,859.1525 " fill="#000000" style="stroke: ; stroke-width: 0.0; stroke-dasharray: ;"/><text fill="#000000" font-family="sans-serif" font-size="14" lengthAdjust="spacingAndGlyphs" textLength="0" x="3749" y="866.7172"/><text fill="#000000" font-family="sans-serif" font-size="14" lengthAdjust="spacingAndGlyphs" textLength="61" x="3753" y="866.7172">Exerciser</text><rect fill="#E8541E" height="19.0679" style="stroke: none; stroke-width: 1.0;" width="54" x="3675.6667" y="870.8192"/><text fill="#000000" font-family="sans-serif" font-size="14" lengthAdjust="spacingAndGlyphs" textLength="0" x="3679.6667" y="885.7851"/><text fill="#000000" font-family="sans-serif" font-size="14" lengthAdjust="spacingAndGlyphs" textLength="0" x="3733.6667" y="885.7851"/><path d="M3736.2347,877.0538 A0.5857,0.5857 0 0 0 3736.4167,878.2205 L3737,878.2205 L3737,879.8608 C3736.8973,880.0615 3735.607,882.5593 3735.068,883.4705 C3734.8895,883.7831 3734.6667,884.1845 3734.6667,884.7106 C3734.6667,885.1575 3734.8288,885.602 3735.1403,885.9135 C3735.4437,886.2168 3735.8905,886.3871 3736.3432,886.3871 L3742.3223,886.3871 C3742.7692,886.3871 3743.2137,886.225 3743.5252,885.9135 C3743.8285,885.6101 3743.9988,885.1633 3743.9988,884.7106 C3743.9988,884.1833 3743.7725,883.7761 3743.5975,883.4705 C3743.0573,882.5605 3741.7682,880.0615 3741.6655,879.8608 L3741.6655,878.2205 L3742.2488,878.2205 A0.5833,0.5833 0 1 0 3742.2488,877.0538 L3736.4155,877.0538 A0.5833,0.5833 0 0 0 3736.3058,877.0538 A0.5857,0.5857 0 0 0 3736.2323,877.0538 M3738.1643,878.2205 L3740.4977,878.2205 L3740.4977,880.1163 L3740.5712,880.226 C3741.3318,881.6645 3741.3318,881.6645 3741.9933,882.8871 L3736.6698,882.8871 C3737.3313,881.6633 3738.092,880.226 3738.092,880.226 L3738.1655,880.1163 L3738.1655,878.2205 " fill="#000000" style="stroke: ; stroke-width: 0.0; stroke-dasharray: ;"/><text fill="#000000" font-family="sans-serif" font-size="14" lengthAdjust="spacingAndGlyphs" textLength="0" x="3749" y="885.7851"/><text fill="#000000" font-family="sans-serif" font-size="14" lengthAdjust="spacingAndGlyphs" textLength="39" x="3753" y="885.7851">Probe</text><rect fill="#E8541E" height="19.0679" style="stroke: none; stroke-width: 1.0;" width="54" x="3675.6667" y="889.8871"/><text fill="#000000" font-family="sans-serif" font-size="14" lengthAdjust="spacingAndGlyphs" textLength="0" x="3679.6667" y="904.8531"/><text fill="#000000" font-family="sans-serif" font-size="14" lengthAdjust="spacingAndGlyphs" textLength="0" x="3733.6667" y="904.8531"/><path d="M3739.3333,896.1217 C3738.0442,896.1217 3737,897.4272 3737,899.0384 C3737,900.6495 3738.0442,901.955 3739.3333,901.955 C3740.6225,901.955 3741.6667,900.6495 3741.6667,899.0384 C3741.6667,897.4272 3740.6225,896.1217 3739.3333,896.1217 M3736.8903,901.955 C3735.642,902.0017 3734.6667,903.0284 3734.6667,904.2884 L3734.6667,905.455 L3744,905.455 L3744,904.2884 C3744,903.0284 3743.0247,902.0017 3741.7763,901.955 C3741.1463,902.6667 3740.2783,903.1217 3739.3333,903.1217 C3738.3883,903.1217 3737.5203,902.6667 3736.8903,901.955 " fill="#000000" style="stroke: ; stroke-width: 0.0; stroke-dasharray: ;"/><text fill="#000000" font-family="sans-serif" font-size="14" lengthAdjust="spacingAndGlyphs" textLength="0" x="3749" y="904.8531"/><text fill="#000000" font-family="sans-serif" font-size="14" lengthAdjust="spacingAndGlyphs" textLength="114" x="3753" y="904.8531">Human terminus</text><rect fill="#4E8FE8" height="19.0679" style="stroke: none; stroke-width: 1.0;" width="54" x="3675.6667" y="908.955"/><text fill="#000000" font-family="sans-serif" font-size="14" lengthAdjust="spacingAndGlyphs" textLength="0" x="3679.6667" y="923.921"/><text fill="#000000" font-family="sans-serif" font-size="14" lengthAdjust="spacingAndGlyphs" textLength="0" x="3733.6667" y="923.921"/><path d="M3736.4167,915.1896 C3735.4507,915.1896 3734.6667,915.9736 3734.6667,916.9396 C3734.6667,917.705 3735.1497,918.342 3735.8333,918.58 L3735.8333,921.1326 C3735.1497,921.3706 3734.6667,922.0076 3734.6667,922.773 C3734.6667,923.739 3735.4507,924.523 3736.4167,924.523 C3737.3827,924.523 3738.1667,923.739 3738.1667,922.773 C3738.1667,922.0788 3737.7688,921.4885 3737.182,921.205 C3737.287,921.1 3737.4212,921.023 3737.5833,921.023 L3739.9167,921.023 C3740.8768,921.023 3741.6667,920.2331 3741.6667,919.273 L3741.6667,918.58 C3742.3503,918.342 3742.8333,917.705 3742.8333,916.9396 C3742.8333,915.9736 3742.0493,915.1896 3741.0833,915.1896 C3740.1173,915.1896 3739.3333,915.9736 3739.3333,916.9396 C3739.3333,917.705 3739.8163,918.342 3740.5,918.58 L3740.5,919.273 C3740.5,919.5961 3740.2398,919.8563 3739.9167,919.8563 L3737.5833,919.8563 C3737.3838,919.8563 3737.1797,919.903 3737,919.966 L3737,918.58 C3737.6837,918.342 3738.1667,917.705 3738.1667,916.9396 C3738.1667,915.9736 3737.3827,915.1896 3736.4167,915.1896 " fill="#000000" style="stroke: ; stroke-width: 0.0; stroke-dasharray: ;"/><text fill="#000000" font-family="sans-serif" font-size="14" lengthAdjust="spacingAndGlyphs" textLength="0" x="3749" y="923.921"/><text fill="#000000" font-family="sans-serif" font-size="14" lengthAdjust="spacingAndGlyphs" textLength="190" x="3753" y="923.921">Monitored sub-loop (bridge)</text><rect fill="#C9E7CB" height="19.0679" style="stroke: none; stroke-width: 1.0;" width="54" x="3675.6667" y="928.023"/><text fill="#000000" font-family="sans-serif" font-size="14" lengthAdjust="spacingAndGlyphs" textLength="0" x="3679.6667" y="942.9889"/><text fill="#000000" font-family="sans-serif" font-size="14" lengthAdjust="spacingAndGlyphs" textLength="0" x="3733.6667" y="942.9889"/><path d="M3734.6667,934.2575 L3734.6667,943.5909 L3742.8333,943.5909 L3742.8333,938.9242 L3738.1667,938.9242 L3738.1667,934.2575 L3734.6667,934.2575 M3739.3333,934.2575 L3739.3333,937.7575 L3742.8333,937.7575 L3739.3333,934.2575 M3735.8333,936.5909 L3737,936.5909 L3737,937.7575 L3735.8333,937.7575 L3735.8333,936.5909 M3735.8333,938.9242 L3737,938.9242 L3737,940.0909 L3735.8333,940.0909 L3735.8333,938.9242 M3735.8333,941.2575 L3740.5,941.2575 L3740.5,942.4242 L3735.8333,942.4242 L3735.8333,941.2575 " fill="#000000" style="stroke: ; stroke-width: 0.0; stroke-dasharray: ;"/><text fill="#000000" font-family="sans-serif" font-size="14" lengthAdjust="spacingAndGlyphs" textLength="0" x="3749" y="942.9889"/><text fill="#000000" font-family="sans-serif" font-size="14" lengthAdjust="spacingAndGlyphs" textLength="251" x="3753" y="942.9889">Soft authority — transcribed/external</text><rect fill="#C9E7CB" height="19.0679" style="stroke: none; stroke-width: 1.0;" width="54" x="3675.6667" y="947.0909"/><text fill="#000000" font-family="sans-serif" font-size="14" lengthAdjust="spacingAndGlyphs" textLength="0" x="3679.6667" y="962.0568"/><text fill="#000000" font-family="sans-serif" font-size="14" lengthAdjust="spacingAndGlyphs" textLength="0" x="3733.6667" y="962.0568"/><path d="M3741.6667,953.3255 L3740.5,954.4921 L3742.8333,956.8255 L3744,955.6588 L3741.6667,953.3255 M3739.3333,955.6588 L3734.6667,960.3255 L3734.6667,962.6588 L3737,962.6588 L3741.6667,957.9921 L3739.3333,955.6588 " fill="#000000" style="stroke: ; stroke-width: 0.0; stroke-dasharray: ;"/><text fill="#000000" font-family="sans-serif" font-size="14" lengthAdjust="spacingAndGlyphs" textLength="0" x="3749" y="962.0568"/><text fill="#000000" font-family="sans-serif" font-size="14" lengthAdjust="spacingAndGlyphs" textLength="175" x="3753" y="962.0568">Soft authority — authored</text><rect fill="#F3CBD0" height="19.0679" style="stroke: none; stroke-width: 1.0;" width="54" x="3675.6667" y="966.1588"/><text fill="#000000" font-family="sans-serif" font-size="14" lengthAdjust="spacingAndGlyphs" textLength="0" x="3679.6667" y="981.1247"/><text fill="#000000" font-family="sans-serif" font-size="14" lengthAdjust="spacingAndGlyphs" textLength="0" x="3733.6667" y="981.1247"/><path d="M3738.75,972.3934 L3738.1667,973.7794 L3737.8388,973.9252 L3736.4528,973.3419 L3735.614,974.1807 L3736.1973,975.5667 L3736.0515,975.8945 L3734.6655,976.4779 L3734.6655,977.6445 L3736.0515,978.2279 L3736.1973,978.593 L3735.614,979.9417 L3736.4528,980.7805 L3737.8388,980.1972 L3738.1667,980.343 L3738.75,981.729 L3739.9167,981.729 L3740.5,980.343 L3740.8278,980.1972 L3742.2138,980.7805 L3743.0527,979.9417 L3742.4693,978.5557 L3742.6152,978.2279 L3744.0012,977.6445 L3744.0012,976.4779 L3742.6152,975.8945 L3742.4693,975.5667 L3743.0165,974.1807 L3742.2138,973.3419 L3740.8278,973.9252 L3740.5,973.7794 L3739.9167,972.3934 L3738.75,972.3934 M3739.3333,975.31 C3740.3017,975.31 3741.0833,976.0917 3741.0833,977.06 C3741.0833,978.0284 3740.3017,978.81 3739.3333,978.81 C3738.365,978.81 3737.5833,978.0284 3737.5833,977.06 C3737.5833,976.0917 3738.365,975.31 3739.3333,975.31 " fill="#000000" style="stroke: ; stroke-width: 0.0; stroke-dasharray: ;"/><text fill="#000000" font-family="sans-serif" font-size="14" lengthAdjust="spacingAndGlyphs" textLength="0" x="3749" y="981.1247"/><text fill="#000000" font-family="sans-serif" font-size="14" lengthAdjust="spacingAndGlyphs" textLength="253" x="3753" y="981.1247">Executable oracle — point/recompute</text><rect fill="#E2E2E2" height="19.0679" style="stroke: none; stroke-width: 1.0;" width="54" x="3675.6667" y="985.2267"/><text fill="#000000" font-family="sans-serif" font-size="14" lengthAdjust="spacingAndGlyphs" textLength="0" x="3679.6667" y="1000.1926"/><text fill="#000000" font-family="sans-serif" font-size="14" lengthAdjust="spacingAndGlyphs" textLength="0" x="3733.6667" y="1000.1926"/><path d="M3734.6667,991.4613 L3734.6667,992.628 L3744,992.628 L3744,991.4613 L3734.6667,991.4613 M3734.6667,993.7946 L3734.6667,1000.685 C3734.6667,1000.755 3734.7063,1000.7946 3734.7763,1000.7946 L3743.8915,1000.7946 C3743.9615,1000.7946 3744.0012,1000.755 3744.0012,1000.685 L3744.0012,993.7946 L3740.5373,993.7946 L3740.5373,994.9975 L3738.1678,994.9975 L3738.1678,993.7946 L3734.6678,993.7946 " fill="#000000" style="stroke: ; stroke-width: 0.0; stroke-dasharray: ;"/><text fill="#000000" font-family="sans-serif" font-size="14" lengthAdjust="spacingAndGlyphs" textLength="0" x="3749" y="1000.1926"/><text fill="#000000" font-family="sans-serif" font-size="14" lengthAdjust="spacingAndGlyphs" textLength="49" x="3753" y="1000.1926">Artifact</text><rect fill="#D9D2E9" height="19.0679" style="stroke: none; stroke-width: 1.0;" width="54" x="3675.6667" y="1004.2946"/><text fill="#000000" font-family="sans-serif" font-size="14" lengthAdjust="spacingAndGlyphs" textLength="0" x="3679.6667" y="1019.2606"/><text fill="#000000" font-family="sans-serif" font-size="14" lengthAdjust="spacingAndGlyphs" textLength="0" x="3733.6667" y="1019.2606"/><path d="M3739.3333,1010.5292 C3738.0442,1010.5292 3737,1011.8347 3737,1013.4459 C3737,1015.057 3738.0442,1016.3625 3739.3333,1016.3625 C3740.6225,1016.3625 3741.6667,1015.057 3741.6667,1013.4459 C3741.6667,1011.8347 3740.6225,1010.5292 3739.3333,1010.5292 M3736.8903,1016.3625 C3735.642,1016.4092 3734.6667,1017.4359 3734.6667,1018.6959 L3734.6667,1019.8625 L3744,1019.8625 L3744,1018.6959 C3744,1017.4359 3743.0247,1016.4092 3741.7763,1016.3625 C3741.1463,1017.0742 3740.2783,1017.5292 3739.3333,1017.5292 C3738.3883,1017.5292 3737.5203,1017.0742 3736.8903,1016.3625 " fill="#000000" style="stroke: ; stroke-width: 0.0; stroke-dasharray: ;"/><text fill="#000000" font-family="sans-serif" font-size="14" lengthAdjust="spacingAndGlyphs" textLength="0" x="3749" y="1019.2606"/><text fill="#000000" font-family="sans-serif" font-size="14" lengthAdjust="spacingAndGlyphs" textLength="119" x="3753" y="1019.2606">Human judgment</text><line style="stroke: #000000; stroke-width: 1.0;" x1="3675.6667" x2="4010" y1="775.4796" y2="775.4796"/><line style="stroke: #000000; stroke-width: 1.0;" x1="3675.6667" x2="4010" y1="794.5475" y2="794.5475"/><line style="stroke: #000000; stroke-width: 1.0;" x1="3675.6667" x2="4010" y1="813.6155" y2="813.6155"/><line style="stroke: #000000; stroke-width: 1.0;" x1="3675.6667" x2="4010" y1="832.6834" y2="832.6834"/><line style="stroke: #000000; stroke-width: 1.0;" x1="3675.6667" x2="4010" y1="851.7513" y2="851.7513"/><line style="stroke: #000000; stroke-width: 1.0;" x1="3675.6667" x2="4010" y1="870.8192" y2="870.8192"/><line style="stroke: #000000; stroke-width: 1.0;" x1="3675.6667" x2="4010" y1="889.8871" y2="889.8871"/><line style="stroke: #000000; stroke-width: 1.0;" x1="3675.6667" x2="4010" y1="908.955" y2="908.955"/><line style="stroke: #000000; stroke-width: 1.0;" x1="3675.6667" x2="4010" y1="928.023" y2="928.023"/><line style="stroke: #000000; stroke-width: 1.0;" x1="3675.6667" x2="4010" y1="947.0909" y2="947.0909"/><line style="stroke: #000000; stroke-width: 1.0;" x1="3675.6667" x2="4010" y1="966.1588" y2="966.1588"/><line style="stroke: #000000; stroke-width: 1.0;" x1="3675.6667" x2="4010" y1="985.2267" y2="985.2267"/><line style="stroke: #000000; stroke-width: 1.0;" x1="3675.6667" x2="4010" y1="1004.2946" y2="1004.2946"/><line style="stroke: #000000; stroke-width: 1.0;" x1="3675.6667" x2="4010" y1="1023.3625" y2="1023.3625"/><line style="stroke: #000000; stroke-width: 1.0;" x1="3675.6667" x2="3675.6667" y1="775.4796" y2="1023.3625"/><line style="stroke: #000000; stroke-width: 1.0;" x1="3729.6667" x2="3729.6667" y1="775.4796" y2="1023.3625"/><line style="stroke: #000000; stroke-width: 1.0;" x1="3749" x2="3749" y1="775.4796" y2="1023.3625"/><line style="stroke: #000000; stroke-width: 1.0;" x1="4010" x2="4010" y1="775.4796" y2="1023.3625"/><!--MD5=[f511fc26fc87658aa606395d50c7fc37]
@startuml instance-paper
title instance-paper (monitor)\n<size:11><i>guards against: a manuscript whose prose reads as faithful to the literature</i></size>\n<size:11><i>while a reported number does not recompute or overclaims a result.</i></size>
top to bottom direction
skinparam rectangleBorderColor #555
skinparam shadowing false
skinparam ArrowFontColor #888888
skinparam TitleFontColor #888888

rectangle "<&compass> Main-thread coordinator (the only judge)" as A_coordinator #E8541E
rectangle "<&script> Literature agent (soft upper-bound guard)" as A_paper_lit #E8541E
rectangle "<&wrench> Writer agent (the deliverable)" as A_paper_writer #E8541E
rectangle "<&magnifying-glass> Verifier agent (independent re-derivation)" as A_paper_verifier #E8541E
rectangle "<&beaker> Bench agent (hard lower-bound builder)" as A_paper_bench #E8541E
rectangle "<&fork> Bridge -> instance-a" as A_sub_a #4E8FE8
rectangle "<&fork> Bridge -> instance-b" as A_sub_b #4E8FE8
rectangle "<&fork> Bridge -> instance-c" as A_sub_c #4E8FE8
rectangle "<&fork> Bridge -> instance-d" as A_sub_d #4E8FE8
rectangle "<&person> External / human reviewer (terminus)" as A_human_reviewer #E8541E

rectangle "<&document> Read literature (archived reading records)" as S_read_literature #C9E7CB
rectangle "<&pencil> Paper-spec (paper-impl.md / paper-spec)" as S_paper_spec #C9E7CB
rectangle "<&cog> Raw repository ground truth" as S_repo_ground_truth #F3CBD0
rectangle "<&cog> Recompute + build harness (the hard lower bound)" as S_recompute_harness #F3CBD0
rectangle "<&box> The manuscript (tex/paper.tex)" as S_manuscript #E2E2E2
rectangle "<&box> Claim ledger (claims/ledger.tsv)" as S_claim_ledger #E2E2E2
rectangle "<&box> Verifier's independent re-derivation" as S_verifier_rederivation #E2E2E2
rectangle "<&box> Instance A returned results" as S_result_a #E2E2E2
rectangle "<&box> Instance B returned results" as S_result_b #E2E2E2
rectangle "<&box> Instance C returned results" as S_result_c #E2E2E2
rectangle "<&box> Instance D returned results" as S_result_d #E2E2E2
rectangle "<&person> External / human reviewer judgment" as S_external_review #D9D2E9

A_coordinator - -> S_read_literature : U
A_coordinator - -> S_paper_spec : U
A_coordinator - -> S_recompute_harness : L
A_coordinator - -> S_manuscript : L
A_coordinator - -> S_claim_ledger : L
A_coordinator - -> S_verifier_rederivation : L
A_coordinator - -> S_result_a : L
A_coordinator - -> S_result_b : L
A_coordinator - -> S_result_c : L
A_coordinator - -> S_result_d : L
A_paper_lit - -> S_read_literature : U
A_paper_lit - -> S_recompute_harness : L
A_paper_lit ..> S_paper_spec : produces
A_paper_writer - -> S_paper_spec : U
A_paper_writer - -> S_read_literature : U
A_paper_writer - -> S_recompute_harness : L
A_paper_writer ..> S_manuscript : produces
A_paper_writer ..> S_claim_ledger : produces
A_paper_verifier - -> S_paper_spec : U
A_paper_verifier - -> S_read_literature : U
A_paper_verifier - -> S_recompute_harness : L
A_paper_verifier - -> S_result_a : L
A_paper_verifier - -> S_result_b : L
A_paper_verifier - -> S_result_c : L
A_paper_verifier - -> S_result_d : L
A_paper_verifier ..> S_verifier_rederivation : produces
A_paper_bench - -> S_paper_spec : U
A_paper_bench - -> S_repo_ground_truth : L
A_paper_bench ..> S_recompute_harness : produces
A_sub_a ..> S_result_a : produces
A_sub_b ..> S_result_b : produces
A_sub_c ..> S_result_c : produces
A_sub_d ..> S_result_d : produces
A_human_reviewer - -> S_paper_spec : U
A_human_reviewer - -> S_read_literature : U
A_human_reviewer ..> S_external_review : produces

A_paper_lit -[#red,dashed]-> S_manuscript : ✗ must not see
A_paper_lit -[#red,dashed]-> S_claim_ledger : ✗ must not see
A_paper_writer -[#red,dashed]-> S_verifier_rederivation : ✗ must not see
A_paper_verifier -[#red,dashed]-> S_manuscript : ✗ must not see
A_paper_verifier -[#red,dashed]-> S_claim_ledger : ✗ must not see
A_paper_bench -[#red,dashed]-> S_manuscript : ✗ must not see
A_paper_bench -[#red,dashed]-> S_claim_ledger : ✗ must not see

A_human_reviewer -[#blue]-> A_coordinator : catches: its own un-squeezed editorial\njudgment of whether the paper faithfully reads\nthe literature — via external/human review —\nthe terminus that closes the soft side
A_paper_verifier -[#blue]-> A_paper_lit : catches: an over-broad reading: a cite that\ndoes not actually support the claim — via\nindependent re-derivation requires each\nclaim's source to actually support it
A_paper_verifier -[#blue]-> A_paper_writer : catches: coherent-and-wrong prose:\nfaithful-looking text whose number does not\nrecompute or overclaims — via re-derivation\nfrom the hard ground truth; Gate B recompute\nmismatch
A_coordinator -[#blue]-> A_paper_verifier : catches: a re-derivation that silently skips a\nledgered claim — via Gate C\nledger<->reflexive-macro coverage\nreconciliation
A_paper_verifier -[#blue]-> A_paper_bench : catches: a harness that computes a\nconsistent-but-wrong number not matching raw\ndata — via the verifier re-derives from raw\nsource independently of the harness build
A_paper_verifier -[#blue]-> A_sub_a : catches: instance-a reports a\ncoherent-and-wrong result — via the verifier\nre-derives A's claimed result from A's\nreturned ground-truth outputs
A_paper_verifier -[#blue]-> A_sub_b : catches: instance-b reports a\ncoherent-and-wrong result — via re-derivation\nfrom B's returned outputs
A_paper_verifier -[#blue]-> A_sub_c : catches: instance-c reports a\ncoherent-and-wrong result — via re-derivation\nfrom C's returned outputs
A_paper_verifier -[#blue]-> A_sub_d : catches: instance-d reports a\ncoherent-and-wrong result — via re-derivation\nfrom D's returned outputs

legend right
|= Colour |=  |= Meaning |
|<#E8541E>| <&compass> | Coordinator |
|<#E8541E>| <&script> | Property/spec author |
|<#E8541E>| <&wrench> | Implementer |
|<#E8541E>| <&magnifying-glass> | Exerciser |
|<#E8541E>| <&beaker> | Probe |
|<#E8541E>| <&person> | Human terminus |
|<#4E8FE8>| <&fork> | Monitored sub-loop (bridge) |
|<#C9E7CB>| <&document> | Soft authority — transcribed/external |
|<#C9E7CB>| <&pencil> | Soft authority — authored |
|<#F3CBD0>| <&cog> | Executable oracle — point/recompute |
|<#E2E2E2>| <&box> | Artifact |
|<#D9D2E9>| <&person> | Human judgment |
endlegend
@enduml

PlantUML version 1.2020.02(Sun Mar 01 11:22:07 CET 2020)
(GPL source distribution)
Java Runtime: OpenJDK Runtime Environment
JVM: OpenJDK 64-Bit Server VM
Java Version: 25.0.3+9-2-26.04.2-Ubuntu
Operating System: Linux
Default Encoding: UTF-8
Language: en
Country: US
--></g></svg>