<?xml version="1.0" encoding="UTF-8" standalone="no"?><svg xmlns="http://www.w3.org/2000/svg" xmlns:xlink="http://www.w3.org/1999/xlink" contentScriptType="application/ecmascript" contentStyleType="text/css" height="1763px" preserveAspectRatio="none" style="width:3004px;height:1763px;" version="1.1" viewBox="0 0 3004 1763" width="3004px" zoomAndPan="magnify"><defs/><g><text fill="#888888" font-family="sans-serif" font-size="18" lengthAdjust="spacingAndGlyphs" textLength="139" x="1431.5" y="19.2419">creusot-sl (base)</text><text fill="#888888" font-family="sans-serif" font-size="11" font-style="italic" lengthAdjust="spacingAndGlyphs" textLength="311" x="1345.5" y="36.2748">guards against: a vacuously-true / weaker-than-intended contract</text><text fill="#888888" font-family="sans-serif" font-size="11" font-style="italic" lengthAdjust="spacingAndGlyphs" textLength="363" x="1319.5" y="51.2566">(#[ensures(true)], an unsatisfiable #[requires], a proof of an adjacent weaker</text><text fill="#888888" font-family="sans-serif" font-size="11" font-style="italic" lengthAdjust="spacingAndGlyphs" textLength="313" x="1344.5" y="66.2385">property) that Why3 discharges while proving the wrong theorem.</text><!--MD5=[ba02ad718834564dcf804b9e9f1a41d8]
entity A_coordinator--><rect fill="#E8541E" height="39.0679" style="stroke: #555555; stroke-width: 1.5;" width="115.3333" x="778.33" y="753.3915"/><path d="M793.9967,769.6261 C791.4265,769.6261 789.33,771.7226 789.33,774.2928 C789.33,776.8629 791.4265,778.9594 793.9967,778.9594 C796.5668,778.9594 798.6633,776.8629 798.6633,774.2928 C798.6633,771.7226 796.5668,769.6261 793.9967,769.6261 M793.9967,770.7928 C795.9368,770.7928 797.4967,772.3526 797.4967,774.2928 C797.4967,776.2329 795.9368,777.7928 793.9967,777.7928 C792.0565,777.7928 790.4967,776.2329 790.4967,774.2928 C790.4967,772.3526 792.0565,770.7928 793.9967,770.7928 M796.33,771.9594 L792.83,773.1261 L791.6633,776.6261 L795.1633,775.4594 L796.33,771.9594 M793.9967,773.7094 C794.3233,773.7094 794.58,773.9661 794.58,774.2928 C794.58,774.6194 794.3233,774.8761 793.9967,774.8761 C793.67,774.8761 793.4133,774.6194 793.4133,774.2928 C793.4133,773.9661 793.67,773.7094 793.9967,773.7094 " fill="#000000" style="stroke: ; stroke-width: 0.0; stroke-dasharray: ;"/><text fill="#000000" font-family="sans-serif" font-size="14" lengthAdjust="spacingAndGlyphs" textLength="80" x="803.6633" y="778.3574">Coordinator</text><!--MD5=[17c8f53b25be9808d444769f147e7130]
entity A_spec_author--><rect fill="#E8541E" height="39.0679" style="stroke: #555555; stroke-width: 1.5;" width="116.3333" x="1993.17" y="590.3915"/><path d="M2007.67,606.6261 C2007.0283,606.6261 2006.5033,607.1511 2006.5033,607.7928 L2006.5033,614.2094 C2006.5033,614.5361 2006.2467,614.7928 2005.92,614.7928 C2005.5933,614.7928 2005.3367,614.5361 2005.3367,614.2094 L2005.3367,612.4594 L2004.17,612.4594 L2004.17,614.7928 C2004.17,615.4344 2004.695,615.9594 2005.3367,615.9594 L2011.17,615.9594 C2011.8117,615.9594 2012.3367,615.4344 2012.3367,614.7928 L2012.3367,611.2928 L2007.67,611.2928 L2007.67,608.3761 C2007.67,608.0494 2007.9267,607.7928 2008.2533,607.7928 C2008.58,607.7928 2008.8367,608.0494 2008.8367,608.3761 L2008.8367,610.1261 L2013.5033,610.1261 L2013.5033,607.7928 C2013.5033,607.1511 2012.9783,606.6261 2012.3367,606.6261 L2007.67,606.6261 " fill="#000000" style="stroke: ; stroke-width: 0.0; stroke-dasharray: ;"/><text fill="#000000" font-family="sans-serif" font-size="14" lengthAdjust="spacingAndGlyphs" textLength="81" x="2018.5033" y="615.3574">Spec author</text><!--MD5=[229eef17c98ab0de33a2fa98d7536aa3]
entity A_annotator--><rect fill="#E8541E" height="39.0679" style="stroke: #555555; stroke-width: 1.5;" width="201.3333" x="1950.67" y="972.3915"/><path d="M1968.0867,988.6261 C1966.4767,988.6261 1965.17,989.9328 1965.17,991.5428 C1965.17,991.9161 1965.261,992.2731 1965.3893,992.5998 L1961.999,995.9539 C1961.544,996.4089 1961.544,997.1393 1961.999,997.5943 C1962.2323,997.8276 1962.5345,997.9594 1962.8378,997.9594 C1963.1412,997.9594 1963.4433,997.8533 1963.6767,997.6316 L1967.0308,994.2774 C1967.3575,994.3941 1967.7145,994.4594 1968.0878,994.4594 C1969.6978,994.4594 1971.0045,993.1528 1971.0045,991.5428 C1971.0045,991.3561 1970.9672,991.1963 1970.931,991.0318 L1969.8367,992.1261 L1967.5033,992.1261 L1967.5033,989.7928 L1968.5977,988.6984 C1968.4343,988.6634 1968.2745,988.6261 1968.0867,988.6249 M1962.8367,996.2083 C1963.1633,996.2083 1963.42,996.4649 1963.42,996.7916 C1963.42,997.1183 1963.1633,997.3749 1962.8367,997.3749 C1962.51,997.3749 1962.2533,997.1183 1962.2533,996.7916 C1962.2533,996.4649 1962.51,996.2083 1962.8367,996.2083 " fill="#000000" style="stroke: ; stroke-width: 0.0; stroke-dasharray: ;"/><text fill="#000000" font-family="sans-serif" font-size="14" lengthAdjust="spacingAndGlyphs" textLength="166" x="1976.0033" y="997.3574">Annotator (implementer)</text><!--MD5=[a2d3f8c436e2f444a3f71b1a6d2e3084]
entity A_verifier--><rect fill="#E8541E" height="39.0679" style="stroke: #555555; stroke-width: 1.5;" width="158.3333" x="1390.5" y="753.3915"/><path d="M1405.5833,769.6261 C1403.3352,769.6261 1401.5,771.4613 1401.5,773.7094 C1401.5,775.9576 1403.3352,777.7928 1405.5833,777.7928 C1406.274,777.7928 1406.9437,777.6236 1407.5153,777.3191 A1.1667,1.1667 0 0 0 1407.6612,777.4649 L1408.8278,778.6316 A1.1853,1.1853 0 1 0 1410.5055,776.9539 L1409.3388,775.7873 A1.1667,1.1667 0 0 0 1409.1568,775.6414 C1409.4672,775.0663 1409.6678,774.4059 1409.6678,773.7094 C1409.6678,771.4613 1407.8327,769.6261 1405.5845,769.6261 M1405.5845,770.7928 C1407.2027,770.7928 1408.5012,772.0913 1408.5012,773.7094 C1408.5012,774.4806 1408.22,775.1946 1407.7358,775.7149 L1407.6997,775.7511 A1.1667,1.1667 0 0 0 1407.5538,775.8969 C1407.0382,776.3601 1406.337,776.6261 1405.5845,776.6261 C1403.9663,776.6261 1402.6678,775.3276 1402.6678,773.7094 C1402.6678,772.0913 1403.9663,770.7928 1405.5845,770.7928 " fill="#000000" style="stroke: ; stroke-width: 0.0; stroke-dasharray: ;"/><text fill="#000000" font-family="sans-serif" font-size="14" lengthAdjust="spacingAndGlyphs" textLength="123" x="1415.8333" y="778.3574">Exerciser / Verifier</text><!--MD5=[089605b095cbd1e87de304f06e479ac5]
entity A_probe--><rect fill="#E8541E" height="39.0679" style="stroke: #555555; stroke-width: 1.5;" width="74.3333" x="2014.17" y="136.3915"/><path d="M2026.738,152.6261 A0.5857,0.5857 0 0 0 2026.92,153.7928 L2027.5033,153.7928 L2027.5033,155.4331 C2027.4007,155.6338 2026.1103,158.1316 2025.5713,159.0428 C2025.3928,159.3554 2025.17,159.7568 2025.17,160.2829 C2025.17,160.7298 2025.3322,161.1743 2025.6437,161.4858 C2025.947,161.7891 2026.3938,161.9594 2026.8465,161.9594 L2032.8257,161.9594 C2033.2725,161.9594 2033.717,161.7973 2034.0285,161.4858 C2034.3318,161.1824 2034.5022,160.7356 2034.5022,160.2829 C2034.5022,159.7556 2034.2758,159.3484 2034.1008,159.0428 C2033.5607,158.1328 2032.2715,155.6338 2032.1688,155.4331 L2032.1688,153.7928 L2032.7522,153.7928 A0.5833,0.5833 0 1 0 2032.7522,152.6261 L2026.9188,152.6261 A0.5833,0.5833 0 0 0 2026.8092,152.6261 A0.5857,0.5857 0 0 0 2026.7357,152.6261 M2028.6677,153.7928 L2031.001,153.7928 L2031.001,155.6886 L2031.0745,155.7983 C2031.8352,157.2368 2031.8352,157.2368 2032.4967,158.4594 L2027.1732,158.4594 C2027.8347,157.2356 2028.5953,155.7983 2028.5953,155.7983 L2028.6688,155.6886 L2028.6688,153.7928 " fill="#000000" style="stroke: ; stroke-width: 0.0; stroke-dasharray: ;"/><text fill="#000000" font-family="sans-serif" font-size="14" lengthAdjust="spacingAndGlyphs" textLength="39" x="2039.5033" y="161.3574">Probe</text><!--MD5=[46068043c2359803552d73e94f3c12d8]
entity A_human_reviewer--><rect fill="#E8541E" height="39.0679" style="stroke: #555555; stroke-width: 1.5;" width="330.3333" x="6" y="753.3915"/><path d="M21.6667,769.6261 C20.3775,769.6261 19.3333,770.9316 19.3333,772.5428 C19.3333,774.1539 20.3775,775.4594 21.6667,775.4594 C22.9558,775.4594 24,774.1539 24,772.5428 C24,770.9316 22.9558,769.6261 21.6667,769.6261 M19.2237,775.4594 C17.9753,775.5061 17,776.5328 17,777.7928 L17,778.9594 L26.3333,778.9594 L26.3333,777.7928 C26.3333,776.5328 25.358,775.5061 24.1097,775.4594 C23.4797,776.1711 22.6117,776.6261 21.6667,776.6261 C20.7217,776.6261 19.8537,776.1711 19.2237,775.4594 " fill="#000000" style="stroke: ; stroke-width: 0.0; stroke-dasharray: ;"/><text fill="#000000" font-family="sans-serif" font-size="14" lengthAdjust="spacingAndGlyphs" textLength="295" x="31.3333" y="778.3574">Cross-provider / human reviewer (terminus)</text><!--MD5=[621c37738b89b15571b99004984b70bc]
entity S_requirement--><rect fill="#C9E7CB" height="39.0679" style="stroke: #555555; stroke-width: 1.5;" width="402.3333" x="2444" y="453.3915"/><path d="M2455,469.6261 L2455,478.9594 L2463.1667,478.9594 L2463.1667,474.2928 L2458.5,474.2928 L2458.5,469.6261 L2455,469.6261 M2459.6667,469.6261 L2459.6667,473.1261 L2463.1667,473.1261 L2459.6667,469.6261 M2456.1667,471.9594 L2457.3333,471.9594 L2457.3333,473.1261 L2456.1667,473.1261 L2456.1667,471.9594 M2456.1667,474.2928 L2457.3333,474.2928 L2457.3333,475.4594 L2456.1667,475.4594 L2456.1667,474.2928 M2456.1667,476.6261 L2460.8333,476.6261 L2460.8333,477.7928 L2456.1667,477.7928 L2456.1667,476.6261 " fill="#000000" style="stroke: ; stroke-width: 0.0; stroke-dasharray: ;"/><text fill="#000000" font-family="sans-serif" font-size="14" lengthAdjust="spacingAndGlyphs" textLength="367" x="2469.3333" y="478.3574">External requirement (plain English / standard / ticket)</text><!--MD5=[dd612cedc6c6a21c5ad9fa15d7d224ad]
entity S_public_surface--><rect fill="#E2E2E2" height="39.0679" style="stroke: #555555; stroke-width: 1.5;" width="364.3333" x="2463" y="1060.3915"/><path d="M2474,1076.6261 L2474,1077.7928 L2483.3333,1077.7928 L2483.3333,1076.6261 L2474,1076.6261 M2474,1078.9594 L2474,1085.8498 C2474,1085.9198 2474.0397,1085.9594 2474.1097,1085.9594 L2483.2248,1085.9594 C2483.2948,1085.9594 2483.3345,1085.9198 2483.3345,1085.8498 L2483.3345,1078.9594 L2479.8707,1078.9594 L2479.8707,1080.1623 L2477.5012,1080.1623 L2477.5012,1078.9594 L2474.0012,1078.9594 " fill="#000000" style="stroke: ; stroke-width: 0.0; stroke-dasharray: ;"/><text fill="#000000" font-family="sans-serif" font-size="14" lengthAdjust="spacingAndGlyphs" textLength="329" x="2488.3333" y="1085.3574">Public function signatures / documented surface</text><!--MD5=[530c9292b9b67b917d92b23724ccd699]
entity S_implementation_body--><rect fill="#E2E2E2" height="39.0679" style="stroke: #555555; stroke-width: 1.5;" width="353.3333" x="2468.5" y="364.3915"/><path d="M2479.5,380.6261 L2479.5,381.7928 L2488.8333,381.7928 L2488.8333,380.6261 L2479.5,380.6261 M2479.5,382.9594 L2479.5,389.8498 C2479.5,389.9198 2479.5397,389.9594 2479.6097,389.9594 L2488.7248,389.9594 C2488.7948,389.9594 2488.8345,389.9198 2488.8345,389.8498 L2488.8345,382.9594 L2485.3707,382.9594 L2485.3707,384.1623 L2483.0012,384.1623 L2483.0012,382.9594 L2479.5012,382.9594 " fill="#000000" style="stroke: ; stroke-width: 0.0; stroke-dasharray: ;"/><text fill="#000000" font-family="sans-serif" font-size="14" lengthAdjust="spacingAndGlyphs" textLength="318" x="2493.8333" y="389.3574">The existing Rust function bodies (pre-existing)</text><!--MD5=[7818b1ac25af95eb4d41a9832e122067]
entity S_contracts--><rect fill="#E2E2E2" height="39.0679" style="stroke: #555555; stroke-width: 1.5;" width="562.3333" x="2364" y="913.3915"/><path d="M2375,929.6261 L2375,930.7928 L2384.3333,930.7928 L2384.3333,929.6261 L2375,929.6261 M2375,931.9594 L2375,938.8498 C2375,938.9198 2375.0397,938.9594 2375.1097,938.9594 L2384.2248,938.9594 C2384.2948,938.9594 2384.3345,938.9198 2384.3345,938.8498 L2384.3345,931.9594 L2380.8707,931.9594 L2380.8707,933.1623 L2378.5012,933.1623 L2378.5012,931.9594 L2375.0012,931.9594 " fill="#000000" style="stroke: ; stroke-width: 0.0; stroke-dasharray: ;"/><text fill="#000000" font-family="sans-serif" font-size="14" lengthAdjust="spacingAndGlyphs" textLength="527" x="2389.3333" y="938.3574">Pearlite contracts (requires/ensures/invariant authored from the requirement)</text><!--MD5=[f6b4a57979376f88731628209d4c78d4]
entity S_proof_scaffolding--><rect fill="#E2E2E2" height="39.0679" style="stroke: #555555; stroke-width: 1.5;" width="678.3333" x="2306" y="653.3915"/><path d="M2317,669.6261 L2317,670.7928 L2326.3333,670.7928 L2326.3333,669.6261 L2317,669.6261 M2317,671.9594 L2317,678.8498 C2317,678.9198 2317.0397,678.9594 2317.1097,678.9594 L2326.2248,678.9594 C2326.2948,678.9594 2326.3345,678.9198 2326.3345,678.8498 L2326.3345,671.9594 L2322.8707,671.9594 L2322.8707,673.1623 L2320.5012,673.1623 L2320.5012,671.9594 L2317.0012,671.9594 " fill="#000000" style="stroke: ; stroke-width: 0.0; stroke-dasharray: ;"/><text fill="#000000" font-family="sans-serif" font-size="14" lengthAdjust="spacingAndGlyphs" textLength="643" x="2331.3333" y="678.3574">Proof scaffolding added to the original Rust (invariants, variants, ghost/snapshot, proof_assert!)</text><!--MD5=[4bd1f6c3d0a5a0c2f2542bdeec0117f5]
entity S_adversarial_props--><rect fill="#E2E2E2" height="39.0679" style="stroke: #555555; stroke-width: 1.5;" width="596.3333" x="2347" y="753.3915"/><path d="M2358,769.6261 L2358,770.7928 L2367.3333,770.7928 L2367.3333,769.6261 L2358,769.6261 M2358,771.9594 L2358,778.8498 C2358,778.9198 2358.0397,778.9594 2358.1097,778.9594 L2367.2248,778.9594 C2367.2948,778.9594 2367.3345,778.9198 2367.3345,778.8498 L2367.3345,771.9594 L2363.8707,771.9594 L2363.8707,773.1623 L2361.5012,773.1623 L2361.5012,771.9594 L2358.0012,771.9594 " fill="#000000" style="stroke: ; stroke-width: 0.0; stroke-dasharray: ;"/><text fill="#000000" font-family="sans-serif" font-size="14" lengthAdjust="spacingAndGlyphs" textLength="561" x="2372.3333" y="778.3574">Adversarial properties + mutation probes authored from the requirement + surface</text><!--MD5=[f117d239ff973494c74ef472ad59393d]
entity S_creusot_oracle--><rect fill="#F3CBD0" height="39.0679" style="stroke: #555555; stroke-width: 1.5;" width="572.3333" x="2359" y="1330.3915"/><path d="M2374.0833,1346.6261 L2373.5,1348.0121 L2373.1722,1348.1579 L2371.7862,1347.5746 L2370.9473,1348.4134 L2371.5307,1349.7994 L2371.3848,1350.1273 L2369.9988,1350.7106 L2369.9988,1351.8773 L2371.3848,1352.4606 L2371.5307,1352.8258 L2370.9473,1354.1744 L2371.7862,1355.0133 L2373.1722,1354.4299 L2373.5,1354.5758 L2374.0833,1355.9618 L2375.25,1355.9618 L2375.8333,1354.5758 L2376.1612,1354.4299 L2377.5472,1355.0133 L2378.386,1354.1744 L2377.8027,1352.7884 L2377.9485,1352.4606 L2379.3345,1351.8773 L2379.3345,1350.7106 L2377.9485,1350.1273 L2377.8027,1349.7994 L2378.3498,1348.4134 L2377.5472,1347.5746 L2376.1612,1348.1579 L2375.8333,1348.0121 L2375.25,1346.6261 L2374.0833,1346.6261 M2374.6667,1349.5428 C2375.635,1349.5428 2376.4167,1350.3244 2376.4167,1351.2928 C2376.4167,1352.2611 2375.635,1353.0428 2374.6667,1353.0428 C2373.6983,1353.0428 2372.9167,1352.2611 2372.9167,1351.2928 C2372.9167,1350.3244 2373.6983,1349.5428 2374.6667,1349.5428 " fill="#000000" style="stroke: ; stroke-width: 0.0; stroke-dasharray: ;"/><text fill="#000000" font-family="sans-serif" font-size="14" lengthAdjust="spacingAndGlyphs" textLength="537" x="2384.3333" y="1355.3574">cargo creusot -&gt; Creusot-&gt;Coma-&gt;Why3 -&gt; SMT discharge (Proved ... checkmark)</text><!--MD5=[9c5961ad1a636c6a8ba987af258a01b1]
entity S_standing_invariant--><rect fill="#F3CBD0" height="39.0679" style="stroke: #555555; stroke-width: 1.5;" width="542.3333" x="2374" y="1452.3915"/><path d="M2389.6667,1469.7928 C2387.7405,1469.7928 2386.1667,1471.3666 2386.1667,1473.2928 L2385,1473.2928 L2386.75,1475.6261 L2388.5,1473.2928 L2387.3333,1473.2928 C2387.3333,1471.9989 2388.3728,1470.9594 2389.6667,1470.9594 L2389.6667,1469.7928 M2392.5833,1470.9594 L2390.8333,1473.2928 L2392,1473.2928 C2392,1474.5866 2390.9605,1475.6261 2389.6667,1475.6261 L2389.6667,1476.7928 C2391.5928,1476.7928 2393.1667,1475.2189 2393.1667,1473.2928 L2394.3333,1473.2928 L2392.5833,1470.9594 " fill="#000000" style="stroke: ; stroke-width: 0.0; stroke-dasharray: ;"/><text fill="#000000" font-family="sans-serif" font-size="14" lengthAdjust="spacingAndGlyphs" textLength="507" x="2399.3333" y="1477.3574">Standing invariant: cargo test + standing proof count + determinism re-run</text><!--MD5=[fbc8b249b286bd851f95355f4b227c55]
entity S_mutation_probe--><rect fill="#F3CBD0" height="39.0679" style="stroke: #555555; stroke-width: 1.5;" width="509.3333" x="2390.5" y="1189.3915"/><path d="M2405.5833,1205.6261 L2405,1207.0121 L2404.6722,1207.1579 L2403.2862,1206.5746 L2402.4473,1207.4134 L2403.0307,1208.7994 L2402.8848,1209.1273 L2401.4988,1209.7106 L2401.4988,1210.8773 L2402.8848,1211.4606 L2403.0307,1211.8258 L2402.4473,1213.1744 L2403.2862,1214.0133 L2404.6722,1213.4299 L2405,1213.5758 L2405.5833,1214.9618 L2406.75,1214.9618 L2407.3333,1213.5758 L2407.6612,1213.4299 L2409.0472,1214.0133 L2409.886,1213.1744 L2409.3027,1211.7884 L2409.4485,1211.4606 L2410.8345,1210.8773 L2410.8345,1209.7106 L2409.4485,1209.1273 L2409.3027,1208.7994 L2409.8498,1207.4134 L2409.0472,1206.5746 L2407.6612,1207.1579 L2407.3333,1207.0121 L2406.75,1205.6261 L2405.5833,1205.6261 M2406.1667,1208.5428 C2407.135,1208.5428 2407.9167,1209.3244 2407.9167,1210.2928 C2407.9167,1211.2611 2407.135,1212.0428 2406.1667,1212.0428 C2405.1983,1212.0428 2404.4167,1211.2611 2404.4167,1210.2928 C2404.4167,1209.3244 2405.1983,1208.5428 2406.1667,1208.5428 " fill="#000000" style="stroke: ; stroke-width: 0.0; stroke-dasharray: ;"/><text fill="#000000" font-family="sans-serif" font-size="14" lengthAdjust="spacingAndGlyphs" textLength="474" x="2415.8333" y="1214.3574">Scripted mutation probe (flip a comparator, drop a +1, widen a bound)</text><!--MD5=[772f62ad0493022de2dc9c9d929d0728]
entity S_creusot_behaviour--><rect fill="#F3CBD0" height="39.0679" style="stroke: #555555; stroke-width: 1.5;" width="433.3333" x="2428.5" y="285.3915"/><path d="M2443.5833,301.6261 L2443,303.0121 L2442.6722,303.1579 L2441.2862,302.5746 L2440.4473,303.4134 L2441.0307,304.7994 L2440.8848,305.1273 L2439.4988,305.7106 L2439.4988,306.8773 L2440.8848,307.4606 L2441.0307,307.8258 L2440.4473,309.1744 L2441.2862,310.0133 L2442.6722,309.4299 L2443,309.5758 L2443.5833,310.9618 L2444.75,310.9618 L2445.3333,309.5758 L2445.6612,309.4299 L2447.0472,310.0133 L2447.886,309.1744 L2447.3027,307.7884 L2447.4485,307.4606 L2448.8345,306.8773 L2448.8345,305.7106 L2447.4485,305.1273 L2447.3027,304.7994 L2447.8498,303.4134 L2447.0472,302.5746 L2445.6612,303.1579 L2445.3333,303.0121 L2444.75,301.6261 L2443.5833,301.6261 M2444.1667,304.5428 C2445.135,304.5428 2445.9167,305.3244 2445.9167,306.2928 C2445.9167,307.2611 2445.135,308.0428 2444.1667,308.0428 C2443.1983,308.0428 2442.4167,307.2611 2442.4167,306.2928 C2442.4167,305.3244 2443.1983,304.5428 2444.1667,304.5428 " fill="#000000" style="stroke: ; stroke-width: 0.0; stroke-dasharray: ;"/><text fill="#000000" font-family="sans-serif" font-size="14" lengthAdjust="spacingAndGlyphs" textLength="398" x="2453.8333" y="310.3574">Creusot/Why3's actual behaviour on a construct (capability)</text><!--MD5=[877de4170fd972dd70d1167892f7d873]
entity S_probe_experiment--><rect fill="#E2E2E2" height="39.0679" style="stroke: #555555; stroke-width: 1.5;" width="563.3333" x="2363.5" y="77.3915"/><path d="M2374.5,93.6261 L2374.5,94.7928 L2383.8333,94.7928 L2383.8333,93.6261 L2374.5,93.6261 M2374.5,95.9594 L2374.5,102.8498 C2374.5,102.9198 2374.5397,102.9594 2374.6097,102.9594 L2383.7248,102.9594 C2383.7948,102.9594 2383.8345,102.9198 2383.8345,102.8498 L2383.8345,95.9594 L2380.3707,95.9594 L2380.3707,97.1623 L2378.0012,97.1623 L2378.0012,95.9594 L2374.5012,95.9594 " fill="#000000" style="stroke: ; stroke-width: 0.0; stroke-dasharray: ;"/><text fill="#000000" font-family="sans-serif" font-size="14" lengthAdjust="spacingAndGlyphs" textLength="528" x="2388.8333" y="102.3574">Minimal Creusot/Why3 capability experiment (one claim, one recorded verdict)</text><!--MD5=[f2f62707cdb7e56a39fed504c23665cc]
entity S_cs_external_review--><rect fill="#D9D2E9" height="39.0679" style="stroke: #555555; stroke-width: 1.5;" width="327.3333" x="672.33" y="827.3915"/><path d="M687.9967,843.6261 C686.7075,843.6261 685.6633,844.9316 685.6633,846.5428 C685.6633,848.1539 686.7075,849.4594 687.9967,849.4594 C689.2858,849.4594 690.33,848.1539 690.33,846.5428 C690.33,844.9316 689.2858,843.6261 687.9967,843.6261 M685.5537,849.4594 C684.3053,849.5061 683.33,850.5328 683.33,851.7928 L683.33,852.9594 L692.6633,852.9594 L692.6633,851.7928 C692.6633,850.5328 691.688,849.5061 690.4397,849.4594 C689.8097,850.1711 688.9417,850.6261 687.9967,850.6261 C687.0517,850.6261 686.1837,850.1711 685.5537,849.4594 " fill="#000000" style="stroke: ; stroke-width: 0.0; stroke-dasharray: ;"/><text fill="#000000" font-family="sans-serif" font-size="14" lengthAdjust="spacingAndGlyphs" textLength="292" x="697.6633" y="852.3574">Cross-provider / human reviewer judgment</text><!--MD5=[4bb8995027c5d79252368ecb80b0bfb6]
link A_coordinator to S_requirement--><path d="M856.08,752.9715 C888.85,719.6315 959.15,652.2315 1029.67,610.9315 C1151.39,539.6215 1190.82,536.9615 1326.67,498.9315 C1505.05,448.9815 1997.09,280.3615 2152,381.9315 C2179.96,400.2615 2154.48,431.9315 2182,450.9315 C2293.05,527.5815 2457.36,513.1115 2557.22,494.0915 " fill="none" id="A_coordinator-&gt;S_requirement" style="stroke: #A80036; stroke-width: 1.0;"/><polygon fill="#A80036" points="2561.92,493.1815,2552.3263,490.9541,2557.0101,494.1263,2553.8379,498.81,2561.92,493.1815" style="stroke: #A80036; stroke-width: 1.0;"/><text fill="#888888" font-family="sans-serif" font-size="13" lengthAdjust="spacingAndGlyphs" textLength="10" x="1776.67" y="350.8785">U</text><!--MD5=[f2bc34425afdfe3acf5581c4ff58bb4b]
link A_coordinator to S_creusot_oracle--><path d="M893.79,770.7515 C929.22,772.6115 973,781.3415 999.67,809.9315 C1058.88,873.4015 982.24,930.2215 1029.67,1002.9315 C1115.27,1134.1815 1182.77,1130.8915 1326.67,1192.9315 C1721.56,1363.1815 1846.32,1397.4015 2276,1379.9315 C2325.47,1377.9115 2378.58,1374.3915 2428.64,1370.4415 " fill="none" id="A_coordinator-&gt;S_creusot_oracle" style="stroke: #A80036; stroke-width: 1.0;"/><polygon fill="#A80036" points="2433.54,1370.0515,2424.2482,1366.7862,2428.5561,1370.4525,2424.8898,1374.7604,2433.54,1370.0515" style="stroke: #A80036; stroke-width: 1.0;"/><text fill="#888888" font-family="sans-serif" font-size="13" lengthAdjust="spacingAndGlyphs" textLength="7" x="1778.17" y="1314.0885">L</text><!--MD5=[3f4978c30abf91c7149821aa1e820e7c]
link A_coordinator to S_standing_invariant--><path d="M894.13,770.0715 C929.92,771.6215 973.99,780.2515 999.67,809.9315 C1054.8,873.6515 980.5,1119.4915 1029.67,1187.9315 C1113.43,1304.5215 1191.22,1267.3415 1326.67,1314.9315 C1464.21,1363.2515 1498.98,1378.2315 1642.67,1402.9315 C1885.35,1444.6315 2165.21,1461.3215 2367.29,1467.9015 " fill="none" id="A_coordinator-&gt;S_standing_invariant" style="stroke: #A80036; stroke-width: 1.0;"/><polygon fill="#A80036" points="2372.03,1468.0515,2363.1601,1463.7708,2367.0325,1467.8944,2362.9088,1471.7668,2372.03,1468.0515" style="stroke: #A80036; stroke-width: 1.0;"/><text fill="#888888" font-family="sans-serif" font-size="13" lengthAdjust="spacingAndGlyphs" textLength="7" x="1778.17" y="1398.8285">L</text><!--MD5=[b6629b6fa26789e1f5b03793403b8759]
link A_coordinator to S_mutation_probe--><path d="M894.04,781.3315 C925.87,787.1415 965.81,796.3215 999.67,809.9315 C1308.94,934.2315 1322.55,1103.0515 1642.67,1195.9315 C1941.28,1282.5615 2311.34,1254.5115 2507.36,1229.7215 " fill="none" id="A_coordinator-&gt;S_mutation_probe" style="stroke: #A80036; stroke-width: 1.0;"/><polygon fill="#A80036" points="2512.18,1229.1115,2502.7483,1226.2754,2507.2197,1229.7405,2503.7547,1234.2119,2512.18,1229.1115" style="stroke: #A80036; stroke-width: 1.0;"/><text fill="#888888" font-family="sans-serif" font-size="13" lengthAdjust="spacingAndGlyphs" textLength="7" x="1778.17" y="1191.8285">L</text><!--MD5=[bb48e8692cbab0942bb8d8db90f09625]
link A_spec_author to S_requirement--><path d="M2109.81,596.9115 C2155,586.6515 2219.54,571.9615 2276,558.9315 C2370.4,537.1415 2478.33,511.8915 2552.81,494.4115 " fill="none" id="A_spec_author-&gt;S_requirement" style="stroke: #A80036; stroke-width: 1.0;"/><polygon fill="#A80036" points="2557.54,493.3015,2547.8631,491.4692,2552.6729,494.4467,2549.6954,499.2565,2557.54,493.3015" style="stroke: #A80036; stroke-width: 1.0;"/><text fill="#888888" font-family="sans-serif" font-size="13" lengthAdjust="spacingAndGlyphs" textLength="10" x="2224" y="554.8285">U</text><!--MD5=[49166d99f16eb4b068232e84f9ad762a]
link A_spec_author to S_public_surface--><path d="M2109.77,625.0415 C2125.94,632.1015 2141.87,642.3015 2152,656.9315 C2198.6,724.1915 2125.28,964.9515 2182,1023.9315 C2273.05,1118.6015 2434.75,1115.6415 2540.71,1100.8515 " fill="none" id="A_spec_author-&gt;S_public_surface" style="stroke: #A80036; stroke-width: 1.0;"/><polygon fill="#A80036" points="2545.47,1100.1715,2535.9904,1097.4998,2540.5214,1100.8866,2537.1346,1105.4176,2545.47,1100.1715" style="stroke: #A80036; stroke-width: 1.0;"/><text fill="#888888" font-family="sans-serif" font-size="13" lengthAdjust="spacingAndGlyphs" textLength="10" x="2224" y="1019.8285">U</text><!--MD5=[8131dcf87ffa71980a67cbac28e38aa1]
link A_spec_author to S_creusot_behaviour--><path d="M2109.92,593.3815 C2125.61,586.3215 2141.22,576.4715 2152,562.9315 C2191.08,513.8115 2145.96,476.3115 2182,424.9315 C2219.39,371.6215 2244.67,368.7915 2306,346.9315 C2342.5,333.9115 2382.45,324.8115 2421.71,318.4615 " fill="none" id="A_spec_author-&gt;S_creusot_behaviour" style="stroke: #A80036; stroke-width: 1.0;"/><polygon fill="#A80036" points="2426.51,317.7115,2417.0008,315.1472,2421.5698,318.4825,2418.2345,323.0515,2426.51,317.7115" style="stroke: #A80036; stroke-width: 1.0;"/><text fill="#888888" font-family="sans-serif" font-size="13" lengthAdjust="spacingAndGlyphs" textLength="7" x="2225.5" y="354.2185">L</text><!--MD5=[0936ce36f136ee075e5e4483a45c80fc]
link A_spec_author to S_contracts--><path d="M2109.92,625.8415 C2125.79,632.9115 2141.52,642.9115 2152,656.9315 C2203.99,726.4415 2121.34,787.8315 2182,849.9315 C2228.42,897.4515 2292.13,923.1315 2357.4,936.0515 " fill="none" id="A_spec_author-&gt;S_contracts" style="stroke: #A80036; stroke-width: 1.0; stroke-dasharray: 7.0,7.0;"/><polygon fill="#A80036" points="2362.24,936.9815,2354.1549,931.3573,2357.3296,936.0394,2352.6475,939.214,2362.24,936.9815" style="stroke: #A80036; stroke-width: 1.0;"/><text fill="#888888" font-family="sans-serif" font-size="13" lengthAdjust="spacingAndGlyphs" textLength="56" x="2201" y="845.8285">produces</text><!--MD5=[34863df16856454c096d22c4359653e0]
link A_annotator to S_contracts--><path d="M2152.5,994.4715 C2162.46,994.6615 2172.43,994.8215 2182,994.9315 C2223.77,995.4115 2234.37,998.4115 2276,994.9315 C2368.04,987.2315 2471.68,968.8915 2545.5,954.1415 " fill="none" id="A_annotator-&gt;S_contracts" style="stroke: #A80036; stroke-width: 1.0;"/><polygon fill="#A80036" points="2550.17,953.2115,2540.5579,951.065,2545.2682,954.1976,2542.1356,958.9079,2550.17,953.2115" style="stroke: #A80036; stroke-width: 1.0;"/><text fill="#888888" font-family="sans-serif" font-size="13" lengthAdjust="spacingAndGlyphs" textLength="10" x="2224" y="990.8285">U</text><!--MD5=[2d14764f50870d27ce4a346cda8dc6b5]
link A_annotator to S_creusot_oracle--><path d="M2086.11,1011.9015 C2107.95,1026.4815 2135.32,1048.1515 2152,1073.9315 C2179.53,1116.4715 2149.87,1144.7415 2182,1183.9315 C2249.37,1266.1015 2360.69,1307.6115 2457.2,1328.5715 " fill="none" id="A_annotator-&gt;S_creusot_oracle" style="stroke: #A80036; stroke-width: 1.0;"/><polygon fill="#A80036" points="2462.05,1329.6015,2454.0833,1323.8109,2457.1602,1328.5578,2452.4133,1331.6347,2462.05,1329.6015" style="stroke: #A80036; stroke-width: 1.0;"/><text fill="#888888" font-family="sans-serif" font-size="13" lengthAdjust="spacingAndGlyphs" textLength="7" x="2225.5" y="1179.8285">L</text><!--MD5=[b9c5048a0abc0dc7c96e0c7802845916]
link A_annotator to S_standing_invariant--><path d="M2088.16,1011.8915 C2110.29,1026.1915 2137.19,1047.5515 2152,1073.9315 C2198.58,1156.9115 2135.22,1203.0615 2182,1285.9315 C2216.94,1347.8215 2242.46,1355.0615 2306,1386.9315 C2367.2,1417.6215 2440.33,1437.7915 2502.9,1450.7315 " fill="none" id="A_annotator-&gt;S_standing_invariant" style="stroke: #A80036; stroke-width: 1.0;"/><polygon fill="#A80036" points="2507.44,1451.6615,2499.4216,1445.9427,2502.541,1450.6617,2497.8219,1453.7811,2507.44,1451.6615" style="stroke: #A80036; stroke-width: 1.0;"/><text fill="#888888" font-family="sans-serif" font-size="13" lengthAdjust="spacingAndGlyphs" textLength="7" x="2225.5" y="1281.8285">L</text><!--MD5=[0e1cc0fab94a9c66e9e127b241e291e8]
link A_annotator to S_proof_scaffolding--><path d="M2065.17,972.0815 C2098.29,922.7115 2192.06,794.1515 2306,735.9315 C2343.25,716.8915 2385.44,703.5515 2427.08,694.2215 " fill="none" id="A_annotator-&gt;S_proof_scaffolding" style="stroke: #A80036; stroke-width: 1.0; stroke-dasharray: 7.0,7.0;"/><polygon fill="#A80036" points="2431.73,693.2015,2422.0821,691.2222,2426.8461,694.2725,2423.7957,699.0365,2431.73,693.2015" style="stroke: #A80036; stroke-width: 1.0;"/><text fill="#888888" font-family="sans-serif" font-size="13" lengthAdjust="spacingAndGlyphs" textLength="56" x="2201" y="751.2785">produces</text><!--MD5=[0a1fd4a22cf5787d56d9515a5c866757]
link A_verifier to S_requirement--><path d="M1485.25,753.1115 C1518.94,707.9615 1602.35,599.6815 1642.67,578.9315 C1711.52,543.4815 2164.74,506.3315 2437.34,486.8115 " fill="none" id="A_verifier-&gt;S_requirement" style="stroke: #A80036; stroke-width: 1.0;"/><polygon fill="#A80036" points="2442.23,486.4615,2432.9672,483.1148,2437.2428,486.8188,2433.5388,491.0943,2442.23,486.4615" style="stroke: #A80036; stroke-width: 1.0;"/><text fill="#888888" font-family="sans-serif" font-size="13" lengthAdjust="spacingAndGlyphs" textLength="10" x="2046.33" y="505.3385">U</text><!--MD5=[deb416c75bc373ec4fdc061373ca5e4b]
link A_verifier to S_public_surface--><path d="M1481.2,792.7715 C1504.39,834.4215 1564.11,931.0115 1642.67,978.9315 C1915.28,1145.2215 2308.98,1125.5715 2512.01,1100.7115 " fill="none" id="A_verifier-&gt;S_public_surface" style="stroke: #A80036; stroke-width: 1.0;"/><polygon fill="#A80036" points="2516.76,1100.1215,2507.3364,1097.2587,2511.798,1100.7364,2508.3202,1105.198,2516.76,1100.1215" style="stroke: #A80036; stroke-width: 1.0;"/><text fill="#888888" font-family="sans-serif" font-size="13" lengthAdjust="spacingAndGlyphs" textLength="10" x="2046.33" y="1087.5085">U</text><!--MD5=[bed577a0c2093f8c0085b5f3caa6ce93]
link A_verifier to S_creusot_oracle--><path d="M1472.6,792.8715 C1480.19,859.3815 1514.17,1075.1915 1642.67,1176.9315 C1706.68,1227.6115 2201.73,1295.4515 2471.01,1329.1315 " fill="none" id="A_verifier-&gt;S_creusot_oracle" style="stroke: #A80036; stroke-width: 1.0;"/><polygon fill="#A80036" points="2475.83,1329.7315,2467.4047,1324.6311,2470.8697,1329.1025,2466.3983,1332.5676,2475.83,1329.7315" style="stroke: #A80036; stroke-width: 1.0;"/><text fill="#888888" font-family="sans-serif" font-size="13" lengthAdjust="spacingAndGlyphs" textLength="7" x="2047.83" y="1251.3885">L</text><!--MD5=[4604c55701b22d73e2e8d9bc50c57778]
link A_verifier to S_mutation_probe--><path d="M1474.96,792.5615 C1488.44,849.2015 1535.56,1013.6515 1642.67,1089.9315 C1758.03,1172.0915 2127.51,1197.9315 2383.88,1205.8215 " fill="none" id="A_verifier-&gt;S_mutation_probe" style="stroke: #A80036; stroke-width: 1.0;"/><polygon fill="#A80036" points="2388.78,1205.9715,2379.9101,1201.6908,2383.7825,1205.8144,2379.6588,1209.6868,2388.78,1205.9715" style="stroke: #A80036; stroke-width: 1.0;"/><text fill="#888888" font-family="sans-serif" font-size="13" lengthAdjust="spacingAndGlyphs" textLength="7" x="2047.83" y="1170.7985">L</text><!--MD5=[3fc01a13f9870a3de3626bc2e448da37]
link A_verifier to S_adversarial_props--><path d="M1549.03,772.9315 C1707.8,772.9315 2074.92,772.9315 2340.4,772.9315 " fill="none" id="A_verifier-&gt;S_adversarial_props" style="stroke: #A80036; stroke-width: 1.0; stroke-dasharray: 7.0,7.0;"/><polygon fill="#A80036" points="2345.14,772.9315,2336.14,768.9315,2340.14,772.9315,2336.14,776.9315,2345.14,772.9315" style="stroke: #A80036; stroke-width: 1.0;"/><text fill="#888888" font-family="sans-serif" font-size="13" lengthAdjust="spacingAndGlyphs" textLength="56" x="2023.33" y="768.8285">produces</text><!--MD5=[e2cd1ffeb5e7dd8d514dad751ebd084b]
link A_probe to S_requirement--><path d="M2088.01,175.8315 C2113.69,189.7215 2149.42,208.1715 2182,221.9315 C2222.66,239.0915 2247.23,220.4615 2276,253.9315 C2325.17,311.1015 2252.01,368.2815 2306,420.9315 C2341.18,455.2315 2388.92,472.7915 2437.44,480.8515 " fill="none" id="A_probe-&gt;S_requirement" style="stroke: #A80036; stroke-width: 1.0;"/><polygon fill="#A80036" points="2442.18,481.6015,2433.9045,476.2615,2437.2398,480.8305,2432.6708,484.1658,2442.18,481.6015" style="stroke: #A80036; stroke-width: 1.0;"/><text fill="#888888" font-family="sans-serif" font-size="13" lengthAdjust="spacingAndGlyphs" textLength="10" x="2224" y="217.8285">U</text><!--MD5=[99747c1a813da7c368e7cc1c30f6a016]
link A_probe to S_creusot_behaviour--><path d="M2088.63,160.9115 C2133.09,167.3315 2210.59,179.5115 2276,194.9315 C2383.52,220.2715 2505.99,258.8515 2579.08,282.9415 " fill="none" id="A_probe-&gt;S_creusot_behaviour" style="stroke: #A80036; stroke-width: 1.0;"/><polygon fill="#A80036" points="2583.69,284.4615,2576.3988,277.8404,2578.9423,282.8932,2573.8895,285.4367,2583.69,284.4615" style="stroke: #A80036; stroke-width: 1.0;"/><text fill="#888888" font-family="sans-serif" font-size="13" lengthAdjust="spacingAndGlyphs" textLength="7" x="2225.5" y="172.1885">L</text><!--MD5=[554fc360b76c2f81631fb5e89dfee6a9]
link A_probe to S_probe_experiment--><path d="M2088.85,149.6115 C2114.78,145.2915 2150.45,139.6915 2182,135.9315 C2240.65,128.9415 2303.64,122.7515 2363.66,117.4815 " fill="none" id="A_probe-&gt;S_probe_experiment" style="stroke: #A80036; stroke-width: 1.0; stroke-dasharray: 7.0,7.0;"/><polygon fill="#A80036" points="2368.33,117.0715,2359.0106,113.8858,2363.3497,117.5152,2359.7204,121.8543,2368.33,117.0715" style="stroke: #A80036; stroke-width: 1.0;"/><text fill="#888888" font-family="sans-serif" font-size="13" lengthAdjust="spacingAndGlyphs" textLength="56" x="2201" y="122.1685">produces</text><!--MD5=[463293e62005c94cb9cf3cc5561933c6]
link A_human_reviewer to S_requirement--><path d="M184.51,753.0215 C243.84,660.0215 510.32,272.9315 835,272.9315 C835,272.9315 835,272.9315 2052.33,272.9315 C2155.03,272.9315 2200.96,260.8215 2276,330.9315 C2306.81,359.7115 2273.77,393.7415 2306,420.9315 C2342.71,451.9015 2389.98,468.5015 2437.46,476.7015 " fill="none" id="A_human_reviewer-&gt;S_requirement" style="stroke: #A80036; stroke-width: 1.0;"/><polygon fill="#A80036" points="2442.37,477.5115,2434.1399,472.1018,2437.4365,476.6988,2432.8395,479.9954,2442.37,477.5115" style="stroke: #A80036; stroke-width: 1.0;"/><text fill="#888888" font-family="sans-serif" font-size="13" lengthAdjust="spacingAndGlyphs" textLength="10" x="1464.67" y="268.8285">U</text><!--MD5=[a640279fc5ef425bfe345eda3007768a]
link A_human_reviewer to S_cs_external_review--><path d="M311.29,792.9315 C329.78,795.3915 348.51,797.7915 366.33,799.9315 C465.35,811.7715 576.38,823.0015 665.51,831.5015 " fill="none" id="A_human_reviewer-&gt;S_cs_external_review" style="stroke: #A80036; stroke-width: 1.0; stroke-dasharray: 7.0,7.0;"/><polygon fill="#A80036" points="670.38,831.9715,661.7965,827.142,665.4022,831.5008,661.0434,835.1065,670.38,831.9715" style="stroke: #A80036; stroke-width: 1.0;"/><text fill="#888888" font-family="sans-serif" font-size="13" lengthAdjust="spacingAndGlyphs" textLength="56" x="476.33" y="795.8285">produces</text><!--MD5=[9cbc876d250c440d6cead33ce637fd94]
link A_spec_author to S_implementation_body--><path d="M2103.73,589.9715 C2119.87,582.6115 2137.3,573.4515 2152,562.9315 C2167.59,551.7715 2167.72,544.7215 2182,531.9315 C2233.92,485.4315 2241.96,463.4315 2306,435.9315 C2354.51,415.0915 2410.11,402.4515 2462.01,394.8315 " fill="none" id="A_spec_author-&gt;S_implementation_body" style="stroke: #FF0000; stroke-width: 1.0; stroke-dasharray: 7.0,7.0;"/><polygon fill="#FF0000" points="2466.83,394.1415,2457.3591,391.4392,2461.8791,394.8406,2458.4777,399.3606,2466.83,394.1415" style="stroke: #FF0000; stroke-width: 1.0;"/><text fill="#888888" font-family="sans-serif" font-size="13" lengthAdjust="spacingAndGlyphs" textLength="92" x="2183" y="447.9085">✗ must not see</text><!--MD5=[01bbd4da8a59d798871218ca45314bfd]
link A_spec_author to S_proof_scaffolding--><path d="M2109.89,616.0515 C2187.94,624.3615 2331.21,639.6115 2449.75,652.2315 " fill="none" id="A_spec_author-&gt;S_proof_scaffolding" style="stroke: #FF0000; stroke-width: 1.0; stroke-dasharray: 7.0,7.0;"/><polygon fill="#FF0000" points="2454.59,652.7515,2446.0633,647.8224,2449.618,652.2229,2445.2175,655.7776,2454.59,652.7515" style="stroke: #FF0000; stroke-width: 1.0;"/><text fill="#888888" font-family="sans-serif" font-size="13" lengthAdjust="spacingAndGlyphs" textLength="92" x="2183" y="621.0485">✗ must not see</text><!--MD5=[7e82733366c2894c7b456d1376a0016f]
link A_spec_author to S_adversarial_props--><path d="M2095.44,629.8615 C2145.22,652.1915 2230.02,688.0915 2306,709.9315 C2367.87,727.7115 2437.6,741.6815 2497.59,751.9115 " fill="none" id="A_spec_author-&gt;S_adversarial_props" style="stroke: #FF0000; stroke-width: 1.0; stroke-dasharray: 7.0,7.0;"/><polygon fill="#FF0000" points="2502.25,752.7015,2494.0377,747.2648,2497.3192,751.8726,2492.7114,755.154,2502.25,752.7015" style="stroke: #FF0000; stroke-width: 1.0;"/><text fill="#888888" font-family="sans-serif" font-size="13" lengthAdjust="spacingAndGlyphs" textLength="92" x="2183" y="664.1285">✗ must not see</text><!--MD5=[6852568ee2d20ea72e46f9b21eeb05dd]
link A_annotator to S_adversarial_props--><path d="M2152.32,973.6915 C2201.78,963.3415 2255.24,949.7115 2276,935.9315 C2294.51,923.6315 2288.15,909.1615 2306,895.9315 C2375.31,844.5315 2468.26,812.7915 2539.18,794.4615 " fill="none" id="A_annotator-&gt;S_adversarial_props" style="stroke: #FF0000; stroke-width: 1.0; stroke-dasharray: 7.0,7.0;"/><polygon fill="#FF0000" points="2543.64,793.3215,2533.9282,791.6843,2538.7969,794.5644,2535.9168,799.4332,2543.64,793.3215" style="stroke: #FF0000; stroke-width: 1.0;"/><text fill="#888888" font-family="sans-serif" font-size="13" lengthAdjust="spacingAndGlyphs" textLength="92" x="2183" y="931.8285">✗ must not see</text><!--MD5=[740f1da7022f7b771236148692d7205f]
link A_annotator to S_mutation_probe--><path d="M2079.55,1011.6415 C2100.43,1027.3715 2129.41,1050.5815 2152,1073.9315 C2167.21,1089.6415 2163.47,1101.3115 2182,1112.9315 C2242.15,1150.6415 2314.53,1173.8215 2383.95,1187.9815 " fill="none" id="A_annotator-&gt;S_mutation_probe" style="stroke: #FF0000; stroke-width: 1.0; stroke-dasharray: 7.0,7.0;"/><polygon fill="#FF0000" points="2388.75,1188.9515,2380.7156,1183.2551,2383.8482,1187.9654,2379.1379,1191.098,2388.75,1188.9515" style="stroke: #FF0000; stroke-width: 1.0;"/><text fill="#888888" font-family="sans-serif" font-size="13" lengthAdjust="spacingAndGlyphs" textLength="92" x="2183" y="1108.8285">✗ must not see</text><!--MD5=[0d2cc0a918b597d1d1ec1ebd6a1f182e]
link A_verifier to S_implementation_body--><path d="M1489.89,753.0215 C1519.21,721.9115 1575.59,658.9515 1612.67,597.9315 C1630.03,569.3515 1616.57,549.8415 1642.67,528.9315 C1765.62,430.3915 2207.96,398.7515 2461.75,388.6415 " fill="none" id="A_verifier-&gt;S_implementation_body" style="stroke: #FF0000; stroke-width: 1.0; stroke-dasharray: 7.0,7.0;"/><polygon fill="#FF0000" points="2466.57,388.4515,2457.4169,384.8155,2461.574,388.6519,2457.7376,392.809,2466.57,388.4515" style="stroke: #FF0000; stroke-width: 1.0;"/><text fill="#888888" font-family="sans-serif" font-size="13" lengthAdjust="spacingAndGlyphs" textLength="92" x="2005.33" y="404.9985">✗ must not see</text><!--MD5=[8074b74fa3da81f5a6a0d48a6ae2f233]
link A_verifier to S_proof_scaffolding--><path d="M1549.01,764.2515 C1578.39,761.0115 1612.06,757.2915 1642.67,753.9315 C1882.36,727.5815 1941.6,713.7815 2182,694.9315 C2220.01,691.9515 2259.81,689.3115 2299.43,687.0015 " fill="none" id="A_verifier-&gt;S_proof_scaffolding" style="stroke: #FF0000; stroke-width: 1.0; stroke-dasharray: 7.0,7.0;"/><polygon fill="#FF0000" points="2304.28,686.7215,2295.0659,683.243,2299.2882,687.0076,2295.5236,691.2299,2304.28,686.7215" style="stroke: #FF0000; stroke-width: 1.0;"/><text fill="#888888" font-family="sans-serif" font-size="13" lengthAdjust="spacingAndGlyphs" textLength="92" x="2005.33" y="693.3085">✗ must not see</text><!--MD5=[4c0de6e651948cb57ecdbcad1ee3c7e4]
link A_verifier to A_annotator--><path d="M1494.42,792.9115 C1526.22,818.7015 1585.29,863.2715 1642.67,888.9315 C1740.35,932.6015 1859.83,960.0315 1944.11,975.5015 " fill="none" id="A_verifier-&gt;A_annotator" style="stroke: #0000FF; stroke-width: 1.0;"/><polygon fill="#0000FF" points="1948.88,976.3615,1940.7478,970.8057,1943.9618,975.4608,1939.3067,978.6748,1948.88,976.3615" style="stroke: #0000FF; stroke-width: 1.0;"/><text fill="#888888" font-family="sans-serif" font-size="13" lengthAdjust="spacingAndGlyphs" textLength="275" x="1644.17" y="813.8285">catches: games a weak contract — writes code</text><text fill="#888888" font-family="sans-serif" font-size="13" lengthAdjust="spacingAndGlyphs" textLength="204" x="1679.67" y="831.5345">that satisfies a vacuous spec — via</text><text fill="#888888" font-family="sans-serif" font-size="13" lengthAdjust="spacingAndGlyphs" textLength="264" x="1649.67" y="849.2406">adversarial properties + the Gate C mutation</text><text fill="#888888" font-family="sans-serif" font-size="13" lengthAdjust="spacingAndGlyphs" textLength="247" x="1658.17" y="866.9466">probe (a violating mutant must break the</text><text fill="#888888" font-family="sans-serif" font-size="13" lengthAdjust="spacingAndGlyphs" textLength="37" x="1763.17" y="884.6526">proof)</text><!--MD5=[232dc8d78039451b533e244d8219614f]
link A_verifier to A_spec_author--><path d="M1519.17,752.9815 C1553.19,739.7415 1600.04,723.0115 1642.67,712.9315 C1763.91,684.2615 1804,720.6315 1920.67,676.9315 C1935.67,671.3115 1936.72,664.8115 1950.67,656.9315 C1965.87,648.3315 1982.91,639.8915 1998.53,632.5915 " fill="none" id="A_verifier-&gt;A_spec_author" style="stroke: #0000FF; stroke-width: 1.0;"/><polygon fill="#0000FF" points="2002.85,630.5915,1993.0026,630.7626,1998.3169,632.7013,1996.3782,638.0155,2002.85,630.5915" style="stroke: #0000FF; stroke-width: 1.0;"/><text fill="#888888" font-family="sans-serif" font-size="13" lengthAdjust="spacingAndGlyphs" textLength="158" x="1702.67" y="601.8285">catches: writes a vacuous /</text><text fill="#888888" font-family="sans-serif" font-size="13" lengthAdjust="spacingAndGlyphs" textLength="245" x="1659.17" y="619.5345">weaker-than-intended contract — via the</text><text fill="#888888" font-family="sans-serif" font-size="13" lengthAdjust="spacingAndGlyphs" textLength="220" x="1671.67" y="637.2406">mutation probe fires, and adversarial</text><text fill="#888888" font-family="sans-serif" font-size="13" lengthAdjust="spacingAndGlyphs" textLength="276" x="1643.67" y="654.9466">properties that SHOULD fail against a vacuous</text><text fill="#888888" font-family="sans-serif" font-size="13" lengthAdjust="spacingAndGlyphs" textLength="70" x="1746.67" y="672.6526">spec do not</text><!--MD5=[2b12641b87f60fde088d344abbacc1bc]
link A_coordinator to A_spec_author--><path d="M868.36,752.9615 C905.41,730.3415 969.62,694.1415 1029.67,674.9315 C1408.83,553.5715 1524.66,542.1315 1920.67,582.9315 C1942.42,585.1715 1965.91,589.4715 1986.84,593.9915 " fill="none" id="A_coordinator-&gt;A_spec_author" style="stroke: #0000FF; stroke-width: 1.0;"/><polygon fill="#0000FF" points="1991.48,595.0115,1983.5457,589.1765,1986.5961,593.9405,1981.8321,596.9908,1991.48,595.0115" style="stroke: #0000FF; stroke-width: 1.0;"/><text fill="#888888" font-family="sans-serif" font-size="13" lengthAdjust="spacingAndGlyphs" textLength="284" x="1327.67" y="521.5785">catches: misreads the requirement — via Gate A</text><text fill="#888888" font-family="sans-serif" font-size="13" lengthAdjust="spacingAndGlyphs" textLength="270" x="1334.67" y="539.2845">judges the contracts against the requirement</text><text fill="#888888" font-family="sans-serif" font-size="13" lengthAdjust="spacingAndGlyphs" textLength="128" x="1405.67" y="556.9906">(amend/cut/sharpen)</text><!--MD5=[9a808860cb75b41908141fac2d45cd1e]
link A_coordinator to A_verifier--><path d="M893.89,772.9315 C1005.39,772.9315 1253.14,772.9315 1383.97,772.9315 " fill="none" id="A_coordinator-&gt;A_verifier" style="stroke: #0000FF; stroke-width: 1.0;"/><polygon fill="#0000FF" points="1388.6,772.9315,1379.6,768.9315,1383.6,772.9315,1379.6,776.9315,1388.6,772.9315" style="stroke: #0000FF; stroke-width: 1.0;"/><text fill="#888888" font-family="sans-serif" font-size="13" lengthAdjust="spacingAndGlyphs" textLength="265" x="1030.67" y="697.8285">catches: anchors its adversarial properties to</text><text fill="#888888" font-family="sans-serif" font-size="13" lengthAdjust="spacingAndGlyphs" textLength="243" x="1041.67" y="715.5345">implementation quirks — via structurally</text><text fill="#888888" font-family="sans-serif" font-size="13" lengthAdjust="spacingAndGlyphs" textLength="246" x="1040.17" y="733.2406">prevented by the barrier; the coordinator</text><text fill="#888888" font-family="sans-serif" font-size="13" lengthAdjust="spacingAndGlyphs" textLength="253" x="1036.67" y="750.9466">confirms each adversarial property derives</text><text fill="#888888" font-family="sans-serif" font-size="13" lengthAdjust="spacingAndGlyphs" textLength="42" x="1142.17" y="768.6526">from U</text><!--MD5=[db35ebfb6dc8619b3fb8d74ea96a2527]
link A_human_reviewer to A_coordinator--><path d="M336.44,772.9315 C477.12,772.9315 672.23,772.9315 771.5,772.9315 " fill="none" id="A_human_reviewer-&gt;A_coordinator" style="stroke: #0000FF; stroke-width: 1.0;"/><polygon fill="#0000FF" points="776.38,772.9315,767.38,768.9315,771.38,772.9315,767.38,776.9315,776.38,772.9315" style="stroke: #0000FF; stroke-width: 1.0;"/><text fill="#888888" font-family="sans-serif" font-size="13" lengthAdjust="spacingAndGlyphs" textLength="258" x="375.33" y="697.8285">catches: its own editorial (Gate A) judgment</text><text fill="#888888" font-family="sans-serif" font-size="13" lengthAdjust="spacingAndGlyphs" textLength="268" x="370.33" y="715.5345">and its own consolidated heuristics — via the</text><text fill="#888888" font-family="sans-serif" font-size="13" lengthAdjust="spacingAndGlyphs" textLength="252" x="378.33" y="733.2406">coordinator's heuristics are audited by the</text><text fill="#888888" font-family="sans-serif" font-size="13" lengthAdjust="spacingAndGlyphs" textLength="274" x="367.33" y="750.9466">verifier or a cross-provider/human reviewer —</text><text fill="#888888" font-family="sans-serif" font-size="13" lengthAdjust="spacingAndGlyphs" textLength="242" x="383.33" y="768.6526">never self-audited (Gate S / disjoint base)</text><rect fill="#DDDDDD" height="242.815" rx="5" ry="5" style="stroke: #000000; stroke-width: 1.0;" width="357.3333" x="2635.6667" y="1509.4615"/><text fill="#000000" font-family="sans-serif" font-size="14" font-weight="bold" lengthAdjust="spacingAndGlyphs" textLength="46" x="2645.6667" y="1531.4274">Colour</text><text fill="#000000" font-family="sans-serif" font-size="14" font-weight="bold" lengthAdjust="spacingAndGlyphs" textLength="0" x="2703.6667" y="1531.4274"/><text fill="#000000" font-family="sans-serif" font-size="14" font-weight="bold" lengthAdjust="spacingAndGlyphs" textLength="60" x="2719" y="1531.4274">Meaning</text><rect fill="#E8541E" height="19.0679" style="stroke: none; stroke-width: 1.0;" width="54" x="2641.6667" y="1535.5294"/><text fill="#000000" font-family="sans-serif" font-size="14" lengthAdjust="spacingAndGlyphs" textLength="0" x="2645.6667" y="1550.4954"/><text fill="#000000" font-family="sans-serif" font-size="14" lengthAdjust="spacingAndGlyphs" textLength="0" x="2699.6667" y="1550.4954"/><path d="M2705.3333,1541.764 C2702.7632,1541.764 2700.6667,1543.8605 2700.6667,1546.4307 C2700.6667,1549.0008 2702.7632,1551.0973 2705.3333,1551.0973 C2707.9035,1551.0973 2710,1549.0008 2710,1546.4307 C2710,1543.8605 2707.9035,1541.764 2705.3333,1541.764 M2705.3333,1542.9307 C2707.2735,1542.9307 2708.8333,1544.4905 2708.8333,1546.4307 C2708.8333,1548.3708 2707.2735,1549.9307 2705.3333,1549.9307 C2703.3932,1549.9307 2701.8333,1548.3708 2701.8333,1546.4307 C2701.8333,1544.4905 2703.3932,1542.9307 2705.3333,1542.9307 M2707.6667,1544.0973 L2704.1667,1545.264 L2703,1548.764 L2706.5,1547.5973 L2707.6667,1544.0973 M2705.3333,1545.8473 C2705.66,1545.8473 2705.9167,1546.104 2705.9167,1546.4307 C2705.9167,1546.7573 2705.66,1547.014 2705.3333,1547.014 C2705.0067,1547.014 2704.75,1546.7573 2704.75,1546.4307 C2704.75,1546.104 2705.0067,1545.8473 2705.3333,1545.8473 " fill="#000000" style="stroke: ; stroke-width: 0.0; stroke-dasharray: ;"/><text fill="#000000" font-family="sans-serif" font-size="14" lengthAdjust="spacingAndGlyphs" textLength="0" x="2715" y="1550.4954"/><text fill="#000000" font-family="sans-serif" font-size="14" lengthAdjust="spacingAndGlyphs" textLength="80" x="2719" y="1550.4954">Coordinator</text><rect fill="#E8541E" height="19.0679" style="stroke: none; stroke-width: 1.0;" width="54" x="2641.6667" y="1554.5973"/><text fill="#000000" font-family="sans-serif" font-size="14" lengthAdjust="spacingAndGlyphs" textLength="0" x="2645.6667" y="1569.5633"/><text fill="#000000" font-family="sans-serif" font-size="14" lengthAdjust="spacingAndGlyphs" textLength="0" x="2699.6667" y="1569.5633"/><path d="M2704.1667,1560.8319 C2703.525,1560.8319 2703,1561.3569 2703,1561.9986 L2703,1568.4153 C2703,1568.7419 2702.7433,1568.9986 2702.4167,1568.9986 C2702.09,1568.9986 2701.8333,1568.7419 2701.8333,1568.4153 L2701.8333,1566.6653 L2700.6667,1566.6653 L2700.6667,1568.9986 C2700.6667,1569.6403 2701.1917,1570.1653 2701.8333,1570.1653 L2707.6667,1570.1653 C2708.3083,1570.1653 2708.8333,1569.6403 2708.8333,1568.9986 L2708.8333,1565.4986 L2704.1667,1565.4986 L2704.1667,1562.5819 C2704.1667,1562.2553 2704.4233,1561.9986 2704.75,1561.9986 C2705.0767,1561.9986 2705.3333,1562.2553 2705.3333,1562.5819 L2705.3333,1564.3319 L2710,1564.3319 L2710,1561.9986 C2710,1561.3569 2709.475,1560.8319 2708.8333,1560.8319 L2704.1667,1560.8319 " fill="#000000" style="stroke: ; stroke-width: 0.0; stroke-dasharray: ;"/><text fill="#000000" font-family="sans-serif" font-size="14" lengthAdjust="spacingAndGlyphs" textLength="0" x="2715" y="1569.5633"/><text fill="#000000" font-family="sans-serif" font-size="14" lengthAdjust="spacingAndGlyphs" textLength="142" x="2719" y="1569.5633">Property/spec author</text><rect fill="#E8541E" height="19.0679" style="stroke: none; stroke-width: 1.0;" width="54" x="2641.6667" y="1573.6653"/><text fill="#000000" font-family="sans-serif" font-size="14" lengthAdjust="spacingAndGlyphs" textLength="0" x="2645.6667" y="1588.6312"/><text fill="#000000" font-family="sans-serif" font-size="14" lengthAdjust="spacingAndGlyphs" textLength="0" x="2699.6667" y="1588.6312"/><path d="M2707.0833,1579.8998 C2705.4733,1579.8998 2704.1667,1581.2065 2704.1667,1582.8165 C2704.1667,1583.1898 2704.2577,1583.5468 2704.386,1583.8735 L2700.9957,1587.2277 C2700.5407,1587.6827 2700.5407,1588.413 2700.9957,1588.868 C2701.229,1589.1013 2701.5312,1589.2332 2701.8345,1589.2332 C2702.1378,1589.2332 2702.44,1589.127 2702.6733,1588.9053 L2706.0275,1585.5512 C2706.3542,1585.6678 2706.7112,1585.7332 2707.0845,1585.7332 C2708.6945,1585.7332 2710.0012,1584.4265 2710.0012,1582.8165 C2710.0012,1582.6298 2709.9638,1582.47 2709.9277,1582.3055 L2708.8333,1583.3998 L2706.5,1583.3998 L2706.5,1581.0665 L2707.5943,1579.9722 C2707.431,1579.9372 2707.2712,1579.8998 2707.0833,1579.8987 M2701.8333,1587.482 C2702.16,1587.482 2702.4167,1587.7387 2702.4167,1588.0653 C2702.4167,1588.392 2702.16,1588.6487 2701.8333,1588.6487 C2701.5067,1588.6487 2701.25,1588.392 2701.25,1588.0653 C2701.25,1587.7387 2701.5067,1587.482 2701.8333,1587.482 " fill="#000000" style="stroke: ; stroke-width: 0.0; stroke-dasharray: ;"/><text fill="#000000" font-family="sans-serif" font-size="14" lengthAdjust="spacingAndGlyphs" textLength="0" x="2715" y="1588.6312"/><text fill="#000000" font-family="sans-serif" font-size="14" lengthAdjust="spacingAndGlyphs" textLength="88" x="2719" y="1588.6312">Implementer</text><rect fill="#E8541E" height="19.0679" style="stroke: none; stroke-width: 1.0;" width="54" x="2641.6667" y="1592.7332"/><text fill="#000000" font-family="sans-serif" font-size="14" lengthAdjust="spacingAndGlyphs" textLength="0" x="2645.6667" y="1607.6991"/><text fill="#000000" font-family="sans-serif" font-size="14" lengthAdjust="spacingAndGlyphs" textLength="0" x="2699.6667" y="1607.6991"/><path d="M2704.75,1598.9678 C2702.5018,1598.9678 2700.6667,1600.8029 2700.6667,1603.0511 C2700.6667,1605.2993 2702.5018,1607.1344 2704.75,1607.1344 C2705.4407,1607.1344 2706.1103,1606.9653 2706.682,1606.6608 A1.1667,1.1667 0 0 0 2706.8278,1606.8066 L2707.9945,1607.9733 A1.1853,1.1853 0 1 0 2709.6722,1606.2956 L2708.5055,1605.1289 A1.1667,1.1667 0 0 0 2708.3235,1604.9831 C2708.6338,1604.4079 2708.8345,1603.7476 2708.8345,1603.0511 C2708.8345,1600.8029 2706.9993,1598.9678 2704.7512,1598.9678 M2704.7512,1600.1344 C2706.3693,1600.1344 2707.6678,1601.4329 2707.6678,1603.0511 C2707.6678,1603.8223 2707.3867,1604.5363 2706.9025,1605.0566 L2706.8663,1605.0928 A1.1667,1.1667 0 0 0 2706.7205,1605.2386 C2706.2048,1605.7018 2705.5037,1605.9678 2704.7512,1605.9678 C2703.133,1605.9678 2701.8345,1604.6693 2701.8345,1603.0511 C2701.8345,1601.4329 2703.133,1600.1344 2704.7512,1600.1344 " fill="#000000" style="stroke: ; stroke-width: 0.0; stroke-dasharray: ;"/><text fill="#000000" font-family="sans-serif" font-size="14" lengthAdjust="spacingAndGlyphs" textLength="0" x="2715" y="1607.6991"/><text fill="#000000" font-family="sans-serif" font-size="14" lengthAdjust="spacingAndGlyphs" textLength="61" x="2719" y="1607.6991">Exerciser</text><rect fill="#E8541E" height="19.0679" style="stroke: none; stroke-width: 1.0;" width="54" x="2641.6667" y="1611.8011"/><text fill="#000000" font-family="sans-serif" font-size="14" lengthAdjust="spacingAndGlyphs" textLength="0" x="2645.6667" y="1626.767"/><text fill="#000000" font-family="sans-serif" font-size="14" lengthAdjust="spacingAndGlyphs" textLength="0" x="2699.6667" y="1626.767"/><path d="M2702.2347,1618.0357 A0.5857,0.5857 0 0 0 2702.4167,1619.2023 L2703,1619.2023 L2703,1620.8427 C2702.8973,1621.0433 2701.607,1623.5412 2701.068,1624.4523 C2700.8895,1624.765 2700.6667,1625.1663 2700.6667,1625.6925 C2700.6667,1626.1393 2700.8288,1626.5838 2701.1403,1626.8953 C2701.4437,1627.1987 2701.8905,1627.369 2702.3432,1627.369 L2708.3223,1627.369 C2708.7692,1627.369 2709.2137,1627.2068 2709.5252,1626.8953 C2709.8285,1626.592 2709.9988,1626.1452 2709.9988,1625.6925 C2709.9988,1625.1652 2709.7725,1624.758 2709.5975,1624.4523 C2709.0573,1623.5423 2707.7682,1621.0433 2707.6655,1620.8427 L2707.6655,1619.2023 L2708.2488,1619.2023 A0.5833,0.5833 0 1 0 2708.2488,1618.0357 L2702.4155,1618.0357 A0.5833,0.5833 0 0 0 2702.3058,1618.0357 A0.5857,0.5857 0 0 0 2702.2323,1618.0357 M2704.1643,1619.2023 L2706.4977,1619.2023 L2706.4977,1621.0982 L2706.5712,1621.2078 C2707.3318,1622.6463 2707.3318,1622.6463 2707.9933,1623.869 L2702.6698,1623.869 C2703.3313,1622.6452 2704.092,1621.2078 2704.092,1621.2078 L2704.1655,1621.0982 L2704.1655,1619.2023 " fill="#000000" style="stroke: ; stroke-width: 0.0; stroke-dasharray: ;"/><text fill="#000000" font-family="sans-serif" font-size="14" lengthAdjust="spacingAndGlyphs" textLength="0" x="2715" y="1626.767"/><text fill="#000000" font-family="sans-serif" font-size="14" lengthAdjust="spacingAndGlyphs" textLength="39" x="2719" y="1626.767">Probe</text><rect fill="#E8541E" height="19.0679" style="stroke: none; stroke-width: 1.0;" width="54" x="2641.6667" y="1630.869"/><text fill="#000000" font-family="sans-serif" font-size="14" lengthAdjust="spacingAndGlyphs" textLength="0" x="2645.6667" y="1645.8349"/><text fill="#000000" font-family="sans-serif" font-size="14" lengthAdjust="spacingAndGlyphs" textLength="0" x="2699.6667" y="1645.8349"/><path d="M2705.3333,1637.1036 C2704.0442,1637.1036 2703,1638.4091 2703,1640.0203 C2703,1641.6314 2704.0442,1642.9369 2705.3333,1642.9369 C2706.6225,1642.9369 2707.6667,1641.6314 2707.6667,1640.0203 C2707.6667,1638.4091 2706.6225,1637.1036 2705.3333,1637.1036 M2702.8903,1642.9369 C2701.642,1642.9836 2700.6667,1644.0103 2700.6667,1645.2703 L2700.6667,1646.4369 L2710,1646.4369 L2710,1645.2703 C2710,1644.0103 2709.0247,1642.9836 2707.7763,1642.9369 C2707.1463,1643.6486 2706.2783,1644.1036 2705.3333,1644.1036 C2704.3883,1644.1036 2703.5203,1643.6486 2702.8903,1642.9369 " fill="#000000" style="stroke: ; stroke-width: 0.0; stroke-dasharray: ;"/><text fill="#000000" font-family="sans-serif" font-size="14" lengthAdjust="spacingAndGlyphs" textLength="0" x="2715" y="1645.8349"/><text fill="#000000" font-family="sans-serif" font-size="14" lengthAdjust="spacingAndGlyphs" textLength="114" x="2719" y="1645.8349">Human terminus</text><rect fill="#C9E7CB" height="19.0679" style="stroke: none; stroke-width: 1.0;" width="54" x="2641.6667" y="1649.9369"/><text fill="#000000" font-family="sans-serif" font-size="14" lengthAdjust="spacingAndGlyphs" textLength="0" x="2645.6667" y="1664.9029"/><text fill="#000000" font-family="sans-serif" font-size="14" lengthAdjust="spacingAndGlyphs" textLength="0" x="2699.6667" y="1664.9029"/><path d="M2700.6667,1656.1715 L2700.6667,1665.5048 L2708.8333,1665.5048 L2708.8333,1660.8382 L2704.1667,1660.8382 L2704.1667,1656.1715 L2700.6667,1656.1715 M2705.3333,1656.1715 L2705.3333,1659.6715 L2708.8333,1659.6715 L2705.3333,1656.1715 M2701.8333,1658.5048 L2703,1658.5048 L2703,1659.6715 L2701.8333,1659.6715 L2701.8333,1658.5048 M2701.8333,1660.8382 L2703,1660.8382 L2703,1662.0048 L2701.8333,1662.0048 L2701.8333,1660.8382 M2701.8333,1663.1715 L2706.5,1663.1715 L2706.5,1664.3382 L2701.8333,1664.3382 L2701.8333,1663.1715 " fill="#000000" style="stroke: ; stroke-width: 0.0; stroke-dasharray: ;"/><text fill="#000000" font-family="sans-serif" font-size="14" lengthAdjust="spacingAndGlyphs" textLength="0" x="2715" y="1664.9029"/><text fill="#000000" font-family="sans-serif" font-size="14" lengthAdjust="spacingAndGlyphs" textLength="251" x="2719" y="1664.9029">Soft authority — transcribed/external</text><rect fill="#F3CBD0" height="19.0679" style="stroke: none; stroke-width: 1.0;" width="54" x="2641.6667" y="1669.0048"/><text fill="#000000" font-family="sans-serif" font-size="14" lengthAdjust="spacingAndGlyphs" textLength="0" x="2645.6667" y="1683.9708"/><text fill="#000000" font-family="sans-serif" font-size="14" lengthAdjust="spacingAndGlyphs" textLength="0" x="2699.6667" y="1683.9708"/><path d="M2704.75,1675.2394 L2704.1667,1676.6254 L2703.8388,1676.7713 L2702.4528,1676.1879 L2701.614,1677.0268 L2702.1973,1678.4128 L2702.0515,1678.7406 L2700.6655,1679.3239 L2700.6655,1680.4906 L2702.0515,1681.0739 L2702.1973,1681.4391 L2701.614,1682.7878 L2702.4528,1683.6266 L2703.8388,1683.0433 L2704.1667,1683.1891 L2704.75,1684.5751 L2705.9167,1684.5751 L2706.5,1683.1891 L2706.8278,1683.0433 L2708.2138,1683.6266 L2709.0527,1682.7878 L2708.4693,1681.4018 L2708.6152,1681.0739 L2710.0012,1680.4906 L2710.0012,1679.3239 L2708.6152,1678.7406 L2708.4693,1678.4128 L2709.0165,1677.0268 L2708.2138,1676.1879 L2706.8278,1676.7713 L2706.5,1676.6254 L2705.9167,1675.2394 L2704.75,1675.2394 M2705.3333,1678.1561 C2706.3017,1678.1561 2707.0833,1678.9378 2707.0833,1679.9061 C2707.0833,1680.8744 2706.3017,1681.6561 2705.3333,1681.6561 C2704.365,1681.6561 2703.5833,1680.8744 2703.5833,1679.9061 C2703.5833,1678.9378 2704.365,1678.1561 2705.3333,1678.1561 " fill="#000000" style="stroke: ; stroke-width: 0.0; stroke-dasharray: ;"/><text fill="#000000" font-family="sans-serif" font-size="14" lengthAdjust="spacingAndGlyphs" textLength="0" x="2715" y="1683.9708"/><text fill="#000000" font-family="sans-serif" font-size="14" lengthAdjust="spacingAndGlyphs" textLength="253" x="2719" y="1683.9708">Executable oracle — point/recompute</text><rect fill="#F3CBD0" height="19.0679" style="stroke: none; stroke-width: 1.0;" width="54" x="2641.6667" y="1688.0728"/><text fill="#000000" font-family="sans-serif" font-size="14" lengthAdjust="spacingAndGlyphs" textLength="0" x="2645.6667" y="1703.0387"/><text fill="#000000" font-family="sans-serif" font-size="14" lengthAdjust="spacingAndGlyphs" textLength="0" x="2699.6667" y="1703.0387"/><path d="M2705.3333,1695.474 C2703.4072,1695.474 2701.8333,1697.0478 2701.8333,1698.974 L2700.6667,1698.974 L2702.4167,1701.3073 L2704.1667,1698.974 L2703,1698.974 C2703,1697.6802 2704.0395,1696.6407 2705.3333,1696.6407 L2705.3333,1695.474 M2708.25,1696.6407 L2706.5,1698.974 L2707.6667,1698.974 C2707.6667,1700.2678 2706.6272,1701.3073 2705.3333,1701.3073 L2705.3333,1702.474 C2707.2595,1702.474 2708.8333,1700.9002 2708.8333,1698.974 L2710,1698.974 L2708.25,1696.6407 " fill="#000000" style="stroke: ; stroke-width: 0.0; stroke-dasharray: ;"/><text fill="#000000" font-family="sans-serif" font-size="14" lengthAdjust="spacingAndGlyphs" textLength="0" x="2715" y="1703.0387"/><text fill="#000000" font-family="sans-serif" font-size="14" lengthAdjust="spacingAndGlyphs" textLength="264" x="2719" y="1703.0387">Executable oracle — standing invariant</text><rect fill="#E2E2E2" height="19.0679" style="stroke: none; stroke-width: 1.0;" width="54" x="2641.6667" y="1707.1407"/><text fill="#000000" font-family="sans-serif" font-size="14" lengthAdjust="spacingAndGlyphs" textLength="0" x="2645.6667" y="1722.1066"/><text fill="#000000" font-family="sans-serif" font-size="14" lengthAdjust="spacingAndGlyphs" textLength="0" x="2699.6667" y="1722.1066"/><path d="M2700.6667,1713.3753 L2700.6667,1714.5419 L2710,1714.5419 L2710,1713.3753 L2700.6667,1713.3753 M2700.6667,1715.7086 L2700.6667,1722.5989 C2700.6667,1722.6689 2700.7063,1722.7086 2700.7763,1722.7086 L2709.8915,1722.7086 C2709.9615,1722.7086 2710.0012,1722.6689 2710.0012,1722.5989 L2710.0012,1715.7086 L2706.5373,1715.7086 L2706.5373,1716.9114 L2704.1678,1716.9114 L2704.1678,1715.7086 L2700.6678,1715.7086 " fill="#000000" style="stroke: ; stroke-width: 0.0; stroke-dasharray: ;"/><text fill="#000000" font-family="sans-serif" font-size="14" lengthAdjust="spacingAndGlyphs" textLength="0" x="2715" y="1722.1066"/><text fill="#000000" font-family="sans-serif" font-size="14" lengthAdjust="spacingAndGlyphs" textLength="49" x="2719" y="1722.1066">Artifact</text><rect fill="#D9D2E9" height="19.0679" style="stroke: none; stroke-width: 1.0;" width="54" x="2641.6667" y="1726.2086"/><text fill="#000000" font-family="sans-serif" font-size="14" lengthAdjust="spacingAndGlyphs" textLength="0" x="2645.6667" y="1741.1745"/><text fill="#000000" font-family="sans-serif" font-size="14" lengthAdjust="spacingAndGlyphs" textLength="0" x="2699.6667" y="1741.1745"/><path d="M2705.3333,1732.4432 C2704.0442,1732.4432 2703,1733.7487 2703,1735.3598 C2703,1736.971 2704.0442,1738.2765 2705.3333,1738.2765 C2706.6225,1738.2765 2707.6667,1736.971 2707.6667,1735.3598 C2707.6667,1733.7487 2706.6225,1732.4432 2705.3333,1732.4432 M2702.8903,1738.2765 C2701.642,1738.3232 2700.6667,1739.3498 2700.6667,1740.6098 L2700.6667,1741.7765 L2710,1741.7765 L2710,1740.6098 C2710,1739.3498 2709.0247,1738.3232 2707.7763,1738.2765 C2707.1463,1738.9882 2706.2783,1739.4432 2705.3333,1739.4432 C2704.3883,1739.4432 2703.5203,1738.9882 2702.8903,1738.2765 " fill="#000000" style="stroke: ; stroke-width: 0.0; stroke-dasharray: ;"/><text fill="#000000" font-family="sans-serif" font-size="14" lengthAdjust="spacingAndGlyphs" textLength="0" x="2715" y="1741.1745"/><text fill="#000000" font-family="sans-serif" font-size="14" lengthAdjust="spacingAndGlyphs" textLength="119" x="2719" y="1741.1745">Human judgment</text><line style="stroke: #000000; stroke-width: 1.0;" x1="2641.6667" x2="2987" y1="1516.4615" y2="1516.4615"/><line style="stroke: #000000; stroke-width: 1.0;" x1="2641.6667" x2="2987" y1="1535.5294" y2="1535.5294"/><line style="stroke: #000000; stroke-width: 1.0;" x1="2641.6667" x2="2987" y1="1554.5973" y2="1554.5973"/><line style="stroke: #000000; stroke-width: 1.0;" x1="2641.6667" x2="2987" y1="1573.6653" y2="1573.6653"/><line style="stroke: #000000; stroke-width: 1.0;" x1="2641.6667" x2="2987" y1="1592.7332" y2="1592.7332"/><line style="stroke: #000000; stroke-width: 1.0;" x1="2641.6667" x2="2987" y1="1611.8011" y2="1611.8011"/><line style="stroke: #000000; stroke-width: 1.0;" x1="2641.6667" x2="2987" y1="1630.869" y2="1630.869"/><line style="stroke: #000000; stroke-width: 1.0;" x1="2641.6667" x2="2987" y1="1649.9369" y2="1649.9369"/><line style="stroke: #000000; stroke-width: 1.0;" x1="2641.6667" x2="2987" y1="1669.0048" y2="1669.0048"/><line style="stroke: #000000; stroke-width: 1.0;" x1="2641.6667" x2="2987" y1="1688.0728" y2="1688.0728"/><line style="stroke: #000000; stroke-width: 1.0;" x1="2641.6667" x2="2987" y1="1707.1407" y2="1707.1407"/><line style="stroke: #000000; stroke-width: 1.0;" x1="2641.6667" x2="2987" y1="1726.2086" y2="1726.2086"/><line style="stroke: #000000; stroke-width: 1.0;" x1="2641.6667" x2="2987" y1="1745.2765" y2="1745.2765"/><line style="stroke: #000000; stroke-width: 1.0;" x1="2641.6667" x2="2641.6667" y1="1516.4615" y2="1745.2765"/><line style="stroke: #000000; stroke-width: 1.0;" x1="2695.6667" x2="2695.6667" y1="1516.4615" y2="1745.2765"/><line style="stroke: #000000; stroke-width: 1.0;" x1="2715" x2="2715" y1="1516.4615" y2="1745.2765"/><line style="stroke: #000000; stroke-width: 1.0;" x1="2987" x2="2987" y1="1516.4615" y2="1745.2765"/><!--MD5=[625ee7524771953ee6b266eea2065aa3]
@startuml creusot-sl
title creusot-sl (base)\n<size:11><i>guards against: a vacuously-true / weaker-than-intended contract</i></size>\n<size:11><i>(#[ensures(true)], an unsatisfiable #[requires], a proof of an adjacent weaker</i></size>\n<size:11><i>property) that Why3 discharges while proving the wrong theorem.</i></size>
left to right direction
skinparam rectangleBorderColor #555
skinparam shadowing false
skinparam ArrowFontColor #888888
skinparam TitleFontColor #888888

rectangle "<&compass> Coordinator" as A_coordinator #E8541E
rectangle "<&script> Spec author" as A_spec_author #E8541E
rectangle "<&wrench> Annotator (implementer)" as A_annotator #E8541E
rectangle "<&magnifying-glass> Exerciser / Verifier" as A_verifier #E8541E
rectangle "<&beaker> Probe" as A_probe #E8541E
rectangle "<&person> Cross-provider / human reviewer (terminus)" as A_human_reviewer #E8541E

rectangle "<&document> External requirement (plain English / standard / ticket)" as S_requirement #C9E7CB
rectangle "<&box> Public function signatures / documented surface" as S_public_surface #E2E2E2
rectangle "<&box> The existing Rust function bodies (pre-existing)" as S_implementation_body #E2E2E2
rectangle "<&box> Pearlite contracts (requires/ensures/invariant authored from the requirement)" as S_contracts #E2E2E2
rectangle "<&box> Proof scaffolding added to the original Rust (invariants, variants, ghost/snapshot, proof_assert!)" as S_proof_scaffolding #E2E2E2
rectangle "<&box> Adversarial properties + mutation probes authored from the requirement + surface" as S_adversarial_props #E2E2E2
rectangle "<&cog> cargo creusot -> Creusot->Coma->Why3 -> SMT discharge (Proved ... checkmark)" as S_creusot_oracle #F3CBD0
rectangle "<&loop-circular> Standing invariant: cargo test + standing proof count + determinism re-run" as S_standing_invariant #F3CBD0
rectangle "<&cog> Scripted mutation probe (flip a comparator, drop a +1, widen a bound)" as S_mutation_probe #F3CBD0
rectangle "<&cog> Creusot/Why3's actual behaviour on a construct (capability)" as S_creusot_behaviour #F3CBD0
rectangle "<&box> Minimal Creusot/Why3 capability experiment (one claim, one recorded verdict)" as S_probe_experiment #E2E2E2
rectangle "<&person> Cross-provider / human reviewer judgment" as S_cs_external_review #D9D2E9

A_coordinator - -> S_requirement : U
A_coordinator - -> S_creusot_oracle : L
A_coordinator - -> S_standing_invariant : L
A_coordinator - -> S_mutation_probe : L
A_spec_author - -> S_requirement : U
A_spec_author - -> S_public_surface : U
A_spec_author - -> S_creusot_behaviour : L
A_spec_author ..> S_contracts : produces
A_annotator - -> S_contracts : U
A_annotator - -> S_creusot_oracle : L
A_annotator - -> S_standing_invariant : L
A_annotator ..> S_proof_scaffolding : produces
A_verifier - -> S_requirement : U
A_verifier - -> S_public_surface : U
A_verifier - -> S_creusot_oracle : L
A_verifier - -> S_mutation_probe : L
A_verifier ..> S_adversarial_props : produces
A_probe - -> S_requirement : U
A_probe - -> S_creusot_behaviour : L
A_probe ..> S_probe_experiment : produces
A_human_reviewer - -> S_requirement : U
A_human_reviewer ..> S_cs_external_review : produces

A_spec_author -[#red,dashed]-> S_implementation_body : ✗ must not see
A_spec_author -[#red,dashed]-> S_proof_scaffolding : ✗ must not see
A_spec_author -[#red,dashed]-> S_adversarial_props : ✗ must not see
A_annotator -[#red,dashed]-> S_adversarial_props : ✗ must not see
A_annotator -[#red,dashed]-> S_mutation_probe : ✗ must not see
A_verifier -[#red,dashed]-> S_implementation_body : ✗ must not see
A_verifier -[#red,dashed]-> S_proof_scaffolding : ✗ must not see

A_verifier -[#blue]-> A_annotator : catches: games a weak contract — writes code\nthat satisfies a vacuous spec — via\nadversarial properties + the Gate C mutation\nprobe (a violating mutant must break the\nproof)
A_verifier -[#blue]-> A_spec_author : catches: writes a vacuous /\nweaker-than-intended contract — via the\nmutation probe fires, and adversarial\nproperties that SHOULD fail against a vacuous\nspec do not
A_coordinator -[#blue]-> A_spec_author : catches: misreads the requirement — via Gate A\njudges the contracts against the requirement\n(amend/cut/sharpen)
A_coordinator -[#blue]-> A_verifier : catches: anchors its adversarial properties to\nimplementation quirks — via structurally\nprevented by the barrier; the coordinator\nconfirms each adversarial property derives\nfrom U
A_human_reviewer -[#blue]-> A_coordinator : catches: its own editorial (Gate A) judgment\nand its own consolidated heuristics — via the\ncoordinator's heuristics are audited by the\nverifier or a cross-provider/human reviewer —\nnever self-audited (Gate S / disjoint base)

legend right
|= Colour |=  |= Meaning |
|<#E8541E>| <&compass> | Coordinator |
|<#E8541E>| <&script> | Property/spec author |
|<#E8541E>| <&wrench> | Implementer |
|<#E8541E>| <&magnifying-glass> | Exerciser |
|<#E8541E>| <&beaker> | Probe |
|<#E8541E>| <&person> | Human terminus |
|<#C9E7CB>| <&document> | Soft authority — transcribed/external |
|<#F3CBD0>| <&cog> | Executable oracle — point/recompute |
|<#F3CBD0>| <&loop-circular> | Executable oracle — standing invariant |
|<#E2E2E2>| <&box> | Artifact |
|<#D9D2E9>| <&person> | Human judgment |
endlegend
@enduml

PlantUML version 1.2020.02(Sun Mar 01 11:22:07 CET 2020)
(GPL source distribution)
Java Runtime: OpenJDK Runtime Environment
JVM: OpenJDK 64-Bit Server VM
Java Version: 25.0.3+9-2-26.04.2-Ubuntu
Operating System: Linux
Default Encoding: UTF-8
Language: en
Country: US
--></g></svg>