<?xml version="1.0" encoding="UTF-8" standalone="no"?><svg xmlns="http://www.w3.org/2000/svg" xmlns:xlink="http://www.w3.org/1999/xlink" contentScriptType="application/ecmascript" contentStyleType="text/css" height="1672px" preserveAspectRatio="none" style="width:3954px;height:1672px;" version="1.1" viewBox="0 0 3954 1672" width="3954px" zoomAndPan="magnify"><defs/><g><text fill="#888888" font-family="sans-serif" font-size="18" lengthAdjust="spacingAndGlyphs" textLength="250" x="1851" y="19.2419">creusot-monitoring (monitor)</text><text fill="#888888" font-family="sans-serif" font-size="11" font-style="italic" lengthAdjust="spacingAndGlyphs" textLength="369" x="1791.5" y="36.2748">guards against: a crate that LOOKS verified because each file went green, but</text><text fill="#888888" font-family="sans-serif" font-size="11" font-style="italic" lengthAdjust="spacingAndGlyphs" textLength="349" x="1801.5" y="51.2566">where the base loop strengthened a contract for local convenience that is</text><text fill="#888888" font-family="sans-serif" font-size="11" font-style="italic" lengthAdjust="spacingAndGlyphs" textLength="376" x="1788" y="66.2385">globally or guidance-wrong (e.g. specified network behaviour the guidance said</text><text fill="#888888" font-family="sans-serif" font-size="11" font-style="italic" lengthAdjust="spacingAndGlyphs" textLength="64" x="1944" y="81.2204">to disregard).</text><!--MD5=[ba02ad718834564dcf804b9e9f1a41d8]
entity A_coordinator--><rect fill="#E8541E" height="39.0679" style="stroke: #555555; stroke-width: 1.5;" width="169.3333" x="757.33" y="772.2434"/><path d="M772.9967,788.478 C770.4265,788.478 768.33,790.5745 768.33,793.1446 C768.33,795.7148 770.4265,797.8113 772.9967,797.8113 C775.5668,797.8113 777.6633,795.7148 777.6633,793.1446 C777.6633,790.5745 775.5668,788.478 772.9967,788.478 M772.9967,789.6446 C774.9368,789.6446 776.4967,791.2045 776.4967,793.1446 C776.4967,795.0848 774.9368,796.6446 772.9967,796.6446 C771.0565,796.6446 769.4967,795.0848 769.4967,793.1446 C769.4967,791.2045 771.0565,789.6446 772.9967,789.6446 M775.33,790.8113 L771.83,791.978 L770.6633,795.478 L774.1633,794.3113 L775.33,790.8113 M772.9967,792.5613 C773.3233,792.5613 773.58,792.818 773.58,793.1446 C773.58,793.4713 773.3233,793.728 772.9967,793.728 C772.67,793.728 772.4133,793.4713 772.4133,793.1446 C772.4133,792.818 772.67,792.5613 772.9967,792.5613 " fill="#000000" style="stroke: ; stroke-width: 0.0; stroke-dasharray: ;"/><text fill="#000000" font-family="sans-serif" font-size="14" lengthAdjust="spacingAndGlyphs" textLength="134" x="782.6633" y="797.2093">Mission coordinator</text><!--MD5=[6deb4c39fb4623fd295aeb8d3256006b]
entity A_architect--><rect fill="#E8541E" height="39.0679" style="stroke: #555555; stroke-width: 1.5;" width="221.3333" x="1529.67" y="291.2434"/><path d="M1545.3367,307.478 C1544.0475,307.478 1543.0033,308.7835 1543.0033,310.3946 C1543.0033,312.0058 1544.0475,313.3113 1545.3367,313.3113 C1546.6258,313.3113 1547.67,312.0058 1547.67,310.3946 C1547.67,308.7835 1546.6258,307.478 1545.3367,307.478 M1542.8937,313.3113 C1541.6453,313.358 1540.67,314.3846 1540.67,315.6446 L1540.67,316.8113 L1550.0033,316.8113 L1550.0033,315.6446 C1550.0033,314.3846 1549.028,313.358 1547.7797,313.3113 C1547.1497,314.023 1546.2817,314.478 1545.3367,314.478 C1544.3917,314.478 1543.5237,314.023 1542.8937,313.3113 " fill="#000000" style="stroke: ; stroke-width: 0.0; stroke-dasharray: ;"/><text fill="#000000" font-family="sans-serif" font-size="14" lengthAdjust="spacingAndGlyphs" textLength="186" x="1555.0033" y="316.2093">Architect / auditor (Phase 0)</text><!--MD5=[c82ae80b8a97dfee5d507abf17fac971]
entity A_scheduler--><rect fill="#E8541E" height="39.0679" style="stroke: #555555; stroke-width: 1.5;" width="214.3333" x="1533.17" y="558.2434"/><path d="M1548.8367,574.478 C1547.5475,574.478 1546.5033,575.7835 1546.5033,577.3946 C1546.5033,579.0058 1547.5475,580.3113 1548.8367,580.3113 C1550.1258,580.3113 1551.17,579.0058 1551.17,577.3946 C1551.17,575.7835 1550.1258,574.478 1548.8367,574.478 M1546.3937,580.3113 C1545.1453,580.358 1544.17,581.3846 1544.17,582.6446 L1544.17,583.8113 L1553.5033,583.8113 L1553.5033,582.6446 C1553.5033,581.3846 1552.528,580.358 1551.2797,580.3113 C1550.6497,581.023 1549.7817,581.478 1548.8367,581.478 C1547.8917,581.478 1547.0237,581.023 1546.3937,580.3113 " fill="#000000" style="stroke: ; stroke-width: 0.0; stroke-dasharray: ;"/><text fill="#000000" font-family="sans-serif" font-size="14" lengthAdjust="spacingAndGlyphs" textLength="179" x="1558.5033" y="583.2093">Scheduler / graph planner</text><!--MD5=[21536f969f273866cf0fa57bb4977d82]
entity A_monitor--><rect fill="#E8541E" height="39.0679" style="stroke: #555555; stroke-width: 1.5;" width="310.3333" x="1485.17" y="1141.2434"/><path d="M1500.8728,1158.6446 C1497.9212,1158.6446 1496.17,1162.1446 1496.17,1162.1446 C1496.17,1162.1446 1497.9212,1165.6446 1500.8728,1165.6446 C1503.7545,1165.6446 1505.5033,1162.1446 1505.5033,1162.1446 C1505.5033,1162.1446 1503.7545,1158.6446 1500.8728,1158.6446 M1500.8367,1159.8113 C1502.12,1159.8113 1503.17,1160.8613 1503.17,1162.1446 C1503.17,1163.428 1502.12,1164.478 1500.8367,1164.478 C1499.5533,1164.478 1498.5033,1163.428 1498.5033,1162.1446 C1498.5033,1160.8613 1499.5533,1159.8113 1500.8367,1159.8113 M1500.8367,1160.978 C1500.195,1160.978 1499.67,1161.503 1499.67,1162.1446 C1499.67,1162.7863 1500.195,1163.3113 1500.8367,1163.3113 C1501.4783,1163.3113 1502.0033,1162.7863 1502.0033,1162.1446 C1502.0033,1162.028 1501.966,1161.9218 1501.9298,1161.8168 C1501.8365,1162.0035 1501.6533,1162.1446 1501.4188,1162.1446 C1501.0922,1162.1446 1500.8355,1161.888 1500.8355,1161.5613 C1500.8355,1161.328 1500.9767,1161.1448 1501.1633,1161.0503 C1501.0583,1161.0153 1500.9522,1160.9768 1500.8355,1160.9768 " fill="#000000" style="stroke: ; stroke-width: 0.0; stroke-dasharray: ;"/><text fill="#000000" font-family="sans-serif" font-size="14" lengthAdjust="spacingAndGlyphs" textLength="275" x="1510.5033" y="1166.2093">Base-SL monitor (sl-monitoring-sl Gate S)</text><!--MD5=[df19e194f97aecc9866573c127cb67cd]
entity A_sub_creusot_sl--><rect fill="#4E8FE8" height="39.0679" style="stroke: #555555; stroke-width: 1.5;" width="465.3333" x="2472.5" y="1073.2434"/><path d="M2485.25,1089.478 C2484.284,1089.478 2483.5,1090.262 2483.5,1091.228 C2483.5,1091.9933 2483.983,1092.6303 2484.6667,1092.8683 L2484.6667,1095.421 C2483.983,1095.659 2483.5,1096.296 2483.5,1097.0613 C2483.5,1098.0273 2484.284,1098.8113 2485.25,1098.8113 C2486.216,1098.8113 2487,1098.0273 2487,1097.0613 C2487,1096.3671 2486.6022,1095.7768 2486.0153,1095.4933 C2486.1203,1095.3883 2486.2545,1095.3113 2486.4167,1095.3113 L2488.75,1095.3113 C2489.7102,1095.3113 2490.5,1094.5215 2490.5,1093.5613 L2490.5,1092.8683 C2491.1837,1092.6303 2491.6667,1091.9933 2491.6667,1091.228 C2491.6667,1090.262 2490.8827,1089.478 2489.9167,1089.478 C2488.9507,1089.478 2488.1667,1090.262 2488.1667,1091.228 C2488.1667,1091.9933 2488.6497,1092.6303 2489.3333,1092.8683 L2489.3333,1093.5613 C2489.3333,1093.8845 2489.0732,1094.1446 2488.75,1094.1446 L2486.4167,1094.1446 C2486.2172,1094.1446 2486.013,1094.1913 2485.8333,1094.2543 L2485.8333,1092.8683 C2486.517,1092.6303 2487,1091.9933 2487,1091.228 C2487,1090.262 2486.216,1089.478 2485.25,1089.478 " fill="#000000" style="stroke: ; stroke-width: 0.0; stroke-dasharray: ;"/><text fill="#000000" font-family="sans-serif" font-size="14" lengthAdjust="spacingAndGlyphs" textLength="430" x="2497.8333" y="1098.2093">Bridge -&gt; a creusot-sl instance (run as a sub-agent, one per file)</text><!--MD5=[67ff4121d1c91b459c80ed2d9db13c0a]
entity A_disjoint_base--><rect fill="#E8541E" height="39.0679" style="stroke: #555555; stroke-width: 1.5;" width="330.3333" x="6" y="772.2434"/><path d="M21.6667,788.478 C20.3775,788.478 19.3333,789.7835 19.3333,791.3946 C19.3333,793.0058 20.3775,794.3113 21.6667,794.3113 C22.9558,794.3113 24,793.0058 24,791.3946 C24,789.7835 22.9558,788.478 21.6667,788.478 M19.2237,794.3113 C17.9753,794.358 17,795.3846 17,796.6446 L17,797.8113 L26.3333,797.8113 L26.3333,796.6446 C26.3333,795.3846 25.358,794.358 24.1097,794.3113 C23.4797,795.023 22.6117,795.478 21.6667,795.478 C20.7217,795.478 19.8537,795.023 19.2237,794.3113 " fill="#000000" style="stroke: ; stroke-width: 0.0; stroke-dasharray: ;"/><text fill="#000000" font-family="sans-serif" font-size="14" lengthAdjust="spacingAndGlyphs" textLength="295" x="31.3333" y="797.2093">Cross-provider / human reviewer (terminus)</text><!--MD5=[a2d1cca6fcc0b8caafc4562fb67031e8]
entity S_mission_guidance--><rect fill="#C9E7CB" height="39.0679" style="stroke: #555555; stroke-width: 1.5;" width="748.3333" x="2331" y="744.2434"/><path d="M2349,760.478 L2347.8333,761.6446 L2350.1667,763.978 L2351.3333,762.8113 L2349,760.478 M2346.6667,762.8113 L2342,767.478 L2342,769.8113 L2344.3333,769.8113 L2349,765.1446 L2346.6667,762.8113 " fill="#000000" style="stroke: ; stroke-width: 0.0; stroke-dasharray: ;"/><text fill="#000000" font-family="sans-serif" font-size="14" lengthAdjust="spacingAndGlyphs" textLength="713" x="2356.3333" y="769.2093">Mission guidance + scope (analyze crate xxx in dir yyy; e.g. 'specify thoroughly; disregard network access')</text><!--MD5=[fd02e0dc982406e62f4a31b30dc8cdaa]
entity S_system_intent--><rect fill="#C9E7CB" height="39.0679" style="stroke: #555555; stroke-width: 1.5;" width="570.3333" x="2420" y="166.2434"/><path d="M2431,182.478 L2431,191.8113 L2439.1667,191.8113 L2439.1667,187.1446 L2434.5,187.1446 L2434.5,182.478 L2431,182.478 M2435.6667,182.478 L2435.6667,185.978 L2439.1667,185.978 L2435.6667,182.478 M2432.1667,184.8113 L2433.3333,184.8113 L2433.3333,185.978 L2432.1667,185.978 L2432.1667,184.8113 M2432.1667,187.1446 L2433.3333,187.1446 L2433.3333,188.3113 L2432.1667,188.3113 L2432.1667,187.1446 M2432.1667,189.478 L2436.8333,189.478 L2436.8333,190.6446 L2432.1667,190.6446 L2432.1667,189.478 " fill="#000000" style="stroke: ; stroke-width: 0.0; stroke-dasharray: ;"/><text fill="#000000" font-family="sans-serif" font-size="14" lengthAdjust="spacingAndGlyphs" textLength="535" x="2445.3333" y="191.2093">The system's own documented intent (docstrings / README the architect reads)</text><!--MD5=[baccd60f847cdb316eec61c12cfe1684]
entity S_architecture_audit_claims--><rect fill="#C9E7CB" height="39.0679" style="stroke: #FF0000; stroke-width: 1.0; stroke-dasharray: 7.0,7.0;" width="571.6667" x="2419.33" y="667.2434"/><path d="M2433.9397,683.478 C2433.8697,683.478 2433.8172,683.5293 2433.7938,683.5876 L2430.3662,691.5361 L2430.33,691.7555 L2430.33,692.704 C2430.33,692.774 2430.3697,692.8136 2430.4397,692.8136 L2438.3882,692.8136 C2438.4582,692.8136 2438.4978,692.774 2438.4978,692.704 L2438.4978,691.7555 L2438.4617,691.5361 L2435.034,683.5876 C2435.0107,683.5293 2434.9582,683.478 2434.8882,683.478 L2433.9397,683.478 M2433.83,686.978 L2434.9967,686.978 L2434.9967,689.3113 L2433.83,689.3113 L2433.83,686.978 M2433.83,690.478 L2434.9967,690.478 L2434.9967,691.6446 L2433.83,691.6446 L2433.83,690.478 " fill="#000000" style="stroke: ; stroke-width: 0.0; stroke-dasharray: ;"/><text fill="#000000" font-family="sans-serif" font-size="14" lengthAdjust="spacingAndGlyphs" textLength="0" x="2444.6633" y="692.2093"/><path d="M2445.6633,683.478 L2445.6633,692.8113 L2453.83,692.8113 L2453.83,688.1446 L2449.1633,688.1446 L2449.1633,683.478 L2445.6633,683.478 M2450.33,683.478 L2450.33,686.978 L2453.83,686.978 L2450.33,683.478 M2446.83,685.8113 L2447.9967,685.8113 L2447.9967,686.978 L2446.83,686.978 L2446.83,685.8113 M2446.83,688.1446 L2447.9967,688.1446 L2447.9967,689.3113 L2446.83,689.3113 L2446.83,688.1446 M2446.83,690.478 L2451.4967,690.478 L2451.4967,691.6446 L2446.83,691.6446 L2446.83,690.478 " fill="#000000" style="stroke: ; stroke-width: 0.0; stroke-dasharray: ;"/><text fill="#000000" font-family="sans-serif" font-size="14" lengthAdjust="spacingAndGlyphs" textLength="521" x="2459.9967" y="692.2093">Phase-0 architectural-audit claims (properties the system asserts about itself)</text><!--MD5=[14d410c6c4c68d5f3f8d4607c6235f7e]
entity S_impl_source--><rect fill="#E2E2E2" height="39.0679" style="stroke: #555555; stroke-width: 1.5;" width="455.3333" x="2477.5" y="240.2434"/><path d="M2488.5,256.478 L2488.5,257.6446 L2497.8333,257.6446 L2497.8333,256.478 L2488.5,256.478 M2488.5,258.8113 L2488.5,265.7016 C2488.5,265.7716 2488.5397,265.8113 2488.6097,265.8113 L2497.7248,265.8113 C2497.7948,265.8113 2497.8345,265.7716 2497.8345,265.7016 L2497.8345,258.8113 L2494.3707,258.8113 L2494.3707,260.0141 L2492.0012,260.0141 L2492.0012,258.8113 L2488.5012,258.8113 " fill="#000000" style="stroke: ; stroke-width: 0.0; stroke-dasharray: ;"/><text fill="#000000" font-family="sans-serif" font-size="14" lengthAdjust="spacingAndGlyphs" textLength="420" x="2502.8333" y="265.2093">The crate's source (read-only, for the architect's Phase-0 audit)</text><!--MD5=[c77f62ff293bda7326fa5ff41031ab1f]
entity S_dep_graph_oracle--><rect fill="#F3CBD0" height="39.0679" style="stroke: #555555; stroke-width: 1.5;" width="537.3333" x="2436.5" y="517.2434"/><path d="M2451.5833,533.478 L2451,534.864 L2450.6722,535.0098 L2449.2862,534.4265 L2448.4473,535.2653 L2449.0307,536.6513 L2448.8848,536.9791 L2447.4988,537.5625 L2447.4988,538.7291 L2448.8848,539.3125 L2449.0307,539.6776 L2448.4473,541.0263 L2449.2862,541.8651 L2450.6722,541.2818 L2451,541.4276 L2451.5833,542.8136 L2452.75,542.8136 L2453.3333,541.4276 L2453.6612,541.2818 L2455.0472,541.8651 L2455.886,541.0263 L2455.3027,539.6403 L2455.4485,539.3125 L2456.8345,538.7291 L2456.8345,537.5625 L2455.4485,536.9791 L2455.3027,536.6513 L2455.8498,535.2653 L2455.0472,534.4265 L2453.6612,535.0098 L2453.3333,534.864 L2452.75,533.478 L2451.5833,533.478 M2452.1667,536.3946 C2453.135,536.3946 2453.9167,537.1763 2453.9167,538.1446 C2453.9167,539.113 2453.135,539.8946 2452.1667,539.8946 C2451.1983,539.8946 2450.4167,539.113 2450.4167,538.1446 C2450.4167,537.1763 2451.1983,536.3946 2452.1667,536.3946 " fill="#000000" style="stroke: ; stroke-width: 0.0; stroke-dasharray: ;"/><text fill="#000000" font-family="sans-serif" font-size="14" lengthAdjust="spacingAndGlyphs" textLength="502" x="2461.8333" y="542.2093">Actual dependency graph (cargo metadata + module/use graph + compile)</text><!--MD5=[6097e16871d5ea2c4af58137d8b6ea61]
entity S_base_oracle--><rect fill="#F3CBD0" height="39.0679" style="stroke: #555555; stroke-width: 1.5;" width="896.3333" x="2257" y="1316.2434"/><path d="M2272.0833,1332.478 L2271.5,1333.864 L2271.1722,1334.0098 L2269.7862,1333.4265 L2268.9473,1334.2653 L2269.5307,1335.6513 L2269.3848,1335.9791 L2267.9988,1336.5625 L2267.9988,1337.7291 L2269.3848,1338.3125 L2269.5307,1338.6776 L2268.9473,1340.0263 L2269.7862,1340.8651 L2271.1722,1340.2818 L2271.5,1340.4276 L2272.0833,1341.8136 L2273.25,1341.8136 L2273.8333,1340.4276 L2274.1612,1340.2818 L2275.5472,1340.8651 L2276.386,1340.0263 L2275.8027,1338.6403 L2275.9485,1338.3125 L2277.3345,1337.7291 L2277.3345,1336.5625 L2275.9485,1335.9791 L2275.8027,1335.6513 L2276.3498,1334.2653 L2275.5472,1333.4265 L2274.1612,1334.0098 L2273.8333,1333.864 L2273.25,1332.478 L2272.0833,1332.478 M2272.6667,1335.3946 C2273.635,1335.3946 2274.4167,1336.1763 2274.4167,1337.1446 C2274.4167,1338.113 2273.635,1338.8946 2272.6667,1338.8946 C2271.6983,1338.8946 2270.9167,1338.113 2270.9167,1337.1446 C2270.9167,1336.1763 2271.6983,1335.3946 2272.6667,1335.3946 " fill="#000000" style="stroke: ; stroke-width: 0.0; stroke-dasharray: ;"/><text fill="#000000" font-family="sans-serif" font-size="14" lengthAdjust="spacingAndGlyphs" textLength="861" x="2282.3333" y="1341.2093">The creusot-sl machine verdicts returned across the sub-loop boundary + cross-unit cargo creusot discharge + linked cargo test</text><!--MD5=[593b1622e2d7b3f2eabed4a5ae0fb2aa]
entity S_crate_plan--><rect fill="#E2E2E2" height="39.0679" style="stroke: #555555; stroke-width: 1.5;" width="446.3333" x="1417.17" y="953.2434"/><path d="M1428.17,969.478 L1428.17,970.6446 L1437.5033,970.6446 L1437.5033,969.478 L1428.17,969.478 M1428.17,971.8113 L1428.17,978.7016 C1428.17,978.7716 1428.2097,978.8113 1428.2797,978.8113 L1437.3948,978.8113 C1437.4648,978.8113 1437.5045,978.7716 1437.5045,978.7016 L1437.5045,971.8113 L1434.0407,971.8113 L1434.0407,973.0141 L1431.6712,973.0141 L1431.6712,971.8113 L1428.1712,971.8113 " fill="#000000" style="stroke: ; stroke-width: 0.0; stroke-dasharray: ;"/><text fill="#000000" font-family="sans-serif" font-size="14" lengthAdjust="spacingAndGlyphs" textLength="411" x="1442.5033" y="978.2093">The per-crate plan, file schedule decisions, and gate verdicts</text><!--MD5=[85f04a7b8dce14d4e5844aaf83516737]
entity S_file_schedule--><rect fill="#E2E2E2" height="39.0679" style="stroke: #555555; stroke-width: 1.5;" width="701.3333" x="2354.5" y="591.2434"/><path d="M2365.5,607.478 L2365.5,608.6446 L2374.8333,608.6446 L2374.8333,607.478 L2365.5,607.478 M2365.5,609.8113 L2365.5,616.7016 C2365.5,616.7716 2365.5397,616.8113 2365.6097,616.8113 L2374.7248,616.8113 C2374.7948,616.8113 2374.8345,616.7716 2374.8345,616.7016 L2374.8345,609.8113 L2371.3707,609.8113 L2371.3707,611.0141 L2369.0012,611.0141 L2369.0012,609.8113 L2365.5012,609.8113 " fill="#000000" style="stroke: ; stroke-width: 0.0; stroke-dasharray: ;"/><text fill="#000000" font-family="sans-serif" font-size="14" lengthAdjust="spacingAndGlyphs" textLength="666" x="2379.8333" y="616.2093">The leaf-first topo-order refined by the audit value/risk ranking; the parallelizable-independent set</text><!--MD5=[8b6c154efe7d7ae31e1fc617aff69cad]
entity S_scope_map--><rect fill="#E2E2E2" height="39.0679" style="stroke: #555555; stroke-width: 1.5;" width="624.3333" x="2393" y="92.2434"/><path d="M2404,108.478 L2404,109.6446 L2413.3333,109.6446 L2413.3333,108.478 L2404,108.478 M2404,110.8113 L2404,117.7016 C2404,117.7716 2404.0397,117.8113 2404.1097,117.8113 L2413.2248,117.8113 C2413.2948,117.8113 2413.3345,117.7716 2413.3345,117.7016 L2413.3345,110.8113 L2409.8707,110.8113 L2409.8707,112.0141 L2407.5012,112.0141 L2407.5012,110.8113 L2404.0012,110.8113 " fill="#000000" style="stroke: ; stroke-width: 0.0; stroke-dasharray: ;"/><text fill="#000000" font-family="sans-serif" font-size="14" lengthAdjust="spacingAndGlyphs" textLength="589" x="2418.3333" y="117.2093">Creusot-amenability scope map (amenable vs out-of-reach: FFI/firmware/external-crate)</text><!--MD5=[dbc0085a3f063f204e69c4aa77aa8781]
entity S_value_risk_ranking--><rect fill="#E2E2E2" height="39.0679" style="stroke: #555555; stroke-width: 1.5;" width="502.3333" x="2454" y="362.2434"/><path d="M2465,378.478 L2465,379.6446 L2474.3333,379.6446 L2474.3333,378.478 L2465,378.478 M2465,380.8113 L2465,387.7016 C2465,387.7716 2465.0397,387.8113 2465.1097,387.8113 L2474.2248,387.8113 C2474.2948,387.8113 2474.3345,387.7716 2474.3345,387.7016 L2474.3345,380.8113 L2470.8707,380.8113 L2470.8707,382.0141 L2468.5012,382.0141 L2468.5012,380.8113 L2465.0012,380.8113 " fill="#000000" style="stroke: ; stroke-width: 0.0; stroke-dasharray: ;"/><text fill="#000000" font-family="sans-serif" font-size="14" lengthAdjust="spacingAndGlyphs" textLength="467" x="2479.3333" y="387.2093">Value/risk ranking that focuses the schedule (e.g. attack-surface-first)</text><!--MD5=[a678b5817572c9f4a43e9b61a29f74cf]
entity S_base_skill--><rect fill="#E2E2E2" height="39.0679" style="stroke: #555555; stroke-width: 1.5;" width="662.3333" x="3271.33" y="1040.2434"/><path d="M3282.33,1056.478 L3282.33,1057.6446 L3291.6633,1057.6446 L3291.6633,1056.478 L3282.33,1056.478 M3282.33,1058.8113 L3282.33,1065.7016 C3282.33,1065.7716 3282.3697,1065.8113 3282.4397,1065.8113 L3291.5548,1065.8113 C3291.6248,1065.8113 3291.6645,1065.7716 3291.6645,1065.7016 L3291.6645,1058.8113 L3288.2007,1058.8113 L3288.2007,1060.0141 L3285.8312,1060.0141 L3285.8312,1058.8113 L3282.3312,1058.8113 " fill="#000000" style="stroke: ; stroke-width: 0.0; stroke-dasharray: ;"/><text fill="#000000" font-family="sans-serif" font-size="14" lengthAdjust="spacingAndGlyphs" textLength="627" x="3296.6633" y="1065.2093">The base loop's consolidated skill / inferred-or-strengthened contract (soft output under test)</text><!--MD5=[6fa693f7c9b6d125c7066c547f4ef38d]
entity S_base_rationale--><rect fill="#D98080" height="39.0679" style="stroke: #555555; stroke-width: 1.5;" width="403.3333" x="3400.83" y="1114.2434"/><path d="M3416.4967,1130.478 C3413.9265,1130.478 3411.83,1132.5745 3411.83,1135.1446 C3411.83,1137.7148 3413.9265,1139.8113 3416.4967,1139.8113 C3419.0668,1139.8113 3421.1633,1137.7148 3421.1633,1135.1446 C3421.1633,1132.5745 3419.0668,1130.478 3416.4967,1130.478 M3416.4967,1131.6446 C3417.2608,1131.6446 3417.9643,1131.8885 3418.5383,1132.3015 L3413.6523,1137.1875 C3413.2405,1136.6135 3412.9955,1135.91 3412.9955,1135.1458 C3412.9955,1133.2056 3414.5553,1131.6458 3416.4955,1131.6458 M3419.3398,1133.1041 C3419.7517,1133.6781 3419.9967,1134.3816 3419.9967,1135.1458 C3419.9967,1137.086 3418.4368,1138.6458 3416.4967,1138.6458 C3415.7325,1138.6458 3415.029,1138.402 3414.455,1137.989 L3419.341,1133.103 " fill="#000000" style="stroke: ; stroke-width: 0.0; stroke-dasharray: ;"/><text fill="#000000" font-family="sans-serif" font-size="14" lengthAdjust="spacingAndGlyphs" textLength="368" x="3426.1633" y="1139.2093">The base agent's private rationale for the skill/contract</text><!--MD5=[a4aebfde3f2b804037232ad5a1388ca0]
entity S_skill_verdict--><rect fill="#E2E2E2" height="39.0679" style="stroke: #555555; stroke-width: 1.5;" width="564.3333" x="2423" y="1147.2434"/><path d="M2434,1163.478 L2434,1164.6446 L2443.3333,1164.6446 L2443.3333,1163.478 L2434,1163.478 M2434,1165.8113 L2434,1172.7016 C2434,1172.7716 2434.0397,1172.8113 2434.1097,1172.8113 L2443.2248,1172.8113 C2443.2948,1172.8113 2443.3345,1172.7716 2443.3345,1172.7016 L2443.3345,1165.8113 L2439.8707,1165.8113 L2439.8707,1167.0141 L2437.5012,1167.0141 L2437.5012,1165.8113 L2434.0012,1165.8113 " fill="#000000" style="stroke: ; stroke-width: 0.0; stroke-dasharray: ;"/><text fill="#000000" font-family="sans-serif" font-size="14" lengthAdjust="spacingAndGlyphs" textLength="529" x="2448.3333" y="1172.2093">Gate S verdict on each base skill/inferred contract (PASS / CARVE-OUT / REJECT)</text><!--MD5=[9318a2758f918b2eaa0cefbcbf14e86d]
entity S_top_learned_skill--><rect fill="#E2E2E2" height="39.0679" style="stroke: #555555; stroke-width: 1.5;" width="567.3333" x="1356.67" y="484.2434"/><path d="M1367.67,500.478 L1367.67,501.6446 L1377.0033,501.6446 L1377.0033,500.478 L1367.67,500.478 M1367.67,502.8113 L1367.67,509.7016 C1367.67,509.7716 1367.7097,509.8113 1367.7797,509.8113 L1376.8948,509.8113 C1376.9648,509.8113 1377.0045,509.7716 1377.0045,509.7016 L1377.0045,502.8113 L1373.5407,502.8113 L1373.5407,504.0141 L1371.1712,504.0141 L1371.1712,502.8113 L1367.6712,502.8113 " fill="#000000" style="stroke: ; stroke-width: 0.0; stroke-dasharray: ;"/><text fill="#000000" font-family="sans-serif" font-size="14" lengthAdjust="spacingAndGlyphs" textLength="532" x="1382.0033" y="509.2093">The top loop's OWN learned skills (coordinator / scheduler / monitor heuristics)</text><!--MD5=[6e1347ce24216ea84c704006d86e5b27]
entity S_external_review--><rect fill="#D9D2E9" height="39.0679" style="stroke: #555555; stroke-width: 1.5;" width="327.3333" x="678.33" y="846.2434"/><path d="M693.9967,862.478 C692.7075,862.478 691.6633,863.7835 691.6633,865.3946 C691.6633,867.0058 692.7075,868.3113 693.9967,868.3113 C695.2858,868.3113 696.33,867.0058 696.33,865.3946 C696.33,863.7835 695.2858,862.478 693.9967,862.478 M691.5537,868.3113 C690.3053,868.358 689.33,869.3846 689.33,870.6446 L689.33,871.8113 L698.6633,871.8113 L698.6633,870.6446 C698.6633,869.3846 697.688,868.358 696.4397,868.3113 C695.8097,869.023 694.9417,869.478 693.9967,869.478 C693.0517,869.478 692.1837,869.023 691.5537,868.3113 " fill="#000000" style="stroke: ; stroke-width: 0.0; stroke-dasharray: ;"/><text fill="#000000" font-family="sans-serif" font-size="14" lengthAdjust="spacingAndGlyphs" textLength="292" x="703.6633" y="871.2093">Cross-provider / human reviewer judgment</text><!--MD5=[33125be7b49b5365260a9fa2d2683a30]
link A_coordinator to S_mission_guidance--><path d="M926.88,793.2034 C1142.61,796.5334 1734.32,803.5434 2227,789.7734 C2274.12,788.4534 2323.83,786.4434 2372.66,784.1034 " fill="none" id="A_coordinator-&gt;S_mission_guidance" style="stroke: #A80036; stroke-width: 1.0;"/><polygon fill="#A80036" points="2377.41,783.8834,2368.226,780.326,2372.4159,784.1267,2368.6153,788.3165,2377.41,783.8834" style="stroke: #A80036; stroke-width: 1.0;"/><text fill="#888888" font-family="sans-serif" font-size="13" lengthAdjust="spacingAndGlyphs" textLength="10" x="1635.33" y="791.7804">U</text><!--MD5=[67a2f4a1018d28ccac6d08cd9ce581c4]
link A_coordinator to S_architecture_audit_claims--><path d="M926.89,787.0434 C1185.38,772.4534 1978.4,727.7134 2412.57,703.2234 " fill="none" id="A_coordinator-&gt;S_architecture_audit_claims" style="stroke: #A80036; stroke-width: 1.0;"/><polygon fill="#A80036" points="2417.42,702.9534,2408.2065,699.4734,2412.4281,703.2386,2408.6629,707.4603,2417.42,702.9534" style="stroke: #A80036; stroke-width: 1.0;"/><text fill="#888888" font-family="sans-serif" font-size="13" lengthAdjust="spacingAndGlyphs" textLength="10" x="1635.33" y="728.1904">U</text><!--MD5=[9dd5036483113e2ea6c5305d0f5b266d]
link A_coordinator to S_base_oracle--><path d="M926.99,791.4134 C956.06,795.7734 986.19,806.1734 1005.67,828.7734 C1063.42,895.7934 973.91,1162.4234 1035.67,1225.7734 C1229.64,1424.7634 2066.66,1387.6434 2476.42,1356.2734 " fill="none" id="A_coordinator-&gt;S_base_oracle" style="stroke: #A80036; stroke-width: 1.0;"/><polygon fill="#A80036" points="2481.21,1355.9034,2471.9377,1352.5831,2476.2238,1356.2749,2472.532,1360.561,2481.21,1355.9034" style="stroke: #A80036; stroke-width: 1.0;"/><text fill="#888888" font-family="sans-serif" font-size="13" lengthAdjust="spacingAndGlyphs" textLength="7" x="1636.83" y="1346.3204">L</text><!--MD5=[b1c084d68048f5b9ac38f7e1f10e3d1f]
link A_coordinator to S_crate_plan--><path d="M927.03,793.7034 C955.23,798.4334 984.78,808.4934 1005.67,828.7734 C1043.87,865.8734 994.33,911.2034 1035.67,944.7734 C1092.09,990.5934 1264.29,995.0134 1410.41,989.4334 " fill="none" id="A_coordinator-&gt;S_crate_plan" style="stroke: #A80036; stroke-width: 1.0; stroke-dasharray: 7.0,7.0;"/><polygon fill="#A80036" points="1415.39,989.2334,1406.2373,985.5963,1410.394,989.4332,1406.5571,993.5899,1415.39,989.2334" style="stroke: #A80036; stroke-width: 1.0;"/><text fill="#888888" font-family="sans-serif" font-size="13" lengthAdjust="spacingAndGlyphs" textLength="56" x="1153.17" y="940.6704">produces</text><!--MD5=[8ae382e16699202618e234213ec8db79]
link A_coordinator to S_top_learned_skill--><path d="M852.15,772.0634 C875.21,724.9334 940.73,605.9334 1035.67,555.7734 C1163.72,488.1234 1328.63,478.1934 1453.73,483.4734 " fill="none" id="A_coordinator-&gt;S_top_learned_skill" style="stroke: #A80036; stroke-width: 1.0; stroke-dasharray: 7.0,7.0;"/><polygon fill="#A80036" points="1458.52,483.6834,1449.7121,479.2766,1453.5252,483.4551,1449.3467,487.2682,1458.52,483.6834" style="stroke: #A80036; stroke-width: 1.0;"/><text fill="#888888" font-family="sans-serif" font-size="13" lengthAdjust="spacingAndGlyphs" textLength="56" x="1153.17" y="480.6604">produces</text><!--MD5=[edd6383bd51e90c0a83b4fb316780c36]
link A_architect to S_mission_guidance--><path d="M1684.97,330.6734 C1742.25,357.7234 1844.83,409.3334 1924,466.7734 C1938.76,477.4834 1937.48,487.0434 1954,494.7734 C2009.38,520.6734 2183.15,486.1734 2227,528.7734 C2289.89,589.8834 2193.06,663.7634 2257,723.7734 C2351.91,812.8534 2513.29,802.7334 2614.03,784.9234 " fill="none" id="A_architect-&gt;S_mission_guidance" style="stroke: #A80036; stroke-width: 1.0;"/><polygon fill="#A80036" points="2618.78,784.0734,2609.2144,781.7284,2613.8588,784.9578,2610.6294,789.6022,2618.78,784.0734" style="stroke: #A80036; stroke-width: 1.0;"/><text fill="#888888" font-family="sans-serif" font-size="13" lengthAdjust="spacingAndGlyphs" textLength="10" x="2085.5" y="490.6704">U</text><!--MD5=[7c1a309879959a68a0c1f488155b3dbc]
link A_architect to S_system_intent--><path d="M1732.95,290.7534 C1795.06,277.7834 1879.16,261.3834 1954,250.7734 C2104.97,229.3634 2274.1,213.9734 2413.5,203.5534 " fill="none" id="A_architect-&gt;S_system_intent" style="stroke: #A80036; stroke-width: 1.0;"/><polygon fill="#A80036" points="2418.19,203.2034,2408.9177,199.8831,2413.2038,203.5749,2409.512,207.861,2418.19,203.2034" style="stroke: #A80036; stroke-width: 1.0;"/><text fill="#888888" font-family="sans-serif" font-size="13" lengthAdjust="spacingAndGlyphs" textLength="10" x="2085.5" y="215.7004">U</text><!--MD5=[87b9b20ef893d0a831c635c5a97bda52]
link A_architect to S_impl_source--><path d="M1751.27,303.1334 C1811.18,299.1234 1886.65,294.3234 1954,290.7734 C2127.16,281.6534 2322.93,273.6434 2471.05,268.0534 " fill="none" id="A_architect-&gt;S_impl_source" style="stroke: #A80036; stroke-width: 1.0;"/><polygon fill="#A80036" points="2475.67,267.8734,2466.5277,264.2102,2470.6734,268.059,2466.8247,272.2047,2475.67,267.8734" style="stroke: #A80036; stroke-width: 1.0;"/><text fill="#888888" font-family="sans-serif" font-size="13" lengthAdjust="spacingAndGlyphs" textLength="7" x="2087" y="273.9804">L</text><!--MD5=[6f64e2992422c715fc8e29ce13f35909]
link A_architect to S_architecture_audit_claims--><path d="M1725.87,330.8034 C1788.56,345.1234 1876.26,364.0434 1954,376.7734 C2014.28,386.6434 2183.63,365.7634 2227,408.7734 C2303.01,484.1634 2179.88,573.5234 2257,647.7734 C2351.85,739.0934 2516.29,726.8634 2617.14,707.9834 " fill="none" id="A_architect-&gt;S_architecture_audit_claims" style="stroke: #A80036; stroke-width: 1.0; stroke-dasharray: 7.0,7.0;"/><polygon fill="#A80036" points="2621.9,707.0734,2612.3075,704.8409,2616.9896,708.0155,2613.8149,712.6976,2621.9,707.0734" style="stroke: #A80036; stroke-width: 1.0;"/><text fill="#888888" font-family="sans-serif" font-size="13" lengthAdjust="spacingAndGlyphs" textLength="56" x="2062.5" y="372.6704">produces</text><!--MD5=[531952f83098a19fe6279bf8c6f588f6]
link A_architect to S_scope_map--><path d="M1685.14,290.7634 C1744.73,264.3634 1855.27,218.2534 1954,192.7734 C2093.37,156.8034 2251.31,136.7934 2386.19,125.6634 " fill="none" id="A_architect-&gt;S_scope_map" style="stroke: #A80036; stroke-width: 1.0; stroke-dasharray: 7.0,7.0;"/><polygon fill="#A80036" points="2391.09,125.2634,2381.7897,122.0224,2386.1072,125.6774,2382.4521,129.9949,2391.09,125.2634" style="stroke: #A80036; stroke-width: 1.0;"/><text fill="#888888" font-family="sans-serif" font-size="13" lengthAdjust="spacingAndGlyphs" textLength="56" x="2062.5" y="139.3004">produces</text><!--MD5=[32929c7b858819c9708da155711b1ce9]
link A_architect to S_value_risk_ranking--><path d="M1751.44,318.0934 C1869.15,325.9134 2061.27,338.6934 2227,349.7734 C2298.47,354.5534 2375.96,359.7434 2447.3,364.5234 " fill="none" id="A_architect-&gt;S_value_risk_ranking" style="stroke: #A80036; stroke-width: 1.0; stroke-dasharray: 7.0,7.0;"/><polygon fill="#A80036" points="2452.23,364.8534,2443.5256,360.2454,2447.2418,364.5104,2442.9768,368.2265,2452.23,364.8534" style="stroke: #A80036; stroke-width: 1.0;"/><text fill="#888888" font-family="sans-serif" font-size="13" lengthAdjust="spacingAndGlyphs" textLength="56" x="2062.5" y="327.4804">produces</text><!--MD5=[fc582469251fff3e2a7c4e8e868f1d1c]
link A_scheduler to S_mission_guidance--><path d="M1747.67,585.3234 C1801.81,591.6834 1867.88,603.3534 1924,624.7734 C1938.74,630.4034 1939.53,637.4634 1954,643.7734 C2081.66,699.4634 2119.81,699.7034 2257,723.7734 C2301.63,731.6034 2349.06,737.9434 2395.7,743.0634 " fill="none" id="A_scheduler-&gt;S_mission_guidance" style="stroke: #A80036; stroke-width: 1.0;"/><polygon fill="#A80036" points="2400.48,743.5734,2391.9674,738.6201,2395.5095,743.0306,2391.099,746.5728,2400.48,743.5734" style="stroke: #A80036; stroke-width: 1.0;"/><text fill="#888888" font-family="sans-serif" font-size="13" lengthAdjust="spacingAndGlyphs" textLength="10" x="2085.5" y="639.6704">U</text><!--MD5=[1d57ac9642709ee68dd8e8333c438e20]
link A_scheduler to S_value_risk_ranking--><path d="M1747.73,588.2434 C1805.32,588.3434 1874.56,578.7834 1924,540.7734 C1951.81,519.3934 1926.02,488.9334 1954,467.7734 C1964.96,459.4834 2283.56,425.1434 2501.98,402.4434 " fill="none" id="A_scheduler-&gt;S_value_risk_ranking" style="stroke: #A80036; stroke-width: 1.0;"/><polygon fill="#A80036" points="2506.91,401.9334,2497.5471,398.878,2501.9364,402.4464,2498.3679,406.8358,2506.91,401.9334" style="stroke: #A80036; stroke-width: 1.0;"/><text fill="#888888" font-family="sans-serif" font-size="13" lengthAdjust="spacingAndGlyphs" textLength="10" x="2085.5" y="427.9304">U</text><!--MD5=[f273a3aef7249868c40e8892fd5a0f87]
link A_scheduler to S_dep_graph_oracle--><path d="M1747.62,573.6734 C1905.5,567.5834 2207.26,555.9434 2429.8,547.3534 " fill="none" id="A_scheduler-&gt;S_dep_graph_oracle" style="stroke: #A80036; stroke-width: 1.0;"/><polygon fill="#A80036" points="2434.52,547.1734,2425.3773,543.5112,2429.5235,547.3595,2425.6751,551.5056,2434.52,547.1734" style="stroke: #A80036; stroke-width: 1.0;"/><text fill="#888888" font-family="sans-serif" font-size="13" lengthAdjust="spacingAndGlyphs" textLength="7" x="2087" y="551.9404">L</text><!--MD5=[c916213ed382917c591d5ec7a75204bf]
link A_scheduler to S_file_schedule--><path d="M1747.87,590.9034 C1808.24,597.6934 1885.22,605.2834 1954,608.7734 C2082.39,615.2934 2223.3,617.0834 2347.99,616.8234 " fill="none" id="A_scheduler-&gt;S_file_schedule" style="stroke: #A80036; stroke-width: 1.0; stroke-dasharray: 7.0,7.0;"/><polygon fill="#A80036" points="2352.77,616.8134,2343.7586,612.8391,2347.77,616.8277,2343.7815,620.8391,2352.77,616.8134" style="stroke: #A80036; stroke-width: 1.0;"/><text fill="#888888" font-family="sans-serif" font-size="13" lengthAdjust="spacingAndGlyphs" textLength="56" x="2062.5" y="604.6704">produces</text><!--MD5=[487ba24f60b16742cf189276ab4242b0]
link A_monitor to S_mission_guidance--><path d="M1677.76,1140.8734 C1753.87,1099.4134 1925.1,1006.8934 1954,997.7734 C2070.7,960.9234 2108.8,993.4934 2227,961.7734 C2392.8,917.2734 2577.42,828.6334 2660.03,786.7334 " fill="none" id="A_monitor-&gt;S_mission_guidance" style="stroke: #A80036; stroke-width: 1.0;"/><polygon fill="#A80036" points="2664.45,784.4834,2654.615,785.006,2659.9951,786.7537,2658.2474,792.1338,2664.45,784.4834" style="stroke: #A80036; stroke-width: 1.0;"/><text fill="#888888" font-family="sans-serif" font-size="13" lengthAdjust="spacingAndGlyphs" textLength="10" x="2085.5" y="957.6704">U</text><!--MD5=[b1f0ef65444db34b4dd8740f18c979bf]
link A_monitor to S_base_oracle--><path d="M1679.55,1180.6334 C1737.24,1209.5534 1850.82,1262.3234 1954,1285.7734 C2013.06,1299.1934 2127.9,1309.4534 2250.3,1317.0834 " fill="none" id="A_monitor-&gt;S_base_oracle" style="stroke: #A80036; stroke-width: 1.0;"/><polygon fill="#A80036" points="2254.99,1317.3734,2246.2465,1312.84,2249.999,1317.0731,2245.766,1320.8256,2254.99,1317.3734" style="stroke: #A80036; stroke-width: 1.0;"/><text fill="#888888" font-family="sans-serif" font-size="13" lengthAdjust="spacingAndGlyphs" textLength="7" x="2087" y="1281.6704">L</text><!--MD5=[6581fb7988642278a4d0c9f70b6182be]
link A_monitor to S_skill_verdict--><path d="M1795.85,1175.5834 C1846.22,1179.7534 1902.44,1183.7134 1954,1185.7734 C2106.64,1191.8634 2276.83,1188.3934 2416.48,1182.8334 " fill="none" id="A_monitor-&gt;S_skill_verdict" style="stroke: #A80036; stroke-width: 1.0; stroke-dasharray: 7.0,7.0;"/><polygon fill="#A80036" points="2421.17,1182.6434,2412.0169,1179.0074,2416.174,1182.8438,2412.3376,1187.0009,2421.17,1182.6434" style="stroke: #A80036; stroke-width: 1.0;"/><text fill="#888888" font-family="sans-serif" font-size="13" lengthAdjust="spacingAndGlyphs" textLength="56" x="2062.5" y="1181.6704">produces</text><!--MD5=[2be12f154fc0638ae960624e00cb9be6]
link A_sub_creusot_sl to S_base_skill--><path d="M2938.19,1084.2234 C3037.64,1080.5534 3155.73,1076.2034 3264.52,1072.1934 " fill="none" id="A_sub_creusot_sl-&gt;S_base_skill" style="stroke: #A80036; stroke-width: 1.0; stroke-dasharray: 7.0,7.0;"/><polygon fill="#A80036" points="3269.5,1072.0134,3260.3577,1068.3502,3264.5034,1072.199,3260.6547,1076.3447,3269.5,1072.0134" style="stroke: #A80036; stroke-width: 1.0;"/><text fill="#888888" font-family="sans-serif" font-size="13" lengthAdjust="spacingAndGlyphs" textLength="56" x="3184.33" y="1069.2104">produces</text><!--MD5=[eca141049f178d78d2e641dabb38ac5c]
link A_sub_creusot_sl to S_base_rationale--><path d="M2938.19,1103.3934 C3079.22,1109.8534 3257.76,1118.0334 3394.07,1124.2734 " fill="none" id="A_sub_creusot_sl-&gt;S_base_rationale" style="stroke: #A80036; stroke-width: 1.0; stroke-dasharray: 7.0,7.0;"/><polygon fill="#A80036" points="3399.02,1124.5034,3390.2121,1120.0966,3394.0252,1124.2751,3389.8467,1128.0882,3399.02,1124.5034" style="stroke: #A80036; stroke-width: 1.0;"/><text fill="#888888" font-family="sans-serif" font-size="13" lengthAdjust="spacingAndGlyphs" textLength="56" x="3184.33" y="1111.6204">produces</text><!--MD5=[4bafdcff870172fbafa46514dc697003]
link A_disjoint_base to S_mission_guidance--><path d="M203,771.7734 C240.12,748.7734 305.13,711.8534 366.33,693.7734 C776.8,572.4934 899.7,591.9034 1326.67,621.7734 C1594.11,640.4834 1674.56,607.5234 1924,705.7734 C1939.14,711.7334 1938.6,721.5034 1954,726.7734 C2128.3,786.4734 2338.71,791.5434 2492.28,784.1034 " fill="none" id="A_disjoint_base-&gt;S_mission_guidance" style="stroke: #A80036; stroke-width: 1.0;"/><polygon fill="#A80036" points="2497.12,783.8634,2487.9365,780.3047,2492.1259,784.106,2488.3247,788.2953,2497.12,783.8634" style="stroke: #A80036; stroke-width: 1.0;"/><text fill="#888888" font-family="sans-serif" font-size="13" lengthAdjust="spacingAndGlyphs" textLength="10" x="1176.17" y="598.3604">U</text><!--MD5=[bb5de38ba8e70795832c92b16a3c6ed2]
link A_disjoint_base to S_external_review--><path d="M311.29,811.7934 C329.78,814.2634 348.51,816.6534 366.33,818.7734 C467.52,830.8134 581.09,842.1334 671.77,850.6534 " fill="none" id="A_disjoint_base-&gt;S_external_review" style="stroke: #A80036; stroke-width: 1.0; stroke-dasharray: 7.0,7.0;"/><polygon fill="#A80036" points="676.48,851.0934,667.8828,846.2883,671.5009,850.6369,667.1524,854.2549,676.48,851.0934" style="stroke: #A80036; stroke-width: 1.0;"/><text fill="#888888" font-family="sans-serif" font-size="13" lengthAdjust="spacingAndGlyphs" textLength="56" x="479.33" y="814.6704">produces</text><!--MD5=[e5b35b9dea5b6170cb6a3e5222458f04]
link A_coordinator to S_base_rationale--><path d="M926.88,798.5834 C1339.87,832.3734 3141.38,982.9634 3241.33,1046.7734 C3263.18,1060.7234 3249.53,1082.7634 3271.33,1096.7734 C3307.64,1120.0934 3350.93,1132.9434 3394.02,1139.4534 " fill="none" id="A_coordinator-&gt;S_base_rationale" style="stroke: #FF0000; stroke-width: 1.0; stroke-dasharray: 7.0,7.0;"/><polygon fill="#FF0000" points="3398.87,1140.1534,3390.5198,1134.9309,3393.9194,1139.4523,3389.398,1142.8519,3398.87,1140.1534" style="stroke: #FF0000; stroke-width: 1.0;"/><text fill="#888888" font-family="sans-serif" font-size="13" lengthAdjust="spacingAndGlyphs" textLength="92" x="2044.5" y="885.6104">✗ must not see</text><!--MD5=[6ad9ba51ced2e12408a5a7143e7f16eb]
link A_monitor to S_base_rationale--><path d="M1792.22,1180.7834 C2064.7,1213.8434 2656.72,1271.6034 3153.33,1222.7734 C3282.4,1210.0834 3429.41,1177.3034 3518.79,1155.2634 " fill="none" id="A_monitor-&gt;S_base_rationale" style="stroke: #FF0000; stroke-width: 1.0; stroke-dasharray: 7.0,7.0;"/><polygon fill="#FF0000" points="3523.39,1154.1334,3513.6921,1152.4154,3518.5368,1155.336,3515.6162,1160.1806,3523.39,1154.1334" style="stroke: #FF0000; stroke-width: 1.0;"/><text fill="#888888" font-family="sans-serif" font-size="13" lengthAdjust="spacingAndGlyphs" textLength="92" x="2659.17" y="1218.6704">✗ must not see</text><!--MD5=[ca4ca0a7bb0538aa93bf01f5e94e76a6]
link A_monitor to A_sub_creusot_sl--><path d="M1795.81,1152.3634 C1913.92,1145.7934 2080.77,1136.2234 2227,1126.7734 C2304.69,1121.7534 2389.46,1115.8434 2465.72,1110.3834 " fill="none" id="A_monitor-&gt;A_sub_creusot_sl" style="stroke: #0000FF; stroke-width: 1.0;"/><polygon fill="#0000FF" points="2470.62,1110.0334,2461.3572,1106.6867,2465.6328,1110.3906,2461.9288,1114.6662,2470.62,1110.0334" style="stroke: #0000FF; stroke-width: 1.0;"/><text fill="#888888" font-family="sans-serif" font-size="13" lengthAdjust="spacingAndGlyphs" textLength="271" x="1955" y="1016.6704">catches: the base loop strengthens a contract</text><text fill="#888888" font-family="sans-serif" font-size="13" lengthAdjust="spacingAndGlyphs" textLength="229" x="1976" y="1034.3764">for LOCAL convenience in a way that is</text><text fill="#888888" font-family="sans-serif" font-size="13" lengthAdjust="spacingAndGlyphs" textLength="245" x="1968" y="1052.0824">globally or guidance-wrong (e.g. specifies</text><text fill="#888888" font-family="sans-serif" font-size="13" lengthAdjust="spacingAndGlyphs" textLength="238" x="1971.5" y="1069.7885">network behaviour the guidance said to</text><text fill="#888888" font-family="sans-serif" font-size="13" lengthAdjust="spacingAndGlyphs" textLength="238" x="1971.5" y="1087.4945">disregard) — via the trigger/validity test</text><text fill="#888888" font-family="sans-serif" font-size="13" lengthAdjust="spacingAndGlyphs" textLength="249" x="1966" y="1105.2005">against the guidance U and the cross-unit</text><text fill="#888888" font-family="sans-serif" font-size="13" lengthAdjust="spacingAndGlyphs" textLength="217" x="1982" y="1122.9065">oracle L the base agents do not hold</text><!--MD5=[3a34c0f7854eddbbe74b950cd4a08cc3]
link A_coordinator to A_monitor--><path d="M927.11,791.7434 C956.01,796.1734 986,806.5334 1005.67,828.7734 C1049.46,878.3034 987.96,1079.0034 1035.67,1124.7734 C1179.46,1262.7234 1441.85,1215.9134 1567.95,1182.4734 " fill="none" id="A_coordinator-&gt;A_monitor" style="stroke: #0000FF; stroke-width: 1.0;"/><polygon fill="#0000FF" points="1572.75,1181.1834,1563.0196,1179.6607,1567.9219,1182.4833,1565.0994,1187.3856,1572.75,1181.1834" style="stroke: #0000FF; stroke-width: 1.0;"/><text fill="#888888" font-family="sans-serif" font-size="13" lengthAdjust="spacingAndGlyphs" textLength="260" x="1051.17" y="1014.6704">catches: mis-calibration — rubber-stamping</text><text fill="#888888" font-family="sans-serif" font-size="13" lengthAdjust="spacingAndGlyphs" textLength="203" x="1079.67" y="1032.3764">(flags nothing) or saturating (flags</text><text fill="#888888" font-family="sans-serif" font-size="13" lengthAdjust="spacingAndGlyphs" textLength="260" x="1051.17" y="1050.0824">everything); and an over-broad coordinator</text><text fill="#888888" font-family="sans-serif" font-size="13" lengthAdjust="spacingAndGlyphs" textLength="229" x="1066.67" y="1067.7885">triage it does not police — via flag-rate</text><text fill="#888888" font-family="sans-serif" font-size="13" lengthAdjust="spacingAndGlyphs" textLength="217" x="1072.67" y="1085.4945">calibration + a periodic ground-truth</text><text fill="#888888" font-family="sans-serif" font-size="13" lengthAdjust="spacingAndGlyphs" textLength="289" x="1036.67" y="1103.2005">comparison against a reference/gold annotation</text><text fill="#888888" font-family="sans-serif" font-size="13" lengthAdjust="spacingAndGlyphs" textLength="268" x="1047.17" y="1120.9065">set (catches an over-broad TRIVIAL fast-path)</text><!--MD5=[5c52c7cfda4dca422515e130ec06fc54]
link A_coordinator to A_architect--><path d="M848.41,771.8834 C865.32,713.6434 922.91,542.2934 1035.67,457.7734 C1179.68,349.8234 1392.4,320.1434 1523.09,312.5634 " fill="none" id="A_coordinator-&gt;A_architect" style="stroke: #0000FF; stroke-width: 1.0;"/><polygon fill="#0000FF" points="1527.74,312.3034,1518.5265,308.8234,1522.7481,312.5886,1518.9829,316.8103,1527.74,312.3034" style="stroke: #0000FF; stroke-width: 1.0;"/><text fill="#888888" font-family="sans-serif" font-size="13" lengthAdjust="spacingAndGlyphs" textLength="239" x="1061.67" y="212.9704">catches: its claims are read OFF the code</text><text fill="#888888" font-family="sans-serif" font-size="13" lengthAdjust="spacingAndGlyphs" textLength="257" x="1052.67" y="230.6764">(endogenous), so a functional PASS against</text><text fill="#888888" font-family="sans-serif" font-size="13" lengthAdjust="spacingAndGlyphs" textLength="219" x="1071.67" y="248.3824">them is self-consistency mistaken for</text><text fill="#888888" font-family="sans-serif" font-size="13" lengthAdjust="spacingAndGlyphs" textLength="194" x="1084.17" y="266.0885">conformance — via Gate A_top +</text><text fill="#888888" font-family="sans-serif" font-size="13" lengthAdjust="spacingAndGlyphs" textLength="272" x="1045.17" y="283.7945">endogeneity_flags: functional audit claims are</text><text fill="#888888" font-family="sans-serif" font-size="13" lengthAdjust="spacingAndGlyphs" textLength="269" x="1046.67" y="301.5005">recorded as self-consistency; only exogenous</text><text fill="#888888" font-family="sans-serif" font-size="13" lengthAdjust="spacingAndGlyphs" textLength="267" x="1047.67" y="319.2065">safety/robustness is claimed as conformance</text><text fill="#888888" font-family="sans-serif" font-size="13" lengthAdjust="spacingAndGlyphs" textLength="189" x="1086.67" y="336.9125">(docs/u-provenance-ledger.md)</text><!--MD5=[3ef2f14f8a4538c0ad96b208df6734b2]
link A_coordinator to A_scheduler--><path d="M927.13,772.7534 C960.77,765.5534 999.94,757.6834 1035.67,751.7734 C1164.24,730.5134 1204.5,761.1334 1326.67,715.7734 C1341.69,710.1934 1342.54,703.3434 1356.67,695.7734 C1429.63,656.6934 1518.37,621.5134 1576.72,599.9334 " fill="none" id="A_coordinator-&gt;A_scheduler" style="stroke: #0000FF; stroke-width: 1.0;"/><polygon fill="#0000FF" points="1581.21,598.2834,1571.3818,597.6455,1576.519,600.0139,1574.1506,605.1511,1581.21,598.2834" style="stroke: #0000FF; stroke-width: 1.0;"/><text fill="#888888" font-family="sans-serif" font-size="13" lengthAdjust="spacingAndGlyphs" textLength="266" x="1048.17" y="640.6704">catches: a wrong topo-order (a callee verified</text><text fill="#888888" font-family="sans-serif" font-size="13" lengthAdjust="spacingAndGlyphs" textLength="202" x="1080.17" y="658.3764">before it is proven, or a file silently</text><text fill="#888888" font-family="sans-serif" font-size="13" lengthAdjust="spacingAndGlyphs" textLength="207" x="1077.67" y="676.0824">skipped) — via the leaf-first order +</text><text fill="#888888" font-family="sans-serif" font-size="13" lengthAdjust="spacingAndGlyphs" textLength="245" x="1058.67" y="693.7885">cross-unit Gate B_top (each callee proven</text><text fill="#888888" font-family="sans-serif" font-size="13" lengthAdjust="spacingAndGlyphs" textLength="245" x="1058.67" y="711.4945">before its callers; no in-scope file skipped)</text><!--MD5=[95bdff730416c3045c723b1011179378]
link A_disjoint_base to A_coordinator--><path d="M336.64,791.7734 C467.28,791.7734 645.06,791.7734 750.92,791.7734 " fill="none" id="A_disjoint_base-&gt;A_coordinator" style="stroke: #0000FF; stroke-width: 1.0;"/><polygon fill="#0000FF" points="755.65,791.7734,746.65,787.7734,750.65,791.7734,746.65,795.7734,755.65,791.7734" style="stroke: #0000FF; stroke-width: 1.0;"/><text fill="#888888" font-family="sans-serif" font-size="13" lengthAdjust="spacingAndGlyphs" textLength="257" x="378.83" y="716.6704">catches: its own editorial judgment and the</text><text fill="#888888" font-family="sans-serif" font-size="13" lengthAdjust="spacingAndGlyphs" textLength="210" x="402.33" y="734.3764">top loop's OWN learned skills — via</text><text fill="#888888" font-family="sans-serif" font-size="13" lengthAdjust="spacingAndGlyphs" textLength="280" x="367.33" y="752.0824">cross-provider / human review — the recursion</text><text fill="#888888" font-family="sans-serif" font-size="13" lengthAdjust="spacingAndGlyphs" textLength="236" x="389.33" y="769.7885">stops at an external reviewer (sl-auditor</text><text fill="#888888" font-family="sans-serif" font-size="13" lengthAdjust="spacingAndGlyphs" textLength="78" x="468.33" y="787.4945">Dimension 8)</text><rect fill="#DDDDDD" height="261.8829" rx="5" ry="5" style="stroke: #000000; stroke-width: 1.0;" width="569.3333" x="3373.6667" y="1399.4434"/><text fill="#000000" font-family="sans-serif" font-size="14" font-weight="bold" lengthAdjust="spacingAndGlyphs" textLength="46" x="3383.6667" y="1421.4093">Colour</text><text fill="#000000" font-family="sans-serif" font-size="14" font-weight="bold" lengthAdjust="spacingAndGlyphs" textLength="0" x="3441.6667" y="1421.4093"/><text fill="#000000" font-family="sans-serif" font-size="14" font-weight="bold" lengthAdjust="spacingAndGlyphs" textLength="60" x="3457" y="1421.4093">Meaning</text><rect fill="#E8541E" height="19.0679" style="stroke: none; stroke-width: 1.0;" width="54" x="3379.6667" y="1425.5113"/><text fill="#000000" font-family="sans-serif" font-size="14" lengthAdjust="spacingAndGlyphs" textLength="0" x="3383.6667" y="1440.4772"/><text fill="#000000" font-family="sans-serif" font-size="14" lengthAdjust="spacingAndGlyphs" textLength="0" x="3437.6667" y="1440.4772"/><path d="M3443.3333,1431.7459 C3440.7632,1431.7459 3438.6667,1433.8424 3438.6667,1436.4126 C3438.6667,1438.9827 3440.7632,1441.0792 3443.3333,1441.0792 C3445.9035,1441.0792 3448,1438.9827 3448,1436.4126 C3448,1433.8424 3445.9035,1431.7459 3443.3333,1431.7459 M3443.3333,1432.9126 C3445.2735,1432.9126 3446.8333,1434.4724 3446.8333,1436.4126 C3446.8333,1438.3527 3445.2735,1439.9126 3443.3333,1439.9126 C3441.3932,1439.9126 3439.8333,1438.3527 3439.8333,1436.4126 C3439.8333,1434.4724 3441.3932,1432.9126 3443.3333,1432.9126 M3445.6667,1434.0792 L3442.1667,1435.2459 L3441,1438.7459 L3444.5,1437.5792 L3445.6667,1434.0792 M3443.3333,1435.8292 C3443.66,1435.8292 3443.9167,1436.0859 3443.9167,1436.4126 C3443.9167,1436.7392 3443.66,1436.9959 3443.3333,1436.9959 C3443.0067,1436.9959 3442.75,1436.7392 3442.75,1436.4126 C3442.75,1436.0859 3443.0067,1435.8292 3443.3333,1435.8292 " fill="#000000" style="stroke: ; stroke-width: 0.0; stroke-dasharray: ;"/><text fill="#000000" font-family="sans-serif" font-size="14" lengthAdjust="spacingAndGlyphs" textLength="0" x="3453" y="1440.4772"/><text fill="#000000" font-family="sans-serif" font-size="14" lengthAdjust="spacingAndGlyphs" textLength="80" x="3457" y="1440.4772">Coordinator</text><rect fill="#E8541E" height="19.0679" style="stroke: none; stroke-width: 1.0;" width="54" x="3379.6667" y="1444.5792"/><text fill="#000000" font-family="sans-serif" font-size="14" lengthAdjust="spacingAndGlyphs" textLength="0" x="3383.6667" y="1459.5452"/><text fill="#000000" font-family="sans-serif" font-size="14" lengthAdjust="spacingAndGlyphs" textLength="0" x="3437.6667" y="1459.5452"/><path d="M3443.3695,1451.9805 C3440.4178,1451.9805 3438.6667,1455.4805 3438.6667,1455.4805 C3438.6667,1455.4805 3440.4178,1458.9805 3443.3695,1458.9805 C3446.2512,1458.9805 3448,1455.4805 3448,1455.4805 C3448,1455.4805 3446.2512,1451.9805 3443.3695,1451.9805 M3443.3333,1453.1471 C3444.6167,1453.1471 3445.6667,1454.1971 3445.6667,1455.4805 C3445.6667,1456.7638 3444.6167,1457.8138 3443.3333,1457.8138 C3442.05,1457.8138 3441,1456.7638 3441,1455.4805 C3441,1454.1971 3442.05,1453.1471 3443.3333,1453.1471 M3443.3333,1454.3138 C3442.6917,1454.3138 3442.1667,1454.8388 3442.1667,1455.4805 C3442.1667,1456.1221 3442.6917,1456.6471 3443.3333,1456.6471 C3443.975,1456.6471 3444.5,1456.1221 3444.5,1455.4805 C3444.5,1455.3638 3444.4627,1455.2576 3444.4265,1455.1526 C3444.3332,1455.3393 3444.15,1455.4805 3443.9155,1455.4805 C3443.5888,1455.4805 3443.3322,1455.2238 3443.3322,1454.8971 C3443.3322,1454.6638 3443.4733,1454.4806 3443.66,1454.3861 C3443.555,1454.3511 3443.4488,1454.3126 3443.3322,1454.3126 " fill="#000000" style="stroke: ; stroke-width: 0.0; stroke-dasharray: ;"/><text fill="#000000" font-family="sans-serif" font-size="14" lengthAdjust="spacingAndGlyphs" textLength="0" x="3453" y="1459.5452"/><text fill="#000000" font-family="sans-serif" font-size="14" lengthAdjust="spacingAndGlyphs" textLength="53" x="3457" y="1459.5452">Monitor</text><rect fill="#E8541E" height="19.0679" style="stroke: none; stroke-width: 1.0;" width="54" x="3379.6667" y="1463.6471"/><text fill="#000000" font-family="sans-serif" font-size="14" lengthAdjust="spacingAndGlyphs" textLength="0" x="3383.6667" y="1478.6131"/><text fill="#000000" font-family="sans-serif" font-size="14" lengthAdjust="spacingAndGlyphs" textLength="0" x="3437.6667" y="1478.6131"/><path d="M3443.3333,1469.8817 C3442.0442,1469.8817 3441,1471.1872 3441,1472.7984 C3441,1474.4096 3442.0442,1475.7151 3443.3333,1475.7151 C3444.6225,1475.7151 3445.6667,1474.4096 3445.6667,1472.7984 C3445.6667,1471.1872 3444.6225,1469.8817 3443.3333,1469.8817 M3440.8903,1475.7151 C3439.642,1475.7617 3438.6667,1476.7884 3438.6667,1478.0484 L3438.6667,1479.2151 L3448,1479.2151 L3448,1478.0484 C3448,1476.7884 3447.0247,1475.7617 3445.7763,1475.7151 C3445.1463,1476.4267 3444.2783,1476.8817 3443.3333,1476.8817 C3442.3883,1476.8817 3441.5203,1476.4267 3440.8903,1475.7151 " fill="#000000" style="stroke: ; stroke-width: 0.0; stroke-dasharray: ;"/><text fill="#000000" font-family="sans-serif" font-size="14" lengthAdjust="spacingAndGlyphs" textLength="0" x="3453" y="1478.6131"/><text fill="#000000" font-family="sans-serif" font-size="14" lengthAdjust="spacingAndGlyphs" textLength="87" x="3457" y="1478.6131">Disjoint base</text><rect fill="#E8541E" height="19.0679" style="stroke: none; stroke-width: 1.0;" width="54" x="3379.6667" y="1482.7151"/><text fill="#000000" font-family="sans-serif" font-size="14" lengthAdjust="spacingAndGlyphs" textLength="0" x="3383.6667" y="1497.681"/><text fill="#000000" font-family="sans-serif" font-size="14" lengthAdjust="spacingAndGlyphs" textLength="0" x="3437.6667" y="1497.681"/><path d="M3443.3333,1488.9496 C3442.0442,1488.9496 3441,1490.2551 3441,1491.8663 C3441,1493.4775 3442.0442,1494.783 3443.3333,1494.783 C3444.6225,1494.783 3445.6667,1493.4775 3445.6667,1491.8663 C3445.6667,1490.2551 3444.6225,1488.9496 3443.3333,1488.9496 M3440.8903,1494.783 C3439.642,1494.8296 3438.6667,1495.8563 3438.6667,1497.1163 L3438.6667,1498.283 L3448,1498.283 L3448,1497.1163 C3448,1495.8563 3447.0247,1494.8296 3445.7763,1494.783 C3445.1463,1495.4946 3444.2783,1495.9496 3443.3333,1495.9496 C3442.3883,1495.9496 3441.5203,1495.4946 3440.8903,1494.783 " fill="#000000" style="stroke: ; stroke-width: 0.0; stroke-dasharray: ;"/><text fill="#000000" font-family="sans-serif" font-size="14" lengthAdjust="spacingAndGlyphs" textLength="0" x="3453" y="1497.681"/><text fill="#000000" font-family="sans-serif" font-size="14" lengthAdjust="spacingAndGlyphs" textLength="40" x="3457" y="1497.681">Agent</text><rect fill="#4E8FE8" height="19.0679" style="stroke: none; stroke-width: 1.0;" width="54" x="3379.6667" y="1501.783"/><text fill="#000000" font-family="sans-serif" font-size="14" lengthAdjust="spacingAndGlyphs" textLength="0" x="3383.6667" y="1516.7489"/><text fill="#000000" font-family="sans-serif" font-size="14" lengthAdjust="spacingAndGlyphs" textLength="0" x="3437.6667" y="1516.7489"/><path d="M3440.4167,1508.0176 C3439.4507,1508.0176 3438.6667,1508.8016 3438.6667,1509.7676 C3438.6667,1510.5329 3439.1497,1511.1699 3439.8333,1511.4079 L3439.8333,1513.9606 C3439.1497,1514.1986 3438.6667,1514.8356 3438.6667,1515.6009 C3438.6667,1516.5669 3439.4507,1517.3509 3440.4167,1517.3509 C3441.3827,1517.3509 3442.1667,1516.5669 3442.1667,1515.6009 C3442.1667,1514.9067 3441.7688,1514.3164 3441.182,1514.0329 C3441.287,1513.9279 3441.4212,1513.8509 3441.5833,1513.8509 L3443.9167,1513.8509 C3444.8768,1513.8509 3445.6667,1513.0611 3445.6667,1512.1009 L3445.6667,1511.4079 C3446.3503,1511.1699 3446.8333,1510.5329 3446.8333,1509.7676 C3446.8333,1508.8016 3446.0493,1508.0176 3445.0833,1508.0176 C3444.1173,1508.0176 3443.3333,1508.8016 3443.3333,1509.7676 C3443.3333,1510.5329 3443.8163,1511.1699 3444.5,1511.4079 L3444.5,1512.1009 C3444.5,1512.4241 3444.2398,1512.6842 3443.9167,1512.6842 L3441.5833,1512.6842 C3441.3838,1512.6842 3441.1797,1512.7309 3441,1512.7939 L3441,1511.4079 C3441.6837,1511.1699 3442.1667,1510.5329 3442.1667,1509.7676 C3442.1667,1508.8016 3441.3827,1508.0176 3440.4167,1508.0176 " fill="#000000" style="stroke: ; stroke-width: 0.0; stroke-dasharray: ;"/><text fill="#000000" font-family="sans-serif" font-size="14" lengthAdjust="spacingAndGlyphs" textLength="0" x="3453" y="1516.7489"/><text fill="#000000" font-family="sans-serif" font-size="14" lengthAdjust="spacingAndGlyphs" textLength="190" x="3457" y="1516.7489">Monitored sub-loop (bridge)</text><rect fill="#C9E7CB" height="19.0679" style="stroke: none; stroke-width: 1.0;" width="54" x="3379.6667" y="1520.8509"/><text fill="#000000" font-family="sans-serif" font-size="14" lengthAdjust="spacingAndGlyphs" textLength="0" x="3383.6667" y="1535.8168"/><text fill="#000000" font-family="sans-serif" font-size="14" lengthAdjust="spacingAndGlyphs" textLength="0" x="3437.6667" y="1535.8168"/><path d="M3438.6667,1527.0855 L3438.6667,1536.4188 L3446.8333,1536.4188 L3446.8333,1531.7521 L3442.1667,1531.7521 L3442.1667,1527.0855 L3438.6667,1527.0855 M3443.3333,1527.0855 L3443.3333,1530.5855 L3446.8333,1530.5855 L3443.3333,1527.0855 M3439.8333,1529.4188 L3441,1529.4188 L3441,1530.5855 L3439.8333,1530.5855 L3439.8333,1529.4188 M3439.8333,1531.7521 L3441,1531.7521 L3441,1532.9188 L3439.8333,1532.9188 L3439.8333,1531.7521 M3439.8333,1534.0855 L3444.5,1534.0855 L3444.5,1535.2521 L3439.8333,1535.2521 L3439.8333,1534.0855 " fill="#000000" style="stroke: ; stroke-width: 0.0; stroke-dasharray: ;"/><text fill="#000000" font-family="sans-serif" font-size="14" lengthAdjust="spacingAndGlyphs" textLength="0" x="3453" y="1535.8168"/><text fill="#000000" font-family="sans-serif" font-size="14" lengthAdjust="spacingAndGlyphs" textLength="251" x="3457" y="1535.8168">Soft authority — transcribed/external</text><rect fill="#C9E7CB" height="19.0679" style="stroke: none; stroke-width: 1.0;" width="54" x="3379.6667" y="1539.9188"/><text fill="#000000" font-family="sans-serif" font-size="14" lengthAdjust="spacingAndGlyphs" textLength="0" x="3383.6667" y="1554.8848"/><text fill="#000000" font-family="sans-serif" font-size="14" lengthAdjust="spacingAndGlyphs" textLength="0" x="3437.6667" y="1554.8848"/><path d="M3445.6667,1546.1534 L3444.5,1547.3201 L3446.8333,1549.6534 L3448,1548.4867 L3445.6667,1546.1534 M3443.3333,1548.4867 L3438.6667,1553.1534 L3438.6667,1555.4867 L3441,1555.4867 L3445.6667,1550.8201 L3443.3333,1548.4867 " fill="#000000" style="stroke: ; stroke-width: 0.0; stroke-dasharray: ;"/><text fill="#000000" font-family="sans-serif" font-size="14" lengthAdjust="spacingAndGlyphs" textLength="0" x="3453" y="1554.8848"/><text fill="#000000" font-family="sans-serif" font-size="14" lengthAdjust="spacingAndGlyphs" textLength="175" x="3457" y="1554.8848">Soft authority — authored</text><rect fill="#F3CBD0" height="19.0679" style="stroke: none; stroke-width: 1.0;" width="54" x="3379.6667" y="1558.9867"/><text fill="#000000" font-family="sans-serif" font-size="14" lengthAdjust="spacingAndGlyphs" textLength="0" x="3383.6667" y="1573.9527"/><text fill="#000000" font-family="sans-serif" font-size="14" lengthAdjust="spacingAndGlyphs" textLength="0" x="3437.6667" y="1573.9527"/><path d="M3442.75,1565.2213 L3442.1667,1566.6073 L3441.8388,1566.7531 L3440.4528,1566.1698 L3439.614,1567.0086 L3440.1973,1568.3946 L3440.0515,1568.7225 L3438.6655,1569.3058 L3438.6655,1570.4725 L3440.0515,1571.0558 L3440.1973,1571.421 L3439.614,1572.7696 L3440.4528,1573.6085 L3441.8388,1573.0251 L3442.1667,1573.171 L3442.75,1574.557 L3443.9167,1574.557 L3444.5,1573.171 L3444.8278,1573.0251 L3446.2138,1573.6085 L3447.0527,1572.7696 L3446.4693,1571.3836 L3446.6152,1571.0558 L3448.0012,1570.4725 L3448.0012,1569.3058 L3446.6152,1568.7225 L3446.4693,1568.3946 L3447.0165,1567.0086 L3446.2138,1566.1698 L3444.8278,1566.7531 L3444.5,1566.6073 L3443.9167,1565.2213 L3442.75,1565.2213 M3443.3333,1568.138 C3444.3017,1568.138 3445.0833,1568.9196 3445.0833,1569.888 C3445.0833,1570.8563 3444.3017,1571.638 3443.3333,1571.638 C3442.365,1571.638 3441.5833,1570.8563 3441.5833,1569.888 C3441.5833,1568.9196 3442.365,1568.138 3443.3333,1568.138 " fill="#000000" style="stroke: ; stroke-width: 0.0; stroke-dasharray: ;"/><text fill="#000000" font-family="sans-serif" font-size="14" lengthAdjust="spacingAndGlyphs" textLength="0" x="3453" y="1573.9527"/><text fill="#000000" font-family="sans-serif" font-size="14" lengthAdjust="spacingAndGlyphs" textLength="253" x="3457" y="1573.9527">Executable oracle — point/recompute</text><rect fill="#E2E2E2" height="19.0679" style="stroke: none; stroke-width: 1.0;" width="54" x="3379.6667" y="1578.0546"/><text fill="#000000" font-family="sans-serif" font-size="14" lengthAdjust="spacingAndGlyphs" textLength="0" x="3383.6667" y="1593.0206"/><text fill="#000000" font-family="sans-serif" font-size="14" lengthAdjust="spacingAndGlyphs" textLength="0" x="3437.6667" y="1593.0206"/><path d="M3438.6667,1584.2892 L3438.6667,1585.4559 L3448,1585.4559 L3448,1584.2892 L3438.6667,1584.2892 M3438.6667,1586.6226 L3438.6667,1593.5129 C3438.6667,1593.5829 3438.7063,1593.6226 3438.7763,1593.6226 L3447.8915,1593.6226 C3447.9615,1593.6226 3448.0012,1593.5829 3448.0012,1593.5129 L3448.0012,1586.6226 L3444.5373,1586.6226 L3444.5373,1587.8254 L3442.1678,1587.8254 L3442.1678,1586.6226 L3438.6678,1586.6226 " fill="#000000" style="stroke: ; stroke-width: 0.0; stroke-dasharray: ;"/><text fill="#000000" font-family="sans-serif" font-size="14" lengthAdjust="spacingAndGlyphs" textLength="0" x="3453" y="1593.0206"/><text fill="#000000" font-family="sans-serif" font-size="14" lengthAdjust="spacingAndGlyphs" textLength="49" x="3457" y="1593.0206">Artifact</text><rect fill="#D98080" height="19.0679" style="stroke: none; stroke-width: 1.0;" width="54" x="3379.6667" y="1597.1226"/><text fill="#000000" font-family="sans-serif" font-size="14" lengthAdjust="spacingAndGlyphs" textLength="0" x="3383.6667" y="1612.0885"/><text fill="#000000" font-family="sans-serif" font-size="14" lengthAdjust="spacingAndGlyphs" textLength="0" x="3437.6667" y="1612.0885"/><path d="M3443.3333,1603.3571 C3440.7632,1603.3571 3438.6667,1605.4536 3438.6667,1608.0238 C3438.6667,1610.594 3440.7632,1612.6905 3443.3333,1612.6905 C3445.9035,1612.6905 3448,1610.594 3448,1608.0238 C3448,1605.4536 3445.9035,1603.3571 3443.3333,1603.3571 M3443.3333,1604.5238 C3444.0975,1604.5238 3444.801,1604.7676 3445.375,1605.1806 L3440.489,1610.0666 C3440.0772,1609.4926 3439.8322,1608.7891 3439.8322,1608.025 C3439.8322,1606.0848 3441.392,1604.525 3443.3322,1604.525 M3446.1765,1605.9833 C3446.5883,1606.5573 3446.8333,1607.2608 3446.8333,1608.025 C3446.8333,1609.9651 3445.2735,1611.525 3443.3333,1611.525 C3442.5692,1611.525 3441.8657,1611.2811 3441.2917,1610.8681 L3446.1777,1605.9821 " fill="#000000" style="stroke: ; stroke-width: 0.0; stroke-dasharray: ;"/><text fill="#000000" font-family="sans-serif" font-size="14" lengthAdjust="spacingAndGlyphs" textLength="0" x="3453" y="1612.0885"/><text fill="#000000" font-family="sans-serif" font-size="14" lengthAdjust="spacingAndGlyphs" textLength="164" x="3457" y="1612.0885">Rationale (must-not-see)</text><rect fill="#D9D2E9" height="19.0679" style="stroke: none; stroke-width: 1.0;" width="54" x="3379.6667" y="1616.1905"/><text fill="#000000" font-family="sans-serif" font-size="14" lengthAdjust="spacingAndGlyphs" textLength="0" x="3383.6667" y="1631.1564"/><text fill="#000000" font-family="sans-serif" font-size="14" lengthAdjust="spacingAndGlyphs" textLength="0" x="3437.6667" y="1631.1564"/><path d="M3443.3333,1622.4251 C3442.0442,1622.4251 3441,1623.7306 3441,1625.3417 C3441,1626.9529 3442.0442,1628.2584 3443.3333,1628.2584 C3444.6225,1628.2584 3445.6667,1626.9529 3445.6667,1625.3417 C3445.6667,1623.7306 3444.6225,1622.4251 3443.3333,1622.4251 M3440.8903,1628.2584 C3439.642,1628.3051 3438.6667,1629.3317 3438.6667,1630.5917 L3438.6667,1631.7584 L3448,1631.7584 L3448,1630.5917 C3448,1629.3317 3447.0247,1628.3051 3445.7763,1628.2584 C3445.1463,1628.9701 3444.2783,1629.4251 3443.3333,1629.4251 C3442.3883,1629.4251 3441.5203,1628.9701 3440.8903,1628.2584 " fill="#000000" style="stroke: ; stroke-width: 0.0; stroke-dasharray: ;"/><text fill="#000000" font-family="sans-serif" font-size="14" lengthAdjust="spacingAndGlyphs" textLength="0" x="3453" y="1631.1564"/><text fill="#000000" font-family="sans-serif" font-size="14" lengthAdjust="spacingAndGlyphs" textLength="119" x="3457" y="1631.1564">Human judgment</text><rect fill="#FFFFFF" height="19.0679" style="stroke: none; stroke-width: 1.0;" width="54" x="3379.6667" y="1635.2584"/><text fill="#000000" font-family="sans-serif" font-size="14" lengthAdjust="spacingAndGlyphs" textLength="0" x="3383.6667" y="1650.2243"/><text fill="#000000" font-family="sans-serif" font-size="14" lengthAdjust="spacingAndGlyphs" textLength="0" x="3437.6667" y="1650.2243"/><path d="M3442.2763,1641.493 C3442.2063,1641.493 3442.1538,1641.5443 3442.1305,1641.6027 L3438.7028,1649.5512 L3438.6667,1649.7705 L3438.6667,1650.719 C3438.6667,1650.789 3438.7063,1650.8287 3438.7763,1650.8287 L3446.7248,1650.8287 C3446.7948,1650.8287 3446.8345,1650.789 3446.8345,1650.719 L3446.8345,1649.7705 L3446.7983,1649.5512 L3443.3707,1641.6027 C3443.3473,1641.5443 3443.2948,1641.493 3443.2248,1641.493 L3442.2763,1641.493 M3442.1667,1644.993 L3443.3333,1644.993 L3443.3333,1647.3263 L3442.1667,1647.3263 L3442.1667,1644.993 M3442.1667,1648.493 L3443.3333,1648.493 L3443.3333,1649.6597 L3442.1667,1649.6597 L3442.1667,1648.493 " fill="#000000" style="stroke: ; stroke-width: 0.0; stroke-dasharray: ;"/><text fill="#000000" font-family="sans-serif" font-size="14" lengthAdjust="spacingAndGlyphs" textLength="0" x="3453" y="1650.2243"/><text fill="#000000" font-family="sans-serif" font-size="14" lengthAdjust="spacingAndGlyphs" textLength="476" x="3457" y="1650.2243">Endogenous overlay (dashed red border — bound read off the artifact)</text><line style="stroke: #000000; stroke-width: 1.0;" x1="3379.6667" x2="3937" y1="1406.4434" y2="1406.4434"/><line style="stroke: #000000; stroke-width: 1.0;" x1="3379.6667" x2="3937" y1="1425.5113" y2="1425.5113"/><line style="stroke: #000000; stroke-width: 1.0;" x1="3379.6667" x2="3937" y1="1444.5792" y2="1444.5792"/><line style="stroke: #000000; stroke-width: 1.0;" x1="3379.6667" x2="3937" y1="1463.6471" y2="1463.6471"/><line style="stroke: #000000; stroke-width: 1.0;" x1="3379.6667" x2="3937" y1="1482.7151" y2="1482.7151"/><line style="stroke: #000000; stroke-width: 1.0;" x1="3379.6667" x2="3937" y1="1501.783" y2="1501.783"/><line style="stroke: #000000; stroke-width: 1.0;" x1="3379.6667" x2="3937" y1="1520.8509" y2="1520.8509"/><line style="stroke: #000000; stroke-width: 1.0;" x1="3379.6667" x2="3937" y1="1539.9188" y2="1539.9188"/><line style="stroke: #000000; stroke-width: 1.0;" x1="3379.6667" x2="3937" y1="1558.9867" y2="1558.9867"/><line style="stroke: #000000; stroke-width: 1.0;" x1="3379.6667" x2="3937" y1="1578.0546" y2="1578.0546"/><line style="stroke: #000000; stroke-width: 1.0;" x1="3379.6667" x2="3937" y1="1597.1226" y2="1597.1226"/><line style="stroke: #000000; stroke-width: 1.0;" x1="3379.6667" x2="3937" y1="1616.1905" y2="1616.1905"/><line style="stroke: #000000; stroke-width: 1.0;" x1="3379.6667" x2="3937" y1="1635.2584" y2="1635.2584"/><line style="stroke: #000000; stroke-width: 1.0;" x1="3379.6667" x2="3937" y1="1654.3263" y2="1654.3263"/><line style="stroke: #000000; stroke-width: 1.0;" x1="3379.6667" x2="3379.6667" y1="1406.4434" y2="1654.3263"/><line style="stroke: #000000; stroke-width: 1.0;" x1="3433.6667" x2="3433.6667" y1="1406.4434" y2="1654.3263"/><line style="stroke: #000000; stroke-width: 1.0;" x1="3453" x2="3453" y1="1406.4434" y2="1654.3263"/><line style="stroke: #000000; stroke-width: 1.0;" x1="3937" x2="3937" y1="1406.4434" y2="1654.3263"/><!--MD5=[18e8418eb95c5560bfc4dc06007c20da]
@startuml creusot-monitoring
title creusot-monitoring (monitor)\n<size:11><i>guards against: a crate that LOOKS verified because each file went green, but</i></size>\n<size:11><i>where the base loop strengthened a contract for local convenience that is</i></size>\n<size:11><i>globally or guidance-wrong (e.g. specified network behaviour the guidance said</i></size>\n<size:11><i>to disregard).</i></size>
left to right direction
skinparam rectangleBorderColor #555
skinparam shadowing false
skinparam ArrowFontColor #888888
skinparam TitleFontColor #888888

rectangle "<&compass> Mission coordinator" as A_coordinator #E8541E
rectangle "<&person> Architect / auditor (Phase 0)" as A_architect #E8541E
rectangle "<&person> Scheduler / graph planner" as A_scheduler #E8541E
rectangle "<&eye> Base-SL monitor (sl-monitoring-sl Gate S)" as A_monitor #E8541E
rectangle "<&fork> Bridge -> a creusot-sl instance (run as a sub-agent, one per file)" as A_sub_creusot_sl #4E8FE8
rectangle "<&person> Cross-provider / human reviewer (terminus)" as A_disjoint_base #E8541E

rectangle "<&pencil> Mission guidance + scope (analyze crate xxx in dir yyy; e.g. 'specify thoroughly; disregard network access')" as S_mission_guidance #C9E7CB
rectangle "<&document> The system's own documented intent (docstrings / README the architect reads)" as S_system_intent #C9E7CB
rectangle "<&warning> <&document> Phase-0 architectural-audit claims (properties the system asserts about itself)" as S_architecture_audit_claims #C9E7CB;line:red;line.dashed
rectangle "<&box> The crate's source (read-only, for the architect's Phase-0 audit)" as S_impl_source #E2E2E2
rectangle "<&cog> Actual dependency graph (cargo metadata + module/use graph + compile)" as S_dep_graph_oracle #F3CBD0
rectangle "<&cog> The creusot-sl machine verdicts returned across the sub-loop boundary + cross-unit cargo creusot discharge + linked cargo test" as S_base_oracle #F3CBD0
rectangle "<&box> The per-crate plan, file schedule decisions, and gate verdicts" as S_crate_plan #E2E2E2
rectangle "<&box> The leaf-first topo-order refined by the audit value/risk ranking; the parallelizable-independent set" as S_file_schedule #E2E2E2
rectangle "<&box> Creusot-amenability scope map (amenable vs out-of-reach: FFI/firmware/external-crate)" as S_scope_map #E2E2E2
rectangle "<&box> Value/risk ranking that focuses the schedule (e.g. attack-surface-first)" as S_value_risk_ranking #E2E2E2
rectangle "<&box> The base loop's consolidated skill / inferred-or-strengthened contract (soft output under test)" as S_base_skill #E2E2E2
rectangle "<&ban> The base agent's private rationale for the skill/contract" as S_base_rationale #D98080
rectangle "<&box> Gate S verdict on each base skill/inferred contract (PASS / CARVE-OUT / REJECT)" as S_skill_verdict #E2E2E2
rectangle "<&box> The top loop's OWN learned skills (coordinator / scheduler / monitor heuristics)" as S_top_learned_skill #E2E2E2
rectangle "<&person> Cross-provider / human reviewer judgment" as S_external_review #D9D2E9

A_coordinator - -> S_mission_guidance : U
A_coordinator - -> S_architecture_audit_claims : U
A_coordinator - -> S_base_oracle : L
A_coordinator ..> S_crate_plan : produces
A_coordinator ..> S_top_learned_skill : produces
A_architect - -> S_mission_guidance : U
A_architect - -> S_system_intent : U
A_architect - -> S_impl_source : L
A_architect ..> S_architecture_audit_claims : produces
A_architect ..> S_scope_map : produces
A_architect ..> S_value_risk_ranking : produces
A_scheduler - -> S_mission_guidance : U
A_scheduler - -> S_value_risk_ranking : U
A_scheduler - -> S_dep_graph_oracle : L
A_scheduler ..> S_file_schedule : produces
A_monitor - -> S_mission_guidance : U
A_monitor - -> S_base_oracle : L
A_monitor ..> S_skill_verdict : produces
A_sub_creusot_sl ..> S_base_skill : produces
A_sub_creusot_sl ..> S_base_rationale : produces
A_disjoint_base - -> S_mission_guidance : U
A_disjoint_base ..> S_external_review : produces

A_coordinator -[#red,dashed]-> S_base_rationale : ✗ must not see
A_monitor -[#red,dashed]-> S_base_rationale : ✗ must not see

A_monitor -[#blue]-> A_sub_creusot_sl : catches: the base loop strengthens a contract\nfor LOCAL convenience in a way that is\nglobally or guidance-wrong (e.g. specifies\nnetwork behaviour the guidance said to\ndisregard) — via the trigger/validity test\nagainst the guidance U and the cross-unit\noracle L the base agents do not hold
A_coordinator -[#blue]-> A_monitor : catches: mis-calibration — rubber-stamping\n(flags nothing) or saturating (flags\neverything); and an over-broad coordinator\ntriage it does not police — via flag-rate\ncalibration + a periodic ground-truth\ncomparison against a reference/gold annotation\nset (catches an over-broad TRIVIAL fast-path)
A_coordinator -[#blue]-> A_architect : catches: its claims are read OFF the code\n(endogenous), so a functional PASS against\nthem is self-consistency mistaken for\nconformance — via Gate A_top +\nendogeneity_flags: functional audit claims are\nrecorded as self-consistency; only exogenous\nsafety/robustness is claimed as conformance\n(docs/u-provenance-ledger.md)
A_coordinator -[#blue]-> A_scheduler : catches: a wrong topo-order (a callee verified\nbefore it is proven, or a file silently\nskipped) — via the leaf-first order +\ncross-unit Gate B_top (each callee proven\nbefore its callers; no in-scope file skipped)
A_disjoint_base -[#blue]-> A_coordinator : catches: its own editorial judgment and the\ntop loop's OWN learned skills — via\ncross-provider / human review — the recursion\nstops at an external reviewer (sl-auditor\nDimension 8)

legend right
|= Colour |=  |= Meaning |
|<#E8541E>| <&compass> | Coordinator |
|<#E8541E>| <&eye> | Monitor |
|<#E8541E>| <&person> | Disjoint base |
|<#E8541E>| <&person> | Agent |
|<#4E8FE8>| <&fork> | Monitored sub-loop (bridge) |
|<#C9E7CB>| <&document> | Soft authority — transcribed/external |
|<#C9E7CB>| <&pencil> | Soft authority — authored |
|<#F3CBD0>| <&cog> | Executable oracle — point/recompute |
|<#E2E2E2>| <&box> | Artifact |
|<#D98080>| <&ban> | Rationale (must-not-see) |
|<#D9D2E9>| <&person> | Human judgment |
|<#FFFFFF>| <&warning> | Endogenous overlay (dashed red border — bound read off the artifact) |
endlegend
@enduml

PlantUML version 1.2020.02(Sun Mar 01 11:22:07 CET 2020)
(GPL source distribution)
Java Runtime: OpenJDK Runtime Environment
JVM: OpenJDK 64-Bit Server VM
Java Version: 25.0.3+9-2-26.04.2-Ubuntu
Operating System: Linux
Default Encoding: UTF-8
Language: en
Country: US
--></g></svg>