<?xml version="1.0" encoding="UTF-8" standalone="no"?><svg xmlns="http://www.w3.org/2000/svg" xmlns:xlink="http://www.w3.org/1999/xlink" contentScriptType="application/ecmascript" contentStyleType="text/css" height="1480px" preserveAspectRatio="none" style="width:1476px;height:1480px;" version="1.1" viewBox="0 0 1476 1480" width="1476px" zoomAndPan="magnify"><defs/><g><text fill="#888888" font-family="sans-serif" font-size="18" lengthAdjust="spacingAndGlyphs" textLength="144" x="665" y="19.2419">instance-d (base)</text><!--MD5=[16666313b46a364dfa6fcce22871d203]
entity A_sentinel--><rect fill="#E8541E" height="39.0679" style="stroke: #555555; stroke-width: 1.5;" width="205" x="6" y="871.4458"/><text fill="#000000" font-family="sans-serif" font-size="14" lengthAdjust="spacingAndGlyphs" textLength="185" x="16" y="896.4118">Gate sentinel / orchestrator</text><!--MD5=[ab9dd12809e291f4f90a71800b9f45ec]
entity A_formalizer--><rect fill="#E8541E" height="39.0679" style="stroke: #555555; stroke-width: 1.5;" width="153" x="776" y="435.4458"/><text fill="#000000" font-family="sans-serif" font-size="14" lengthAdjust="spacingAndGlyphs" textLength="133" x="786" y="460.4118">Theorem formalizer</text><!--MD5=[109e757265757af36986a9750ca24e44]
entity A_prover--><rect fill="#E8541E" height="39.0679" style="stroke: #555555; stroke-width: 1.5;" width="119" x="793" y="610.4458"/><text fill="#000000" font-family="sans-serif" font-size="14" lengthAdjust="spacingAndGlyphs" textLength="99" x="803" y="635.4118">Tactical prover</text><!--MD5=[71f63620eca0e672333d873ac415471c]
entity A_exerciser--><rect fill="#E8541E" height="39.0679" style="stroke: #555555; stroke-width: 1.5;" width="146" x="420.5" y="509.4458"/><text fill="#000000" font-family="sans-serif" font-size="14" lengthAdjust="spacingAndGlyphs" textLength="126" x="430.5" y="534.4118">Mutation exerciser</text><!--MD5=[956debff80b36a9cd1d16d6933e54298]
entity S_textbook_manifest--><rect fill="#C9E7CB" height="39.0679" style="stroke: #555555; stroke-width: 1.5;" width="373" x="1083" y="50.4458"/><text fill="#000000" font-family="sans-serif" font-size="14" lengthAdjust="spacingAndGlyphs" textLength="353" x="1093" y="75.4118">Textbook exercise manifest (English + scope clauses)</text><!--MD5=[94ea9e6b65220a12b32231281208f8b1]
entity S_rocq_stdlib--><rect fill="#F3CBD0" height="39.0679" style="stroke: #555555; stroke-width: 1.5;" width="217" x="1161" y="183.4458"/><text fill="#000000" font-family="sans-serif" font-size="14" lengthAdjust="spacingAndGlyphs" textLength="197" x="1171" y="208.4118">Pinned Rocq standard library</text><!--MD5=[7dfdfa3a63234ad402a501393237a410]
entity S_coqc--><rect fill="#F3CBD0" height="39.0679" style="stroke: #555555; stroke-width: 1.5;" width="242" x="1148.5" y="560.4458"/><text fill="#000000" font-family="sans-serif" font-size="14" lengthAdjust="spacingAndGlyphs" textLength="222" x="1158.5" y="585.4118">Rocq kernel checker (coqc 8.20.1)</text><!--MD5=[c17c9fd87390e669395e7ec3c69806f8]
entity S_rocqchk--><rect fill="#F3CBD0" height="39.0679" style="stroke: #555555; stroke-width: 1.5;" width="317" x="1111" y="1139.4458"/><text fill="#000000" font-family="sans-serif" font-size="14" lengthAdjust="spacingAndGlyphs" textLength="297" x="1121" y="1164.4118">Axiom auditor (rocqchk --print-assumptions)</text><!--MD5=[cd3177cf756c9ac38b161624a3101b22]
entity S_proof_registry--><rect fill="#F3CBD0" height="39.0679" style="stroke: #555555; stroke-width: 1.5;" width="351" x="318" y="1265.4458"/><text fill="#000000" font-family="sans-serif" font-size="14" lengthAdjust="spacingAndGlyphs" textLength="331" x="328" y="1290.4118">Prior-proofs registry + signature (invariant plane)</text><!--MD5=[e2c8e1a34a650792fc563e2072035fd0]
entity S_formal_statement--><rect fill="#E2E2E2" height="39.0679" style="stroke: #555555; stroke-width: 1.5;" width="279" x="1130" y="333.4458"/><text fill="#000000" font-family="sans-serif" font-size="14" lengthAdjust="spacingAndGlyphs" textLength="259" x="1140" y="358.4118">Formalizer's naked theorem statement</text><!--MD5=[2de61d9611206922c5cf66842c06a498]
entity S_proof_script--><rect fill="#E2E2E2" height="39.0679" style="stroke: #555555; stroke-width: 1.5;" width="165" x="1187" y="837.4458"/><text fill="#000000" font-family="sans-serif" font-size="14" lengthAdjust="spacingAndGlyphs" textLength="145" x="1197" y="862.4118">Prover's tactical proof</text><!--MD5=[7876d374d4af6b2f10f7223d159ff0a8]
entity S_mutation_matrix--><rect fill="#E2E2E2" height="39.0679" style="stroke: #555555; stroke-width: 1.5;" width="261" x="1139" y="1023.4458"/><text fill="#000000" font-family="sans-serif" font-size="14" lengthAdjust="spacingAndGlyphs" textLength="241" x="1149" y="1048.4118">Exerciser's false-theorem mutations</text><!--MD5=[6b2faa31e64a0adbe9d5707e75faa70d]
link A_sentinel to S_textbook_manifest--><path d="M111.22,871.2258 C119.26,789.5758 159.76,473.9158 318,284.9858 C504.81,61.9258 638.18,41.4258 929,49.9858 C976.73,51.3858 1028.18,53.8958 1076.24,56.6758 " fill="none" id="A_sentinel-&gt;S_textbook_manifest" style="stroke: #A80036; stroke-width: 1.0;"/><polygon fill="#A80036" points="1081.18,56.9658,1072.4229,52.4589,1076.1881,56.6806,1071.9665,60.4459,1081.18,56.9658" style="stroke: #A80036; stroke-width: 1.0;"/><text fill="#888888" font-family="sans-serif" font-size="13" lengthAdjust="spacingAndGlyphs" textLength="10" x="717.5" y="47.0629">U</text><!--MD5=[3ea5c5db710691d7a69c3b26de2ad07e]
link A_sentinel to S_rocq_stdlib--><path d="M117.05,871.2258 C160.11,761.9958 386.51,231.5758 776,82.9858 C839.53,58.7458 861.98,71.4858 929,82.9858 C1037.26,101.5558 1156.83,151.1558 1221.2,180.4458 " fill="none" id="A_sentinel-&gt;S_rocq_stdlib" style="stroke: #A80036; stroke-width: 1.0;"/><polygon fill="#A80036" points="1225.5,182.4158,1218.9898,175.0255,1220.956,180.3296,1215.6519,182.2958,1225.5,182.4158" style="stroke: #A80036; stroke-width: 1.0;"/><text fill="#888888" font-family="sans-serif" font-size="13" lengthAdjust="spacingAndGlyphs" textLength="7" x="719" y="95.5129">L</text><!--MD5=[227c5e4b4abca9d97b50c40cb01f2072]
link A_sentinel to S_coqc--><path d="M211.35,889.3158 C424.77,884.2458 910.88,864.0058 1053,783.9858 C1137.77,736.2558 1214.73,647.9458 1249.28,604.8958 " fill="none" id="A_sentinel-&gt;S_coqc" style="stroke: #A80036; stroke-width: 1.0;"/><polygon fill="#A80036" points="1252.34,601.0558,1243.6064,605.6083,1249.227,604.9685,1249.8667,610.5891,1252.34,601.0558" style="stroke: #A80036; stroke-width: 1.0;"/><text fill="#888888" font-family="sans-serif" font-size="13" lengthAdjust="spacingAndGlyphs" textLength="7" x="719" y="852.1429">L</text><!--MD5=[6ee6599303d8c7020553ec16c4e76690]
link A_sentinel to S_rocqchk--><path d="M123.7,911.0058 C153.97,951.8658 229.4,1044.2658 318,1082.9858 C575.17,1195.3658 908.58,1192.2358 1104.46,1177.2958 " fill="none" id="A_sentinel-&gt;S_rocqchk" style="stroke: #A80036; stroke-width: 1.0;"/><polygon fill="#A80036" points="1109.29,1176.9158,1100.0083,1173.622,1104.3049,1177.3015,1100.6253,1181.5981,1109.29,1176.9158" style="stroke: #A80036; stroke-width: 1.0;"/><text fill="#888888" font-family="sans-serif" font-size="13" lengthAdjust="spacingAndGlyphs" textLength="7" x="719" y="1171.1229">L</text><!--MD5=[059e02224c6e418d62e58d551c878702]
link A_sentinel to S_proof_registry--><path d="M109.83,910.9458 C112.05,973.6658 128.13,1167.8558 241,1256.9858 C261.43,1273.1158 285.87,1283.2758 311.38,1289.3758 " fill="none" id="A_sentinel-&gt;S_proof_registry" style="stroke: #A80036; stroke-width: 1.0;"/><polygon fill="#A80036" points="316.06,1290.4258,308.1584,1284.5467,311.1821,1289.3276,306.4012,1292.3513,316.06,1290.4258" style="stroke: #A80036; stroke-width: 1.0;"/><text fill="#888888" font-family="sans-serif" font-size="13" lengthAdjust="spacingAndGlyphs" textLength="7" x="261" y="1252.8829">L</text><!--MD5=[780bd8092108b5c6aa85340e27653441]
link A_sentinel to S_proof_script--><path d="M181.92,910.9758 C341.53,951.9058 734.68,1035.4058 1053,961.9858 C1120.92,946.3158 1192.2,906.2058 1233.38,880.3458 " fill="none" id="A_sentinel-&gt;S_proof_script" style="stroke: #A80036; stroke-width: 1.0;"/><polygon fill="#A80036" points="1237.47,877.7558,1227.7283,879.2046,1233.2493,880.4365,1232.0174,885.9576,1237.47,877.7558" style="stroke: #A80036; stroke-width: 1.0;"/><text fill="#888888" font-family="sans-serif" font-size="13" lengthAdjust="spacingAndGlyphs" textLength="7" x="719" y="985.9729">L</text><!--MD5=[fd8349b712112a9df42713c17a58525f]
link A_sentinel to S_mutation_matrix--><path d="M141.37,910.9958 C181.16,935.0358 252.03,974.7458 318,995.9858 C592.53,1084.3458 671.48,1074.4658 959,1096.9858 C1000.65,1100.2458 1011.54,1102.0958 1053,1096.9858 C1102.98,1090.8158 1158.05,1076.8858 1200,1064.7258 " fill="none" id="A_sentinel-&gt;S_mutation_matrix" style="stroke: #A80036; stroke-width: 1.0;"/><polygon fill="#A80036" points="1204.64,1063.3658,1194.88,1062.0458,1199.84,1064.7658,1197.12,1069.7258,1204.64,1063.3658" style="stroke: #A80036; stroke-width: 1.0;"/><text fill="#888888" font-family="sans-serif" font-size="13" lengthAdjust="spacingAndGlyphs" textLength="7" x="719" y="1074.2329">L</text><!--MD5=[3bfbb9643f8696a3f6b273ba2f7c7dc2]
link A_formalizer to S_textbook_manifest--><path d="M871.52,435.0258 C888.32,415.5458 913.12,384.4658 929,353.9858 C948.67,316.2158 934.51,297.8258 959,262.9858 C1019.92,176.3158 1133.4,120.4958 1204.72,92.2258 " fill="none" id="A_formalizer-&gt;S_textbook_manifest" style="stroke: #A80036; stroke-width: 1.0;"/><polygon fill="#A80036" points="1209.22,90.4558,1199.3807,90.0218,1204.5659,92.2832,1202.3045,97.4684,1209.22,90.4558" style="stroke: #A80036; stroke-width: 1.0;"/><text fill="#888888" font-family="sans-serif" font-size="13" lengthAdjust="spacingAndGlyphs" textLength="10" x="1001" y="169.8729">U</text><!--MD5=[2d504c45bfd37d22b7bb794c6a2fa7ee]
link A_formalizer to S_rocq_stdlib--><path d="M867.99,435.1458 C886.74,410.6158 921.45,368.8358 959,341.9858 C1034.34,288.0958 1133.9,247.9558 1199.51,225.0158 " fill="none" id="A_formalizer-&gt;S_rocq_stdlib" style="stroke: #A80036; stroke-width: 1.0;"/><polygon fill="#A80036" points="1203.92,223.4858,1194.105,222.6703,1199.1985,225.1312,1196.7376,230.2247,1203.92,223.4858" style="stroke: #A80036; stroke-width: 1.0;"/><text fill="#888888" font-family="sans-serif" font-size="13" lengthAdjust="spacingAndGlyphs" textLength="7" x="1002.5" y="285.4329">L</text><!--MD5=[5d2cab02e8df0178e8c0a22725d39729]
link A_formalizer to S_coqc--><path d="M929.04,474.9458 C966.45,485.0558 1012.22,497.7458 1053,509.9858 C1103.92,525.2658 1161.13,543.9158 1203.81,558.1258 " fill="none" id="A_formalizer-&gt;S_coqc" style="stroke: #A80036; stroke-width: 1.0;"/><polygon fill="#A80036" points="1208.29,559.6258,1201.0048,552.9982,1203.5437,558.0533,1198.4887,560.5923,1208.29,559.6258" style="stroke: #A80036; stroke-width: 1.0;"/><text fill="#888888" font-family="sans-serif" font-size="13" lengthAdjust="spacingAndGlyphs" textLength="7" x="1002.5" y="479.3829">L</text><!--MD5=[6c59756750a3fd60283a9e8c596382bc]
link A_formalizer to S_formal_statement--><path d="M879.73,435.1058 C900.21,420.6758 929.96,401.9858 959,391.9858 C1011.03,374.0558 1070.52,364.2158 1123.35,358.8658 " fill="none" id="A_formalizer-&gt;S_formal_statement" style="stroke: #A80036; stroke-width: 1.0; stroke-dasharray: 7.0,7.0;"/><polygon fill="#A80036" points="1128.26,358.3858,1118.9146,355.2774,1123.2836,358.8707,1119.6903,363.2397,1128.26,358.3858" style="stroke: #A80036; stroke-width: 1.0;"/><text fill="#888888" font-family="sans-serif" font-size="13" lengthAdjust="spacingAndGlyphs" textLength="56" x="978" y="364.9129">produces</text><!--MD5=[37c51fd36dedcfa700fcdb89e5453e5e]
link A_prover to S_formal_statement--><path d="M905.93,610.1158 C947.38,593.3458 1005.91,567.2658 1053,536.9858 C1128.75,488.2758 1206.36,415.1358 1244.43,377.4158 " fill="none" id="A_prover-&gt;S_formal_statement" style="stroke: #A80036; stroke-width: 1.0;"/><polygon fill="#A80036" points="1247.8,374.0658,1238.5934,377.5641,1244.2502,377.587,1244.2273,383.2438,1247.8,374.0658" style="stroke: #A80036; stroke-width: 1.0;"/><text fill="#888888" font-family="sans-serif" font-size="13" lengthAdjust="spacingAndGlyphs" textLength="10" x="1001" y="532.8829">U</text><!--MD5=[d3738c5fd148f613647f89cf1ddc88d9]
link A_prover to S_rocq_stdlib--><path d="M888.97,609.9558 C903.32,600.2058 918.86,587.2758 929,571.9858 C958.19,527.9558 924.13,496.6658 959,456.9858 C988.74,423.1258 1022.78,452.4058 1053,418.9858 C1084.97,383.6158 1054.01,353.8358 1083,315.9858 C1115.3,273.8058 1168.22,243.8258 1209.29,225.3958 " fill="none" id="A_prover-&gt;S_rocq_stdlib" style="stroke: #A80036; stroke-width: 1.0;"/><polygon fill="#A80036" points="1213.62,223.4858,1203.7712,223.4544,1209.0445,225.5019,1206.9969,230.7752,1213.62,223.4858" style="stroke: #A80036; stroke-width: 1.0;"/><text fill="#888888" font-family="sans-serif" font-size="13" lengthAdjust="spacingAndGlyphs" textLength="7" x="1002.5" y="414.8829">L</text><!--MD5=[d696739600bd9afa1385e2c06a42d1bc]
link A_prover to S_coqc--><path d="M912.36,631.9558 C927.56,632.3758 943.88,632.7658 959,632.9858 C1000.77,633.5758 1011.53,638.0058 1053,632.9858 C1102.4,626.9958 1156.8,613.5658 1198.59,601.7158 " fill="none" id="A_prover-&gt;S_coqc" style="stroke: #A80036; stroke-width: 1.0;"/><polygon fill="#A80036" points="1203.2,600.3958,1193.4447,599.0413,1198.3951,601.7789,1195.6576,606.7292,1203.2,600.3958" style="stroke: #A80036; stroke-width: 1.0;"/><text fill="#888888" font-family="sans-serif" font-size="13" lengthAdjust="spacingAndGlyphs" textLength="7" x="1002.5" y="628.8829">L</text><!--MD5=[f6f5270098bb266f045e8fc8abe989aa]
link A_prover to S_rocqchk--><path d="M875.11,649.9558 C892.85,667.7758 916.96,695.5358 929,724.9858 C977.21,842.8758 889.11,903.5058 959,1009.9858 C1004.36,1079.0858 1091.33,1117.0358 1161.55,1137.3158 " fill="none" id="A_prover-&gt;S_rocqchk" style="stroke: #A80036; stroke-width: 1.0;"/><polygon fill="#A80036" points="1165.98,1138.5658,1158.4029,1132.274,1161.1676,1137.2092,1156.2323,1139.9739,1165.98,1138.5658" style="stroke: #A80036; stroke-width: 1.0;"/><text fill="#888888" font-family="sans-serif" font-size="13" lengthAdjust="spacingAndGlyphs" textLength="7" x="1002.5" y="1005.8829">L</text><!--MD5=[37f59a634025063ac31fa47e3c14ff5b]
link A_prover to S_proof_script--><path d="M868.79,649.9158 C892.53,680.4258 937.72,736.6758 959,750.9858 C1026.47,796.3358 1115.24,824.1058 1180.41,839.7858 " fill="none" id="A_prover-&gt;S_proof_script" style="stroke: #A80036; stroke-width: 1.0; stroke-dasharray: 7.0,7.0;"/><polygon fill="#A80036" points="1185.17,840.9158,1177.3381,834.9442,1180.3054,839.7603,1175.4892,842.7276,1185.17,840.9158" style="stroke: #A80036; stroke-width: 1.0;"/><text fill="#888888" font-family="sans-serif" font-size="13" lengthAdjust="spacingAndGlyphs" textLength="56" x="978" y="746.8829">produces</text><!--MD5=[360efa6fb9029238809ee5ac5e27687d]
link A_exerciser to S_textbook_manifest--><path d="M503.76,509.1958 C533.55,447.9358 633.33,260.1758 776,171.9858 C865.67,116.5558 980.29,90.7258 1076.39,78.8958 " fill="none" id="A_exerciser-&gt;S_textbook_manifest" style="stroke: #A80036; stroke-width: 1.0;"/><polygon fill="#A80036" points="1081.19,78.3158,1071.7838,75.3964,1076.2243,78.9009,1072.7198,83.3414,1081.19,78.3158" style="stroke: #A80036; stroke-width: 1.0;"/><text fill="#888888" font-family="sans-serif" font-size="13" lengthAdjust="spacingAndGlyphs" textLength="10" x="847.5" y="105.4529">U</text><!--MD5=[41d7126ab934ad8bf2a479382d8e7ed0]
link A_exerciser to S_formal_statement--><path d="M530.35,508.9558 C606.44,467.7358 790.87,374.5558 959,341.9858 C1000.02,334.0358 1011.24,340.9158 1053,341.9858 C1075.78,342.5658 1099.89,343.4858 1123.43,344.5658 " fill="none" id="A_exerciser-&gt;S_formal_statement" style="stroke: #A80036; stroke-width: 1.0;"/><polygon fill="#A80036" points="1128.21,344.7858,1119.4026,340.3779,1123.2152,344.5569,1119.0363,348.3695,1128.21,344.7858" style="stroke: #A80036; stroke-width: 1.0;"/><text fill="#888888" font-family="sans-serif" font-size="13" lengthAdjust="spacingAndGlyphs" textLength="10" x="847.5" y="345.8429">U</text><!--MD5=[7a9266b60a3f23dcdfad3d541c8bee31]
link A_exerciser to S_rocq_stdlib--><path d="M520.39,509.0158 C617.16,434.4258 952.42,176.2058 959,173.9858 C1039.48,146.7558 1138.01,163.9758 1201.96,181.2758 " fill="none" id="A_exerciser-&gt;S_rocq_stdlib" style="stroke: #A80036; stroke-width: 1.0;"/><polygon fill="#A80036" points="1206.58,182.5558,1198.9636,176.3116,1201.7592,181.2294,1196.8413,184.0249,1206.58,182.5558" style="stroke: #A80036; stroke-width: 1.0;"/><text fill="#888888" font-family="sans-serif" font-size="13" lengthAdjust="spacingAndGlyphs" textLength="7" x="849" y="193.8429">L</text><!--MD5=[8b75eaff08f79f18ce936f5c570642b3]
link A_exerciser to S_coqc--><path d="M566.93,529.6558 C673.57,531.1358 878.99,535.8758 1053,550.9858 C1081.88,553.4858 1112.82,557.0958 1141.99,560.9258 " fill="none" id="A_exerciser-&gt;S_coqc" style="stroke: #A80036; stroke-width: 1.0;"/><polygon fill="#A80036" points="1146.69,561.5458,1138.2937,556.3978,1141.7334,560.8888,1137.2424,564.3284,1146.69,561.5458" style="stroke: #A80036; stroke-width: 1.0;"/><text fill="#888888" font-family="sans-serif" font-size="13" lengthAdjust="spacingAndGlyphs" textLength="7" x="849" y="531.0029">L</text><!--MD5=[22ce9bbb52a778dbdb960520f08344be]
link A_exerciser to S_mutation_matrix--><path d="M499.91,548.9058 C520.74,621.0458 603.34,868.9758 776,955.9858 C887.64,1012.2458 1029.5,1032.7358 1132.26,1039.9058 " fill="none" id="A_exerciser-&gt;S_mutation_matrix" style="stroke: #A80036; stroke-width: 1.0; stroke-dasharray: 7.0,7.0;"/><polygon fill="#A80036" points="1137.16,1040.2358,1128.4547,1035.6295,1132.1717,1039.8938,1127.9074,1043.6108,1137.16,1040.2358" style="stroke: #A80036; stroke-width: 1.0;"/><text fill="#888888" font-family="sans-serif" font-size="13" lengthAdjust="spacingAndGlyphs" textLength="56" x="824.5" y="951.8829">produces</text><!--MD5=[c2480ba7218574404074f9ce1309c5fc]
link A_formalizer to S_proof_script--><path d="M898.86,474.8858 C910.27,481.9158 921.42,490.8958 929,501.9858 C969.83,561.7058 918.33,602.1458 959,661.9858 C967.86,675.0258 1149.31,785.2258 1230.18,833.9658 " fill="none" id="A_formalizer-&gt;S_proof_script" style="stroke: #FF0000; stroke-width: 1.0; stroke-dasharray: 7.0,7.0;"/><polygon fill="#FF0000" points="1234.06,836.3058,1228.4124,828.2371,1229.7763,833.727,1224.2864,835.0909,1234.06,836.3058" style="stroke: #FF0000; stroke-width: 1.0;"/><text fill="#888888" font-family="sans-serif" font-size="13" lengthAdjust="spacingAndGlyphs" textLength="92" x="960" y="657.8829">✗ must not see</text><!--MD5=[3081d29fb05d2681583307aa0fb0126e]
link A_formalizer to S_mutation_matrix--><path d="M900.32,474.9358 C911.46,481.8858 922.1,490.8158 929,501.9858 C1004.55,624.2558 885.52,700.4558 959,823.9858 C984.71,867.2058 1011.73,858.2358 1053,886.9858 C1118.78,932.8158 1194.43,988.2058 1236.32,1019.1358 " fill="none" id="A_formalizer-&gt;S_mutation_matrix" style="stroke: #FF0000; stroke-width: 1.0; stroke-dasharray: 7.0,7.0;"/><polygon fill="#FF0000" points="1240.29,1022.0658,1235.4214,1013.5045,1236.2662,1019.0979,1230.6727,1019.9426,1240.29,1022.0658" style="stroke: #FF0000; stroke-width: 1.0;"/><text fill="#888888" font-family="sans-serif" font-size="13" lengthAdjust="spacingAndGlyphs" textLength="92" x="960" y="819.8829">✗ must not see</text><!--MD5=[5120cc2eb8127e55394ef2e49de46a51]
link A_prover to S_mutation_matrix--><path d="M874.35,649.7758 C891.87,667.6958 916.06,695.6958 929,724.9858 C962.67,801.1658 907.74,844.3258 959,909.9858 C1005.64,969.7258 1084.37,1003.0558 1150.75,1021.4158 " fill="none" id="A_prover-&gt;S_mutation_matrix" style="stroke: #FF0000; stroke-width: 1.0; stroke-dasharray: 7.0,7.0;"/><polygon fill="#FF0000" points="1155.26,1022.6458,1147.6094,1016.4436,1150.4319,1021.346,1145.5296,1024.1685,1155.26,1022.6458" style="stroke: #FF0000; stroke-width: 1.0;"/><text fill="#888888" font-family="sans-serif" font-size="13" lengthAdjust="spacingAndGlyphs" textLength="92" x="960" y="905.8829">✗ must not see</text><!--MD5=[6fe234d7fdfd372fcbe62e7ac882a411]
link A_exerciser to S_proof_script--><path d="M507.96,548.5758 C557.67,618.9858 739.44,859.3358 959,942.9858 C1056.44,980.1058 1176.64,917.1258 1234.38,880.4658 " fill="none" id="A_exerciser-&gt;S_proof_script" style="stroke: #FF0000; stroke-width: 1.0; stroke-dasharray: 7.0,7.0;"/><polygon fill="#FF0000" points="1238.49,877.8258,1228.7564,879.328,1234.2841,880.5296,1233.0824,886.0574,1238.49,877.8258" style="stroke: #FF0000; stroke-width: 1.0;"/><text fill="#888888" font-family="sans-serif" font-size="13" lengthAdjust="spacingAndGlyphs" textLength="92" x="806.5" y="835.5429">✗ must not see</text><!--MD5=[b06db6bd53855465669ffe1c27949721]
link A_exerciser to A_formalizer--><path d="M566.74,514.0058 C625.44,501.8358 708.25,484.6758 769.44,471.9958 " fill="none" id="A_exerciser-&gt;A_formalizer" style="stroke: #0000FF; stroke-width: 1.0;"/><polygon fill="#0000FF" points="774.18,471.0058,764.556,468.9132,769.2838,472.0193,766.1776,476.7471,774.18,471.0058" style="stroke: #0000FF; stroke-width: 1.0;"/><text fill="#888888" font-family="sans-serif" font-size="13" lengthAdjust="spacingAndGlyphs" textLength="45" x="700" y="474.8129">catches</text><!--MD5=[01d98496dfcb13c62dd38f08579201d9]
link A_exerciser to A_prover--><path d="M565.03,548.9358 C629.5,567.1758 724.07,593.9258 786.68,611.6458 " fill="none" id="A_exerciser-&gt;A_prover" style="stroke: #0000FF; stroke-width: 1.0;"/><polygon fill="#0000FF" points="791.18,612.9158,783.6252,606.5973,786.3724,611.5422,781.4274,614.2895,791.18,612.9158" style="stroke: #0000FF; stroke-width: 1.0;"/><text fill="#888888" font-family="sans-serif" font-size="13" lengthAdjust="spacingAndGlyphs" textLength="45" x="700" y="584.4229">catches</text><!--MD5=[7b2ba98715a0d64db676df08bab5052e]
link A_sentinel to A_exerciser--><path d="M130.64,871.0058 C196.16,809.0758 395.73,620.4458 466.93,553.1558 " fill="none" id="A_sentinel-&gt;A_exerciser" style="stroke: #0000FF; stroke-width: 1.0;"/><polygon fill="#0000FF" points="470.33,549.9358,461.0415,553.2106,466.6961,553.3702,466.5365,559.0248,470.33,549.9358" style="stroke: #0000FF; stroke-width: 1.0;"/><text fill="#888888" font-family="sans-serif" font-size="13" lengthAdjust="spacingAndGlyphs" textLength="45" x="242" y="727.5529">catches</text><rect fill="#DDDDDD" height="147.4754" rx="5" ry="5" style="stroke: #000000; stroke-width: 1.0;" width="238" x="1227" y="1322.5158"/><text fill="#000000" font-family="sans-serif" font-size="14" font-weight="bold" lengthAdjust="spacingAndGlyphs" textLength="46" x="1237" y="1344.4818">Colour</text><text fill="#000000" font-family="sans-serif" font-size="14" font-weight="bold" lengthAdjust="spacingAndGlyphs" textLength="60" x="1291" y="1344.4818">Meaning</text><rect fill="#E8541E" height="19.0679" style="stroke: none; stroke-width: 1.0;" width="54" x="1233" y="1348.5838"/><text fill="#000000" font-family="sans-serif" font-size="14" lengthAdjust="spacingAndGlyphs" textLength="0" x="1237" y="1363.5497"/><text fill="#000000" font-family="sans-serif" font-size="14" lengthAdjust="spacingAndGlyphs" textLength="86" x="1291" y="1363.5497">Agent (actor)</text><rect fill="#C9E7CB" height="19.0679" style="stroke: none; stroke-width: 1.0;" width="54" x="1233" y="1367.6517"/><text fill="#000000" font-family="sans-serif" font-size="14" lengthAdjust="spacingAndGlyphs" textLength="0" x="1237" y="1382.6176"/><text fill="#000000" font-family="sans-serif" font-size="14" lengthAdjust="spacingAndGlyphs" textLength="151" x="1291" y="1382.6176">Upper-bound material</text><rect fill="#F3CBD0" height="19.0679" style="stroke: none; stroke-width: 1.0;" width="54" x="1233" y="1386.7196"/><text fill="#000000" font-family="sans-serif" font-size="14" lengthAdjust="spacingAndGlyphs" textLength="0" x="1237" y="1401.6855"/><text fill="#000000" font-family="sans-serif" font-size="14" lengthAdjust="spacingAndGlyphs" textLength="118" x="1291" y="1401.6855">Executable oracle</text><rect fill="#E2E2E2" height="19.0679" style="stroke: none; stroke-width: 1.0;" width="54" x="1233" y="1405.7875"/><text fill="#000000" font-family="sans-serif" font-size="14" lengthAdjust="spacingAndGlyphs" textLength="0" x="1237" y="1420.7534"/><text fill="#000000" font-family="sans-serif" font-size="14" lengthAdjust="spacingAndGlyphs" textLength="49" x="1291" y="1420.7534">Artifact</text><rect fill="#F4CCCC" height="19.0679" style="stroke: none; stroke-width: 1.0;" width="54" x="1233" y="1424.8554"/><text fill="#000000" font-family="sans-serif" font-size="14" lengthAdjust="spacingAndGlyphs" textLength="0" x="1237" y="1439.8214"/><text fill="#000000" font-family="sans-serif" font-size="14" lengthAdjust="spacingAndGlyphs" textLength="164" x="1291" y="1439.8214">Rationale (must-not-see)</text><rect fill="#D9D2E9" height="19.0679" style="stroke: none; stroke-width: 1.0;" width="54" x="1233" y="1443.9233"/><text fill="#000000" font-family="sans-serif" font-size="14" lengthAdjust="spacingAndGlyphs" textLength="0" x="1237" y="1458.8893"/><text fill="#000000" font-family="sans-serif" font-size="14" lengthAdjust="spacingAndGlyphs" textLength="119" x="1291" y="1458.8893">Human judgment</text><line style="stroke: #000000; stroke-width: 1.0;" x1="1233" x2="1459" y1="1329.5158" y2="1329.5158"/><line style="stroke: #000000; stroke-width: 1.0;" x1="1233" x2="1459" y1="1348.5838" y2="1348.5838"/><line style="stroke: #000000; stroke-width: 1.0;" x1="1233" x2="1459" y1="1367.6517" y2="1367.6517"/><line style="stroke: #000000; stroke-width: 1.0;" x1="1233" x2="1459" y1="1386.7196" y2="1386.7196"/><line style="stroke: #000000; stroke-width: 1.0;" x1="1233" x2="1459" y1="1405.7875" y2="1405.7875"/><line style="stroke: #000000; stroke-width: 1.0;" x1="1233" x2="1459" y1="1424.8554" y2="1424.8554"/><line style="stroke: #000000; stroke-width: 1.0;" x1="1233" x2="1459" y1="1443.9233" y2="1443.9233"/><line style="stroke: #000000; stroke-width: 1.0;" x1="1233" x2="1459" y1="1462.9913" y2="1462.9913"/><line style="stroke: #000000; stroke-width: 1.0;" x1="1233" x2="1233" y1="1329.5158" y2="1462.9913"/><line style="stroke: #000000; stroke-width: 1.0;" x1="1287" x2="1287" y1="1329.5158" y2="1462.9913"/><line style="stroke: #000000; stroke-width: 1.0;" x1="1459" x2="1459" y1="1329.5158" y2="1462.9913"/><!--MD5=[71843d1ea1b07e2db56ca0a1ebfe0879]
@startuml instance-d
title instance-d (base)
left to right direction
skinparam rectangleBorderColor #555
skinparam shadowing false
skinparam ArrowFontColor #888888
skinparam TitleFontColor #888888

rectangle "Gate sentinel / orchestrator" as A_sentinel #E8541E
rectangle "Theorem formalizer" as A_formalizer #E8541E
rectangle "Tactical prover" as A_prover #E8541E
rectangle "Mutation exerciser" as A_exerciser #E8541E

rectangle "Textbook exercise manifest (English + scope clauses)" as S_textbook_manifest #C9E7CB
rectangle "Pinned Rocq standard library" as S_rocq_stdlib #F3CBD0
rectangle "Rocq kernel checker (coqc 8.20.1)" as S_coqc #F3CBD0
rectangle "Axiom auditor (rocqchk - -print-assumptions)" as S_rocqchk #F3CBD0
rectangle "Prior-proofs registry + signature (invariant plane)" as S_proof_registry #F3CBD0
rectangle "Formalizer's naked theorem statement" as S_formal_statement #E2E2E2
rectangle "Prover's tactical proof" as S_proof_script #E2E2E2
rectangle "Exerciser's false-theorem mutations" as S_mutation_matrix #E2E2E2

A_sentinel - -> S_textbook_manifest : U
A_sentinel - -> S_rocq_stdlib : L
A_sentinel - -> S_coqc : L
A_sentinel - -> S_rocqchk : L
A_sentinel - -> S_proof_registry : L
A_sentinel - -> S_proof_script : L
A_sentinel - -> S_mutation_matrix : L
A_formalizer - -> S_textbook_manifest : U
A_formalizer - -> S_rocq_stdlib : L
A_formalizer - -> S_coqc : L
A_formalizer ..> S_formal_statement : produces
A_prover - -> S_formal_statement : U
A_prover - -> S_rocq_stdlib : L
A_prover - -> S_coqc : L
A_prover - -> S_rocqchk : L
A_prover ..> S_proof_script : produces
A_exerciser - -> S_textbook_manifest : U
A_exerciser - -> S_formal_statement : U
A_exerciser - -> S_rocq_stdlib : L
A_exerciser - -> S_coqc : L
A_exerciser ..> S_mutation_matrix : produces

A_formalizer -[#red,dashed]-> S_proof_script : ✗ must not see
A_formalizer -[#red,dashed]-> S_mutation_matrix : ✗ must not see
A_prover -[#red,dashed]-> S_mutation_matrix : ✗ must not see
A_exerciser -[#red,dashed]-> S_proof_script : ✗ must not see

A_exerciser -[#blue]-> A_formalizer : catches
A_exerciser -[#blue]-> A_prover : catches
A_sentinel -[#blue]-> A_exerciser : catches

legend right
|= Colour |= Meaning |
|<#E8541E>| Agent (actor) |
|<#C9E7CB>| Upper-bound material |
|<#F3CBD0>| Executable oracle |
|<#E2E2E2>| Artifact |
|<#F4CCCC>| Rationale (must-not-see) |
|<#D9D2E9>| Human judgment |
endlegend
@enduml

PlantUML version 1.2020.02(Sun Mar 01 11:22:07 CET 2020)
(GPL source distribution)
Java Runtime: OpenJDK Runtime Environment
JVM: OpenJDK 64-Bit Server VM
Java Version: 25.0.3+9-2-26.04.2-Ubuntu
Operating System: Linux
Default Encoding: UTF-8
Language: en
Country: US
--></g></svg>