<?xml version="1.0" encoding="UTF-8" standalone="no"?><svg xmlns="http://www.w3.org/2000/svg" xmlns:xlink="http://www.w3.org/1999/xlink" contentScriptType="application/ecmascript" contentStyleType="text/css" height="1196px" preserveAspectRatio="none" style="width:1369px;height:1196px;" version="1.1" viewBox="0 0 1369 1196" width="1369px" zoomAndPan="magnify"><defs/><g><text fill="#888888" font-family="sans-serif" font-size="18" lengthAdjust="spacingAndGlyphs" textLength="142" x="612.5" y="19.2419">instance-c (base)</text><!--MD5=[16666313b46a364dfa6fcce22871d203]
entity A_sentinel--><rect fill="#E8541E" height="39.0679" style="stroke: #555555; stroke-width: 1.5;" width="236" x="6" y="630.0558"/><text fill="#000000" font-family="sans-serif" font-size="14" lengthAdjust="spacingAndGlyphs" textLength="216" x="16" y="655.0218">Gate sentinel / no-blend referee</text><!--MD5=[181cff270489bda44ca31ebad832d943]
entity A_implementer--><rect fill="#E8541E" height="39.0679" style="stroke: #555555; stroke-width: 1.5;" width="133" x="753" y="454.0558"/><text fill="#000000" font-family="sans-serif" font-size="14" lengthAdjust="spacingAndGlyphs" textLength="113" x="763" y="479.0218">API implementer</text><!--MD5=[71f63620eca0e672333d873ac415471c]
entity A_exerciser--><rect fill="#E8541E" height="39.0679" style="stroke: #555555; stroke-width: 1.5;" width="175" x="410" y="487.0558"/><text fill="#000000" font-family="sans-serif" font-size="14" lengthAdjust="spacingAndGlyphs" textLength="155" x="420" y="512.0218">Conformance exerciser</text><!--MD5=[7218b540e24071e09f4da126b789d2a2]
entity S_api_policy--><rect fill="#C9E7CB" height="39.0679" style="stroke: #555555; stroke-width: 1.5;" width="286" x="1051.5" y="103.0558"/><text fill="#000000" font-family="sans-serif" font-size="14" lengthAdjust="spacingAndGlyphs" textLength="266" x="1061.5" y="128.0218">API governance policy (API_POLICY_081)</text><!--MD5=[d1fc631d634b650fdc9b479fdc6a4a46]
entity S_base_schema--><rect fill="#C9E7CB" height="39.0679" style="stroke: #555555; stroke-width: 1.5;" width="208" x="1090.5" y="303.0558"/><text fill="#000000" font-family="sans-serif" font-size="14" lengthAdjust="spacingAndGlyphs" textLength="188" x="1100.5" y="328.0218">Canonical OpenAPI contract</text><!--MD5=[eb74a2fc80a76f28710581366cc3b65f]
entity S_schema_linter--><rect fill="#F3CBD0" height="39.0679" style="stroke: #555555; stroke-width: 1.5;" width="225" x="1082" y="740.0558"/><text fill="#000000" font-family="sans-serif" font-size="14" lengthAdjust="spacingAndGlyphs" textLength="205" x="1092" y="765.0218">Document-plane linter (oracle)</text><!--MD5=[395e1b6aee8d6547532a41f6b67cf7d4]
entity S_app_db--><rect fill="#F3CBD0" height="39.0679" style="stroke: #555555; stroke-width: 1.5;" width="155" x="1117" y="203.0558"/><text fill="#000000" font-family="sans-serif" font-size="14" lengthAdjust="spacingAndGlyphs" textLength="135" x="1127" y="228.0218">Frozen app state DB</text><!--MD5=[5dd91f224c32c321dd65f4fa1047e65f]
entity S_ty0_baseline--><rect fill="#F3CBD0" height="39.0679" style="stroke: #555555; stroke-width: 1.5;" width="297" x="349" y="703.0558"/><text fill="#000000" font-family="sans-serif" font-size="14" lengthAdjust="spacingAndGlyphs" textLength="277" x="359" y="728.0218">Legacy route-signature regression oracle</text><!--MD5=[6571ffd962e78b1619a828400c073e81]
entity S_impl_server--><rect fill="#E2E2E2" height="39.0679" style="stroke: #555555; stroke-width: 1.5;" width="213" x="1088" y="416.0558"/><text fill="#000000" font-family="sans-serif" font-size="14" lengthAdjust="spacingAndGlyphs" textLength="193" x="1098" y="441.0218">Implementer's server source</text><!--MD5=[6b0fe90f21b4f38e30c9996c77dddfa4]
entity S_impl_openapi--><rect fill="#E2E2E2" height="39.0679" style="stroke: #555555; stroke-width: 1.5;" width="309" x="1040" y="630.0558"/><text fill="#000000" font-family="sans-serif" font-size="14" lengthAdjust="spacingAndGlyphs" textLength="289" x="1050" y="655.0218">Implementer's published OpenAPI schema</text><!--MD5=[5dcdc01364a7b66e99b8dd1dc37b1e9a]
entity S_runtime_oracle--><rect fill="#F3CBD0" height="39.0679" style="stroke: #555555; stroke-width: 1.5;" width="275" x="1057" y="876.0558"/><text fill="#000000" font-family="sans-serif" font-size="14" lengthAdjust="spacingAndGlyphs" textLength="255" x="1067" y="901.0218">Live server runtime behaviour (oracle)</text><!--MD5=[8d3d15441849e562a9f547edab4a6930]
entity S_conformance_matrix--><rect fill="#E2E2E2" height="39.0679" style="stroke: #555555; stroke-width: 1.5;" width="259" x="1065" y="958.0558"/><text fill="#000000" font-family="sans-serif" font-size="14" lengthAdjust="spacingAndGlyphs" textLength="239" x="1075" y="983.0218">Exerciser's conformance test matrix</text><!--MD5=[4fae269766820b970143d26951d2aa0b]
link A_sentinel to S_api_policy--><path d="M130.34,629.8258 C149.14,563.6858 218.29,347.3658 349,224.5958 C530.89,53.7458 637.69,35.8058 886,60.5958 C962.75,68.2558 1048.7,86.4158 1110.18,101.1158 " fill="none" id="A_sentinel-&gt;S_api_policy" style="stroke: #A80036; stroke-width: 1.0;"/><polygon fill="#A80036" points="1114.95,102.2658,1107.1387,96.2672,1110.0894,101.0936,1105.263,104.0443,1114.95,102.2658" style="stroke: #A80036; stroke-width: 1.0;"/><text fill="#888888" font-family="sans-serif" font-size="13" lengthAdjust="spacingAndGlyphs" textLength="10" x="694.5" y="47.6729">U</text><!--MD5=[53cdec3ed23a315b659263f7ae8ddf95]
link A_sentinel to S_base_schema--><path d="M145.32,629.5958 C182.82,593.5458 266.65,517.0358 349,469.5958 C580.54,336.1958 651.1,304.7158 916,269.5958 C957.42,264.1058 968.63,263.7358 1010,269.5958 C1052.06,275.5458 1097.97,288.8058 1133.34,300.5758 " fill="none" id="A_sentinel-&gt;S_base_schema" style="stroke: #A80036; stroke-width: 1.0;"/><polygon fill="#A80036" points="1137.94,302.1258,1130.6969,295.4522,1133.2038,300.5233,1128.1327,303.0302,1137.94,302.1258" style="stroke: #A80036; stroke-width: 1.0;"/><text fill="#888888" font-family="sans-serif" font-size="13" lengthAdjust="spacingAndGlyphs" textLength="10" x="694.5" y="298.9729">U</text><!--MD5=[dc4c3fe6a1b002564cd25091a3eff26d]
link A_sentinel to S_schema_linter--><path d="M154.9,669.5558 C196.4,695.9858 274.73,741.3758 349,759.5958 C601.88,821.6358 910.31,797.5958 1075.53,777.0558 " fill="none" id="A_sentinel-&gt;S_schema_linter" style="stroke: #A80036; stroke-width: 1.0;"/><polygon fill="#A80036" points="1080.33,776.4558,1070.8983,773.6198,1075.3697,777.0848,1071.9047,781.5562,1080.33,776.4558" style="stroke: #A80036; stroke-width: 1.0;"/><text fill="#888888" font-family="sans-serif" font-size="13" lengthAdjust="spacingAndGlyphs" textLength="7" x="696" y="794.7629">L</text><!--MD5=[46949acc2d50d991b822dc5843a10e2e]
link A_sentinel to S_app_db--><path d="M137.76,629.6458 C195.4,541.8458 442.13,189.9358 753,93.5958 C878.02,54.8558 919.3,108.9658 1040,159.5958 C1072.62,173.2758 1109.27,188.3358 1138.58,200.2958 " fill="none" id="A_sentinel-&gt;S_app_db" style="stroke: #A80036; stroke-width: 1.0;"/><polygon fill="#A80036" points="1142.94,202.0658,1136.1144,194.9658,1138.3095,200.1794,1133.096,202.3745,1142.94,202.0658" style="stroke: #A80036; stroke-width: 1.0;"/><text fill="#888888" font-family="sans-serif" font-size="13" lengthAdjust="spacingAndGlyphs" textLength="7" x="696" y="100.6029">L</text><!--MD5=[ac67cbbfb01a5bfcd90e295750c69aa5]
link A_sentinel to S_ty0_baseline--><path d="M181.99,669.5558 C208.99,678.3658 241.85,688.1458 272,694.5958 C294.57,699.4158 318.6,703.5058 342.24,706.9358 " fill="none" id="A_sentinel-&gt;S_ty0_baseline" style="stroke: #A80036; stroke-width: 1.0;"/><polygon fill="#A80036" points="347.06,707.6258,338.7098,702.4034,342.1094,706.9247,337.588,710.3244,347.06,707.6258" style="stroke: #A80036; stroke-width: 1.0;"/><text fill="#888888" font-family="sans-serif" font-size="13" lengthAdjust="spacingAndGlyphs" textLength="7" x="292" y="690.4929">L</text><!--MD5=[86092ffbd84a00abe05e666bd18ce1af]
link A_sentinel to S_runtime_oracle--><path d="M150.86,669.5158 C179.89,691.6658 228.61,728.1958 272,757.5958 C460.45,885.2858 528.03,898.8058 753,933.5958 C871.34,951.8958 1009.04,933.7758 1098.55,916.8358 " fill="none" id="A_sentinel-&gt;S_runtime_oracle" style="stroke: #A80036; stroke-width: 1.0;"/><polygon fill="#A80036" points="1103.42,915.8958,1093.8263,913.6685,1098.5101,916.8406,1095.3379,921.5244,1103.42,915.8958" style="stroke: #A80036; stroke-width: 1.0;"/><text fill="#888888" font-family="sans-serif" font-size="13" lengthAdjust="spacingAndGlyphs" textLength="7" x="696" y="917.3629">L</text><!--MD5=[d80dcdd2e5e0e740638b7ddb9bd03a70]
link A_sentinel to S_impl_openapi--><path d="M242.44,654.7358 C348.21,660.0658 507.83,669.8758 646,685.5958 C693.84,691.0358 705,698.8058 753,702.5958 C811.93,707.2458 827.1,707.6358 886,702.5958 C956.71,696.5458 1035.57,682.8058 1095.73,670.8358 " fill="none" id="A_sentinel-&gt;S_impl_openapi" style="stroke: #A80036; stroke-width: 1.0;"/><polygon fill="#A80036" points="1100.38,669.9058,1090.7679,667.7593,1095.4782,670.8919,1092.3456,675.6022,1100.38,669.9058" style="stroke: #A80036; stroke-width: 1.0;"/><text fill="#888888" font-family="sans-serif" font-size="13" lengthAdjust="spacingAndGlyphs" textLength="7" x="696" y="685.9829">L</text><!--MD5=[aa5f7d624d484f407d317f46e6470fd3]
link A_sentinel to S_conformance_matrix--><path d="M134.38,669.5758 C160.12,721.9058 237.48,863.0758 349,923.5958 C584.17,1051.2158 912.15,1024.5758 1081.86,998.5858 " fill="none" id="A_sentinel-&gt;S_conformance_matrix" style="stroke: #A80036; stroke-width: 1.0;"/><polygon fill="#A80036" points="1086.58,997.8458,1077.0781,995.2547,1081.6376,998.6029,1078.2894,1003.1624,1086.58,997.8458" style="stroke: #A80036; stroke-width: 1.0;"/><text fill="#888888" font-family="sans-serif" font-size="13" lengthAdjust="spacingAndGlyphs" textLength="7" x="696" y="1010.2629">L</text><!--MD5=[9adba8c292137dbd268e3a8afbe96575]
link A_implementer to S_api_policy--><path d="M858.51,453.5658 C868.88,446.3658 879.14,437.3258 886,426.5958 C924.25,366.7358 876.94,328.9358 916,269.5958 C959.26,203.8558 1041.96,165.5158 1105.87,144.5758 " fill="none" id="A_implementer-&gt;S_api_policy" style="stroke: #A80036; stroke-width: 1.0;"/><polygon fill="#A80036" points="1110.55,143.0658,1100.7578,142.0109,1105.7897,144.5954,1103.2051,149.6273,1110.55,143.0658" style="stroke: #A80036; stroke-width: 1.0;"/><text fill="#888888" font-family="sans-serif" font-size="13" lengthAdjust="spacingAndGlyphs" textLength="10" x="958" y="182.3229">U</text><!--MD5=[aae85aff8ac404719ad01ee5e81d1c83]
link A_implementer to S_base_schema--><path d="M869.65,453.6958 C939.11,425.5758 1065.61,374.3658 1138.25,344.9658 " fill="none" id="A_implementer-&gt;S_base_schema" style="stroke: #A80036; stroke-width: 1.0;"/><polygon fill="#A80036" points="1142.84,343.1058,1132.9968,342.7711,1138.2046,344.9801,1135.9956,350.1878,1142.84,343.1058" style="stroke: #A80036; stroke-width: 1.0;"/><text fill="#888888" font-family="sans-serif" font-size="13" lengthAdjust="spacingAndGlyphs" textLength="10" x="958" y="393.9929">U</text><!--MD5=[a82082cbbb8f6f0589c2b60f94e3ad1a]
link A_implementer to S_app_db--><path d="M854.22,453.7658 C865.24,446.2058 876.95,436.9058 886,426.5958 C904.62,405.3658 897.15,391.6158 916,370.5958 C971.96,308.1658 1060.62,267.3858 1122.63,244.7358 " fill="none" id="A_implementer-&gt;S_app_db" style="stroke: #A80036; stroke-width: 1.0;"/><polygon fill="#A80036" points="1127.12,243.1158,1117.2968,242.406,1122.4165,244.812,1120.0105,249.9317,1127.12,243.1158" style="stroke: #A80036; stroke-width: 1.0;"/><text fill="#888888" font-family="sans-serif" font-size="13" lengthAdjust="spacingAndGlyphs" textLength="7" x="959.5" y="292.8529">L</text><!--MD5=[5d357e697961c00a1ba64b82c9a4d122]
link A_implementer to S_schema_linter--><path d="M855.35,493.4958 C866.2,500.9458 877.53,510.1658 886,520.5958 C906.82,546.2358 895.78,562.4758 916,588.5958 C959,644.1458 980.35,649.4958 1040,686.5958 C1071.25,706.0258 1108.47,723.8458 1138.43,737.0158 " fill="none" id="A_implementer-&gt;S_schema_linter" style="stroke: #A80036; stroke-width: 1.0;"/><polygon fill="#A80036" points="1142.94,738.9758,1136.2895,731.7115,1138.3569,736.977,1133.0914,739.0444,1142.94,738.9758" style="stroke: #A80036; stroke-width: 1.0;"/><text fill="#888888" font-family="sans-serif" font-size="13" lengthAdjust="spacingAndGlyphs" textLength="7" x="959.5" y="584.4929">L</text><!--MD5=[12ce8d576860a5456fed1331193eabb8]
link A_implementer to S_impl_server--><path d="M886.25,475.9258 C896.22,476.2058 906.38,476.4458 916,476.5958 C957.77,477.2458 968.47,481.1758 1010,476.5958 C1044.97,472.7358 1083.03,464.8558 1115.37,457.0258 " fill="none" id="A_implementer-&gt;S_impl_server" style="stroke: #A80036; stroke-width: 1.0; stroke-dasharray: 7.0,7.0;"/><polygon fill="#A80036" points="1119.87,455.9258,1110.1781,454.1743,1115.0126,457.1116,1112.0754,461.9461,1119.87,455.9258" style="stroke: #A80036; stroke-width: 1.0;"/><text fill="#888888" font-family="sans-serif" font-size="13" lengthAdjust="spacingAndGlyphs" textLength="56" x="935" y="472.4929">produces</text><!--MD5=[df3aa21ed8189639faf53a6c252ddc9f]
link A_implementer to S_impl_openapi--><path d="M862.92,493.6158 C932.9,526.6258 1072.05,592.2858 1145.51,626.9458 " fill="none" id="A_implementer-&gt;S_impl_openapi" style="stroke: #A80036; stroke-width: 1.0; stroke-dasharray: 7.0,7.0;"/><polygon fill="#A80036" points="1149.75,628.9458,1143.3155,621.4895,1145.2275,626.8134,1139.9036,628.7254,1149.75,628.9458" style="stroke: #A80036; stroke-width: 1.0;"/><text fill="#888888" font-family="sans-serif" font-size="13" lengthAdjust="spacingAndGlyphs" textLength="56" x="935" y="516.6929">produces</text><!--MD5=[8f3c3088c7ec55f02b407301db6a184a]
link A_implementer to S_runtime_oracle--><path d="M858.63,493.5458 C869.01,500.7458 879.24,509.7958 886,520.5958 C927.66,587.0958 876.56,626.7558 916,694.5958 C967.15,782.5858 1073.87,842.7358 1139.04,872.9658 " fill="none" id="A_implementer-&gt;S_runtime_oracle" style="stroke: #A80036; stroke-width: 1.0; stroke-dasharray: 7.0,7.0;"/><polygon fill="#A80036" points="1143.45,874.9858,1136.931,867.6032,1138.9036,872.905,1133.6017,874.8775,1143.45,874.9858" style="stroke: #A80036; stroke-width: 1.0;"/><text fill="#888888" font-family="sans-serif" font-size="13" lengthAdjust="spacingAndGlyphs" textLength="56" x="935" y="690.4929">produces</text><!--MD5=[2fa54b9bd8787b095c94a8d9a2b3422a]
link A_exerciser to S_api_policy--><path d="M503.31,486.8258 C518.09,430.6158 568.55,269.1958 676,195.5958 C783.82,121.7458 934.12,107.8858 1044.97,109.8958 " fill="none" id="A_exerciser-&gt;S_api_policy" style="stroke: #A80036; stroke-width: 1.0;"/><polygon fill="#A80036" points="1049.71,109.9858,1040.7918,105.8067,1044.711,109.8859,1040.6318,113.8051,1049.71,109.9858" style="stroke: #A80036; stroke-width: 1.0;"/><text fill="#888888" font-family="sans-serif" font-size="13" lengthAdjust="spacingAndGlyphs" textLength="10" x="814.5" y="116.5529">U</text><!--MD5=[9833cb8076c5a011685e70e4bb0b2623]
link A_exerciser to S_base_schema--><path d="M531.46,486.6758 C566.8,465.5558 624.74,431.5858 676,404.5958 C709.59,386.9058 716.46,377.8958 753,367.5958 C862.83,336.6258 993.39,326.4358 1083.72,323.3458 " fill="none" id="A_exerciser-&gt;S_base_schema" style="stroke: #A80036; stroke-width: 1.0;"/><polygon fill="#A80036" points="1088.64,323.1858,1079.5079,319.4975,1083.643,323.3577,1079.7828,327.4928,1088.64,323.1858" style="stroke: #A80036; stroke-width: 1.0;"/><text fill="#888888" font-family="sans-serif" font-size="13" lengthAdjust="spacingAndGlyphs" textLength="10" x="814.5" y="336.2729">U</text><!--MD5=[4c1654d0b9a507d76bb6f2b22a1d6331]
link A_exerciser to S_runtime_oracle--><path d="M527.94,526.4658 C571.91,556.6258 656.67,616.5958 723,674.5958 C800.84,742.6558 814.99,765.4358 886,840.5958 C899.61,855.0058 898.2,864.8658 916,873.5958 C956.92,893.6658 1005.36,901.9358 1050.21,904.3758 " fill="none" id="A_exerciser-&gt;S_runtime_oracle" style="stroke: #A80036; stroke-width: 1.0;"/><polygon fill="#A80036" points="1055.01,904.6058,1046.2147,900.1739,1050.0159,904.3633,1045.8265,908.1645,1055.01,904.6058" style="stroke: #A80036; stroke-width: 1.0;"/><text fill="#888888" font-family="sans-serif" font-size="13" lengthAdjust="spacingAndGlyphs" textLength="7" x="816" y="697.4429">L</text><!--MD5=[e62e458ee1c49d3b4422f5d0d6495f96]
link A_exerciser to S_conformance_matrix--><path d="M520.77,526.4558 C553.68,557.1558 614.78,619.5158 646,685.5958 C675.6,748.2458 631.25,785.6858 676,838.5958 C768.96,948.4958 938.6,976.3258 1058.27,981.1458 " fill="none" id="A_exerciser-&gt;S_conformance_matrix" style="stroke: #A80036; stroke-width: 1.0; stroke-dasharray: 7.0,7.0;"/><polygon fill="#A80036" points="1063.13,981.3258,1054.2847,976.9945,1058.1334,981.1403,1053.9877,984.989,1063.13,981.3258" style="stroke: #A80036; stroke-width: 1.0;"/><text fill="#888888" font-family="sans-serif" font-size="13" lengthAdjust="spacingAndGlyphs" textLength="56" x="791.5" y="900.0229">produces</text><!--MD5=[c5f616dae0a1b22a0f11b8abe3b21dae]
link A_implementer to S_conformance_matrix--><path d="M859.46,493.4958 C869.73,500.6358 879.7,509.6858 886,520.5958 C953.45,637.3958 854.66,702.4658 916,822.5958 C949.5,888.2058 975.54,896.9258 1040,932.5958 C1057.07,942.0358 1076.32,949.6858 1095.28,955.8158 " fill="none" id="A_implementer-&gt;S_conformance_matrix" style="stroke: #FF0000; stroke-width: 1.0; stroke-dasharray: 7.0,7.0;"/><polygon fill="#FF0000" points="1099.71,957.2158,1092.3416,950.6808,1094.9442,955.7034,1089.9217,958.306,1099.71,957.2158" style="stroke: #FF0000; stroke-width: 1.0;"/><text fill="#888888" font-family="sans-serif" font-size="13" lengthAdjust="spacingAndGlyphs" textLength="92" x="917" y="818.4929">✗ must not see</text><!--MD5=[5a806b5ab93bc79137afbe680837db35]
link A_exerciser to S_impl_server--><path d="M543.13,486.6658 C631.35,449.5458 834.71,375.2458 1010,394.5958 C1044.97,398.4558 1083.03,406.3358 1115.37,414.1558 " fill="none" id="A_exerciser-&gt;S_impl_server" style="stroke: #FF0000; stroke-width: 1.0; stroke-dasharray: 7.0,7.0;"/><polygon fill="#FF0000" points="1119.87,415.2658,1112.0754,409.2456,1115.0126,414.0801,1110.1781,417.0174,1119.87,415.2658" style="stroke: #FF0000; stroke-width: 1.0;"/><text fill="#888888" font-family="sans-serif" font-size="13" lengthAdjust="spacingAndGlyphs" textLength="92" x="773.5" y="390.6429">✗ must not see</text><!--MD5=[b01ffa5701d6d85c9e3b9e498941f275]
link A_exerciser to S_impl_openapi--><path d="M585.45,522.4158 C665.53,538.6758 786.63,567.5658 886,609.5958 C900.32,615.6558 901.19,622.8558 916,627.5958 C953.14,639.4758 994.43,646.0558 1033.57,649.4958 " fill="none" id="A_exerciser-&gt;S_impl_openapi" style="stroke: #FF0000; stroke-width: 1.0; stroke-dasharray: 7.0,7.0;"/><polygon fill="#FF0000" points="1038.32,649.8958,1029.6821,645.1643,1033.3372,649.4818,1029.0197,653.1368,1038.32,649.8958" style="stroke: #FF0000; stroke-width: 1.0;"/><text fill="#888888" font-family="sans-serif" font-size="13" lengthAdjust="spacingAndGlyphs" textLength="92" x="773.5" y="559.2529">✗ must not see</text><!--MD5=[11131312ba3848239124113e0e091658]
link A_exerciser to A_implementer--><path d="M585.1,497.6658 C635.58,492.4558 698.52,485.9658 746.31,481.0358 " fill="none" id="A_exerciser-&gt;A_implementer" style="stroke: #0000FF; stroke-width: 1.0;"/><polygon fill="#0000FF" points="751.15,480.5358,741.7862,477.4832,746.1765,481.0503,742.6094,485.4407,751.15,480.5358" style="stroke: #0000FF; stroke-width: 1.0;"/><text fill="#888888" font-family="sans-serif" font-size="13" lengthAdjust="spacingAndGlyphs" textLength="45" x="677" y="480.1629">catches</text><!--MD5=[7b2ba98715a0d64db676df08bab5052e]
link A_sentinel to A_exerciser--><path d="M176.66,629.7058 C245.5,603.2158 366.96,556.4558 438.75,528.8258 " fill="none" id="A_sentinel-&gt;A_exerciser" style="stroke: #0000FF; stroke-width: 1.0;"/><polygon fill="#0000FF" points="443.27,527.0858,433.4337,526.5893,438.6044,528.8836,436.3101,534.0543,443.27,527.0858" style="stroke: #0000FF; stroke-width: 1.0;"/><text fill="#888888" font-family="sans-serif" font-size="13" lengthAdjust="spacingAndGlyphs" textLength="45" x="273" y="573.9929">catches</text><rect fill="#DDDDDD" height="147.4754" rx="5" ry="5" style="stroke: #000000; stroke-width: 1.0;" width="238" x="1120" y="1038.5158"/><text fill="#000000" font-family="sans-serif" font-size="14" font-weight="bold" lengthAdjust="spacingAndGlyphs" textLength="46" x="1130" y="1060.4818">Colour</text><text fill="#000000" font-family="sans-serif" font-size="14" font-weight="bold" lengthAdjust="spacingAndGlyphs" textLength="60" x="1184" y="1060.4818">Meaning</text><rect fill="#E8541E" height="19.0679" style="stroke: none; stroke-width: 1.0;" width="54" x="1126" y="1064.5838"/><text fill="#000000" font-family="sans-serif" font-size="14" lengthAdjust="spacingAndGlyphs" textLength="0" x="1130" y="1079.5497"/><text fill="#000000" font-family="sans-serif" font-size="14" lengthAdjust="spacingAndGlyphs" textLength="86" x="1184" y="1079.5497">Agent (actor)</text><rect fill="#C9E7CB" height="19.0679" style="stroke: none; stroke-width: 1.0;" width="54" x="1126" y="1083.6517"/><text fill="#000000" font-family="sans-serif" font-size="14" lengthAdjust="spacingAndGlyphs" textLength="0" x="1130" y="1098.6176"/><text fill="#000000" font-family="sans-serif" font-size="14" lengthAdjust="spacingAndGlyphs" textLength="151" x="1184" y="1098.6176">Upper-bound material</text><rect fill="#F3CBD0" height="19.0679" style="stroke: none; stroke-width: 1.0;" width="54" x="1126" y="1102.7196"/><text fill="#000000" font-family="sans-serif" font-size="14" lengthAdjust="spacingAndGlyphs" textLength="0" x="1130" y="1117.6855"/><text fill="#000000" font-family="sans-serif" font-size="14" lengthAdjust="spacingAndGlyphs" textLength="118" x="1184" y="1117.6855">Executable oracle</text><rect fill="#E2E2E2" height="19.0679" style="stroke: none; stroke-width: 1.0;" width="54" x="1126" y="1121.7875"/><text fill="#000000" font-family="sans-serif" font-size="14" lengthAdjust="spacingAndGlyphs" textLength="0" x="1130" y="1136.7534"/><text fill="#000000" font-family="sans-serif" font-size="14" lengthAdjust="spacingAndGlyphs" textLength="49" x="1184" y="1136.7534">Artifact</text><rect fill="#F4CCCC" height="19.0679" style="stroke: none; stroke-width: 1.0;" width="54" x="1126" y="1140.8554"/><text fill="#000000" font-family="sans-serif" font-size="14" lengthAdjust="spacingAndGlyphs" textLength="0" x="1130" y="1155.8214"/><text fill="#000000" font-family="sans-serif" font-size="14" lengthAdjust="spacingAndGlyphs" textLength="164" x="1184" y="1155.8214">Rationale (must-not-see)</text><rect fill="#D9D2E9" height="19.0679" style="stroke: none; stroke-width: 1.0;" width="54" x="1126" y="1159.9233"/><text fill="#000000" font-family="sans-serif" font-size="14" lengthAdjust="spacingAndGlyphs" textLength="0" x="1130" y="1174.8893"/><text fill="#000000" font-family="sans-serif" font-size="14" lengthAdjust="spacingAndGlyphs" textLength="119" x="1184" y="1174.8893">Human judgment</text><line style="stroke: #000000; stroke-width: 1.0;" x1="1126" x2="1352" y1="1045.5158" y2="1045.5158"/><line style="stroke: #000000; stroke-width: 1.0;" x1="1126" x2="1352" y1="1064.5838" y2="1064.5838"/><line style="stroke: #000000; stroke-width: 1.0;" x1="1126" x2="1352" y1="1083.6517" y2="1083.6517"/><line style="stroke: #000000; stroke-width: 1.0;" x1="1126" x2="1352" y1="1102.7196" y2="1102.7196"/><line style="stroke: #000000; stroke-width: 1.0;" x1="1126" x2="1352" y1="1121.7875" y2="1121.7875"/><line style="stroke: #000000; stroke-width: 1.0;" x1="1126" x2="1352" y1="1140.8554" y2="1140.8554"/><line style="stroke: #000000; stroke-width: 1.0;" x1="1126" x2="1352" y1="1159.9233" y2="1159.9233"/><line style="stroke: #000000; stroke-width: 1.0;" x1="1126" x2="1352" y1="1178.9913" y2="1178.9913"/><line style="stroke: #000000; stroke-width: 1.0;" x1="1126" x2="1126" y1="1045.5158" y2="1178.9913"/><line style="stroke: #000000; stroke-width: 1.0;" x1="1180" x2="1180" y1="1045.5158" y2="1178.9913"/><line style="stroke: #000000; stroke-width: 1.0;" x1="1352" x2="1352" y1="1045.5158" y2="1178.9913"/><!--MD5=[7e6a41463e5c23368cb67742383c923e]
@startuml instance-c
title instance-c (base)
left to right direction
skinparam rectangleBorderColor #555
skinparam shadowing false
skinparam ArrowFontColor #888888
skinparam TitleFontColor #888888

rectangle "Gate sentinel / no-blend referee" as A_sentinel #E8541E
rectangle "API implementer" as A_implementer #E8541E
rectangle "Conformance exerciser" as A_exerciser #E8541E

rectangle "API governance policy (API_POLICY_081)" as S_api_policy #C9E7CB
rectangle "Canonical OpenAPI contract" as S_base_schema #C9E7CB
rectangle "Document-plane linter (oracle)" as S_schema_linter #F3CBD0
rectangle "Frozen app state DB" as S_app_db #F3CBD0
rectangle "Legacy route-signature regression oracle" as S_ty0_baseline #F3CBD0
rectangle "Implementer's server source" as S_impl_server #E2E2E2
rectangle "Implementer's published OpenAPI schema" as S_impl_openapi #E2E2E2
rectangle "Live server runtime behaviour (oracle)" as S_runtime_oracle #F3CBD0
rectangle "Exerciser's conformance test matrix" as S_conformance_matrix #E2E2E2

A_sentinel - -> S_api_policy : U
A_sentinel - -> S_base_schema : U
A_sentinel - -> S_schema_linter : L
A_sentinel - -> S_app_db : L
A_sentinel - -> S_ty0_baseline : L
A_sentinel - -> S_runtime_oracle : L
A_sentinel - -> S_impl_openapi : L
A_sentinel - -> S_conformance_matrix : L
A_implementer - -> S_api_policy : U
A_implementer - -> S_base_schema : U
A_implementer - -> S_app_db : L
A_implementer - -> S_schema_linter : L
A_implementer ..> S_impl_server : produces
A_implementer ..> S_impl_openapi : produces
A_implementer ..> S_runtime_oracle : produces
A_exerciser - -> S_api_policy : U
A_exerciser - -> S_base_schema : U
A_exerciser - -> S_runtime_oracle : L
A_exerciser ..> S_conformance_matrix : produces

A_implementer -[#red,dashed]-> S_conformance_matrix : ✗ must not see
A_exerciser -[#red,dashed]-> S_impl_server : ✗ must not see
A_exerciser -[#red,dashed]-> S_impl_openapi : ✗ must not see

A_exerciser -[#blue]-> A_implementer : catches
A_sentinel -[#blue]-> A_exerciser : catches

legend right
|= Colour |= Meaning |
|<#E8541E>| Agent (actor) |
|<#C9E7CB>| Upper-bound material |
|<#F3CBD0>| Executable oracle |
|<#E2E2E2>| Artifact |
|<#F4CCCC>| Rationale (must-not-see) |
|<#D9D2E9>| Human judgment |
endlegend
@enduml

PlantUML version 1.2020.02(Sun Mar 01 11:22:07 CET 2020)
(GPL source distribution)
Java Runtime: OpenJDK Runtime Environment
JVM: OpenJDK 64-Bit Server VM
Java Version: 25.0.3+9-2-26.04.2-Ubuntu
Operating System: Linux
Default Encoding: UTF-8
Language: en
Country: US
--></g></svg>