<?xml version="1.0" encoding="UTF-8" standalone="no"?><svg xmlns="http://www.w3.org/2000/svg" xmlns:xlink="http://www.w3.org/1999/xlink" contentScriptType="application/ecmascript" contentStyleType="text/css" height="1064px" preserveAspectRatio="none" style="width:2807px;height:1064px;" version="1.1" viewBox="0 0 2807 1064" width="2807px" zoomAndPan="magnify"><defs/><g><text fill="#888888" font-family="sans-serif" font-size="18" lengthAdjust="spacingAndGlyphs" textLength="197" x="1304" y="19.2419">monitor-loop (monitor)</text><text fill="#888888" font-family="sans-serif" font-size="11" font-style="italic" lengthAdjust="spacingAndGlyphs" textLength="364" x="1220.5" y="36.2748">guards against: an over-generalized skill (right on the common case, silently</text><text fill="#888888" font-family="sans-serif" font-size="11" font-style="italic" lengthAdjust="spacingAndGlyphs" textLength="386" x="1209.5" y="51.2566">wrong on a governed exception), or a mis-calibrated monitor that rubber-stamps</text><text fill="#888888" font-family="sans-serif" font-size="11" font-style="italic" lengthAdjust="spacingAndGlyphs" textLength="219" x="1293" y="66.2385">(flags nothing) or saturates (flags everything).</text><!--MD5=[ba02ad718834564dcf804b9e9f1a41d8]
entity A_coordinator--><rect fill="#E8541E" height="39.0679" style="stroke: #555555; stroke-width: 1.5;" width="204.3333" x="674.83" y="317.3915"/><path d="M690.4967,333.6261 C687.9265,333.6261 685.83,335.7226 685.83,338.2928 C685.83,340.8629 687.9265,342.9594 690.4967,342.9594 C693.0668,342.9594 695.1633,340.8629 695.1633,338.2928 C695.1633,335.7226 693.0668,333.6261 690.4967,333.6261 M690.4967,334.7928 C692.4368,334.7928 693.9967,336.3526 693.9967,338.2928 C693.9967,340.2329 692.4368,341.7928 690.4967,341.7928 C688.5565,341.7928 686.9967,340.2329 686.9967,338.2928 C686.9967,336.3526 688.5565,334.7928 690.4967,334.7928 M692.83,335.9594 L689.33,337.1261 L688.1633,340.6261 L691.6633,339.4594 L692.83,335.9594 M690.4967,337.7094 C690.8233,337.7094 691.08,337.9661 691.08,338.2928 C691.08,338.6194 690.8233,338.8761 690.4967,338.8761 C690.17,338.8761 689.9133,338.6194 689.9133,338.2928 C689.9133,337.9661 690.17,337.7094 690.4967,337.7094 " fill="#000000" style="stroke: ; stroke-width: 0.0; stroke-dasharray: ;"/><text fill="#000000" font-family="sans-serif" font-size="14" lengthAdjust="spacingAndGlyphs" textLength="169" x="700.1633" y="342.3574">Monitor-loop coordinator</text><!--MD5=[21536f969f273866cf0fa57bb4977d82]
entity A_monitor--><rect fill="#E8541E" height="39.0679" style="stroke: #555555; stroke-width: 1.5;" width="174.3333" x="1246.67" y="382.3915"/><path d="M1262.3728,399.7928 C1259.4212,399.7928 1257.67,403.2928 1257.67,403.2928 C1257.67,403.2928 1259.4212,406.7928 1262.3728,406.7928 C1265.2545,406.7928 1267.0033,403.2928 1267.0033,403.2928 C1267.0033,403.2928 1265.2545,399.7928 1262.3728,399.7928 M1262.3367,400.9594 C1263.62,400.9594 1264.67,402.0094 1264.67,403.2928 C1264.67,404.5761 1263.62,405.6261 1262.3367,405.6261 C1261.0533,405.6261 1260.0033,404.5761 1260.0033,403.2928 C1260.0033,402.0094 1261.0533,400.9594 1262.3367,400.9594 M1262.3367,402.1261 C1261.695,402.1261 1261.17,402.6511 1261.17,403.2928 C1261.17,403.9344 1261.695,404.4594 1262.3367,404.4594 C1262.9783,404.4594 1263.5033,403.9344 1263.5033,403.2928 C1263.5033,403.1761 1263.466,403.0699 1263.4298,402.9649 C1263.3365,403.1516 1263.1533,403.2928 1262.9188,403.2928 C1262.5922,403.2928 1262.3355,403.0361 1262.3355,402.7094 C1262.3355,402.4761 1262.4767,402.2929 1262.6633,402.1984 C1262.5583,402.1634 1262.4522,402.1249 1262.3355,402.1249 " fill="#000000" style="stroke: ; stroke-width: 0.0; stroke-dasharray: ;"/><text fill="#000000" font-family="sans-serif" font-size="14" lengthAdjust="spacingAndGlyphs" textLength="139" x="1272.0033" y="407.3574">Skill monitor (Gate S)</text><!--MD5=[3cf14d1c14de510dfa9cf3ec1d46de03]
entity A_sub_base--><rect fill="#4E8FE8" height="39.0679" style="stroke: #555555; stroke-width: 1.5;" width="398.3333" x="1792" y="505.3915"/><path d="M1804.75,521.6261 C1803.784,521.6261 1803,522.4101 1803,523.3761 C1803,524.1414 1803.483,524.7784 1804.1667,525.0164 L1804.1667,527.5691 C1803.483,527.8071 1803,528.4441 1803,529.2094 C1803,530.1754 1803.784,530.9594 1804.75,530.9594 C1805.716,530.9594 1806.5,530.1754 1806.5,529.2094 C1806.5,528.5153 1806.1022,527.9249 1805.5153,527.6414 C1805.6203,527.5364 1805.7545,527.4594 1805.9167,527.4594 L1808.25,527.4594 C1809.2102,527.4594 1810,526.6696 1810,525.7094 L1810,525.0164 C1810.6837,524.7784 1811.1667,524.1414 1811.1667,523.3761 C1811.1667,522.4101 1810.3827,521.6261 1809.4167,521.6261 C1808.4507,521.6261 1807.6667,522.4101 1807.6667,523.3761 C1807.6667,524.1414 1808.1497,524.7784 1808.8333,525.0164 L1808.8333,525.7094 C1808.8333,526.0326 1808.5732,526.2928 1808.25,526.2928 L1805.9167,526.2928 C1805.7172,526.2928 1805.513,526.3394 1805.3333,526.4024 L1805.3333,525.0164 C1806.017,524.7784 1806.5,524.1414 1806.5,523.3761 C1806.5,522.4101 1805.716,521.6261 1804.75,521.6261 " fill="#000000" style="stroke: ; stroke-width: 0.0; stroke-dasharray: ;"/><text fill="#000000" font-family="sans-serif" font-size="14" lengthAdjust="spacingAndGlyphs" textLength="363" x="1817.3333" y="530.3574">Bridge -&gt; the observed base loop (run as a sub-agent)</text><!--MD5=[46068043c2359803552d73e94f3c12d8]
entity A_human_reviewer--><rect fill="#E8541E" height="39.0679" style="stroke: #555555; stroke-width: 1.5;" width="286.3333" x="6" y="718.3915"/><path d="M21.6667,734.6261 C20.3775,734.6261 19.3333,735.9316 19.3333,737.5428 C19.3333,739.1539 20.3775,740.4594 21.6667,740.4594 C22.9558,740.4594 24,739.1539 24,737.5428 C24,735.9316 22.9558,734.6261 21.6667,734.6261 M19.2237,740.4594 C17.9753,740.5061 17,741.5328 17,742.7928 L17,743.9594 L26.3333,743.9594 L26.3333,742.7928 C26.3333,741.5328 25.358,740.5061 24.1097,740.4594 C23.4797,741.1711 22.6117,741.6261 21.6667,741.6261 C20.7217,741.6261 19.8537,741.1711 19.2237,740.4594 " fill="#000000" style="stroke: ; stroke-width: 0.0; stroke-dasharray: ;"/><text fill="#000000" font-family="sans-serif" font-size="14" lengthAdjust="spacingAndGlyphs" textLength="251" x="31.3333" y="743.3574">External / human reviewer (terminus)</text><!--MD5=[2cee6b45e041b6b1e1fd0fafbca29778]
entity S_base_u--><rect fill="#C9E7CB" height="39.0679" style="stroke: #555555; stroke-width: 1.5;" width="464.3333" x="1759" y="630.3915"/><path d="M1770,646.6261 L1770,655.9594 L1778.1667,655.9594 L1778.1667,651.2928 L1773.5,651.2928 L1773.5,646.6261 L1770,646.6261 M1774.6667,646.6261 L1774.6667,650.1261 L1778.1667,650.1261 L1774.6667,646.6261 M1771.1667,648.9594 L1772.3333,648.9594 L1772.3333,650.1261 L1771.1667,650.1261 L1771.1667,648.9594 M1771.1667,651.2928 L1772.3333,651.2928 L1772.3333,652.4594 L1771.1667,652.4594 L1771.1667,651.2928 M1771.1667,653.6261 L1775.8333,653.6261 L1775.8333,654.7928 L1771.1667,654.7928 L1771.1667,653.6261 " fill="#000000" style="stroke: ; stroke-width: 0.0; stroke-dasharray: ;"/><text fill="#000000" font-family="sans-serif" font-size="14" lengthAdjust="spacingAndGlyphs" textLength="429" x="1784.3333" y="655.3574">Base loop's upper bound (the spec the skill must not contradict)</text><!--MD5=[6efdbd8fd8335b776727fe6683e86485]
entity S_base_l--><rect fill="#F3CBD0" height="39.0679" style="stroke: #555555; stroke-width: 1.5;" width="401.3333" x="1790.5" y="290.3915"/><path d="M1805.5833,306.6261 L1805,308.0121 L1804.6722,308.1579 L1803.2862,307.5746 L1802.4473,308.4134 L1803.0307,309.7994 L1802.8848,310.1273 L1801.4988,310.7106 L1801.4988,311.8773 L1802.8848,312.4606 L1803.0307,312.8258 L1802.4473,314.1744 L1803.2862,315.0133 L1804.6722,314.4299 L1805,314.5758 L1805.5833,315.9618 L1806.75,315.9618 L1807.3333,314.5758 L1807.6612,314.4299 L1809.0472,315.0133 L1809.886,314.1744 L1809.3027,312.7884 L1809.4485,312.4606 L1810.8345,311.8773 L1810.8345,310.7106 L1809.4485,310.1273 L1809.3027,309.7994 L1809.8498,308.4134 L1809.0472,307.5746 L1807.6612,308.1579 L1807.3333,308.0121 L1806.75,306.6261 L1805.5833,306.6261 M1806.1667,309.5428 C1807.135,309.5428 1807.9167,310.3244 1807.9167,311.2928 C1807.9167,312.2611 1807.135,313.0428 1806.1667,313.0428 C1805.1983,313.0428 1804.4167,312.2611 1804.4167,311.2928 C1804.4167,310.3244 1805.1983,309.5428 1806.1667,309.5428 " fill="#000000" style="stroke: ; stroke-width: 0.0; stroke-dasharray: ;"/><text fill="#000000" font-family="sans-serif" font-size="14" lengthAdjust="spacingAndGlyphs" textLength="366" x="1815.8333" y="315.3574">Base loop's executable oracle (differential comparator)</text><!--MD5=[b03f071d42f3c01adfd70beba13ffccf]
entity S_skill_under_test--><rect fill="#E2E2E2" height="39.0679" style="stroke: #555555; stroke-width: 1.5;" width="445.3333" x="2341.33" y="505.3915"/><path d="M2352.33,521.6261 L2352.33,522.7928 L2361.6633,522.7928 L2361.6633,521.6261 L2352.33,521.6261 M2352.33,523.9594 L2352.33,530.8498 C2352.33,530.9198 2352.3697,530.9594 2352.4397,530.9594 L2361.5548,530.9594 C2361.6248,530.9594 2361.6645,530.9198 2361.6645,530.8498 L2361.6645,523.9594 L2358.2007,523.9594 L2358.2007,525.1623 L2355.8312,525.1623 L2355.8312,523.9594 L2352.3312,523.9594 " fill="#000000" style="stroke: ; stroke-width: 0.0; stroke-dasharray: ;"/><text fill="#000000" font-family="sans-serif" font-size="14" lengthAdjust="spacingAndGlyphs" textLength="410" x="2366.6633" y="530.3574">The base loop's consolidated skill (the soft output under test)</text><!--MD5=[15c710df2bb628bf305d2e8b528ff46a]
entity S_producer_rationale--><rect fill="#D98080" height="39.0679" style="stroke: #555555; stroke-width: 1.5;" width="314.3333" x="2406.83" y="382.3915"/><path d="M2422.4967,398.6261 C2419.9265,398.6261 2417.83,400.7226 2417.83,403.2928 C2417.83,405.8629 2419.9265,407.9594 2422.4967,407.9594 C2425.0668,407.9594 2427.1633,405.8629 2427.1633,403.2928 C2427.1633,400.7226 2425.0668,398.6261 2422.4967,398.6261 M2422.4967,399.7928 C2423.2608,399.7928 2423.9643,400.0366 2424.5383,400.4496 L2419.6523,405.3356 C2419.2405,404.7616 2418.9955,404.0581 2418.9955,403.2939 C2418.9955,401.3538 2420.5553,399.7939 2422.4955,399.7939 M2425.3398,401.2523 C2425.7517,401.8263 2425.9967,402.5298 2425.9967,403.2939 C2425.9967,405.2341 2424.4368,406.7939 2422.4967,406.7939 C2421.7325,406.7939 2421.029,406.5501 2420.455,406.1371 L2425.341,401.2511 " fill="#000000" style="stroke: ; stroke-width: 0.0; stroke-dasharray: ;"/><text fill="#000000" font-family="sans-serif" font-size="14" lengthAdjust="spacingAndGlyphs" textLength="279" x="2432.1633" y="407.3574">The deciding actor's rationale for the skill</text><!--MD5=[48a54f206f460dabc480c1b307d9eb01]
entity S_gate_s_verdict--><rect fill="#E2E2E2" height="39.0679" style="stroke: #555555; stroke-width: 1.5;" width="322.3333" x="1830" y="181.3915"/><path d="M1841,197.6261 L1841,198.7928 L1850.3333,198.7928 L1850.3333,197.6261 L1841,197.6261 M1841,199.9594 L1841,206.8498 C1841,206.9198 1841.0397,206.9594 1841.1097,206.9594 L1850.2248,206.9594 C1850.2948,206.9594 1850.3345,206.9198 1850.3345,206.8498 L1850.3345,199.9594 L1846.8707,199.9594 L1846.8707,201.1623 L1844.5012,201.1623 L1844.5012,199.9594 L1841.0012,199.9594 " fill="#000000" style="stroke: ; stroke-width: 0.0; stroke-dasharray: ;"/><text fill="#000000" font-family="sans-serif" font-size="14" lengthAdjust="spacingAndGlyphs" textLength="287" x="1855.3333" y="206.3574">Gate S verdict (PASS / CARVE-OUT / REJECT)</text><!--MD5=[0543ec7cdffde17f730c37c80905e9b2]
entity S_human_review--><rect fill="#D9D2E9" height="39.0679" style="stroke: #555555; stroke-width: 1.5;" width="283.3333" x="635.33" y="791.3915"/><path d="M650.9967,807.6261 C649.7075,807.6261 648.6633,808.9316 648.6633,810.5428 C648.6633,812.1539 649.7075,813.4594 650.9967,813.4594 C652.2858,813.4594 653.33,812.1539 653.33,810.5428 C653.33,808.9316 652.2858,807.6261 650.9967,807.6261 M648.5537,813.4594 C647.3053,813.5061 646.33,814.5328 646.33,815.7928 L646.33,816.9594 L655.6633,816.9594 L655.6633,815.7928 C655.6633,814.5328 654.688,813.5061 653.4397,813.4594 C652.8097,814.1711 651.9417,814.6261 650.9967,814.6261 C650.0517,814.6261 649.1837,814.1711 648.5537,813.4594 " fill="#000000" style="stroke: ; stroke-width: 0.0; stroke-dasharray: ;"/><text fill="#000000" font-family="sans-serif" font-size="14" lengthAdjust="spacingAndGlyphs" textLength="248" x="660.6633" y="816.3574">External / human reviewer judgment</text><!--MD5=[ce7c9e1b7570fef6dde5472f4b01e2e6]
link A_coordinator to S_base_u--><path d="M811.07,356.9215 C906.22,413.1615 1190.53,572.2215 1451,627.9315 C1548.28,648.7315 1657.62,656.0615 1752.28,657.5215 " fill="none" id="A_coordinator-&gt;S_base_u" style="stroke: #A80036; stroke-width: 1.0;"/><polygon fill="#A80036" points="1757.27,657.5915,1748.3281,653.4634,1752.2705,657.5201,1748.2138,661.4625,1757.27,657.5915" style="stroke: #A80036; stroke-width: 1.0;"/><text fill="#888888" font-family="sans-serif" font-size="13" lengthAdjust="spacingAndGlyphs" textLength="10" x="1328.83" y="563.5285">U</text><!--MD5=[f83fe0f27d3c84f09512293787cbc6c0]
link A_coordinator to S_base_l--><path d="M843.02,316.9515 C874.6,308.0815 913.29,298.4215 948.67,292.9315 C1291.6,239.6915 1383.22,235.3515 1729,264.9315 C1782.85,269.5315 1842.28,279.3915 1890.82,288.7015 " fill="none" id="A_coordinator-&gt;S_base_l" style="stroke: #A80036; stroke-width: 1.0;"/><polygon fill="#A80036" points="1895.5,289.6115,1887.4149,283.9873,1890.5896,288.6694,1885.9075,291.844,1895.5,289.6115" style="stroke: #A80036; stroke-width: 1.0;"/><text fill="#888888" font-family="sans-serif" font-size="13" lengthAdjust="spacingAndGlyphs" textLength="7" x="1330.33" y="242.5785">L</text><!--MD5=[50889f23ab6dcb0529e3e0c6322d19eb]
link A_coordinator to S_gate_s_verdict--><path d="M807.95,316.9515 C840.91,296.0815 896.2,264.2915 948.67,248.9315 C1247.18,161.5115 1614.23,169.8215 1823.29,184.7415 " fill="none" id="A_coordinator-&gt;S_gate_s_verdict" style="stroke: #A80036; stroke-width: 1.0;"/><polygon fill="#A80036" points="1828.23,185.0915,1819.5388,180.4587,1823.2428,184.7343,1818.9672,188.4382,1828.23,185.0915" style="stroke: #A80036; stroke-width: 1.0;"/><text fill="#888888" font-family="sans-serif" font-size="13" lengthAdjust="spacingAndGlyphs" textLength="7" x="1330.33" y="174.4985">L</text><!--MD5=[3f289436532adaa279c870c39fa67d61]
link A_monitor to S_base_u--><path d="M1341.19,421.8415 C1354.6,460.2915 1389.7,544.3315 1451,582.9315 C1477.4,599.5515 1620.46,616.8815 1752.58,629.7515 " fill="none" id="A_monitor-&gt;S_base_u" style="stroke: #A80036; stroke-width: 1.0;"/><polygon fill="#A80036" points="1757.36,630.2115,1748.7916,625.3553,1752.3837,629.7253,1748.0137,633.3174,1757.36,630.2115" style="stroke: #A80036; stroke-width: 1.0;"/><text fill="#888888" font-family="sans-serif" font-size="13" lengthAdjust="spacingAndGlyphs" textLength="10" x="1585" y="578.8285">U</text><!--MD5=[2f7843e4c641c52c30bc4d06ca1b598b]
link A_monitor to S_base_l--><path d="M1421.37,387.4515 C1431.36,385.8715 1441.4,384.3315 1451,382.9315 C1574.27,364.8715 1605.54,363.6615 1729,346.9315 C1766.69,341.8215 1807.41,336.1315 1845.24,330.7715 " fill="none" id="A_monitor-&gt;S_base_l" style="stroke: #A80036; stroke-width: 1.0;"/><polygon fill="#A80036" points="1849.78,330.1315,1840.308,327.433,1844.8294,330.8326,1841.4298,335.354,1849.78,330.1315" style="stroke: #A80036; stroke-width: 1.0;"/><text fill="#888888" font-family="sans-serif" font-size="13" lengthAdjust="spacingAndGlyphs" textLength="7" x="1586.5" y="342.8285">L</text><!--MD5=[d939caccb3edbef517638c1bb9443101]
link A_monitor to S_gate_s_verdict--><path d="M1358.67,382.0615 C1381.14,364.3015 1416.43,338.8615 1451,323.9315 C1572.21,271.5615 1718.79,239.9615 1828.5,221.9315 " fill="none" id="A_monitor-&gt;S_gate_s_verdict" style="stroke: #A80036; stroke-width: 1.0; stroke-dasharray: 7.0,7.0;"/><polygon fill="#A80036" points="1833.19,221.1615,1823.6595,218.6776,1828.2565,221.9743,1824.9599,226.5713,1833.19,221.1615" style="stroke: #A80036; stroke-width: 1.0;"/><text fill="#888888" font-family="sans-serif" font-size="13" lengthAdjust="spacingAndGlyphs" textLength="56" x="1562" y="237.3285">produces</text><!--MD5=[0f8d2bf90b59ddeb2efd0d69c7413685]
link A_sub_base to S_skill_under_test--><path d="M2190.61,524.9315 C2237.13,524.9315 2287.06,524.9315 2334.76,524.9315 " fill="none" id="A_sub_base-&gt;S_skill_under_test" style="stroke: #A80036; stroke-width: 1.0; stroke-dasharray: 7.0,7.0;"/><polygon fill="#A80036" points="2339.66,524.9315,2330.66,520.9315,2334.66,524.9315,2330.66,528.9315,2339.66,524.9315" style="stroke: #A80036; stroke-width: 1.0;"/><text fill="#888888" font-family="sans-serif" font-size="13" lengthAdjust="spacingAndGlyphs" textLength="56" x="2254.33" y="520.8285">produces</text><!--MD5=[a691d51410ad20945d0f2977fbe09604]
link A_sub_base to S_producer_rationale--><path d="M2084.83,504.9615 C2189,482.5115 2357.47,446.2115 2464.12,423.2315 " fill="none" id="A_sub_base-&gt;S_producer_rationale" style="stroke: #A80036; stroke-width: 1.0; stroke-dasharray: 7.0,7.0;"/><polygon fill="#A80036" points="2468.94,422.1915,2459.2976,420.1853,2464.0531,423.2489,2460.9895,428.0044,2468.94,422.1915" style="stroke: #A80036; stroke-width: 1.0;"/><text fill="#888888" font-family="sans-serif" font-size="13" lengthAdjust="spacingAndGlyphs" textLength="56" x="2254.33" y="455.6385">produces</text><!--MD5=[aacdaac536f0b630cd36807fa162213f]
link A_human_reviewer to S_base_u--><path d="M292.79,731.8715 C569.7,719.9815 1199.44,692.3815 1729,664.9315 C1736.77,664.5215 1744.67,664.1115 1752.65,663.6815 " fill="none" id="A_human_reviewer-&gt;S_base_u" style="stroke: #A80036; stroke-width: 1.0;"/><polygon fill="#A80036" points="1757.25,663.4315,1748.0564,659.899,1752.2566,663.6883,1748.4673,667.8885,1757.25,663.4315" style="stroke: #A80036; stroke-width: 1.0;"/><text fill="#888888" font-family="sans-serif" font-size="13" lengthAdjust="spacingAndGlyphs" textLength="10" x="1077.67" y="686.3885">U</text><!--MD5=[f24e053db492558d2f2f386d373a1ee2]
link A_human_reviewer to S_human_review--><path d="M214.53,757.9215 C246.61,767.0715 286.18,777.1415 322.33,782.9315 C423.82,799.1615 539.48,806.1315 628.61,809.0515 " fill="none" id="A_human_reviewer-&gt;S_human_review" style="stroke: #A80036; stroke-width: 1.0; stroke-dasharray: 7.0,7.0;"/><polygon fill="#A80036" points="633.47,809.2015,624.6005,804.92,628.4725,809.044,624.3485,812.916,633.47,809.2015" style="stroke: #A80036; stroke-width: 1.0;"/><text fill="#888888" font-family="sans-serif" font-size="13" lengthAdjust="spacingAndGlyphs" textLength="56" x="435.83" y="778.8285">produces</text><!--MD5=[ebe8ad8270984cb300ea1e4cdb123284]
link A_coordinator to S_producer_rationale--><path d="M795.11,317.0715 C823.5,285.5915 883.7,224.8215 948.67,195.9315 C1070.99,141.5115 1113.17,162.0615 1246.67,151.9315 C1679.53,119.0815 1811.09,27.8915 2223.33,163.9315 C2358.74,208.6115 2487.9,326.5715 2539.46,377.7115 " fill="none" id="A_coordinator-&gt;S_producer_rationale" style="stroke: #FF0000; stroke-width: 1.0; stroke-dasharray: 7.0,7.0;"/><polygon fill="#FF0000" points="2542.84,381.0815,2539.2859,371.8963,2539.2973,377.5531,2533.6405,377.5646,2542.84,381.0815" style="stroke: #FF0000; stroke-width: 1.0;"/><text fill="#888888" font-family="sans-serif" font-size="13" lengthAdjust="spacingAndGlyphs" textLength="92" x="1544" y="91.9985">✗ must not see</text><!--MD5=[3578c1e7a12697ce0c01142e09215bc6]
link A_monitor to S_producer_rationale--><path d="M1421.2,401.9315 C1624.62,401.9315 2136.58,401.9315 2400.34,401.9315 " fill="none" id="A_monitor-&gt;S_producer_rationale" style="stroke: #FF0000; stroke-width: 1.0; stroke-dasharray: 7.0,7.0;"/><polygon fill="#FF0000" points="2405.01,401.9315,2396.01,397.9315,2400.01,401.9315,2396.01,405.9315,2405.01,401.9315" style="stroke: #FF0000; stroke-width: 1.0;"/><text fill="#888888" font-family="sans-serif" font-size="13" lengthAdjust="spacingAndGlyphs" textLength="92" x="1945.17" y="397.8285">✗ must not see</text><!--MD5=[dead97b5b5d06d1a549ba6cf47532314]
link A_monitor to A_sub_base--><path d="M1344.86,421.9215 C1361.8,453.1515 1399.33,512.3315 1451,535.9315 C1512.31,563.9215 1675.17,556.9515 1805.98,545.4815 " fill="none" id="A_monitor-&gt;A_sub_base" style="stroke: #0000FF; stroke-width: 1.0;"/><polygon fill="#0000FF" points="1810.68,545.0715,1801.3606,541.8858,1805.6997,545.5152,1802.0704,549.8543,1810.68,545.0715" style="stroke: #0000FF; stroke-width: 1.0;"/><text fill="#888888" font-family="sans-serif" font-size="13" lengthAdjust="spacingAndGlyphs" textLength="178" x="1501" y="442.8285">catches: the base loop emits a</text><text fill="#888888" font-family="sans-serif" font-size="13" lengthAdjust="spacingAndGlyphs" textLength="271" x="1454.5" y="460.5345">coherent-and-wrong skill — over-generalized,</text><text fill="#888888" font-family="sans-serif" font-size="13" lengthAdjust="spacingAndGlyphs" textLength="276" x="1452" y="478.2406">right on the common case, silently wrong on a</text><text fill="#888888" font-family="sans-serif" font-size="13" lengthAdjust="spacingAndGlyphs" textLength="249" x="1465.5" y="495.9466">governed exception — via the trigger test</text><text fill="#888888" font-family="sans-serif" font-size="13" lengthAdjust="spacingAndGlyphs" textLength="266" x="1457" y="513.6526">(perturb the ignored signal, watch L's verdict</text><text fill="#888888" font-family="sans-serif" font-size="13" lengthAdjust="spacingAndGlyphs" textLength="126" x="1527" y="531.3586">move) or validity test</text><!--MD5=[3a34c0f7854eddbbe74b950cd4a08cc3]
link A_coordinator to A_monitor--><path d="M816.04,356.9515 C849.82,373.5315 901.05,395.7915 948.67,404.9315 C1046.98,423.7915 1162.06,419.5015 1240.46,412.7315 " fill="none" id="A_coordinator-&gt;A_monitor" style="stroke: #0000FF; stroke-width: 1.0;"/><polygon fill="#0000FF" points="1245,412.3315,1235.6814,409.1435,1240.0196,412.7739,1236.3892,417.1121,1245,412.3315" style="stroke: #0000FF; stroke-width: 1.0;"/><text fill="#888888" font-family="sans-serif" font-size="13" lengthAdjust="spacingAndGlyphs" textLength="260" x="952.67" y="311.8285">catches: mis-calibration — rubber-stamping</text><text fill="#888888" font-family="sans-serif" font-size="13" lengthAdjust="spacingAndGlyphs" textLength="203" x="981.17" y="329.5345">(flags nothing) or saturating (flags</text><text fill="#888888" font-family="sans-serif" font-size="13" lengthAdjust="spacingAndGlyphs" textLength="237" x="964.17" y="347.2406">everything) — via flag-rate calibration: a</text><text fill="#888888" font-family="sans-serif" font-size="13" lengthAdjust="spacingAndGlyphs" textLength="228" x="968.67" y="364.9466">healthy monitor discriminates, leaving</text><text fill="#888888" font-family="sans-serif" font-size="13" lengthAdjust="spacingAndGlyphs" textLength="266" x="949.67" y="382.6526">defer-to-oracle skills untouched and flagging</text><text fill="#888888" font-family="sans-serif" font-size="13" lengthAdjust="spacingAndGlyphs" textLength="224" x="970.67" y="400.3586">only over-reaching ignore-signal skills</text><!--MD5=[db35ebfb6dc8619b3fb8d74ea96a2527]
link A_human_reviewer to A_coordinator--><path d="M181.2,718.0415 C286.09,650.8415 627.06,432.3615 739.59,360.2515 " fill="none" id="A_human_reviewer-&gt;A_coordinator" style="stroke: #0000FF; stroke-width: 1.0;"/><polygon fill="#0000FF" points="743.5,357.7515,733.7641,359.2386,739.2899,360.4488,738.0797,365.9747,743.5,357.7515" style="stroke: #0000FF; stroke-width: 1.0;"/><text fill="#888888" font-family="sans-serif" font-size="13" lengthAdjust="spacingAndGlyphs" textLength="226" x="350.83" y="398.3185">catches: its own un-squeezed editorial</text><text fill="#888888" font-family="sans-serif" font-size="13" lengthAdjust="spacingAndGlyphs" textLength="270" x="328.83" y="416.0245">judgment of whether a carve-out is faithful to</text><text fill="#888888" font-family="sans-serif" font-size="13" lengthAdjust="spacingAndGlyphs" textLength="281" x="323.33" y="433.7306">the base loop's U — via external/human review</text><text fill="#888888" font-family="sans-serif" font-size="13" lengthAdjust="spacingAndGlyphs" textLength="236" x="345.83" y="451.4366">— the terminus that closes the soft side</text><rect fill="#DDDDDD" height="204.6792" rx="5" ry="5" style="stroke: #000000; stroke-width: 1.0;" width="346.3333" x="2449.6667" y="848.4615"/><text fill="#000000" font-family="sans-serif" font-size="14" font-weight="bold" lengthAdjust="spacingAndGlyphs" textLength="46" x="2459.6667" y="870.4274">Colour</text><text fill="#000000" font-family="sans-serif" font-size="14" font-weight="bold" lengthAdjust="spacingAndGlyphs" textLength="0" x="2517.6667" y="870.4274"/><text fill="#000000" font-family="sans-serif" font-size="14" font-weight="bold" lengthAdjust="spacingAndGlyphs" textLength="60" x="2533" y="870.4274">Meaning</text><rect fill="#E8541E" height="19.0679" style="stroke: none; stroke-width: 1.0;" width="54" x="2455.6667" y="874.5294"/><text fill="#000000" font-family="sans-serif" font-size="14" lengthAdjust="spacingAndGlyphs" textLength="0" x="2459.6667" y="889.4954"/><text fill="#000000" font-family="sans-serif" font-size="14" lengthAdjust="spacingAndGlyphs" textLength="0" x="2513.6667" y="889.4954"/><path d="M2519.3333,880.764 C2516.7632,880.764 2514.6667,882.8605 2514.6667,885.4307 C2514.6667,888.0008 2516.7632,890.0973 2519.3333,890.0973 C2521.9035,890.0973 2524,888.0008 2524,885.4307 C2524,882.8605 2521.9035,880.764 2519.3333,880.764 M2519.3333,881.9307 C2521.2735,881.9307 2522.8333,883.4905 2522.8333,885.4307 C2522.8333,887.3708 2521.2735,888.9307 2519.3333,888.9307 C2517.3932,888.9307 2515.8333,887.3708 2515.8333,885.4307 C2515.8333,883.4905 2517.3932,881.9307 2519.3333,881.9307 M2521.6667,883.0973 L2518.1667,884.264 L2517,887.764 L2520.5,886.5973 L2521.6667,883.0973 M2519.3333,884.8473 C2519.66,884.8473 2519.9167,885.104 2519.9167,885.4307 C2519.9167,885.7573 2519.66,886.014 2519.3333,886.014 C2519.0067,886.014 2518.75,885.7573 2518.75,885.4307 C2518.75,885.104 2519.0067,884.8473 2519.3333,884.8473 " fill="#000000" style="stroke: ; stroke-width: 0.0; stroke-dasharray: ;"/><text fill="#000000" font-family="sans-serif" font-size="14" lengthAdjust="spacingAndGlyphs" textLength="0" x="2529" y="889.4954"/><text fill="#000000" font-family="sans-serif" font-size="14" lengthAdjust="spacingAndGlyphs" textLength="80" x="2533" y="889.4954">Coordinator</text><rect fill="#E8541E" height="19.0679" style="stroke: none; stroke-width: 1.0;" width="54" x="2455.6667" y="893.5973"/><text fill="#000000" font-family="sans-serif" font-size="14" lengthAdjust="spacingAndGlyphs" textLength="0" x="2459.6667" y="908.5633"/><text fill="#000000" font-family="sans-serif" font-size="14" lengthAdjust="spacingAndGlyphs" textLength="0" x="2513.6667" y="908.5633"/><path d="M2519.3695,900.9986 C2516.4178,900.9986 2514.6667,904.4986 2514.6667,904.4986 C2514.6667,904.4986 2516.4178,907.9986 2519.3695,907.9986 C2522.2512,907.9986 2524,904.4986 2524,904.4986 C2524,904.4986 2522.2512,900.9986 2519.3695,900.9986 M2519.3333,902.1653 C2520.6167,902.1653 2521.6667,903.2153 2521.6667,904.4986 C2521.6667,905.7819 2520.6167,906.8319 2519.3333,906.8319 C2518.05,906.8319 2517,905.7819 2517,904.4986 C2517,903.2153 2518.05,902.1653 2519.3333,902.1653 M2519.3333,903.3319 C2518.6917,903.3319 2518.1667,903.8569 2518.1667,904.4986 C2518.1667,905.1403 2518.6917,905.6653 2519.3333,905.6653 C2519.975,905.6653 2520.5,905.1403 2520.5,904.4986 C2520.5,904.3819 2520.4627,904.2758 2520.4265,904.1708 C2520.3332,904.3574 2520.15,904.4986 2519.9155,904.4986 C2519.5888,904.4986 2519.3322,904.2419 2519.3322,903.9153 C2519.3322,903.6819 2519.4733,903.4988 2519.66,903.4043 C2519.555,903.3693 2519.4488,903.3308 2519.3322,903.3308 " fill="#000000" style="stroke: ; stroke-width: 0.0; stroke-dasharray: ;"/><text fill="#000000" font-family="sans-serif" font-size="14" lengthAdjust="spacingAndGlyphs" textLength="0" x="2529" y="908.5633"/><text fill="#000000" font-family="sans-serif" font-size="14" lengthAdjust="spacingAndGlyphs" textLength="53" x="2533" y="908.5633">Monitor</text><rect fill="#E8541E" height="19.0679" style="stroke: none; stroke-width: 1.0;" width="54" x="2455.6667" y="912.6653"/><text fill="#000000" font-family="sans-serif" font-size="14" lengthAdjust="spacingAndGlyphs" textLength="0" x="2459.6667" y="927.6312"/><text fill="#000000" font-family="sans-serif" font-size="14" lengthAdjust="spacingAndGlyphs" textLength="0" x="2513.6667" y="927.6312"/><path d="M2519.3333,918.8998 C2518.0442,918.8998 2517,920.2053 2517,921.8165 C2517,923.4277 2518.0442,924.7332 2519.3333,924.7332 C2520.6225,924.7332 2521.6667,923.4277 2521.6667,921.8165 C2521.6667,920.2053 2520.6225,918.8998 2519.3333,918.8998 M2516.8903,924.7332 C2515.642,924.7798 2514.6667,925.8065 2514.6667,927.0665 L2514.6667,928.2332 L2524,928.2332 L2524,927.0665 C2524,925.8065 2523.0247,924.7798 2521.7763,924.7332 C2521.1463,925.4448 2520.2783,925.8998 2519.3333,925.8998 C2518.3883,925.8998 2517.5203,925.4448 2516.8903,924.7332 " fill="#000000" style="stroke: ; stroke-width: 0.0; stroke-dasharray: ;"/><text fill="#000000" font-family="sans-serif" font-size="14" lengthAdjust="spacingAndGlyphs" textLength="0" x="2529" y="927.6312"/><text fill="#000000" font-family="sans-serif" font-size="14" lengthAdjust="spacingAndGlyphs" textLength="114" x="2533" y="927.6312">Human terminus</text><rect fill="#4E8FE8" height="19.0679" style="stroke: none; stroke-width: 1.0;" width="54" x="2455.6667" y="931.7332"/><text fill="#000000" font-family="sans-serif" font-size="14" lengthAdjust="spacingAndGlyphs" textLength="0" x="2459.6667" y="946.6991"/><text fill="#000000" font-family="sans-serif" font-size="14" lengthAdjust="spacingAndGlyphs" textLength="0" x="2513.6667" y="946.6991"/><path d="M2516.4167,937.9678 C2515.4507,937.9678 2514.6667,938.7518 2514.6667,939.7178 C2514.6667,940.4831 2515.1497,941.1201 2515.8333,941.3581 L2515.8333,943.9108 C2515.1497,944.1488 2514.6667,944.7858 2514.6667,945.5511 C2514.6667,946.5171 2515.4507,947.3011 2516.4167,947.3011 C2517.3827,947.3011 2518.1667,946.5171 2518.1667,945.5511 C2518.1667,944.8569 2517.7688,944.2666 2517.182,943.9831 C2517.287,943.8781 2517.4212,943.8011 2517.5833,943.8011 L2519.9167,943.8011 C2520.8768,943.8011 2521.6667,943.0113 2521.6667,942.0511 L2521.6667,941.3581 C2522.3503,941.1201 2522.8333,940.4831 2522.8333,939.7178 C2522.8333,938.7518 2522.0493,937.9678 2521.0833,937.9678 C2520.1173,937.9678 2519.3333,938.7518 2519.3333,939.7178 C2519.3333,940.4831 2519.8163,941.1201 2520.5,941.3581 L2520.5,942.0511 C2520.5,942.3743 2520.2398,942.6344 2519.9167,942.6344 L2517.5833,942.6344 C2517.3838,942.6344 2517.1797,942.6811 2517,942.7441 L2517,941.3581 C2517.6837,941.1201 2518.1667,940.4831 2518.1667,939.7178 C2518.1667,938.7518 2517.3827,937.9678 2516.4167,937.9678 " fill="#000000" style="stroke: ; stroke-width: 0.0; stroke-dasharray: ;"/><text fill="#000000" font-family="sans-serif" font-size="14" lengthAdjust="spacingAndGlyphs" textLength="0" x="2529" y="946.6991"/><text fill="#000000" font-family="sans-serif" font-size="14" lengthAdjust="spacingAndGlyphs" textLength="190" x="2533" y="946.6991">Monitored sub-loop (bridge)</text><rect fill="#C9E7CB" height="19.0679" style="stroke: none; stroke-width: 1.0;" width="54" x="2455.6667" y="950.8011"/><text fill="#000000" font-family="sans-serif" font-size="14" lengthAdjust="spacingAndGlyphs" textLength="0" x="2459.6667" y="965.767"/><text fill="#000000" font-family="sans-serif" font-size="14" lengthAdjust="spacingAndGlyphs" textLength="0" x="2513.6667" y="965.767"/><path d="M2514.6667,957.0357 L2514.6667,966.369 L2522.8333,966.369 L2522.8333,961.7023 L2518.1667,961.7023 L2518.1667,957.0357 L2514.6667,957.0357 M2519.3333,957.0357 L2519.3333,960.5357 L2522.8333,960.5357 L2519.3333,957.0357 M2515.8333,959.369 L2517,959.369 L2517,960.5357 L2515.8333,960.5357 L2515.8333,959.369 M2515.8333,961.7023 L2517,961.7023 L2517,962.869 L2515.8333,962.869 L2515.8333,961.7023 M2515.8333,964.0357 L2520.5,964.0357 L2520.5,965.2023 L2515.8333,965.2023 L2515.8333,964.0357 " fill="#000000" style="stroke: ; stroke-width: 0.0; stroke-dasharray: ;"/><text fill="#000000" font-family="sans-serif" font-size="14" lengthAdjust="spacingAndGlyphs" textLength="0" x="2529" y="965.767"/><text fill="#000000" font-family="sans-serif" font-size="14" lengthAdjust="spacingAndGlyphs" textLength="251" x="2533" y="965.767">Soft authority — transcribed/external</text><rect fill="#F3CBD0" height="19.0679" style="stroke: none; stroke-width: 1.0;" width="54" x="2455.6667" y="969.869"/><text fill="#000000" font-family="sans-serif" font-size="14" lengthAdjust="spacingAndGlyphs" textLength="0" x="2459.6667" y="984.8349"/><text fill="#000000" font-family="sans-serif" font-size="14" lengthAdjust="spacingAndGlyphs" textLength="0" x="2513.6667" y="984.8349"/><path d="M2518.75,976.1036 L2518.1667,977.4896 L2517.8388,977.6354 L2516.4528,977.0521 L2515.614,977.8909 L2516.1973,979.2769 L2516.0515,979.6048 L2514.6655,980.1881 L2514.6655,981.3548 L2516.0515,981.9381 L2516.1973,982.3033 L2515.614,983.6519 L2516.4528,984.4908 L2517.8388,983.9074 L2518.1667,984.0533 L2518.75,985.4393 L2519.9167,985.4393 L2520.5,984.0533 L2520.8278,983.9074 L2522.2138,984.4908 L2523.0527,983.6519 L2522.4693,982.2659 L2522.6152,981.9381 L2524.0012,981.3548 L2524.0012,980.1881 L2522.6152,979.6048 L2522.4693,979.2769 L2523.0165,977.8909 L2522.2138,977.0521 L2520.8278,977.6354 L2520.5,977.4896 L2519.9167,976.1036 L2518.75,976.1036 M2519.3333,979.0203 C2520.3017,979.0203 2521.0833,979.8019 2521.0833,980.7703 C2521.0833,981.7386 2520.3017,982.5203 2519.3333,982.5203 C2518.365,982.5203 2517.5833,981.7386 2517.5833,980.7703 C2517.5833,979.8019 2518.365,979.0203 2519.3333,979.0203 " fill="#000000" style="stroke: ; stroke-width: 0.0; stroke-dasharray: ;"/><text fill="#000000" font-family="sans-serif" font-size="14" lengthAdjust="spacingAndGlyphs" textLength="0" x="2529" y="984.8349"/><text fill="#000000" font-family="sans-serif" font-size="14" lengthAdjust="spacingAndGlyphs" textLength="253" x="2533" y="984.8349">Executable oracle — point/recompute</text><rect fill="#E2E2E2" height="19.0679" style="stroke: none; stroke-width: 1.0;" width="54" x="2455.6667" y="988.9369"/><text fill="#000000" font-family="sans-serif" font-size="14" lengthAdjust="spacingAndGlyphs" textLength="0" x="2459.6667" y="1003.9029"/><text fill="#000000" font-family="sans-serif" font-size="14" lengthAdjust="spacingAndGlyphs" textLength="0" x="2513.6667" y="1003.9029"/><path d="M2514.6667,995.1715 L2514.6667,996.3382 L2524,996.3382 L2524,995.1715 L2514.6667,995.1715 M2514.6667,997.5048 L2514.6667,1004.3952 C2514.6667,1004.4652 2514.7063,1004.5048 2514.7763,1004.5048 L2523.8915,1004.5048 C2523.9615,1004.5048 2524.0012,1004.4652 2524.0012,1004.3952 L2524.0012,997.5048 L2520.5373,997.5048 L2520.5373,998.7077 L2518.1678,998.7077 L2518.1678,997.5048 L2514.6678,997.5048 " fill="#000000" style="stroke: ; stroke-width: 0.0; stroke-dasharray: ;"/><text fill="#000000" font-family="sans-serif" font-size="14" lengthAdjust="spacingAndGlyphs" textLength="0" x="2529" y="1003.9029"/><text fill="#000000" font-family="sans-serif" font-size="14" lengthAdjust="spacingAndGlyphs" textLength="49" x="2533" y="1003.9029">Artifact</text><rect fill="#D98080" height="19.0679" style="stroke: none; stroke-width: 1.0;" width="54" x="2455.6667" y="1008.0048"/><text fill="#000000" font-family="sans-serif" font-size="14" lengthAdjust="spacingAndGlyphs" textLength="0" x="2459.6667" y="1022.9708"/><text fill="#000000" font-family="sans-serif" font-size="14" lengthAdjust="spacingAndGlyphs" textLength="0" x="2513.6667" y="1022.9708"/><path d="M2519.3333,1014.2394 C2516.7632,1014.2394 2514.6667,1016.3359 2514.6667,1018.9061 C2514.6667,1021.4763 2516.7632,1023.5728 2519.3333,1023.5728 C2521.9035,1023.5728 2524,1021.4763 2524,1018.9061 C2524,1016.3359 2521.9035,1014.2394 2519.3333,1014.2394 M2519.3333,1015.4061 C2520.0975,1015.4061 2520.801,1015.6499 2521.375,1016.0629 L2516.489,1020.9489 C2516.0772,1020.3749 2515.8322,1019.6714 2515.8322,1018.9073 C2515.8322,1016.9671 2517.392,1015.4073 2519.3322,1015.4073 M2522.1765,1016.8656 C2522.5883,1017.4396 2522.8333,1018.1431 2522.8333,1018.9073 C2522.8333,1020.8474 2521.2735,1022.4073 2519.3333,1022.4073 C2518.5692,1022.4073 2517.8657,1022.1634 2517.2917,1021.7504 L2522.1777,1016.8644 " fill="#000000" style="stroke: ; stroke-width: 0.0; stroke-dasharray: ;"/><text fill="#000000" font-family="sans-serif" font-size="14" lengthAdjust="spacingAndGlyphs" textLength="0" x="2529" y="1022.9708"/><text fill="#000000" font-family="sans-serif" font-size="14" lengthAdjust="spacingAndGlyphs" textLength="164" x="2533" y="1022.9708">Rationale (must-not-see)</text><rect fill="#D9D2E9" height="19.0679" style="stroke: none; stroke-width: 1.0;" width="54" x="2455.6667" y="1027.0728"/><text fill="#000000" font-family="sans-serif" font-size="14" lengthAdjust="spacingAndGlyphs" textLength="0" x="2459.6667" y="1042.0387"/><text fill="#000000" font-family="sans-serif" font-size="14" lengthAdjust="spacingAndGlyphs" textLength="0" x="2513.6667" y="1042.0387"/><path d="M2519.3333,1033.3073 C2518.0442,1033.3073 2517,1034.6128 2517,1036.224 C2517,1037.8352 2518.0442,1039.1407 2519.3333,1039.1407 C2520.6225,1039.1407 2521.6667,1037.8352 2521.6667,1036.224 C2521.6667,1034.6128 2520.6225,1033.3073 2519.3333,1033.3073 M2516.8903,1039.1407 C2515.642,1039.1873 2514.6667,1040.214 2514.6667,1041.474 L2514.6667,1042.6407 L2524,1042.6407 L2524,1041.474 C2524,1040.214 2523.0247,1039.1873 2521.7763,1039.1407 C2521.1463,1039.8523 2520.2783,1040.3073 2519.3333,1040.3073 C2518.3883,1040.3073 2517.5203,1039.8523 2516.8903,1039.1407 " fill="#000000" style="stroke: ; stroke-width: 0.0; stroke-dasharray: ;"/><text fill="#000000" font-family="sans-serif" font-size="14" lengthAdjust="spacingAndGlyphs" textLength="0" x="2529" y="1042.0387"/><text fill="#000000" font-family="sans-serif" font-size="14" lengthAdjust="spacingAndGlyphs" textLength="119" x="2533" y="1042.0387">Human judgment</text><line style="stroke: #000000; stroke-width: 1.0;" x1="2455.6667" x2="2790" y1="855.4615" y2="855.4615"/><line style="stroke: #000000; stroke-width: 1.0;" x1="2455.6667" x2="2790" y1="874.5294" y2="874.5294"/><line style="stroke: #000000; stroke-width: 1.0;" x1="2455.6667" x2="2790" y1="893.5973" y2="893.5973"/><line style="stroke: #000000; stroke-width: 1.0;" x1="2455.6667" x2="2790" y1="912.6653" y2="912.6653"/><line style="stroke: #000000; stroke-width: 1.0;" x1="2455.6667" x2="2790" y1="931.7332" y2="931.7332"/><line style="stroke: #000000; stroke-width: 1.0;" x1="2455.6667" x2="2790" y1="950.8011" y2="950.8011"/><line style="stroke: #000000; stroke-width: 1.0;" x1="2455.6667" x2="2790" y1="969.869" y2="969.869"/><line style="stroke: #000000; stroke-width: 1.0;" x1="2455.6667" x2="2790" y1="988.9369" y2="988.9369"/><line style="stroke: #000000; stroke-width: 1.0;" x1="2455.6667" x2="2790" y1="1008.0048" y2="1008.0048"/><line style="stroke: #000000; stroke-width: 1.0;" x1="2455.6667" x2="2790" y1="1027.0728" y2="1027.0728"/><line style="stroke: #000000; stroke-width: 1.0;" x1="2455.6667" x2="2790" y1="1046.1407" y2="1046.1407"/><line style="stroke: #000000; stroke-width: 1.0;" x1="2455.6667" x2="2455.6667" y1="855.4615" y2="1046.1407"/><line style="stroke: #000000; stroke-width: 1.0;" x1="2509.6667" x2="2509.6667" y1="855.4615" y2="1046.1407"/><line style="stroke: #000000; stroke-width: 1.0;" x1="2529" x2="2529" y1="855.4615" y2="1046.1407"/><line style="stroke: #000000; stroke-width: 1.0;" x1="2790" x2="2790" y1="855.4615" y2="1046.1407"/><!--MD5=[6388becb83a122a839af0e6d14d55034]
@startuml monitor-loop
title monitor-loop (monitor)\n<size:11><i>guards against: an over-generalized skill (right on the common case, silently</i></size>\n<size:11><i>wrong on a governed exception), or a mis-calibrated monitor that rubber-stamps</i></size>\n<size:11><i>(flags nothing) or saturates (flags everything).</i></size>
left to right direction
skinparam rectangleBorderColor #555
skinparam shadowing false
skinparam ArrowFontColor #888888
skinparam TitleFontColor #888888

rectangle "<&compass> Monitor-loop coordinator" as A_coordinator #E8541E
rectangle "<&eye> Skill monitor (Gate S)" as A_monitor #E8541E
rectangle "<&fork> Bridge -> the observed base loop (run as a sub-agent)" as A_sub_base #4E8FE8
rectangle "<&person> External / human reviewer (terminus)" as A_human_reviewer #E8541E

rectangle "<&document> Base loop's upper bound (the spec the skill must not contradict)" as S_base_u #C9E7CB
rectangle "<&cog> Base loop's executable oracle (differential comparator)" as S_base_l #F3CBD0
rectangle "<&box> The base loop's consolidated skill (the soft output under test)" as S_skill_under_test #E2E2E2
rectangle "<&ban> The deciding actor's rationale for the skill" as S_producer_rationale #D98080
rectangle "<&box> Gate S verdict (PASS / CARVE-OUT / REJECT)" as S_gate_s_verdict #E2E2E2
rectangle "<&person> External / human reviewer judgment" as S_human_review #D9D2E9

A_coordinator - -> S_base_u : U
A_coordinator - -> S_base_l : L
A_coordinator - -> S_gate_s_verdict : L
A_monitor - -> S_base_u : U
A_monitor - -> S_base_l : L
A_monitor ..> S_gate_s_verdict : produces
A_sub_base ..> S_skill_under_test : produces
A_sub_base ..> S_producer_rationale : produces
A_human_reviewer - -> S_base_u : U
A_human_reviewer ..> S_human_review : produces

A_coordinator -[#red,dashed]-> S_producer_rationale : ✗ must not see
A_monitor -[#red,dashed]-> S_producer_rationale : ✗ must not see

A_monitor -[#blue]-> A_sub_base : catches: the base loop emits a\ncoherent-and-wrong skill — over-generalized,\nright on the common case, silently wrong on a\ngoverned exception — via the trigger test\n(perturb the ignored signal, watch L's verdict\nmove) or validity test
A_coordinator -[#blue]-> A_monitor : catches: mis-calibration — rubber-stamping\n(flags nothing) or saturating (flags\neverything) — via flag-rate calibration: a\nhealthy monitor discriminates, leaving\ndefer-to-oracle skills untouched and flagging\nonly over-reaching ignore-signal skills
A_human_reviewer -[#blue]-> A_coordinator : catches: its own un-squeezed editorial\njudgment of whether a carve-out is faithful to\nthe base loop's U — via external/human review\n— the terminus that closes the soft side

legend right
|= Colour |=  |= Meaning |
|<#E8541E>| <&compass> | Coordinator |
|<#E8541E>| <&eye> | Monitor |
|<#E8541E>| <&person> | Human terminus |
|<#4E8FE8>| <&fork> | Monitored sub-loop (bridge) |
|<#C9E7CB>| <&document> | Soft authority — transcribed/external |
|<#F3CBD0>| <&cog> | Executable oracle — point/recompute |
|<#E2E2E2>| <&box> | Artifact |
|<#D98080>| <&ban> | Rationale (must-not-see) |
|<#D9D2E9>| <&person> | Human judgment |
endlegend
@enduml

PlantUML version 1.2020.02(Sun Mar 01 11:22:07 CET 2020)
(GPL source distribution)
Java Runtime: OpenJDK Runtime Environment
JVM: OpenJDK 64-Bit Server VM
Java Version: 25.0.3+9-2-26.04.2-Ubuntu
Operating System: Linux
Default Encoding: UTF-8
Language: en
Country: US
--></g></svg>