<?xml version="1.0" encoding="UTF-8" standalone="no"?><svg xmlns="http://www.w3.org/2000/svg" xmlns:xlink="http://www.w3.org/1999/xlink" contentScriptType="application/ecmascript" contentStyleType="text/css" height="836px" preserveAspectRatio="none" style="width:2634px;height:836px;" version="1.1" viewBox="0 0 2634 836" width="2634px" zoomAndPan="magnify"><defs/><g><text fill="#888888" font-family="sans-serif" font-size="18" lengthAdjust="spacingAndGlyphs" textLength="141" x="1245.5" y="19.2419">sl-auditor (meta)</text><text fill="#888888" font-family="sans-serif" font-size="11" font-style="italic" lengthAdjust="spacingAndGlyphs" textLength="336" x="1148" y="36.2748">guards against: a target that is quietly collapsing into a rubber stamp</text><text fill="#888888" font-family="sans-serif" font-size="11" font-style="italic" lengthAdjust="spacingAndGlyphs" textLength="318" x="1157" y="51.2566">(self-certifying actor, honorary barrier, self-declared done) while its</text><text fill="#888888" font-family="sans-serif" font-size="11" font-style="italic" lengthAdjust="spacingAndGlyphs" textLength="192" x="1220" y="66.2385">self-description still reads as compliant.</text><!--MD5=[92123a0a6e04f3a8d5fb0fd76e851980]
entity A_auditor--><rect fill="#E8541E" height="39.0679" style="stroke: #555555; stroke-width: 1.5;" width="254.3333" x="835.33" y="400.0515"/><path d="M850.4133,416.2861 C850.0867,416.2861 849.83,416.5428 849.83,416.8694 L849.83,417.4528 L848.955,417.4528 C848.7917,417.4528 848.6633,417.5811 848.6633,417.7444 L848.6633,418.6194 L852.1633,418.6194 L852.1633,417.7444 C852.1633,417.5811 852.035,417.4528 851.8717,417.4528 L850.9967,417.4528 L850.9967,416.8694 C850.9967,416.5428 850.74,416.2861 850.4133,416.2861 M846.6217,417.4528 C846.4583,417.4528 846.33,417.5811 846.33,417.7444 L846.33,425.3278 C846.33,425.4911 846.4583,425.6194 846.6217,425.6194 L854.205,425.6194 C854.3683,425.6194 854.4967,425.4911 854.4967,425.3278 L854.4967,417.7444 C854.4967,417.5811 854.3683,417.4528 854.205,417.4528 L853.33,417.4528 L853.33,419.7861 L847.4967,419.7861 L847.4967,417.4528 L846.6217,417.4528 " fill="#000000" style="stroke: ; stroke-width: 0.0; stroke-dasharray: ;"/><text fill="#000000" font-family="sans-serif" font-size="14" lengthAdjust="spacingAndGlyphs" textLength="219" x="860.6633" y="425.0174">SL auditor (runs Dimensions 1-9)</text><!--MD5=[166dfd1b18f939539020975f64f205fe]
entity A_target_loop--><rect fill="#4E8FE8" height="39.0679" style="stroke: #555555; stroke-width: 1.5;" width="431.3333" x="1556.67" y="385.0515"/><path d="M1569.42,401.2861 C1568.454,401.2861 1567.67,402.0701 1567.67,403.0361 C1567.67,403.8014 1568.153,404.4384 1568.8367,404.6764 L1568.8367,407.2291 C1568.153,407.4671 1567.67,408.1041 1567.67,408.8694 C1567.67,409.8354 1568.454,410.6194 1569.42,410.6194 C1570.386,410.6194 1571.17,409.8354 1571.17,408.8694 C1571.17,408.1753 1570.7722,407.5849 1570.1853,407.3014 C1570.2903,407.1964 1570.4245,407.1194 1570.5867,407.1194 L1572.92,407.1194 C1573.8802,407.1194 1574.67,406.3296 1574.67,405.3694 L1574.67,404.6764 C1575.3537,404.4384 1575.8367,403.8014 1575.8367,403.0361 C1575.8367,402.0701 1575.0527,401.2861 1574.0867,401.2861 C1573.1207,401.2861 1572.3367,402.0701 1572.3367,403.0361 C1572.3367,403.8014 1572.8197,404.4384 1573.5033,404.6764 L1573.5033,405.3694 C1573.5033,405.6926 1573.2432,405.9528 1572.92,405.9528 L1570.5867,405.9528 C1570.3872,405.9528 1570.183,405.9994 1570.0033,406.0624 L1570.0033,404.6764 C1570.687,404.4384 1571.17,403.8014 1571.17,403.0361 C1571.17,402.0701 1570.386,401.2861 1569.42,401.2861 " fill="#000000" style="stroke: ; stroke-width: 0.0; stroke-dasharray: ;"/><text fill="#000000" font-family="sans-serif" font-size="14" lengthAdjust="spacingAndGlyphs" textLength="396" x="1582.0033" y="410.0174">Bridge -&gt; the audited loop (run / inspected as a sub-agent)</text><!--MD5=[67ff4121d1c91b459c80ed2d9db13c0a]
entity A_disjoint_base--><rect fill="#E8541E" height="39.0679" style="stroke: #555555; stroke-width: 1.5;" width="423.3333" x="6" y="400.0515"/><path d="M21.6667,416.2861 C20.3775,416.2861 19.3333,417.5916 19.3333,419.2028 C19.3333,420.8139 20.3775,422.1194 21.6667,422.1194 C22.9558,422.1194 24,420.8139 24,419.2028 C24,417.5916 22.9558,416.2861 21.6667,416.2861 M19.2237,422.1194 C17.9753,422.1661 17,423.1928 17,424.4528 L17,425.6194 L26.3333,425.6194 L26.3333,424.4528 C26.3333,423.1928 25.358,422.1661 24.1097,422.1194 C23.4797,422.8311 22.6117,423.2861 21.6667,423.2861 C20.7217,423.2861 19.8537,422.8311 19.2237,422.1194 " fill="#000000" style="stroke: ; stroke-width: 0.0; stroke-dasharray: ;"/><text fill="#000000" font-family="sans-serif" font-size="14" lengthAdjust="spacingAndGlyphs" textLength="388" x="31.3333" y="425.0174">Disjoint base (cross-provider / human reviewer, terminus)</text><!--MD5=[4369ed44789fb3096e5433b8b4d4d945]
entity S_compliance_contract--><rect fill="#C9E7CB" height="39.0679" style="stroke: #555555; stroke-width: 1.5;" width="326.3333" x="1609.17" y="77.0515"/><path d="M1620.17,93.2861 L1620.17,102.6194 L1628.3367,102.6194 L1628.3367,97.9528 L1623.67,97.9528 L1623.67,93.2861 L1620.17,93.2861 M1624.8367,93.2861 L1624.8367,96.7861 L1628.3367,96.7861 L1624.8367,93.2861 M1621.3367,95.6194 L1622.5033,95.6194 L1622.5033,96.7861 L1621.3367,96.7861 L1621.3367,95.6194 M1621.3367,97.9528 L1622.5033,97.9528 L1622.5033,99.1194 L1621.3367,99.1194 L1621.3367,97.9528 M1621.3367,100.2861 L1626.0033,100.2861 L1626.0033,101.4528 L1621.3367,101.4528 L1621.3367,100.2861 " fill="#000000" style="stroke: ; stroke-width: 0.0; stroke-dasharray: ;"/><text fill="#000000" font-family="sans-serif" font-size="14" lengthAdjust="spacingAndGlyphs" textLength="291" x="1634.5033" y="102.0174">Compliance contract (C1-C4 + stabilizer set)</text><!--MD5=[300358ba76c203d2a2ba275ea66bd5c0]
entity S_disjointness_checker--><rect fill="#F3CBD0" height="39.0679" style="stroke: #555555; stroke-width: 1.5;" width="486.3333" x="1529.17" y="459.0515"/><path d="M1544.2533,475.2861 L1543.67,476.6721 L1543.3422,476.8179 L1541.9562,476.2346 L1541.1173,477.0734 L1541.7007,478.4594 L1541.5548,478.7873 L1540.1688,479.3706 L1540.1688,480.5373 L1541.5548,481.1206 L1541.7007,481.4858 L1541.1173,482.8344 L1541.9562,483.6733 L1543.3422,483.0899 L1543.67,483.2358 L1544.2533,484.6218 L1545.42,484.6218 L1546.0033,483.2358 L1546.3312,483.0899 L1547.7172,483.6733 L1548.556,482.8344 L1547.9727,481.4484 L1548.1185,481.1206 L1549.5045,480.5373 L1549.5045,479.3706 L1548.1185,478.7873 L1547.9727,478.4594 L1548.5198,477.0734 L1547.7172,476.2346 L1546.3312,476.8179 L1546.0033,476.6721 L1545.42,475.2861 L1544.2533,475.2861 M1544.8367,478.2028 C1545.805,478.2028 1546.5867,478.9844 1546.5867,479.9528 C1546.5867,480.9211 1545.805,481.7028 1544.8367,481.7028 C1543.8683,481.7028 1543.0867,480.9211 1543.0867,479.9528 C1543.0867,478.9844 1543.8683,478.2028 1544.8367,478.2028 " fill="#000000" style="stroke: ; stroke-width: 0.0; stroke-dasharray: ;"/><text fill="#000000" font-family="sans-serif" font-size="14" lengthAdjust="spacingAndGlyphs" textLength="451" x="1554.5033" y="484.0174">sl_disjointness_check.py over the target's .sl.json (mechanical floor)</text><!--MD5=[a8088a866f038e46228efd969e9f1f15]
entity S_calibration_probes--><rect fill="#F3CBD0" height="39.0679" style="stroke: #555555; stroke-width: 1.5;" width="513.3333" x="1515.67" y="533.0515"/><path d="M1530.7533,549.2861 L1530.17,550.6721 L1529.8422,550.8179 L1528.4562,550.2346 L1527.6173,551.0734 L1528.2007,552.4594 L1528.0548,552.7873 L1526.6688,553.3706 L1526.6688,554.5373 L1528.0548,555.1206 L1528.2007,555.4858 L1527.6173,556.8344 L1528.4562,557.6733 L1529.8422,557.0899 L1530.17,557.2358 L1530.7533,558.6218 L1531.92,558.6218 L1532.5033,557.2358 L1532.8312,557.0899 L1534.2172,557.6733 L1535.056,556.8344 L1534.4727,555.4484 L1534.6185,555.1206 L1536.0045,554.5373 L1536.0045,553.3706 L1534.6185,552.7873 L1534.4727,552.4594 L1535.0198,551.0734 L1534.2172,550.2346 L1532.8312,550.8179 L1532.5033,550.6721 L1531.92,549.2861 L1530.7533,549.2861 M1531.3367,552.2028 C1532.305,552.2028 1533.0867,552.9844 1533.0867,553.9528 C1533.0867,554.9211 1532.305,555.7028 1531.3367,555.7028 C1530.3683,555.7028 1529.5867,554.9211 1529.5867,553.9528 C1529.5867,552.9844 1530.3683,552.2028 1531.3367,552.2028 " fill="#000000" style="stroke: ; stroke-width: 0.0; stroke-dasharray: ;"/><text fill="#000000" font-family="sans-serif" font-size="14" lengthAdjust="spacingAndGlyphs" textLength="478" x="1541.0033" y="558.0174">Barrier ablation + seeded coherent-and-wrong probes + flag-rate band</text><!--MD5=[4e65f88895b022faeca41ace8111f4dd]
entity S_target_self_description--><rect fill="#E2E2E2" height="39.0679" style="stroke: #555555; stroke-width: 1.5;" width="459.3333" x="2151" y="385.0515"/><path d="M2162,401.2861 L2162,402.4528 L2171.3333,402.4528 L2171.3333,401.2861 L2162,401.2861 M2162,403.6194 L2162,410.5098 C2162,410.5798 2162.0397,410.6194 2162.1097,410.6194 L2171.2248,410.6194 C2171.2948,410.6194 2171.3345,410.5798 2171.3345,410.5098 L2171.3345,403.6194 L2167.8707,403.6194 L2167.8707,404.8223 L2165.5012,404.8223 L2165.5012,403.6194 L2162.0012,403.6194 " fill="#000000" style="stroke: ; stroke-width: 0.0; stroke-dasharray: ;"/><text fill="#000000" font-family="sans-serif" font-size="14" lengthAdjust="spacingAndGlyphs" textLength="424" x="2176.3333" y="410.0174">The target loop's SL-1.0 self-description (the claim under audit)</text><!--MD5=[bfb18c723e87f6b3d3ded7b455042f5b]
entity S_target_internals--><rect fill="#D98080" height="39.0679" style="stroke: #555555; stroke-width: 1.5;" width="467.3333" x="2147" y="533.0515"/><path d="M2162.6667,549.2861 C2160.0965,549.2861 2158,551.3826 2158,553.9528 C2158,556.5229 2160.0965,558.6194 2162.6667,558.6194 C2165.2368,558.6194 2167.3333,556.5229 2167.3333,553.9528 C2167.3333,551.3826 2165.2368,549.2861 2162.6667,549.2861 M2162.6667,550.4528 C2163.4308,550.4528 2164.1343,550.6966 2164.7083,551.1096 L2159.8223,555.9956 C2159.4105,555.4216 2159.1655,554.7181 2159.1655,553.9539 C2159.1655,552.0138 2160.7253,550.4539 2162.6655,550.4539 M2165.5098,551.9123 C2165.9217,552.4863 2166.1667,553.1898 2166.1667,553.9539 C2166.1667,555.8941 2164.6068,557.4539 2162.6667,557.4539 C2161.9025,557.4539 2161.199,557.2101 2160.625,556.7971 L2165.511,551.9111 " fill="#000000" style="stroke: ; stroke-width: 0.0; stroke-dasharray: ;"/><text fill="#000000" font-family="sans-serif" font-size="14" lengthAdjust="spacingAndGlyphs" textLength="432" x="2172.3333" y="558.0174">The target loop's implementation internals + its actors' rationale</text><!--MD5=[7405b2c2ddc60ce5f6fcff4f398360eb]
entity S_audit_report--><rect fill="#E2E2E2" height="39.0679" style="stroke: #555555; stroke-width: 1.5;" width="397.3333" x="1573.67" y="164.0515"/><path d="M1584.67,180.2861 L1584.67,181.4528 L1594.0033,181.4528 L1594.0033,180.2861 L1584.67,180.2861 M1584.67,182.6194 L1584.67,189.5098 C1584.67,189.5798 1584.7097,189.6194 1584.7797,189.6194 L1593.8948,189.6194 C1593.9648,189.6194 1594.0045,189.5798 1594.0045,189.5098 L1594.0045,182.6194 L1590.5407,182.6194 L1590.5407,183.8223 L1588.1712,183.8223 L1588.1712,182.6194 L1584.6712,182.6194 " fill="#000000" style="stroke: ; stroke-width: 0.0; stroke-dasharray: ;"/><text fill="#000000" font-family="sans-serif" font-size="14" lengthAdjust="spacingAndGlyphs" textLength="362" x="1599.0033" y="189.0174">Per-dimension findings report (D1-D9, with severities)</text><!--MD5=[656d3b2fca864e973dd995027dc206b8]
entity S_disjoint_review--><rect fill="#D9D2E9" height="39.0679" style="stroke: #555555; stroke-width: 1.5;" width="410.3333" x="757.33" y="474.0515"/><path d="M772.9967,490.2861 C771.7075,490.2861 770.6633,491.5916 770.6633,493.2028 C770.6633,494.8139 771.7075,496.1194 772.9967,496.1194 C774.2858,496.1194 775.33,494.8139 775.33,493.2028 C775.33,491.5916 774.2858,490.2861 772.9967,490.2861 M770.5537,496.1194 C769.3053,496.1661 768.33,497.1928 768.33,498.4528 L768.33,499.6194 L777.6633,499.6194 L777.6633,498.4528 C777.6633,497.1928 776.688,496.1661 775.4397,496.1194 C774.8097,496.8311 773.9417,497.2861 772.9967,497.2861 C772.0517,497.2861 771.1837,496.8311 770.5537,496.1194 " fill="#000000" style="stroke: ; stroke-width: 0.0; stroke-dasharray: ;"/><text fill="#000000" font-family="sans-serif" font-size="14" lengthAdjust="spacingAndGlyphs" textLength="375" x="782.6633" y="499.0174">Disjoint base judgment (cross-provider / human review)</text><!--MD5=[5746b5a06da09f2981a06fd01c85684d]
link A_auditor to S_compliance_contract--><path d="M974.59,399.8515 C1003.71,350.1615 1087.75,219.8515 1197.67,163.5915 C1206.75,158.9415 1436.58,133.0715 1602.53,114.8815 " fill="none" id="A_auditor-&gt;S_compliance_contract" style="stroke: #A80036; stroke-width: 1.0;"/><polygon fill="#A80036" points="1607.39,114.3515,1598.009,111.3521,1602.4195,114.8943,1598.8774,119.3048,1607.39,114.3515" style="stroke: #A80036; stroke-width: 1.0;"/><text fill="#888888" font-family="sans-serif" font-size="13" lengthAdjust="spacingAndGlyphs" textLength="10" x="1336.67" y="125.1485">U</text><!--MD5=[cae59f45c55f233e9ac44ede2f4582e8]
link A_auditor to S_disjointness_checker--><path d="M1089.96,438.9615 C1124.79,443.7215 1162.63,448.3715 1197.67,451.5915 C1303.92,461.3315 1421.57,467.6415 1522.54,471.6915 " fill="none" id="A_auditor-&gt;S_disjointness_checker" style="stroke: #A80036; stroke-width: 1.0;"/><polygon fill="#A80036" points="1527.35,471.8915,1518.5171,467.535,1522.354,471.6917,1518.1973,475.5286,1527.35,471.8915" style="stroke: #A80036; stroke-width: 1.0;"/><text fill="#888888" font-family="sans-serif" font-size="13" lengthAdjust="spacingAndGlyphs" textLength="7" x="1338.17" y="447.4885">L</text><!--MD5=[3bde51b28797d6a8a99621c4f466ceed]
link A_auditor to S_calibration_probes--><path d="M1090.09,427.4615 C1117.1,433.1615 1144.45,442.2515 1167.67,456.5915 C1186.57,468.2615 1178.3,485.6915 1197.67,496.5915 C1290.9,549.0215 1406.28,567.4315 1509.07,571.0915 " fill="none" id="A_auditor-&gt;S_calibration_probes" style="stroke: #A80036; stroke-width: 1.0;"/><polygon fill="#A80036" points="1513.99,571.2515,1505.1205,566.97,1508.9925,571.094,1504.8685,574.966,1513.99,571.2515" style="stroke: #A80036; stroke-width: 1.0;"/><text fill="#888888" font-family="sans-serif" font-size="13" lengthAdjust="spacingAndGlyphs" textLength="7" x="1338.17" y="492.4885">L</text><!--MD5=[80685a6bec70c28336e140b4c8486a0e]
link A_auditor to S_audit_report--><path d="M979.35,399.5815 C1013.83,357.7915 1100.37,261.8615 1197.67,222.5915 C1262.82,196.2915 1429.77,187.1215 1566.87,184.1915 " fill="none" id="A_auditor-&gt;S_audit_report" style="stroke: #A80036; stroke-width: 1.0; stroke-dasharray: 7.0,7.0;"/><polygon fill="#A80036" points="1571.86,184.0915,1562.7818,180.2723,1566.861,184.1915,1562.9418,188.2707,1571.86,184.0915" style="stroke: #A80036; stroke-width: 1.0;"/><text fill="#888888" font-family="sans-serif" font-size="13" lengthAdjust="spacingAndGlyphs" textLength="56" x="1313.67" y="182.6785">produces</text><!--MD5=[2081cfcf9a561b823b7cfc8305b991ff]
link A_target_loop to S_target_self_description--><path d="M1988.38,404.5915 C2038.94,404.5915 2093.08,404.5915 2144.47,404.5915 " fill="none" id="A_target_loop-&gt;S_target_self_description" style="stroke: #A80036; stroke-width: 1.0; stroke-dasharray: 7.0,7.0;"/><polygon fill="#A80036" points="2149.21,404.5915,2140.21,400.5915,2144.21,404.5915,2140.21,408.5915,2149.21,404.5915" style="stroke: #A80036; stroke-width: 1.0;"/><text fill="#888888" font-family="sans-serif" font-size="13" lengthAdjust="spacingAndGlyphs" textLength="56" x="2060" y="400.4885">produces</text><!--MD5=[9ee1816de6bfa222d3a676f72b917283]
link A_target_loop to S_target_internals--><path d="M1939.44,424.6115 C1969.41,429.3615 2000.26,435.0015 2029,441.5915 C2133.08,465.4215 2250.79,505.4715 2319.93,530.3915 " fill="none" id="A_target_loop-&gt;S_target_internals" style="stroke: #A80036; stroke-width: 1.0; stroke-dasharray: 7.0,7.0;"/><polygon fill="#A80036" points="2324.63,532.0915,2317.5205,525.2757,2319.9265,530.3954,2314.8068,532.8013,2324.63,532.0915" style="stroke: #A80036; stroke-width: 1.0;"/><text fill="#888888" font-family="sans-serif" font-size="13" lengthAdjust="spacingAndGlyphs" textLength="56" x="2060" y="446.9185">produces</text><!--MD5=[b441462ca5dd4cc2d54484424bcf735a]
link A_disjoint_base to S_compliance_contract--><path d="M248.55,399.6715 C292.84,370.9515 379.32,317.9215 459.33,286.5915 C774.03,163.3415 862.45,147.6715 1197.67,104.5915 C1332.92,87.2015 1487.59,86.1315 1602.22,88.8915 " fill="none" id="A_disjoint_base-&gt;S_compliance_contract" style="stroke: #A80036; stroke-width: 1.0;"/><polygon fill="#A80036" points="1607.16,89.0115,1598.2658,84.7815,1602.1617,88.883,1598.0602,92.7788,1607.16,89.0115" style="stroke: #A80036; stroke-width: 1.0;"/><text fill="#888888" font-family="sans-serif" font-size="13" lengthAdjust="spacingAndGlyphs" textLength="10" x="957.5" y="104.7085">U</text><!--MD5=[508a5bb08763778fd44faf335aae81c3]
link A_disjoint_base to S_disjoint_review--><path d="M393.78,439.6115 C415.84,442.0215 438.11,444.4015 459.33,446.5915 C554.92,456.4215 660.84,466.4615 750.66,474.7215 " fill="none" id="A_disjoint_base-&gt;S_disjoint_review" style="stroke: #A80036; stroke-width: 1.0; stroke-dasharray: 7.0,7.0;"/><polygon fill="#A80036" points="755.59,475.1815,746.9941,470.3742,750.611,474.7237,746.2615,478.3406,755.59,475.1815" style="stroke: #A80036; stroke-width: 1.0;"/><text fill="#888888" font-family="sans-serif" font-size="13" lengthAdjust="spacingAndGlyphs" textLength="56" x="565.33" y="442.4885">produces</text><!--MD5=[fd82c22af5fef53d7c81e1be1ae397f4]
link A_auditor to S_target_internals--><path d="M1089.98,419.9415 C1118.48,425.7215 1146.52,436.7515 1167.67,456.5915 C1208.07,494.5015 1155.74,541.3715 1197.67,577.5915 C1276.46,645.6515 1936,615.9715 2029,608.5915 C2112.22,601.9815 2205.52,586.7015 2274.94,573.7615 " fill="none" id="A_auditor-&gt;S_target_internals" style="stroke: #FF0000; stroke-width: 1.0; stroke-dasharray: 7.0,7.0;"/><polygon fill="#FF0000" points="2279.68,572.8815,2270.1002,570.5952,2274.7643,573.796,2271.5635,578.4602,2279.68,572.8815" style="stroke: #FF0000; stroke-width: 1.0;"/><text fill="#888888" font-family="sans-serif" font-size="13" lengthAdjust="spacingAndGlyphs" textLength="92" x="1726.33" y="604.4885">✗ must not see</text><!--MD5=[a68d065310a3efac3f94d28db7983063]
link A_auditor to A_target_loop--><path d="M1089.89,421.5015 C1124.8,421.9515 1162.7,422.3615 1197.67,422.5915 C1325.66,423.4115 1357.73,426.6115 1485.67,422.5915 C1506.57,421.9315 1528.33,421.0015 1550.09,419.9115 " fill="none" id="A_auditor-&gt;A_target_loop" style="stroke: #0000FF; stroke-width: 1.0;"/><polygon fill="#0000FF" points="1555.02,419.6615,1545.8264,416.129,1550.0266,419.9183,1546.2373,424.1185,1555.02,419.6615" style="stroke: #0000FF; stroke-width: 1.0;"/><text fill="#888888" font-family="sans-serif" font-size="13" lengthAdjust="spacingAndGlyphs" textLength="286" x="1198.67" y="241.4885">catches: the loop is coherent-and-wrong ABOUT</text><text fill="#888888" font-family="sans-serif" font-size="13" lengthAdjust="spacingAndGlyphs" textLength="265" x="1209.17" y="259.1945">ITSELF — its self-description has drifted from</text><text fill="#888888" font-family="sans-serif" font-size="13" lengthAdjust="spacingAndGlyphs" textLength="203" x="1240.17" y="276.9006">its actual apparatus, or it is quietly</text><text fill="#888888" font-family="sans-serif" font-size="13" lengthAdjust="spacingAndGlyphs" textLength="182" x="1250.67" y="294.6066">collapsing into a rubber stamp</text><text fill="#888888" font-family="sans-serif" font-size="13" lengthAdjust="spacingAndGlyphs" textLength="226" x="1228.67" y="312.3126">(self-certifying actor, honorary barrier,</text><text fill="#888888" font-family="sans-serif" font-size="13" lengthAdjust="spacingAndGlyphs" textLength="235" x="1224.17" y="330.0186">self-declared done) while still reading as</text><text fill="#888888" font-family="sans-serif" font-size="13" lengthAdjust="spacingAndGlyphs" textLength="220" x="1231.67" y="347.7246">compliant — via the mechanical floor</text><text fill="#888888" font-family="sans-serif" font-size="13" lengthAdjust="spacingAndGlyphs" textLength="257" x="1213.17" y="365.4306">(sl_disjointness_check.py) + barrier ablation</text><text fill="#888888" font-family="sans-serif" font-size="13" lengthAdjust="spacingAndGlyphs" textLength="221" x="1231.17" y="383.1367">(does the catch rate move?) + seeded</text><text fill="#888888" font-family="sans-serif" font-size="13" lengthAdjust="spacingAndGlyphs" textLength="286" x="1198.67" y="400.8427">coherent-and-wrong probes — inspected reality</text><text fill="#888888" font-family="sans-serif" font-size="13" lengthAdjust="spacingAndGlyphs" textLength="179" x="1252.17" y="418.5487">vs the claimed self-description</text><!--MD5=[8c01ac8068b475a99ba5d2c3d4b3bdcf]
link A_disjoint_base to A_auditor--><path d="M429.55,419.5915 C557.84,419.5915 717.77,419.5915 828.6,419.5915 " fill="none" id="A_disjoint_base-&gt;A_auditor" style="stroke: #0000FF; stroke-width: 1.0;"/><polygon fill="#0000FF" points="833.32,419.5915,824.32,415.5915,828.32,419.5915,824.32,423.5915,833.32,419.5915" style="stroke: #0000FF; stroke-width: 1.0;"/><text fill="#888888" font-family="sans-serif" font-size="13" lengthAdjust="spacingAndGlyphs" textLength="248" x="469.33" y="309.4885">catches: its own soft-vs-soft judgments —</text><text fill="#888888" font-family="sans-serif" font-size="13" lengthAdjust="spacingAndGlyphs" textLength="216" x="485.33" y="327.1945">framing faithfulness, self-description</text><text fill="#888888" font-family="sans-serif" font-size="13" lengthAdjust="spacingAndGlyphs" textLength="250" x="468.33" y="344.9006">accuracy — on which it shares the target's</text><text fill="#888888" font-family="sans-serif" font-size="13" lengthAdjust="spacingAndGlyphs" textLength="231" x="477.83" y="362.6066">blind spot and cannot self-certify — via</text><text fill="#888888" font-family="sans-serif" font-size="13" lengthAdjust="spacingAndGlyphs" textLength="250" x="468.33" y="380.3126">external / cross-provider or human review</text><text fill="#888888" font-family="sans-serif" font-size="13" lengthAdjust="spacingAndGlyphs" textLength="266" x="460.33" y="398.0186">(Dimension 8) — the disjoint base that closes</text><text fill="#888888" font-family="sans-serif" font-size="13" lengthAdjust="spacingAndGlyphs" textLength="70" x="558.33" y="415.7246">the residual</text><rect fill="#DDDDDD" height="185.6113" rx="5" ry="5" style="stroke: #000000; stroke-width: 1.0;" width="346.3333" x="2276.6667" y="639.4615"/><text fill="#000000" font-family="sans-serif" font-size="14" font-weight="bold" lengthAdjust="spacingAndGlyphs" textLength="46" x="2286.6667" y="661.4274">Colour</text><text fill="#000000" font-family="sans-serif" font-size="14" font-weight="bold" lengthAdjust="spacingAndGlyphs" textLength="0" x="2344.6667" y="661.4274"/><text fill="#000000" font-family="sans-serif" font-size="14" font-weight="bold" lengthAdjust="spacingAndGlyphs" textLength="60" x="2360" y="661.4274">Meaning</text><rect fill="#E8541E" height="19.0679" style="stroke: none; stroke-width: 1.0;" width="54" x="2282.6667" y="665.5294"/><text fill="#000000" font-family="sans-serif" font-size="14" lengthAdjust="spacingAndGlyphs" textLength="0" x="2286.6667" y="680.4954"/><text fill="#000000" font-family="sans-serif" font-size="14" lengthAdjust="spacingAndGlyphs" textLength="0" x="2340.6667" y="680.4954"/><path d="M2345.75,671.764 C2345.4233,671.764 2345.1667,672.0207 2345.1667,672.3473 L2345.1667,672.9307 L2344.2917,672.9307 C2344.1283,672.9307 2344,673.059 2344,673.2223 L2344,674.0973 L2347.5,674.0973 L2347.5,673.2223 C2347.5,673.059 2347.3717,672.9307 2347.2083,672.9307 L2346.3333,672.9307 L2346.3333,672.3473 C2346.3333,672.0207 2346.0767,671.764 2345.75,671.764 M2341.9583,672.9307 C2341.795,672.9307 2341.6667,673.059 2341.6667,673.2223 L2341.6667,680.8057 C2341.6667,680.969 2341.795,681.0973 2341.9583,681.0973 L2349.5417,681.0973 C2349.705,681.0973 2349.8333,680.969 2349.8333,680.8057 L2349.8333,673.2223 C2349.8333,673.059 2349.705,672.9307 2349.5417,672.9307 L2348.6667,672.9307 L2348.6667,675.264 L2342.8333,675.264 L2342.8333,672.9307 L2341.9583,672.9307 " fill="#000000" style="stroke: ; stroke-width: 0.0; stroke-dasharray: ;"/><text fill="#000000" font-family="sans-serif" font-size="14" lengthAdjust="spacingAndGlyphs" textLength="0" x="2356" y="680.4954"/><text fill="#000000" font-family="sans-serif" font-size="14" lengthAdjust="spacingAndGlyphs" textLength="50" x="2360" y="680.4954">Auditor</text><rect fill="#E8541E" height="19.0679" style="stroke: none; stroke-width: 1.0;" width="54" x="2282.6667" y="684.5973"/><text fill="#000000" font-family="sans-serif" font-size="14" lengthAdjust="spacingAndGlyphs" textLength="0" x="2286.6667" y="699.5633"/><text fill="#000000" font-family="sans-serif" font-size="14" lengthAdjust="spacingAndGlyphs" textLength="0" x="2340.6667" y="699.5633"/><path d="M2346.3333,690.8319 C2345.0442,690.8319 2344,692.1374 2344,693.7486 C2344,695.3598 2345.0442,696.6653 2346.3333,696.6653 C2347.6225,696.6653 2348.6667,695.3598 2348.6667,693.7486 C2348.6667,692.1374 2347.6225,690.8319 2346.3333,690.8319 M2343.8903,696.6653 C2342.642,696.7119 2341.6667,697.7386 2341.6667,698.9986 L2341.6667,700.1653 L2351,700.1653 L2351,698.9986 C2351,697.7386 2350.0247,696.7119 2348.7763,696.6653 C2348.1463,697.3769 2347.2783,697.8319 2346.3333,697.8319 C2345.3883,697.8319 2344.5203,697.3769 2343.8903,696.6653 " fill="#000000" style="stroke: ; stroke-width: 0.0; stroke-dasharray: ;"/><text fill="#000000" font-family="sans-serif" font-size="14" lengthAdjust="spacingAndGlyphs" textLength="0" x="2356" y="699.5633"/><text fill="#000000" font-family="sans-serif" font-size="14" lengthAdjust="spacingAndGlyphs" textLength="87" x="2360" y="699.5633">Disjoint base</text><rect fill="#4E8FE8" height="19.0679" style="stroke: none; stroke-width: 1.0;" width="54" x="2282.6667" y="703.6653"/><text fill="#000000" font-family="sans-serif" font-size="14" lengthAdjust="spacingAndGlyphs" textLength="0" x="2286.6667" y="718.6312"/><text fill="#000000" font-family="sans-serif" font-size="14" lengthAdjust="spacingAndGlyphs" textLength="0" x="2340.6667" y="718.6312"/><path d="M2343.4167,709.8998 C2342.4507,709.8998 2341.6667,710.6838 2341.6667,711.6498 C2341.6667,712.4152 2342.1497,713.0522 2342.8333,713.2902 L2342.8333,715.8428 C2342.1497,716.0808 2341.6667,716.7178 2341.6667,717.4832 C2341.6667,718.4492 2342.4507,719.2332 2343.4167,719.2332 C2344.3827,719.2332 2345.1667,718.4492 2345.1667,717.4832 C2345.1667,716.789 2344.7688,716.1987 2344.182,715.9152 C2344.287,715.8102 2344.4212,715.7332 2344.5833,715.7332 L2346.9167,715.7332 C2347.8768,715.7332 2348.6667,714.9433 2348.6667,713.9832 L2348.6667,713.2902 C2349.3503,713.0522 2349.8333,712.4152 2349.8333,711.6498 C2349.8333,710.6838 2349.0493,709.8998 2348.0833,709.8998 C2347.1173,709.8998 2346.3333,710.6838 2346.3333,711.6498 C2346.3333,712.4152 2346.8163,713.0522 2347.5,713.2902 L2347.5,713.9832 C2347.5,714.3063 2347.2398,714.5665 2346.9167,714.5665 L2344.5833,714.5665 C2344.3838,714.5665 2344.1797,714.6132 2344,714.6762 L2344,713.2902 C2344.6837,713.0522 2345.1667,712.4152 2345.1667,711.6498 C2345.1667,710.6838 2344.3827,709.8998 2343.4167,709.8998 " fill="#000000" style="stroke: ; stroke-width: 0.0; stroke-dasharray: ;"/><text fill="#000000" font-family="sans-serif" font-size="14" lengthAdjust="spacingAndGlyphs" textLength="0" x="2356" y="718.6312"/><text fill="#000000" font-family="sans-serif" font-size="14" lengthAdjust="spacingAndGlyphs" textLength="190" x="2360" y="718.6312">Monitored sub-loop (bridge)</text><rect fill="#C9E7CB" height="19.0679" style="stroke: none; stroke-width: 1.0;" width="54" x="2282.6667" y="722.7332"/><text fill="#000000" font-family="sans-serif" font-size="14" lengthAdjust="spacingAndGlyphs" textLength="0" x="2286.6667" y="737.6991"/><text fill="#000000" font-family="sans-serif" font-size="14" lengthAdjust="spacingAndGlyphs" textLength="0" x="2340.6667" y="737.6991"/><path d="M2341.6667,728.9678 L2341.6667,738.3011 L2349.8333,738.3011 L2349.8333,733.6344 L2345.1667,733.6344 L2345.1667,728.9678 L2341.6667,728.9678 M2346.3333,728.9678 L2346.3333,732.4678 L2349.8333,732.4678 L2346.3333,728.9678 M2342.8333,731.3011 L2344,731.3011 L2344,732.4678 L2342.8333,732.4678 L2342.8333,731.3011 M2342.8333,733.6344 L2344,733.6344 L2344,734.8011 L2342.8333,734.8011 L2342.8333,733.6344 M2342.8333,735.9678 L2347.5,735.9678 L2347.5,737.1344 L2342.8333,737.1344 L2342.8333,735.9678 " fill="#000000" style="stroke: ; stroke-width: 0.0; stroke-dasharray: ;"/><text fill="#000000" font-family="sans-serif" font-size="14" lengthAdjust="spacingAndGlyphs" textLength="0" x="2356" y="737.6991"/><text fill="#000000" font-family="sans-serif" font-size="14" lengthAdjust="spacingAndGlyphs" textLength="251" x="2360" y="737.6991">Soft authority — transcribed/external</text><rect fill="#F3CBD0" height="19.0679" style="stroke: none; stroke-width: 1.0;" width="54" x="2282.6667" y="741.8011"/><text fill="#000000" font-family="sans-serif" font-size="14" lengthAdjust="spacingAndGlyphs" textLength="0" x="2286.6667" y="756.767"/><text fill="#000000" font-family="sans-serif" font-size="14" lengthAdjust="spacingAndGlyphs" textLength="0" x="2340.6667" y="756.767"/><path d="M2345.75,748.0357 L2345.1667,749.4217 L2344.8388,749.5675 L2343.4528,748.9842 L2342.614,749.823 L2343.1973,751.209 L2343.0515,751.5368 L2341.6655,752.1202 L2341.6655,753.2868 L2343.0515,753.8702 L2343.1973,754.2353 L2342.614,755.584 L2343.4528,756.4228 L2344.8388,755.8395 L2345.1667,755.9853 L2345.75,757.3713 L2346.9167,757.3713 L2347.5,755.9853 L2347.8278,755.8395 L2349.2138,756.4228 L2350.0527,755.584 L2349.4693,754.198 L2349.6152,753.8702 L2351.0012,753.2868 L2351.0012,752.1202 L2349.6152,751.5368 L2349.4693,751.209 L2350.0165,749.823 L2349.2138,748.9842 L2347.8278,749.5675 L2347.5,749.4217 L2346.9167,748.0357 L2345.75,748.0357 M2346.3333,750.9523 C2347.3017,750.9523 2348.0833,751.734 2348.0833,752.7023 C2348.0833,753.6707 2347.3017,754.4523 2346.3333,754.4523 C2345.365,754.4523 2344.5833,753.6707 2344.5833,752.7023 C2344.5833,751.734 2345.365,750.9523 2346.3333,750.9523 " fill="#000000" style="stroke: ; stroke-width: 0.0; stroke-dasharray: ;"/><text fill="#000000" font-family="sans-serif" font-size="14" lengthAdjust="spacingAndGlyphs" textLength="0" x="2356" y="756.767"/><text fill="#000000" font-family="sans-serif" font-size="14" lengthAdjust="spacingAndGlyphs" textLength="253" x="2360" y="756.767">Executable oracle — point/recompute</text><rect fill="#E2E2E2" height="19.0679" style="stroke: none; stroke-width: 1.0;" width="54" x="2282.6667" y="760.869"/><text fill="#000000" font-family="sans-serif" font-size="14" lengthAdjust="spacingAndGlyphs" textLength="0" x="2286.6667" y="775.8349"/><text fill="#000000" font-family="sans-serif" font-size="14" lengthAdjust="spacingAndGlyphs" textLength="0" x="2340.6667" y="775.8349"/><path d="M2341.6667,767.1036 L2341.6667,768.2703 L2351,768.2703 L2351,767.1036 L2341.6667,767.1036 M2341.6667,769.4369 L2341.6667,776.3273 C2341.6667,776.3973 2341.7063,776.4369 2341.7763,776.4369 L2350.8915,776.4369 C2350.9615,776.4369 2351.0012,776.3973 2351.0012,776.3273 L2351.0012,769.4369 L2347.5373,769.4369 L2347.5373,770.6398 L2345.1678,770.6398 L2345.1678,769.4369 L2341.6678,769.4369 " fill="#000000" style="stroke: ; stroke-width: 0.0; stroke-dasharray: ;"/><text fill="#000000" font-family="sans-serif" font-size="14" lengthAdjust="spacingAndGlyphs" textLength="0" x="2356" y="775.8349"/><text fill="#000000" font-family="sans-serif" font-size="14" lengthAdjust="spacingAndGlyphs" textLength="49" x="2360" y="775.8349">Artifact</text><rect fill="#D98080" height="19.0679" style="stroke: none; stroke-width: 1.0;" width="54" x="2282.6667" y="779.9369"/><text fill="#000000" font-family="sans-serif" font-size="14" lengthAdjust="spacingAndGlyphs" textLength="0" x="2286.6667" y="794.9029"/><text fill="#000000" font-family="sans-serif" font-size="14" lengthAdjust="spacingAndGlyphs" textLength="0" x="2340.6667" y="794.9029"/><path d="M2346.3333,786.1715 C2343.7632,786.1715 2341.6667,788.268 2341.6667,790.8382 C2341.6667,793.4083 2343.7632,795.5048 2346.3333,795.5048 C2348.9035,795.5048 2351,793.4083 2351,790.8382 C2351,788.268 2348.9035,786.1715 2346.3333,786.1715 M2346.3333,787.3382 C2347.0975,787.3382 2347.801,787.582 2348.375,787.995 L2343.489,792.881 C2343.0772,792.307 2342.8322,791.6035 2342.8322,790.8393 C2342.8322,788.8992 2344.392,787.3393 2346.3322,787.3393 M2349.1765,788.7977 C2349.5883,789.3717 2349.8333,790.0752 2349.8333,790.8393 C2349.8333,792.7795 2348.2735,794.3393 2346.3333,794.3393 C2345.5692,794.3393 2344.8657,794.0955 2344.2917,793.6825 L2349.1777,788.7965 " fill="#000000" style="stroke: ; stroke-width: 0.0; stroke-dasharray: ;"/><text fill="#000000" font-family="sans-serif" font-size="14" lengthAdjust="spacingAndGlyphs" textLength="0" x="2356" y="794.9029"/><text fill="#000000" font-family="sans-serif" font-size="14" lengthAdjust="spacingAndGlyphs" textLength="164" x="2360" y="794.9029">Rationale (must-not-see)</text><rect fill="#D9D2E9" height="19.0679" style="stroke: none; stroke-width: 1.0;" width="54" x="2282.6667" y="799.0048"/><text fill="#000000" font-family="sans-serif" font-size="14" lengthAdjust="spacingAndGlyphs" textLength="0" x="2286.6667" y="813.9708"/><text fill="#000000" font-family="sans-serif" font-size="14" lengthAdjust="spacingAndGlyphs" textLength="0" x="2340.6667" y="813.9708"/><path d="M2346.3333,805.2394 C2345.0442,805.2394 2344,806.5449 2344,808.1561 C2344,809.7673 2345.0442,811.0728 2346.3333,811.0728 C2347.6225,811.0728 2348.6667,809.7673 2348.6667,808.1561 C2348.6667,806.5449 2347.6225,805.2394 2346.3333,805.2394 M2343.8903,811.0728 C2342.642,811.1194 2341.6667,812.1461 2341.6667,813.4061 L2341.6667,814.5728 L2351,814.5728 L2351,813.4061 C2351,812.1461 2350.0247,811.1194 2348.7763,811.0728 C2348.1463,811.7844 2347.2783,812.2394 2346.3333,812.2394 C2345.3883,812.2394 2344.5203,811.7844 2343.8903,811.0728 " fill="#000000" style="stroke: ; stroke-width: 0.0; stroke-dasharray: ;"/><text fill="#000000" font-family="sans-serif" font-size="14" lengthAdjust="spacingAndGlyphs" textLength="0" x="2356" y="813.9708"/><text fill="#000000" font-family="sans-serif" font-size="14" lengthAdjust="spacingAndGlyphs" textLength="119" x="2360" y="813.9708">Human judgment</text><line style="stroke: #000000; stroke-width: 1.0;" x1="2282.6667" x2="2617" y1="646.4615" y2="646.4615"/><line style="stroke: #000000; stroke-width: 1.0;" x1="2282.6667" x2="2617" y1="665.5294" y2="665.5294"/><line style="stroke: #000000; stroke-width: 1.0;" x1="2282.6667" x2="2617" y1="684.5973" y2="684.5973"/><line style="stroke: #000000; stroke-width: 1.0;" x1="2282.6667" x2="2617" y1="703.6653" y2="703.6653"/><line style="stroke: #000000; stroke-width: 1.0;" x1="2282.6667" x2="2617" y1="722.7332" y2="722.7332"/><line style="stroke: #000000; stroke-width: 1.0;" x1="2282.6667" x2="2617" y1="741.8011" y2="741.8011"/><line style="stroke: #000000; stroke-width: 1.0;" x1="2282.6667" x2="2617" y1="760.869" y2="760.869"/><line style="stroke: #000000; stroke-width: 1.0;" x1="2282.6667" x2="2617" y1="779.9369" y2="779.9369"/><line style="stroke: #000000; stroke-width: 1.0;" x1="2282.6667" x2="2617" y1="799.0048" y2="799.0048"/><line style="stroke: #000000; stroke-width: 1.0;" x1="2282.6667" x2="2617" y1="818.0728" y2="818.0728"/><line style="stroke: #000000; stroke-width: 1.0;" x1="2282.6667" x2="2282.6667" y1="646.4615" y2="818.0728"/><line style="stroke: #000000; stroke-width: 1.0;" x1="2336.6667" x2="2336.6667" y1="646.4615" y2="818.0728"/><line style="stroke: #000000; stroke-width: 1.0;" x1="2356" x2="2356" y1="646.4615" y2="818.0728"/><line style="stroke: #000000; stroke-width: 1.0;" x1="2617" x2="2617" y1="646.4615" y2="818.0728"/><!--MD5=[b9ca3a9bffc9e29a1e257926eb1828cf]
@startuml sl-auditor
title sl-auditor (meta)\n<size:11><i>guards against: a target that is quietly collapsing into a rubber stamp</i></size>\n<size:11><i>(self-certifying actor, honorary barrier, self-declared done) while its</i></size>\n<size:11><i>self-description still reads as compliant.</i></size>
left to right direction
skinparam rectangleBorderColor #555
skinparam shadowing false
skinparam ArrowFontColor #888888
skinparam TitleFontColor #888888

rectangle "<&clipboard> SL auditor (runs Dimensions 1-9)" as A_auditor #E8541E
rectangle "<&fork> Bridge -> the audited loop (run / inspected as a sub-agent)" as A_target_loop #4E8FE8
rectangle "<&person> Disjoint base (cross-provider / human reviewer, terminus)" as A_disjoint_base #E8541E

rectangle "<&document> Compliance contract (C1-C4 + stabilizer set)" as S_compliance_contract #C9E7CB
rectangle "<&cog> sl_disjointness_check.py over the target's .sl.json (mechanical floor)" as S_disjointness_checker #F3CBD0
rectangle "<&cog> Barrier ablation + seeded coherent-and-wrong probes + flag-rate band" as S_calibration_probes #F3CBD0
rectangle "<&box> The target loop's SL-1.0 self-description (the claim under audit)" as S_target_self_description #E2E2E2
rectangle "<&ban> The target loop's implementation internals + its actors' rationale" as S_target_internals #D98080
rectangle "<&box> Per-dimension findings report (D1-D9, with severities)" as S_audit_report #E2E2E2
rectangle "<&person> Disjoint base judgment (cross-provider / human review)" as S_disjoint_review #D9D2E9

A_auditor - -> S_compliance_contract : U
A_auditor - -> S_disjointness_checker : L
A_auditor - -> S_calibration_probes : L
A_auditor ..> S_audit_report : produces
A_target_loop ..> S_target_self_description : produces
A_target_loop ..> S_target_internals : produces
A_disjoint_base - -> S_compliance_contract : U
A_disjoint_base ..> S_disjoint_review : produces

A_auditor -[#red,dashed]-> S_target_internals : ✗ must not see

A_auditor -[#blue]-> A_target_loop : catches: the loop is coherent-and-wrong ABOUT\nITSELF — its self-description has drifted from\nits actual apparatus, or it is quietly\ncollapsing into a rubber stamp\n(self-certifying actor, honorary barrier,\nself-declared done) while still reading as\ncompliant — via the mechanical floor\n(sl_disjointness_check.py) + barrier ablation\n(does the catch rate move?) + seeded\ncoherent-and-wrong probes — inspected reality\nvs the claimed self-description
A_disjoint_base -[#blue]-> A_auditor : catches: its own soft-vs-soft judgments —\nframing faithfulness, self-description\naccuracy — on which it shares the target's\nblind spot and cannot self-certify — via\nexternal / cross-provider or human review\n(Dimension 8) — the disjoint base that closes\nthe residual

legend right
|= Colour |=  |= Meaning |
|<#E8541E>| <&clipboard> | Auditor |
|<#E8541E>| <&person> | Disjoint base |
|<#4E8FE8>| <&fork> | Monitored sub-loop (bridge) |
|<#C9E7CB>| <&document> | Soft authority — transcribed/external |
|<#F3CBD0>| <&cog> | Executable oracle — point/recompute |
|<#E2E2E2>| <&box> | Artifact |
|<#D98080>| <&ban> | Rationale (must-not-see) |
|<#D9D2E9>| <&person> | Human judgment |
endlegend
@enduml

PlantUML version 1.2020.02(Sun Mar 01 11:22:07 CET 2020)
(GPL source distribution)
Java Runtime: OpenJDK Runtime Environment
JVM: OpenJDK 64-Bit Server VM
Java Version: 25.0.3+9-2-26.04.2-Ubuntu
Operating System: Linux
Default Encoding: UTF-8
Language: en
Country: US
--></g></svg>