<?xml version="1.0" encoding="UTF-8" standalone="no"?><svg xmlns="http://www.w3.org/2000/svg" xmlns:xlink="http://www.w3.org/1999/xlink" contentScriptType="application/ecmascript" contentStyleType="text/css" height="1332px" preserveAspectRatio="none" style="width:1826px;height:1332px;" version="1.1" viewBox="0 0 1826 1332" width="1826px" zoomAndPan="magnify"><defs/><g><text fill="#888888" font-family="sans-serif" font-size="18" lengthAdjust="spacingAndGlyphs" textLength="144" x="840" y="19.2419">instance-b (base)</text><text fill="#888888" font-family="sans-serif" font-size="11" font-style="italic" lengthAdjust="spacingAndGlyphs" textLength="354" x="735" y="36.2748">guards against: a bot that handles nominal distress perfectly but caves to</text><text fill="#888888" font-family="sans-serif" font-size="11" font-style="italic" lengthAdjust="spacingAndGlyphs" textLength="283" x="770.5" y="51.2566">multi-turn legal coercion or duplicate-refund manipulation.</text><!--MD5=[16666313b46a364dfa6fcce22871d203]
entity A_sentinel--><rect fill="#E8541E" height="39.0679" style="stroke: #555555; stroke-width: 1.5;" width="220.3333" x="6" y="616.6696"/><path d="M21.6667,632.9042 C19.0965,632.9042 17,635.0007 17,637.5709 C17,640.141 19.0965,642.2375 21.6667,642.2375 C24.2368,642.2375 26.3333,640.141 26.3333,637.5709 C26.3333,635.0007 24.2368,632.9042 21.6667,632.9042 M21.6667,634.0709 C23.6068,634.0709 25.1667,635.6307 25.1667,637.5709 C25.1667,639.511 23.6068,641.0709 21.6667,641.0709 C19.7265,641.0709 18.1667,639.511 18.1667,637.5709 C18.1667,635.6307 19.7265,634.0709 21.6667,634.0709 M24,635.2375 L20.5,636.4042 L19.3333,639.9042 L22.8333,638.7375 L24,635.2375 M21.6667,636.9875 C21.9933,636.9875 22.25,637.2442 22.25,637.5709 C22.25,637.8975 21.9933,638.1542 21.6667,638.1542 C21.34,638.1542 21.0833,637.8975 21.0833,637.5709 C21.0833,637.2442 21.34,636.9875 21.6667,636.9875 " fill="#000000" style="stroke: ; stroke-width: 0.0; stroke-dasharray: ;"/><text fill="#000000" font-family="sans-serif" font-size="14" lengthAdjust="spacingAndGlyphs" textLength="185" x="31.3333" y="641.6356">Gate sentinel / orchestrator</text><!--MD5=[91b5d8b7909398dfeefa3d95053ab585]
entity A_policy_author--><rect fill="#E8541E" height="39.0679" style="stroke: #555555; stroke-width: 1.5;" width="176.3333" x="1064.67" y="640.6696"/><path d="M1079.17,656.9042 C1078.5283,656.9042 1078.0033,657.4292 1078.0033,658.0709 L1078.0033,664.4875 C1078.0033,664.8142 1077.7467,665.0709 1077.42,665.0709 C1077.0933,665.0709 1076.8367,664.8142 1076.8367,664.4875 L1076.8367,662.7375 L1075.67,662.7375 L1075.67,665.0709 C1075.67,665.7125 1076.195,666.2375 1076.8367,666.2375 L1082.67,666.2375 C1083.3117,666.2375 1083.8367,665.7125 1083.8367,665.0709 L1083.8367,661.5709 L1079.17,661.5709 L1079.17,658.6542 C1079.17,658.3275 1079.4267,658.0709 1079.7533,658.0709 C1080.08,658.0709 1080.3367,658.3275 1080.3367,658.6542 L1080.3367,660.4042 L1085.0033,660.4042 L1085.0033,658.0709 C1085.0033,657.4292 1084.4783,656.9042 1083.8367,656.9042 L1079.17,656.9042 " fill="#000000" style="stroke: ; stroke-width: 0.0; stroke-dasharray: ;"/><text fill="#000000" font-family="sans-serif" font-size="14" lengthAdjust="spacingAndGlyphs" textLength="141" x="1090.0033" y="665.6356">Refund policy author</text><!--MD5=[181cff270489bda44ca31ebad832d943]
entity A_implementer--><rect fill="#E8541E" height="39.0679" style="stroke: #555555; stroke-width: 1.5;" width="202.3333" x="1051.67" y="368.6696"/><path d="M1069.0867,384.9042 C1067.4767,384.9042 1066.17,386.2109 1066.17,387.8209 C1066.17,388.1942 1066.261,388.5512 1066.3893,388.8779 L1062.999,392.232 C1062.544,392.687 1062.544,393.4174 1062.999,393.8724 C1063.2323,394.1057 1063.5345,394.2375 1063.8378,394.2375 C1064.1412,394.2375 1064.4433,394.1314 1064.6767,393.9097 L1068.0308,390.5555 C1068.3575,390.6722 1068.7145,390.7375 1069.0878,390.7375 C1070.6978,390.7375 1072.0045,389.4309 1072.0045,387.8209 C1072.0045,387.6342 1071.9672,387.4744 1071.931,387.3099 L1070.8367,388.4042 L1068.5033,388.4042 L1068.5033,386.0709 L1069.5977,384.9765 C1069.4343,384.9415 1069.2745,384.9042 1069.0867,384.903 M1063.8367,392.4864 C1064.1633,392.4864 1064.42,392.743 1064.42,393.0697 C1064.42,393.3964 1064.1633,393.653 1063.8367,393.653 C1063.51,393.653 1063.2533,393.3964 1063.2533,393.0697 C1063.2533,392.743 1063.51,392.4864 1063.8367,392.4864 " fill="#000000" style="stroke: ; stroke-width: 0.0; stroke-dasharray: ;"/><text fill="#000000" font-family="sans-serif" font-size="14" lengthAdjust="spacingAndGlyphs" textLength="167" x="1077.0033" y="393.6356">Refund-bot implementer</text><!--MD5=[71f63620eca0e672333d873ac415471c]
entity A_exerciser--><rect fill="#E8541E" height="39.0679" style="stroke: #555555; stroke-width: 1.5;" width="176.3333" x="552.33" y="511.6696"/><path d="M567.4133,527.9042 C565.1652,527.9042 563.33,529.7394 563.33,531.9875 C563.33,534.2357 565.1652,536.0709 567.4133,536.0709 C568.104,536.0709 568.7737,535.9017 569.3453,535.5972 A1.1667,1.1667 0 0 0 569.4912,535.743 L570.6578,536.9097 A1.1853,1.1853 0 1 0 572.3355,535.232 L571.1688,534.0654 A1.1667,1.1667 0 0 0 570.9868,533.9195 C571.2972,533.3444 571.4978,532.684 571.4978,531.9875 C571.4978,529.7394 569.6627,527.9042 567.4145,527.9042 M567.4145,529.0709 C569.0327,529.0709 570.3312,530.3694 570.3312,531.9875 C570.3312,532.7587 570.05,533.4727 569.5658,533.993 L569.5297,534.0292 A1.1667,1.1667 0 0 0 569.3838,534.175 C568.8682,534.6382 568.167,534.9042 567.4145,534.9042 C565.7963,534.9042 564.4978,533.6057 564.4978,531.9875 C564.4978,530.3694 565.7963,529.0709 567.4145,529.0709 " fill="#000000" style="stroke: ; stroke-width: 0.0; stroke-dasharray: ;"/><text fill="#000000" font-family="sans-serif" font-size="14" lengthAdjust="spacingAndGlyphs" textLength="141" x="577.6633" y="536.6356">Adversarial exerciser</text><!--MD5=[0d01b848268965027bdd7a03a1695120]
entity S_corporate_mandate--><rect fill="#C9E7CB" height="39.0679" style="stroke: #555555; stroke-width: 1.5;" width="210.3333" x="1502" y="609.6696"/><path d="M1513,625.9042 L1513,635.2375 L1521.1667,635.2375 L1521.1667,630.5709 L1516.5,630.5709 L1516.5,625.9042 L1513,625.9042 M1517.6667,625.9042 L1517.6667,629.4042 L1521.1667,629.4042 L1517.6667,625.9042 M1514.1667,628.2375 L1515.3333,628.2375 L1515.3333,629.4042 L1514.1667,629.4042 L1514.1667,628.2375 M1514.1667,630.5709 L1515.3333,630.5709 L1515.3333,631.7375 L1514.1667,631.7375 L1514.1667,630.5709 M1514.1667,632.9042 L1518.8333,632.9042 L1518.8333,634.0709 L1514.1667,634.0709 L1514.1667,632.9042 " fill="#000000" style="stroke: ; stroke-width: 0.0; stroke-dasharray: ;"/><text fill="#000000" font-family="sans-serif" font-size="14" lengthAdjust="spacingAndGlyphs" textLength="175" x="1527.3333" y="634.6356">Vague corporate mandate</text><!--MD5=[9d6dd779466dace82b4fc248037c9d2e]
entity S_refund_policy--><rect fill="#C9E7CB" height="39.0679" style="stroke: #555555; stroke-width: 1.5;" width="373.3333" x="1420.5" y="270.6696"/><path d="M1438.5,286.9042 L1437.3333,288.0709 L1439.6667,290.4042 L1440.8333,289.2375 L1438.5,286.9042 M1436.1667,289.2375 L1431.5,293.9042 L1431.5,296.2375 L1433.8333,296.2375 L1438.5,291.5709 L1436.1667,289.2375 " fill="#000000" style="stroke: ; stroke-width: 0.0; stroke-dasharray: ;"/><text fill="#000000" font-family="sans-serif" font-size="14" lengthAdjust="spacingAndGlyphs" textLength="338" x="1445.8333" y="295.6356">POL_REFUND_042 refund policy (authored clauses)</text><!--MD5=[e1a6ba64cb52616cc09a8682cbebf1a3]
entity S_rest_app--><rect fill="#F3CBD0" height="39.0679" style="stroke: #555555; stroke-width: 1.5;" width="324.3333" x="1445" y="149.6696"/><path d="M1460.0833,165.9042 L1459.5,167.2902 L1459.1722,167.436 L1457.7862,166.8527 L1456.9473,167.6915 L1457.5307,169.0775 L1457.3848,169.4054 L1455.9988,169.9887 L1455.9988,171.1554 L1457.3848,171.7387 L1457.5307,172.1039 L1456.9473,173.4525 L1457.7862,174.2914 L1459.1722,173.708 L1459.5,173.8539 L1460.0833,175.2399 L1461.25,175.2399 L1461.8333,173.8539 L1462.1612,173.708 L1463.5472,174.2914 L1464.386,173.4525 L1463.8027,172.0665 L1463.9485,171.7387 L1465.3345,171.1554 L1465.3345,169.9887 L1463.9485,169.4054 L1463.8027,169.0775 L1464.3498,167.6915 L1463.5472,166.8527 L1462.1612,167.436 L1461.8333,167.2902 L1461.25,165.9042 L1460.0833,165.9042 M1460.6667,168.8209 C1461.635,168.8209 1462.4167,169.6025 1462.4167,170.5709 C1462.4167,171.5392 1461.635,172.3209 1460.6667,172.3209 C1459.6983,172.3209 1458.9167,171.5392 1458.9167,170.5709 C1458.9167,169.6025 1459.6983,168.8209 1460.6667,168.8209 " fill="#000000" style="stroke: ; stroke-width: 0.0; stroke-dasharray: ;"/><text fill="#000000" font-family="sans-serif" font-size="14" lengthAdjust="spacingAndGlyphs" textLength="289" x="1470.3333" y="174.6356">Frozen headless REST app (compute plane)</text><!--MD5=[72a3f5d1a46d56339a07e4b3abf21105]
entity S_customer_db--><rect fill="#F3CBD0" height="39.0679" style="stroke: #555555; stroke-width: 1.5;" width="242.3333" x="1486" y="862.6696"/><path d="M1501.0833,878.9042 L1500.5,880.2902 L1500.1722,880.436 L1498.7862,879.8527 L1497.9473,880.6915 L1498.5307,882.0775 L1498.3848,882.4054 L1496.9988,882.9887 L1496.9988,884.1554 L1498.3848,884.7387 L1498.5307,885.1039 L1497.9473,886.4525 L1498.7862,887.2914 L1500.1722,886.708 L1500.5,886.8539 L1501.0833,888.2399 L1502.25,888.2399 L1502.8333,886.8539 L1503.1612,886.708 L1504.5472,887.2914 L1505.386,886.4525 L1504.8027,885.0665 L1504.9485,884.7387 L1506.3345,884.1554 L1506.3345,882.9887 L1504.9485,882.4054 L1504.8027,882.0775 L1505.3498,880.6915 L1504.5472,879.8527 L1503.1612,880.436 L1502.8333,880.2902 L1502.25,878.9042 L1501.0833,878.9042 M1501.6667,881.8209 C1502.635,881.8209 1503.4167,882.6025 1503.4167,883.5709 C1503.4167,884.5392 1502.635,885.3209 1501.6667,885.3209 C1500.6983,885.3209 1499.9167,884.5392 1499.9167,883.5709 C1499.9167,882.6025 1500.6983,881.8209 1501.6667,881.8209 " fill="#000000" style="stroke: ; stroke-width: 0.0; stroke-dasharray: ;"/><text fill="#000000" font-family="sans-serif" font-size="14" lengthAdjust="spacingAndGlyphs" textLength="207" x="1511.3333" y="887.6356">Frozen customer/account state</text><!--MD5=[1178f800bf40ce8e4636c3311604f0af]
entity S_archive_ledger--><rect fill="#F3CBD0" height="39.0679" style="stroke: #555555; stroke-width: 1.5;" width="398.3333" x="1408" y="997.6696"/><path d="M1423.6667,1015.0709 C1421.7405,1015.0709 1420.1667,1016.6447 1420.1667,1018.5709 L1419,1018.5709 L1420.75,1020.9042 L1422.5,1018.5709 L1421.3333,1018.5709 C1421.3333,1017.277 1422.3728,1016.2375 1423.6667,1016.2375 L1423.6667,1015.0709 M1426.5833,1016.2375 L1424.8333,1018.5709 L1426,1018.5709 C1426,1019.8647 1424.9605,1020.9042 1423.6667,1020.9042 L1423.6667,1022.0709 C1425.5928,1022.0709 1427.1667,1020.497 1427.1667,1018.5709 L1428.3333,1018.5709 L1426.5833,1016.2375 " fill="#000000" style="stroke: ; stroke-width: 0.0; stroke-dasharray: ;"/><text fill="#000000" font-family="sans-serif" font-size="14" lengthAdjust="spacingAndGlyphs" textLength="363" x="1433.3333" y="1022.6356">Adjudicated case archive + signature (invariant plane)</text><!--MD5=[cadaed91923a41f978af63d17a21d0fe]
entity S_refund_bot--><rect fill="#E2E2E2" height="39.0679" style="stroke: #555555; stroke-width: 1.5;" width="306.3333" x="1454" y="756.6696"/><path d="M1465,772.9042 L1465,774.0709 L1474.3333,774.0709 L1474.3333,772.9042 L1465,772.9042 M1465,775.2375 L1465,782.1279 C1465,782.1979 1465.0397,782.2375 1465.1097,782.2375 L1474.2248,782.2375 C1474.2948,782.2375 1474.3345,782.1979 1474.3345,782.1279 L1474.3345,775.2375 L1470.8707,775.2375 L1470.8707,776.4404 L1468.5012,776.4404 L1468.5012,775.2375 L1465.0012,775.2375 " fill="#000000" style="stroke: ; stroke-width: 0.0; stroke-dasharray: ;"/><text fill="#000000" font-family="sans-serif" font-size="14" lengthAdjust="spacingAndGlyphs" textLength="271" x="1479.3333" y="781.6356">Implementer's refund-bot decision logic</text><!--MD5=[3dcc2f4312007a064c9e2a42eda77c99]
entity S_adversarial_matrix--><rect fill="#E2E2E2" height="39.0679" style="stroke: #555555; stroke-width: 1.5;" width="326.3333" x="1444" y="526.6696"/><path d="M1455,542.9042 L1455,544.0709 L1464.3333,544.0709 L1464.3333,542.9042 L1455,542.9042 M1455,545.2375 L1455,552.1279 C1455,552.1979 1455.0397,552.2375 1455.1097,552.2375 L1464.2248,552.2375 C1464.2948,552.2375 1464.3345,552.1979 1464.3345,552.1279 L1464.3345,545.2375 L1460.8707,545.2375 L1460.8707,546.4404 L1458.5012,546.4404 L1458.5012,545.2375 L1455.0012,545.2375 " fill="#000000" style="stroke: ; stroke-width: 0.0; stroke-dasharray: ;"/><text fill="#000000" font-family="sans-serif" font-size="14" lengthAdjust="spacingAndGlyphs" textLength="291" x="1469.3333" y="551.6356">Exerciser's multi-turn adversarial scenarios</text><!--MD5=[3ba7eec10064d203ead1731d1448eaa6]
link A_sentinel to S_refund_policy--><path d="M130.96,616.2796 C154.07,583.9296 203.34,519.2696 256.33,476.1996 C555.47,233.0696 668.48,172.1896 1051.67,130.1996 C1141.06,120.3996 1166.43,109.7696 1254,130.1996 C1328.33,147.5396 1338.61,174.3996 1408,206.1996 C1455.92,228.1596 1511.2,251.4196 1551.18,267.8896 " fill="none" id="A_sentinel-&gt;S_refund_policy" style="stroke: #A80036; stroke-width: 1.0;"/><polygon fill="#A80036" points="1555.56,269.6896,1548.7532,262.5716,1550.9345,267.7909,1545.7152,269.9723,1555.56,269.6896" style="stroke: #A80036; stroke-width: 1.0;"/><text fill="#888888" font-family="sans-serif" font-size="13" lengthAdjust="spacingAndGlyphs" textLength="10" x="885.17" y="130.0266">U</text><!--MD5=[b1530ed95ec8272a9b06063f01fa91a8]
link A_sentinel to S_rest_app--><path d="M122.29,616.1696 C136.04,565.9996 178.06,433.2696 256.33,353.1996 C430.11,175.4296 516.34,162.6796 758.67,107.1996 C1034.73,43.9996 1373.31,110.4396 1525.43,147.6396 " fill="none" id="A_sentinel-&gt;S_rest_app" style="stroke: #A80036; stroke-width: 1.0;"/><polygon fill="#A80036" points="1530.18,148.8096,1522.4021,142.7678,1525.3259,147.6104,1520.4833,150.5342,1530.18,148.8096" style="stroke: #A80036; stroke-width: 1.0;"/><text fill="#888888" font-family="sans-serif" font-size="13" lengthAdjust="spacingAndGlyphs" textLength="7" x="886.67" y="76.9266">L</text><!--MD5=[7e63ccf4b7490673b2db8fb9717cbc53]
link A_sentinel to S_customer_db--><path d="M127.55,656.1596 C147.41,692.2896 194.4,768.3596 256.33,807.1996 C450.71,929.0996 530.78,899.5796 758.67,926.1996 C1013.31,955.9496 1313.35,924.9296 1479.42,901.9996 " fill="none" id="A_sentinel-&gt;S_customer_db" style="stroke: #A80036; stroke-width: 1.0;"/><polygon fill="#A80036" points="1484.26,901.3296,1474.7957,898.6043,1479.3074,902.0167,1475.895,906.5284,1484.26,901.3296" style="stroke: #A80036; stroke-width: 1.0;"/><text fill="#888888" font-family="sans-serif" font-size="13" lengthAdjust="spacingAndGlyphs" textLength="7" x="886.67" y="922.0966">L</text><!--MD5=[807ad130b143fd891108a09fdb8bde93]
link A_sentinel to S_archive_ledger--><path d="M120.4,655.8796 C130.14,708.1496 164.37,850.7496 256.33,914.1996 C654.7,1189.0396 1285.58,1088.3696 1517.16,1038.4696 " fill="none" id="A_sentinel-&gt;S_archive_ledger" style="stroke: #A80036; stroke-width: 1.0;"/><polygon fill="#A80036" points="1521.74,1037.4696,1512.0921,1035.4903,1516.8561,1038.5407,1513.8057,1043.3046,1521.74,1037.4696" style="stroke: #A80036; stroke-width: 1.0;"/><text fill="#888888" font-family="sans-serif" font-size="13" lengthAdjust="spacingAndGlyphs" textLength="7" x="886.67" y="1083.0266">L</text><!--MD5=[04920432f975d7a448b65c3658df2c71]
link A_sentinel to S_refund_bot--><path d="M156.84,656.1396 C302.11,726.7596 819.26,957.2396 1254,889.1996 C1282.79,884.6896 1447.8,829.7696 1541.39,798.1896 " fill="none" id="A_sentinel-&gt;S_refund_bot" style="stroke: #A80036; stroke-width: 1.0;"/><polygon fill="#A80036" points="1546.01,796.6296,1536.2027,795.7253,1541.2738,798.2322,1538.7669,803.3032,1546.01,796.6296" style="stroke: #A80036; stroke-width: 1.0;"/><text fill="#888888" font-family="sans-serif" font-size="13" lengthAdjust="spacingAndGlyphs" textLength="7" x="886.67" y="860.9666">L</text><!--MD5=[e3ba72a927a0c8f22ebc934e51a99c4a]
link A_sentinel to S_adversarial_matrix--><path d="M226.7,637.7596 C354.4,639.4896 571.83,642.1796 758.67,643.1996 C875.55,643.8396 909.79,677.0696 1021.67,643.1996 C1037,638.5596 1036.69,628.8896 1051.67,623.1996 C1175.62,576.1196 1324.93,557.3496 1437.37,550.0896 " fill="none" id="A_sentinel-&gt;S_adversarial_matrix" style="stroke: #A80036; stroke-width: 1.0;"/><polygon fill="#A80036" points="1442.2,549.7896,1432.9668,546.3621,1437.2098,550.1033,1433.4687,554.3463,1442.2,549.7896" style="stroke: #A80036; stroke-width: 1.0;"/><text fill="#888888" font-family="sans-serif" font-size="13" lengthAdjust="spacingAndGlyphs" textLength="7" x="886.67" y="639.0966">L</text><!--MD5=[4d38258fe5713240f79178c8f0a564f1]
link A_policy_author to S_corporate_mandate--><path d="M1241.32,654.1996 C1313.9,649.2296 1417.53,642.1296 1495.81,636.7596 " fill="none" id="A_policy_author-&gt;S_corporate_mandate" style="stroke: #A80036; stroke-width: 1.0;"/><polygon fill="#A80036" points="1500.37,636.4496,1491.1168,633.0765,1495.3818,636.7927,1491.6656,641.0577,1500.37,636.4496" style="stroke: #A80036; stroke-width: 1.0;"/><text fill="#888888" font-family="sans-serif" font-size="13" lengthAdjust="spacingAndGlyphs" textLength="10" x="1326" y="641.5266">U</text><!--MD5=[a555a19cf56dd7aa1d8135a531a572aa]
link A_policy_author to S_archive_ledger--><path d="M1217.36,680.1496 C1230.97,686.9096 1244.18,695.7596 1254,707.1996 C1284.77,743.0596 1258.68,769.3096 1284,809.1996 C1323.48,871.3996 1346.88,878.0596 1408,919.1996 C1453.52,949.8396 1510,976.8196 1551.01,994.6796 " fill="none" id="A_policy_author-&gt;S_archive_ledger" style="stroke: #A80036; stroke-width: 1.0;"/><polygon fill="#A80036" points="1555.55,996.6396,1548.8805,989.3927,1550.9617,994.6528,1545.7016,996.734,1555.55,996.6396" style="stroke: #A80036; stroke-width: 1.0;"/><text fill="#888888" font-family="sans-serif" font-size="13" lengthAdjust="spacingAndGlyphs" textLength="7" x="1327.5" y="805.0966">L</text><!--MD5=[f16f1368a0a2a925f6f4c27496318672]
link A_policy_author to S_refund_policy--><path d="M1174.1,640.4496 C1196.06,618.1796 1231.03,580.1296 1254,542.1996 C1272.38,511.8396 1258.2,492.5696 1284,468.1996 C1316.08,437.8996 1338.24,455.3396 1378,436.1996 C1452.31,400.4296 1531.88,345.1496 1574.64,313.8796 " fill="none" id="A_policy_author-&gt;S_refund_policy" style="stroke: #A80036; stroke-width: 1.0; stroke-dasharray: 7.0,7.0;"/><polygon fill="#A80036" points="1578.45,311.0796,1568.8279,313.1807,1574.4193,314.0383,1573.5618,319.6298,1578.45,311.0796" style="stroke: #A80036; stroke-width: 1.0;"/><text fill="#888888" font-family="sans-serif" font-size="13" lengthAdjust="spacingAndGlyphs" textLength="56" x="1303" y="432.0966">produces</text><!--MD5=[1f315c851024521662ecbbf1866fffc7]
link A_implementer to S_refund_policy--><path d="M1217.71,368.1696 C1238.71,361.9596 1262.25,355.3896 1284,350.1996 C1346.87,335.2096 1417.39,321.6996 1476.39,311.3196 " fill="none" id="A_implementer-&gt;S_refund_policy" style="stroke: #A80036; stroke-width: 1.0;"/><polygon fill="#A80036" points="1481.3,310.4596,1471.741,308.0877,1476.3764,311.3302,1473.1339,315.9655,1481.3,310.4596" style="stroke: #A80036; stroke-width: 1.0;"/><text fill="#888888" font-family="sans-serif" font-size="13" lengthAdjust="spacingAndGlyphs" textLength="10" x="1326" y="326.8866">U</text><!--MD5=[0511a72cb753f24877ce925606ffe55e]
link A_implementer to S_rest_app--><path d="M1181.66,368.1896 C1207.44,350.1596 1247.24,323.5696 1284,304.1996 C1371.62,258.0296 1478.57,215.8196 1544.52,191.3196 " fill="none" id="A_implementer-&gt;S_rest_app" style="stroke: #A80036; stroke-width: 1.0;"/><polygon fill="#A80036" points="1548.96,189.6696,1539.1301,189.0581,1544.2737,191.4127,1541.9191,196.5562,1548.96,189.6696" style="stroke: #A80036; stroke-width: 1.0;"/><text fill="#888888" font-family="sans-serif" font-size="13" lengthAdjust="spacingAndGlyphs" textLength="7" x="1327.5" y="258.2666">L</text><!--MD5=[ae5bf553171963544790a88c1899cb63]
link A_implementer to S_customer_db--><path d="M1188.82,408.1696 C1211.23,422.8996 1238.85,445.0496 1254,472.1996 C1299.07,552.9996 1230.43,602.7596 1284,678.1996 C1311.28,716.6096 1347.18,691.5596 1378,727.1996 C1404.48,757.8196 1379.37,784.5796 1408,813.1996 C1429.86,835.0496 1459,849.9896 1488.19,860.2096 " fill="none" id="A_implementer-&gt;S_customer_db" style="stroke: #A80036; stroke-width: 1.0;"/><polygon fill="#A80036" points="1492.59,861.7096,1485.3588,855.0231,1487.8567,860.0986,1482.7811,862.5964,1492.59,861.7096" style="stroke: #A80036; stroke-width: 1.0;"/><text fill="#888888" font-family="sans-serif" font-size="13" lengthAdjust="spacingAndGlyphs" textLength="7" x="1327.5" y="674.0966">L</text><!--MD5=[7b72dea2f3450eba1537ae0cb5daa4f1]
link A_implementer to S_refund_bot--><path d="M1179.98,408.1296 C1200.82,424.4796 1230.34,448.6796 1254,472.1996 C1314.39,532.2096 1327.75,549.4796 1378,618.1996 C1392.85,638.5096 1389.76,648.8796 1408,666.1996 C1449.02,705.1396 1506.45,735.0296 1548.93,753.7596 " fill="none" id="A_implementer-&gt;S_refund_bot" style="stroke: #A80036; stroke-width: 1.0; stroke-dasharray: 7.0,7.0;"/><polygon fill="#A80036" points="1553.43,755.7196,1546.7795,748.4552,1548.8469,753.7208,1543.5814,755.7882,1553.43,755.7196" style="stroke: #A80036; stroke-width: 1.0;"/><text fill="#888888" font-family="sans-serif" font-size="13" lengthAdjust="spacingAndGlyphs" textLength="56" x="1303" y="499.7266">produces</text><!--MD5=[82d556e68af0df9fcbf1dd0e9acc2809]
link A_exerciser to S_refund_policy--><path d="M646.13,511.4296 C657.22,469.1096 689.66,370.1796 758.67,328.1996 C864.66,263.7296 1198.16,267.6496 1413.84,277.8796 " fill="none" id="A_exerciser-&gt;S_refund_policy" style="stroke: #A80036; stroke-width: 1.0;"/><polygon fill="#A80036" points="1418.67,278.1096,1409.8747,273.6777,1413.6759,277.8671,1409.4865,281.6683,1418.67,278.1096" style="stroke: #A80036; stroke-width: 1.0;"/><text fill="#888888" font-family="sans-serif" font-size="13" lengthAdjust="spacingAndGlyphs" textLength="10" x="1147.83" y="267.9366">U</text><!--MD5=[ec23e4a0d3bb16984bcc1a841e77aaab]
link A_exerciser to S_rest_app--><path d="M644.12,511.1896 C651.71,462.0096 678.52,334.9796 758.67,276.1996 C968,122.6596 1287.31,129.0696 1468.33,148.4696 " fill="none" id="A_exerciser-&gt;S_rest_app" style="stroke: #A80036; stroke-width: 1.0;"/><polygon fill="#A80036" points="1473.2,148.9996,1464.6874,144.0463,1468.2295,148.4569,1463.819,151.999,1473.2,148.9996" style="stroke: #A80036; stroke-width: 1.0;"/><text fill="#888888" font-family="sans-serif" font-size="13" lengthAdjust="spacingAndGlyphs" textLength="7" x="1149.33" y="134.7466">L</text><!--MD5=[30b2bd22fad81ad1712cf0f5754541c7]
link A_exerciser to S_archive_ledger--><path d="M644.51,550.9296 C652.99,599.5396 681.68,725.8196 758.67,791.1996 C816.42,840.2496 1296.67,949.6396 1507.54,995.8996 " fill="none" id="A_exerciser-&gt;S_archive_ledger" style="stroke: #A80036; stroke-width: 1.0;"/><polygon fill="#A80036" points="1512.22,996.9196,1504.2857,991.0846,1507.3361,995.8486,1502.5721,998.8989,1512.22,996.9196" style="stroke: #A80036; stroke-width: 1.0;"/><text fill="#888888" font-family="sans-serif" font-size="13" lengthAdjust="spacingAndGlyphs" textLength="7" x="1149.33" y="887.1666">L</text><!--MD5=[f91e270de67979730a04a9350a6f73ea]
link A_exerciser to S_adversarial_matrix--><path d="M729.1,522.8996 C739.06,522.1996 749.08,521.6096 758.67,521.1996 C994.01,511.1796 1266.28,523.4496 1437.35,534.0696 " fill="none" id="A_exerciser-&gt;S_adversarial_matrix" style="stroke: #A80036; stroke-width: 1.0; stroke-dasharray: 7.0,7.0;"/><polygon fill="#A80036" points="1442.14,534.3596,1433.4095,529.8013,1437.1499,534.0451,1432.9062,537.7855,1442.14,534.3596" style="stroke: #A80036; stroke-width: 1.0;"/><text fill="#888888" font-family="sans-serif" font-size="13" lengthAdjust="spacingAndGlyphs" textLength="56" x="1124.83" y="514.3466">produces</text><!--MD5=[cb1cedd0cd5b38444e780ade0e7ee8fc]
link A_policy_author to S_refund_bot--><path d="M1209.67,680.1596 C1225.02,687.2496 1241,696.2496 1254,707.1996 C1271.82,722.2196 1263.79,738.5996 1284,750.1996 C1332.73,778.1696 1392.64,788.2396 1447.52,790.1296 " fill="none" id="A_policy_author-&gt;S_refund_bot" style="stroke: #FF0000; stroke-width: 1.0; stroke-dasharray: 7.0,7.0;"/><polygon fill="#FF0000" points="1452.33,790.2696,1443.4479,786.0142,1447.332,790.1268,1443.2194,794.011,1452.33,790.2696" style="stroke: #FF0000; stroke-width: 1.0;"/><text fill="#888888" font-family="sans-serif" font-size="13" lengthAdjust="spacingAndGlyphs" textLength="92" x="1285" y="746.0966">✗ must not see</text><!--MD5=[07f7f64c8429fbada0f76212b0bdb832]
link A_implementer to S_adversarial_matrix--><path d="M1254.26,388.0896 C1293.65,390.4896 1338.72,396.3096 1378,409.1996 C1455.68,434.6896 1534.97,490.3896 1576.54,522.3596 " fill="none" id="A_implementer-&gt;S_adversarial_matrix" style="stroke: #FF0000; stroke-width: 1.0; stroke-dasharray: 7.0,7.0;"/><polygon fill="#FF0000" points="1580.47,525.3996,1575.8085,516.7238,1576.5186,522.3359,1570.9065,523.046,1580.47,525.3996" style="stroke: #FF0000; stroke-width: 1.0;"/><text fill="#888888" font-family="sans-serif" font-size="13" lengthAdjust="spacingAndGlyphs" textLength="92" x="1285" y="386.8066">✗ must not see</text><!--MD5=[6fcd2a24685cf93d9d44179be8e1940d]
link A_exerciser to S_refund_bot--><path d="M651.32,551.2196 C668.37,583.6996 706.65,647.4296 758.67,679.1996 C996.87,824.6796 1098.92,787.4796 1378,783.1996 C1400.46,782.8596 1424.16,782.3196 1447.45,781.6996 " fill="none" id="A_exerciser-&gt;S_refund_bot" style="stroke: #FF0000; stroke-width: 1.0; stroke-dasharray: 7.0,7.0;"/><polygon fill="#FF0000" points="1452.17,781.5696,1443.0702,777.8023,1447.1717,781.6982,1443.2758,785.7997,1452.17,781.5696" style="stroke: #FF0000; stroke-width: 1.0;"/><text fill="#888888" font-family="sans-serif" font-size="13" lengthAdjust="spacingAndGlyphs" textLength="92" x="1106.83" y="782.9866">✗ must not see</text><!--MD5=[945bcb7aa66ccda65e91e731990f0e70]
link A_exerciser to A_policy_author--><path d="M681.79,551.1096 C703.97,561.2896 732.29,573.0096 758.67,580.1996 C872.49,611.2196 906.82,589.1896 1021.67,616.1996 C1045.86,621.8896 1071.92,630.2396 1094.32,638.1396 " fill="none" id="A_exerciser-&gt;A_policy_author" style="stroke: #0000FF; stroke-width: 1.0;"/><polygon fill="#0000FF" points="1098.81,639.7296,1091.6888,632.926,1094.1036,638.0416,1088.988,640.4563,1098.81,639.7296" style="stroke: #0000FF; stroke-width: 1.0;"/><text fill="#888888" font-family="sans-serif" font-size="13" lengthAdjust="spacingAndGlyphs" textLength="261" x="759.67" y="540.0966">catches: a vacuous/weak policy clause — via</text><text fill="#888888" font-family="sans-serif" font-size="13" lengthAdjust="spacingAndGlyphs" textLength="257" x="761.67" y="557.8027">independent scenarios should fail against a</text><text fill="#888888" font-family="sans-serif" font-size="13" lengthAdjust="spacingAndGlyphs" textLength="193" x="793.67" y="575.5087">vacuous clause; Gate C coverage</text><!--MD5=[11131312ba3848239124113e0e091658]
link A_exerciser to A_implementer--><path d="M676.15,511.2096 C698.97,498.7696 729.85,483.2696 758.67,473.1996 C853.11,440.1796 964.99,417.4996 1045.2,403.9296 " fill="none" id="A_exerciser-&gt;A_implementer" style="stroke: #0000FF; stroke-width: 1.0;"/><polygon fill="#0000FF" points="1049.91,403.1296,1040.3714,400.6771,1044.9792,403.9586,1041.6977,408.5664,1049.91,403.1296" style="stroke: #0000FF; stroke-width: 1.0;"/><text fill="#888888" font-family="sans-serif" font-size="13" lengthAdjust="spacingAndGlyphs" textLength="211" x="784.67" y="351.4766">catches: caves to social engineering</text><text fill="#888888" font-family="sans-serif" font-size="13" lengthAdjust="spacingAndGlyphs" textLength="261" x="759.67" y="369.1827">(coherent-and-wrong terminal action) — via</text><text fill="#888888" font-family="sans-serif" font-size="13" lengthAdjust="spacingAndGlyphs" textLength="258" x="761.17" y="386.8887">multi-turn legal/duplicate-refund scenarios;</text><text fill="#888888" font-family="sans-serif" font-size="13" lengthAdjust="spacingAndGlyphs" textLength="195" x="792.67" y="404.5947">Gate B terminal-action mismatch</text><!--MD5=[7b2ba98715a0d64db676df08bab5052e]
link A_sentinel to A_exerciser--><path d="M216.64,616.1996 C311.4,597.1496 452.99,568.6896 545.79,550.0396 " fill="none" id="A_sentinel-&gt;A_exerciser" style="stroke: #0000FF; stroke-width: 1.0;"/><polygon fill="#0000FF" points="550.62,549.0696,541.0079,546.9231,545.7182,550.0557,542.5856,554.766,550.62,549.0696" style="stroke: #0000FF; stroke-width: 1.0;"/><text fill="#888888" font-family="sans-serif" font-size="13" lengthAdjust="spacingAndGlyphs" textLength="226" x="276.33" y="499.4666">catches: a semantically underspecified</text><text fill="#888888" font-family="sans-serif" font-size="13" lengthAdjust="spacingAndGlyphs" textLength="264" x="257.33" y="517.1727">scenario that does not exercise the clause —</text><text fill="#888888" font-family="sans-serif" font-size="13" lengthAdjust="spacingAndGlyphs" textLength="167" x="305.83" y="534.8787">via Gate C clause coverage +</text><text fill="#888888" font-family="sans-serif" font-size="13" lengthAdjust="spacingAndGlyphs" textLength="150" x="314.33" y="552.5847">archive-regression replay</text><rect fill="#DDDDDD" height="204.6792" rx="5" ry="5" style="stroke: #000000; stroke-width: 1.0;" width="357.3333" x="1457.6667" y="1116.4796"/><text fill="#000000" font-family="sans-serif" font-size="14" font-weight="bold" lengthAdjust="spacingAndGlyphs" textLength="46" x="1467.6667" y="1138.4456">Colour</text><text fill="#000000" font-family="sans-serif" font-size="14" font-weight="bold" lengthAdjust="spacingAndGlyphs" textLength="0" x="1525.6667" y="1138.4456"/><text fill="#000000" font-family="sans-serif" font-size="14" font-weight="bold" lengthAdjust="spacingAndGlyphs" textLength="60" x="1541" y="1138.4456">Meaning</text><rect fill="#E8541E" height="19.0679" style="stroke: none; stroke-width: 1.0;" width="54" x="1463.6667" y="1142.5475"/><text fill="#000000" font-family="sans-serif" font-size="14" lengthAdjust="spacingAndGlyphs" textLength="0" x="1467.6667" y="1157.5135"/><text fill="#000000" font-family="sans-serif" font-size="14" lengthAdjust="spacingAndGlyphs" textLength="0" x="1521.6667" y="1157.5135"/><path d="M1527.3333,1148.7821 C1524.7632,1148.7821 1522.6667,1150.8786 1522.6667,1153.4488 C1522.6667,1156.019 1524.7632,1158.1155 1527.3333,1158.1155 C1529.9035,1158.1155 1532,1156.019 1532,1153.4488 C1532,1150.8786 1529.9035,1148.7821 1527.3333,1148.7821 M1527.3333,1149.9488 C1529.2735,1149.9488 1530.8333,1151.5086 1530.8333,1153.4488 C1530.8333,1155.389 1529.2735,1156.9488 1527.3333,1156.9488 C1525.3932,1156.9488 1523.8333,1155.389 1523.8333,1153.4488 C1523.8333,1151.5086 1525.3932,1149.9488 1527.3333,1149.9488 M1529.6667,1151.1155 L1526.1667,1152.2821 L1525,1155.7821 L1528.5,1154.6155 L1529.6667,1151.1155 M1527.3333,1152.8655 C1527.66,1152.8655 1527.9167,1153.1221 1527.9167,1153.4488 C1527.9167,1153.7755 1527.66,1154.0321 1527.3333,1154.0321 C1527.0067,1154.0321 1526.75,1153.7755 1526.75,1153.4488 C1526.75,1153.1221 1527.0067,1152.8655 1527.3333,1152.8655 " fill="#000000" style="stroke: ; stroke-width: 0.0; stroke-dasharray: ;"/><text fill="#000000" font-family="sans-serif" font-size="14" lengthAdjust="spacingAndGlyphs" textLength="0" x="1537" y="1157.5135"/><text fill="#000000" font-family="sans-serif" font-size="14" lengthAdjust="spacingAndGlyphs" textLength="80" x="1541" y="1157.5135">Coordinator</text><rect fill="#E8541E" height="19.0679" style="stroke: none; stroke-width: 1.0;" width="54" x="1463.6667" y="1161.6155"/><text fill="#000000" font-family="sans-serif" font-size="14" lengthAdjust="spacingAndGlyphs" textLength="0" x="1467.6667" y="1176.5814"/><text fill="#000000" font-family="sans-serif" font-size="14" lengthAdjust="spacingAndGlyphs" textLength="0" x="1521.6667" y="1176.5814"/><path d="M1526.1667,1167.85 C1525.525,1167.85 1525,1168.375 1525,1169.0167 L1525,1175.4334 C1525,1175.76 1524.7433,1176.0167 1524.4167,1176.0167 C1524.09,1176.0167 1523.8333,1175.76 1523.8333,1175.4334 L1523.8333,1173.6834 L1522.6667,1173.6834 L1522.6667,1176.0167 C1522.6667,1176.6584 1523.1917,1177.1834 1523.8333,1177.1834 L1529.6667,1177.1834 C1530.3083,1177.1834 1530.8333,1176.6584 1530.8333,1176.0167 L1530.8333,1172.5167 L1526.1667,1172.5167 L1526.1667,1169.6 C1526.1667,1169.2734 1526.4233,1169.0167 1526.75,1169.0167 C1527.0767,1169.0167 1527.3333,1169.2734 1527.3333,1169.6 L1527.3333,1171.35 L1532,1171.35 L1532,1169.0167 C1532,1168.375 1531.475,1167.85 1530.8333,1167.85 L1526.1667,1167.85 " fill="#000000" style="stroke: ; stroke-width: 0.0; stroke-dasharray: ;"/><text fill="#000000" font-family="sans-serif" font-size="14" lengthAdjust="spacingAndGlyphs" textLength="0" x="1537" y="1176.5814"/><text fill="#000000" font-family="sans-serif" font-size="14" lengthAdjust="spacingAndGlyphs" textLength="142" x="1541" y="1176.5814">Property/spec author</text><rect fill="#E8541E" height="19.0679" style="stroke: none; stroke-width: 1.0;" width="54" x="1463.6667" y="1180.6834"/><text fill="#000000" font-family="sans-serif" font-size="14" lengthAdjust="spacingAndGlyphs" textLength="0" x="1467.6667" y="1195.6493"/><text fill="#000000" font-family="sans-serif" font-size="14" lengthAdjust="spacingAndGlyphs" textLength="0" x="1521.6667" y="1195.6493"/><path d="M1529.0833,1186.918 C1527.4733,1186.918 1526.1667,1188.2246 1526.1667,1189.8346 C1526.1667,1190.208 1526.2577,1190.565 1526.386,1190.8916 L1522.9957,1194.2458 C1522.5407,1194.7008 1522.5407,1195.4311 1522.9957,1195.8861 C1523.229,1196.1195 1523.5312,1196.2513 1523.8345,1196.2513 C1524.1378,1196.2513 1524.44,1196.1451 1524.6733,1195.9235 L1528.0275,1192.5693 C1528.3542,1192.686 1528.7112,1192.7513 1529.0845,1192.7513 C1530.6945,1192.7513 1532.0012,1191.4446 1532.0012,1189.8346 C1532.0012,1189.648 1531.9638,1189.4881 1531.9277,1189.3236 L1530.8333,1190.418 L1528.5,1190.418 L1528.5,1188.0846 L1529.5943,1186.9903 C1529.431,1186.9553 1529.2712,1186.918 1529.0833,1186.9168 M1523.8333,1194.5001 C1524.16,1194.5001 1524.4167,1194.7568 1524.4167,1195.0835 C1524.4167,1195.4101 1524.16,1195.6668 1523.8333,1195.6668 C1523.5067,1195.6668 1523.25,1195.4101 1523.25,1195.0835 C1523.25,1194.7568 1523.5067,1194.5001 1523.8333,1194.5001 " fill="#000000" style="stroke: ; stroke-width: 0.0; stroke-dasharray: ;"/><text fill="#000000" font-family="sans-serif" font-size="14" lengthAdjust="spacingAndGlyphs" textLength="0" x="1537" y="1195.6493"/><text fill="#000000" font-family="sans-serif" font-size="14" lengthAdjust="spacingAndGlyphs" textLength="88" x="1541" y="1195.6493">Implementer</text><rect fill="#E8541E" height="19.0679" style="stroke: none; stroke-width: 1.0;" width="54" x="1463.6667" y="1199.7513"/><text fill="#000000" font-family="sans-serif" font-size="14" lengthAdjust="spacingAndGlyphs" textLength="0" x="1467.6667" y="1214.7172"/><text fill="#000000" font-family="sans-serif" font-size="14" lengthAdjust="spacingAndGlyphs" textLength="0" x="1521.6667" y="1214.7172"/><path d="M1526.75,1205.9859 C1524.5018,1205.9859 1522.6667,1207.821 1522.6667,1210.0692 C1522.6667,1212.3174 1524.5018,1214.1525 1526.75,1214.1525 C1527.4407,1214.1525 1528.1103,1213.9834 1528.682,1213.6789 A1.1667,1.1667 0 0 0 1528.8278,1213.8247 L1529.9945,1214.9914 A1.1853,1.1853 0 1 0 1531.6722,1213.3137 L1530.5055,1212.147 A1.1667,1.1667 0 0 0 1530.3235,1212.0012 C1530.6338,1211.426 1530.8345,1210.7657 1530.8345,1210.0692 C1530.8345,1207.821 1528.9993,1205.9859 1526.7512,1205.9859 M1526.7512,1207.1525 C1528.3693,1207.1525 1529.6678,1208.451 1529.6678,1210.0692 C1529.6678,1210.8404 1529.3867,1211.5544 1528.9025,1212.0747 L1528.8663,1212.1109 A1.1667,1.1667 0 0 0 1528.7205,1212.2567 C1528.2048,1212.7199 1527.5037,1212.9859 1526.7512,1212.9859 C1525.133,1212.9859 1523.8345,1211.6874 1523.8345,1210.0692 C1523.8345,1208.451 1525.133,1207.1525 1526.7512,1207.1525 " fill="#000000" style="stroke: ; stroke-width: 0.0; stroke-dasharray: ;"/><text fill="#000000" font-family="sans-serif" font-size="14" lengthAdjust="spacingAndGlyphs" textLength="0" x="1537" y="1214.7172"/><text fill="#000000" font-family="sans-serif" font-size="14" lengthAdjust="spacingAndGlyphs" textLength="61" x="1541" y="1214.7172">Exerciser</text><rect fill="#C9E7CB" height="19.0679" style="stroke: none; stroke-width: 1.0;" width="54" x="1463.6667" y="1218.8192"/><text fill="#000000" font-family="sans-serif" font-size="14" lengthAdjust="spacingAndGlyphs" textLength="0" x="1467.6667" y="1233.7851"/><text fill="#000000" font-family="sans-serif" font-size="14" lengthAdjust="spacingAndGlyphs" textLength="0" x="1521.6667" y="1233.7851"/><path d="M1522.6667,1225.0538 L1522.6667,1234.3871 L1530.8333,1234.3871 L1530.8333,1229.7205 L1526.1667,1229.7205 L1526.1667,1225.0538 L1522.6667,1225.0538 M1527.3333,1225.0538 L1527.3333,1228.5538 L1530.8333,1228.5538 L1527.3333,1225.0538 M1523.8333,1227.3871 L1525,1227.3871 L1525,1228.5538 L1523.8333,1228.5538 L1523.8333,1227.3871 M1523.8333,1229.7205 L1525,1229.7205 L1525,1230.8871 L1523.8333,1230.8871 L1523.8333,1229.7205 M1523.8333,1232.0538 L1528.5,1232.0538 L1528.5,1233.2205 L1523.8333,1233.2205 L1523.8333,1232.0538 " fill="#000000" style="stroke: ; stroke-width: 0.0; stroke-dasharray: ;"/><text fill="#000000" font-family="sans-serif" font-size="14" lengthAdjust="spacingAndGlyphs" textLength="0" x="1537" y="1233.7851"/><text fill="#000000" font-family="sans-serif" font-size="14" lengthAdjust="spacingAndGlyphs" textLength="251" x="1541" y="1233.7851">Soft authority — transcribed/external</text><rect fill="#C9E7CB" height="19.0679" style="stroke: none; stroke-width: 1.0;" width="54" x="1463.6667" y="1237.8871"/><text fill="#000000" font-family="sans-serif" font-size="14" lengthAdjust="spacingAndGlyphs" textLength="0" x="1467.6667" y="1252.8531"/><text fill="#000000" font-family="sans-serif" font-size="14" lengthAdjust="spacingAndGlyphs" textLength="0" x="1521.6667" y="1252.8531"/><path d="M1529.6667,1244.1217 L1528.5,1245.2884 L1530.8333,1247.6217 L1532,1246.455 L1529.6667,1244.1217 M1527.3333,1246.455 L1522.6667,1251.1217 L1522.6667,1253.455 L1525,1253.455 L1529.6667,1248.7884 L1527.3333,1246.455 " fill="#000000" style="stroke: ; stroke-width: 0.0; stroke-dasharray: ;"/><text fill="#000000" font-family="sans-serif" font-size="14" lengthAdjust="spacingAndGlyphs" textLength="0" x="1537" y="1252.8531"/><text fill="#000000" font-family="sans-serif" font-size="14" lengthAdjust="spacingAndGlyphs" textLength="175" x="1541" y="1252.8531">Soft authority — authored</text><rect fill="#F3CBD0" height="19.0679" style="stroke: none; stroke-width: 1.0;" width="54" x="1463.6667" y="1256.955"/><text fill="#000000" font-family="sans-serif" font-size="14" lengthAdjust="spacingAndGlyphs" textLength="0" x="1467.6667" y="1271.921"/><text fill="#000000" font-family="sans-serif" font-size="14" lengthAdjust="spacingAndGlyphs" textLength="0" x="1521.6667" y="1271.921"/><path d="M1526.75,1263.1896 L1526.1667,1264.5756 L1525.8388,1264.7215 L1524.4528,1264.1381 L1523.614,1264.977 L1524.1973,1266.363 L1524.0515,1266.6908 L1522.6655,1267.2741 L1522.6655,1268.4408 L1524.0515,1269.0241 L1524.1973,1269.3893 L1523.614,1270.738 L1524.4528,1271.5768 L1525.8388,1270.9935 L1526.1667,1271.1393 L1526.75,1272.5253 L1527.9167,1272.5253 L1528.5,1271.1393 L1528.8278,1270.9935 L1530.2138,1271.5768 L1531.0527,1270.738 L1530.4693,1269.352 L1530.6152,1269.0241 L1532.0012,1268.4408 L1532.0012,1267.2741 L1530.6152,1266.6908 L1530.4693,1266.363 L1531.0165,1264.977 L1530.2138,1264.1381 L1528.8278,1264.7215 L1528.5,1264.5756 L1527.9167,1263.1896 L1526.75,1263.1896 M1527.3333,1266.1063 C1528.3017,1266.1063 1529.0833,1266.888 1529.0833,1267.8563 C1529.0833,1268.8246 1528.3017,1269.6063 1527.3333,1269.6063 C1526.365,1269.6063 1525.5833,1268.8246 1525.5833,1267.8563 C1525.5833,1266.888 1526.365,1266.1063 1527.3333,1266.1063 " fill="#000000" style="stroke: ; stroke-width: 0.0; stroke-dasharray: ;"/><text fill="#000000" font-family="sans-serif" font-size="14" lengthAdjust="spacingAndGlyphs" textLength="0" x="1537" y="1271.921"/><text fill="#000000" font-family="sans-serif" font-size="14" lengthAdjust="spacingAndGlyphs" textLength="253" x="1541" y="1271.921">Executable oracle — point/recompute</text><rect fill="#F3CBD0" height="19.0679" style="stroke: none; stroke-width: 1.0;" width="54" x="1463.6667" y="1276.023"/><text fill="#000000" font-family="sans-serif" font-size="14" lengthAdjust="spacingAndGlyphs" textLength="0" x="1467.6667" y="1290.9889"/><text fill="#000000" font-family="sans-serif" font-size="14" lengthAdjust="spacingAndGlyphs" textLength="0" x="1521.6667" y="1290.9889"/><path d="M1527.3333,1283.4242 C1525.4072,1283.4242 1523.8333,1284.998 1523.8333,1286.9242 L1522.6667,1286.9242 L1524.4167,1289.2575 L1526.1667,1286.9242 L1525,1286.9242 C1525,1285.6304 1526.0395,1284.5909 1527.3333,1284.5909 L1527.3333,1283.4242 M1530.25,1284.5909 L1528.5,1286.9242 L1529.6667,1286.9242 C1529.6667,1288.218 1528.6272,1289.2575 1527.3333,1289.2575 L1527.3333,1290.4242 C1529.2595,1290.4242 1530.8333,1288.8504 1530.8333,1286.9242 L1532,1286.9242 L1530.25,1284.5909 " fill="#000000" style="stroke: ; stroke-width: 0.0; stroke-dasharray: ;"/><text fill="#000000" font-family="sans-serif" font-size="14" lengthAdjust="spacingAndGlyphs" textLength="0" x="1537" y="1290.9889"/><text fill="#000000" font-family="sans-serif" font-size="14" lengthAdjust="spacingAndGlyphs" textLength="264" x="1541" y="1290.9889">Executable oracle — standing invariant</text><rect fill="#E2E2E2" height="19.0679" style="stroke: none; stroke-width: 1.0;" width="54" x="1463.6667" y="1295.0909"/><text fill="#000000" font-family="sans-serif" font-size="14" lengthAdjust="spacingAndGlyphs" textLength="0" x="1467.6667" y="1310.0568"/><text fill="#000000" font-family="sans-serif" font-size="14" lengthAdjust="spacingAndGlyphs" textLength="0" x="1521.6667" y="1310.0568"/><path d="M1522.6667,1301.3255 L1522.6667,1302.4921 L1532,1302.4921 L1532,1301.3255 L1522.6667,1301.3255 M1522.6667,1303.6588 L1522.6667,1310.5491 C1522.6667,1310.6191 1522.7063,1310.6588 1522.7763,1310.6588 L1531.8915,1310.6588 C1531.9615,1310.6588 1532.0012,1310.6191 1532.0012,1310.5491 L1532.0012,1303.6588 L1528.5373,1303.6588 L1528.5373,1304.8616 L1526.1678,1304.8616 L1526.1678,1303.6588 L1522.6678,1303.6588 " fill="#000000" style="stroke: ; stroke-width: 0.0; stroke-dasharray: ;"/><text fill="#000000" font-family="sans-serif" font-size="14" lengthAdjust="spacingAndGlyphs" textLength="0" x="1537" y="1310.0568"/><text fill="#000000" font-family="sans-serif" font-size="14" lengthAdjust="spacingAndGlyphs" textLength="49" x="1541" y="1310.0568">Artifact</text><line style="stroke: #000000; stroke-width: 1.0;" x1="1463.6667" x2="1809" y1="1123.4796" y2="1123.4796"/><line style="stroke: #000000; stroke-width: 1.0;" x1="1463.6667" x2="1809" y1="1142.5475" y2="1142.5475"/><line style="stroke: #000000; stroke-width: 1.0;" x1="1463.6667" x2="1809" y1="1161.6155" y2="1161.6155"/><line style="stroke: #000000; stroke-width: 1.0;" x1="1463.6667" x2="1809" y1="1180.6834" y2="1180.6834"/><line style="stroke: #000000; stroke-width: 1.0;" x1="1463.6667" x2="1809" y1="1199.7513" y2="1199.7513"/><line style="stroke: #000000; stroke-width: 1.0;" x1="1463.6667" x2="1809" y1="1218.8192" y2="1218.8192"/><line style="stroke: #000000; stroke-width: 1.0;" x1="1463.6667" x2="1809" y1="1237.8871" y2="1237.8871"/><line style="stroke: #000000; stroke-width: 1.0;" x1="1463.6667" x2="1809" y1="1256.955" y2="1256.955"/><line style="stroke: #000000; stroke-width: 1.0;" x1="1463.6667" x2="1809" y1="1276.023" y2="1276.023"/><line style="stroke: #000000; stroke-width: 1.0;" x1="1463.6667" x2="1809" y1="1295.0909" y2="1295.0909"/><line style="stroke: #000000; stroke-width: 1.0;" x1="1463.6667" x2="1809" y1="1314.1588" y2="1314.1588"/><line style="stroke: #000000; stroke-width: 1.0;" x1="1463.6667" x2="1463.6667" y1="1123.4796" y2="1314.1588"/><line style="stroke: #000000; stroke-width: 1.0;" x1="1517.6667" x2="1517.6667" y1="1123.4796" y2="1314.1588"/><line style="stroke: #000000; stroke-width: 1.0;" x1="1537" x2="1537" y1="1123.4796" y2="1314.1588"/><line style="stroke: #000000; stroke-width: 1.0;" x1="1809" x2="1809" y1="1123.4796" y2="1314.1588"/><!--MD5=[6575fc46e4737e5630ccc7f70d6f3f30]
@startuml instance-b
title instance-b (base)\n<size:11><i>guards against: a bot that handles nominal distress perfectly but caves to</i></size>\n<size:11><i>multi-turn legal coercion or duplicate-refund manipulation.</i></size>
left to right direction
skinparam rectangleBorderColor #555
skinparam shadowing false
skinparam ArrowFontColor #888888
skinparam TitleFontColor #888888

rectangle "<&compass> Gate sentinel / orchestrator" as A_sentinel #E8541E
rectangle "<&script> Refund policy author" as A_policy_author #E8541E
rectangle "<&wrench> Refund-bot implementer" as A_implementer #E8541E
rectangle "<&magnifying-glass> Adversarial exerciser" as A_exerciser #E8541E

rectangle "<&document> Vague corporate mandate" as S_corporate_mandate #C9E7CB
rectangle "<&pencil> POL_REFUND_042 refund policy (authored clauses)" as S_refund_policy #C9E7CB
rectangle "<&cog> Frozen headless REST app (compute plane)" as S_rest_app #F3CBD0
rectangle "<&cog> Frozen customer/account state" as S_customer_db #F3CBD0
rectangle "<&loop-circular> Adjudicated case archive + signature (invariant plane)" as S_archive_ledger #F3CBD0
rectangle "<&box> Implementer's refund-bot decision logic" as S_refund_bot #E2E2E2
rectangle "<&box> Exerciser's multi-turn adversarial scenarios" as S_adversarial_matrix #E2E2E2

A_sentinel - -> S_refund_policy : U
A_sentinel - -> S_rest_app : L
A_sentinel - -> S_customer_db : L
A_sentinel - -> S_archive_ledger : L
A_sentinel - -> S_refund_bot : L
A_sentinel - -> S_adversarial_matrix : L
A_policy_author - -> S_corporate_mandate : U
A_policy_author - -> S_archive_ledger : L
A_policy_author ..> S_refund_policy : produces
A_implementer - -> S_refund_policy : U
A_implementer - -> S_rest_app : L
A_implementer - -> S_customer_db : L
A_implementer ..> S_refund_bot : produces
A_exerciser - -> S_refund_policy : U
A_exerciser - -> S_rest_app : L
A_exerciser - -> S_archive_ledger : L
A_exerciser ..> S_adversarial_matrix : produces

A_policy_author -[#red,dashed]-> S_refund_bot : ✗ must not see
A_implementer -[#red,dashed]-> S_adversarial_matrix : ✗ must not see
A_exerciser -[#red,dashed]-> S_refund_bot : ✗ must not see

A_exerciser -[#blue]-> A_policy_author : catches: a vacuous/weak policy clause — via\nindependent scenarios should fail against a\nvacuous clause; Gate C coverage
A_exerciser -[#blue]-> A_implementer : catches: caves to social engineering\n(coherent-and-wrong terminal action) — via\nmulti-turn legal/duplicate-refund scenarios;\nGate B terminal-action mismatch
A_sentinel -[#blue]-> A_exerciser : catches: a semantically underspecified\nscenario that does not exercise the clause —\nvia Gate C clause coverage +\narchive-regression replay

legend right
|= Colour |=  |= Meaning |
|<#E8541E>| <&compass> | Coordinator |
|<#E8541E>| <&script> | Property/spec author |
|<#E8541E>| <&wrench> | Implementer |
|<#E8541E>| <&magnifying-glass> | Exerciser |
|<#C9E7CB>| <&document> | Soft authority — transcribed/external |
|<#C9E7CB>| <&pencil> | Soft authority — authored |
|<#F3CBD0>| <&cog> | Executable oracle — point/recompute |
|<#F3CBD0>| <&loop-circular> | Executable oracle — standing invariant |
|<#E2E2E2>| <&box> | Artifact |
endlegend
@enduml

PlantUML version 1.2020.02(Sun Mar 01 11:22:07 CET 2020)
(GPL source distribution)
Java Runtime: OpenJDK Runtime Environment
JVM: OpenJDK 64-Bit Server VM
Java Version: 25.0.3+9-2-26.04.2-Ubuntu
Operating System: Linux
Default Encoding: UTF-8
Language: en
Country: US
--></g></svg>