<?xml version="1.0" encoding="UTF-8" standalone="no"?><svg xmlns="http://www.w3.org/2000/svg" xmlns:xlink="http://www.w3.org/1999/xlink" contentScriptType="application/ecmascript" contentStyleType="text/css" height="1133px" preserveAspectRatio="none" style="width:1330px;height:1133px;" version="1.1" viewBox="0 0 1330 1133" width="1330px" zoomAndPan="magnify"><defs/><g><text fill="#000000" font-family="sans-serif" font-size="18" lengthAdjust="spacingAndGlyphs" textLength="144" x="592" y="19.2419">instance-b (base)</text><!--MD5=[16666313b46a364dfa6fcce22871d203]
entity A_sentinel--><rect fill="#E8541E" height="39.0679" style="stroke: #555555; stroke-width: 1.5;" width="205" x="6" y="497.0658"/><text fill="#000000" font-family="sans-serif" font-size="14" lengthAdjust="spacingAndGlyphs" textLength="185" x="16" y="522.0318">Gate sentinel / orchestrator</text><!--MD5=[91b5d8b7909398dfeefa3d95053ab585]
entity A_policy_author--><rect fill="#E8541E" height="39.0679" style="stroke: #555555; stroke-width: 1.5;" width="161" x="599" y="557.0658"/><text fill="#000000" font-family="sans-serif" font-size="14" lengthAdjust="spacingAndGlyphs" textLength="141" x="609" y="582.0318">Refund policy author</text><!--MD5=[181cff270489bda44ca31ebad832d943]
entity A_implementer--><rect fill="#E8541E" height="39.0679" style="stroke: #555555; stroke-width: 1.5;" width="187" x="586" y="285.0658"/><text fill="#000000" font-family="sans-serif" font-size="14" lengthAdjust="spacingAndGlyphs" textLength="167" x="596" y="310.0318">Refund-bot implementer</text><!--MD5=[71f63620eca0e672333d873ac415471c]
entity A_exerciser--><rect fill="#E8541E" height="39.0679" style="stroke: #555555; stroke-width: 1.5;" width="161" x="318" y="407.0658"/><text fill="#000000" font-family="sans-serif" font-size="14" lengthAdjust="spacingAndGlyphs" textLength="141" x="328" y="432.0318">Adversarial exerciser</text><!--MD5=[0d01b848268965027bdd7a03a1695120]
entity S_corporate_mandate--><rect fill="#C9E7CB" height="39.0679" style="stroke: #555555; stroke-width: 1.5;" width="195" x="1021" y="526.0658"/><text fill="#000000" font-family="sans-serif" font-size="14" lengthAdjust="spacingAndGlyphs" textLength="175" x="1031" y="551.0318">Vague corporate mandate</text><!--MD5=[9d6dd779466dace82b4fc248037c9d2e]
entity S_refund_policy--><rect fill="#C9E7CB" height="39.0679" style="stroke: #555555; stroke-width: 1.5;" width="358" x="939.5" y="187.0658"/><text fill="#000000" font-family="sans-serif" font-size="14" lengthAdjust="spacingAndGlyphs" textLength="338" x="949.5" y="212.0318">POL_REFUND_042 refund policy (authored clauses)</text><!--MD5=[e1a6ba64cb52616cc09a8682cbebf1a3]
entity S_rest_app--><rect fill="#F3CBD0" height="39.0679" style="stroke: #555555; stroke-width: 1.5;" width="309" x="964" y="66.0658"/><text fill="#000000" font-family="sans-serif" font-size="14" lengthAdjust="spacingAndGlyphs" textLength="289" x="974" y="91.0318">Frozen headless REST app (compute plane)</text><!--MD5=[72a3f5d1a46d56339a07e4b3abf21105]
entity S_customer_db--><rect fill="#F3CBD0" height="39.0679" style="stroke: #555555; stroke-width: 1.5;" width="227" x="1005" y="779.0658"/><text fill="#000000" font-family="sans-serif" font-size="14" lengthAdjust="spacingAndGlyphs" textLength="207" x="1015" y="804.0318">Frozen customer/account state</text><!--MD5=[1178f800bf40ce8e4636c3311604f0af]
entity S_archive_ledger--><rect fill="#F3CBD0" height="39.0679" style="stroke: #555555; stroke-width: 1.5;" width="383" x="927" y="914.0658"/><text fill="#000000" font-family="sans-serif" font-size="14" lengthAdjust="spacingAndGlyphs" textLength="363" x="937" y="939.0318">Adjudicated case archive + signature (invariant plane)</text><!--MD5=[cadaed91923a41f978af63d17a21d0fe]
entity S_refund_bot--><rect fill="#E2E2E2" height="39.0679" style="stroke: #555555; stroke-width: 1.5;" width="291" x="973" y="673.0658"/><text fill="#000000" font-family="sans-serif" font-size="14" lengthAdjust="spacingAndGlyphs" textLength="271" x="983" y="698.0318">Implementer's refund-bot decision logic</text><!--MD5=[3dcc2f4312007a064c9e2a42eda77c99]
entity S_adversarial_matrix--><rect fill="#E2E2E2" height="39.0679" style="stroke: #555555; stroke-width: 1.5;" width="311" x="963" y="443.0658"/><text fill="#000000" font-family="sans-serif" font-size="14" lengthAdjust="spacingAndGlyphs" textLength="291" x="973" y="468.0318">Exerciser's multi-turn adversarial scenarios</text><!--MD5=[3ba7eec10064d203ead1731d1448eaa6]
link A_sentinel to S_refund_policy--><path d="M123.09,496.5858 C173.69,424.1458 359.9,175.2358 586,88.5958 C663.61,58.8558 691.02,74.9458 773,88.5958 C882.11,106.7658 1003,155.2158 1068.6,184.0758 " fill="none" id="A_sentinel-&gt;S_refund_policy" style="stroke: #A80036; stroke-width: 1.0;"/><polygon fill="#A80036" points="1073,186.0158,1066.396,178.7092,1068.4298,183.9878,1063.1511,186.0216,1073,186.0158" style="stroke: #A80036; stroke-width: 1.0;"/><text fill="#000000" font-family="sans-serif" font-size="13" lengthAdjust="spacingAndGlyphs" textLength="10" x="527.5" y="97.2129">U</text><!--MD5=[b1530ed95ec8272a9b06063f01fa91a8]
link A_sentinel to S_rest_app--><path d="M121.04,496.8158 C143.63,458.2258 195.46,370.3258 241,297.5958 C274.24,244.5258 272.08,222.1758 318,179.5958 C389.03,113.7358 418.98,110.3858 509,74.5958 C684.73,4.7358 912.17,37.9358 1033.12,64.2358 " fill="none" id="A_sentinel-&gt;S_rest_app" style="stroke: #A80036; stroke-width: 1.0;"/><polygon fill="#A80036" points="1037.68,65.2358,1029.7457,59.4008,1032.7961,64.1648,1028.0321,67.2151,1037.68,65.2358" style="stroke: #A80036; stroke-width: 1.0;"/><text fill="#000000" font-family="sans-serif" font-size="13" lengthAdjust="spacingAndGlyphs" textLength="7" x="529" y="56.1329">L</text><!--MD5=[7e63ccf4b7490673b2db8fb9717cbc53]
link A_sentinel to S_customer_db--><path d="M119.79,536.6258 C145.88,585.3158 219.58,710.4858 318,773.5958 C545.44,919.4258 888.94,858.0458 1040.74,820.1758 " fill="none" id="A_sentinel-&gt;S_customer_db" style="stroke: #A80036; stroke-width: 1.0;"/><polygon fill="#A80036" points="1045.47,818.9858,1035.7627,817.3217,1040.6235,820.2153,1037.7299,825.0761,1045.47,818.9858" style="stroke: #A80036; stroke-width: 1.0;"/><text fill="#000000" font-family="sans-serif" font-size="13" lengthAdjust="spacingAndGlyphs" textLength="7" x="529" y="845.7829">L</text><!--MD5=[807ad130b143fd891108a09fdb8bde93]
link A_sentinel to S_archive_ledger--><path d="M114.74,536.3258 C131.89,596.4058 192.56,777.2958 318,848.5958 C507.69,956.4158 763.82,964.2558 934.53,954.0158 " fill="none" id="A_sentinel-&gt;S_archive_ledger" style="stroke: #A80036; stroke-width: 1.0;"/><polygon fill="#A80036" points="939.31,953.7158,930.0866,950.2621,934.319,954.0153,930.5657,958.2477,939.31,953.7158" style="stroke: #A80036; stroke-width: 1.0;"/><text fill="#000000" font-family="sans-serif" font-size="13" lengthAdjust="spacingAndGlyphs" textLength="7" x="529" y="919.1729">L</text><!--MD5=[04920432f975d7a448b65c3658df2c71]
link A_sentinel to S_refund_bot--><path d="M131.63,536.3358 C195.97,592.2258 390.79,751.0258 586,805.5958 C666.04,827.9758 690.93,818.7158 773,805.5958 C828.56,796.7158 974.53,745.1358 1057.54,714.8158 " fill="none" id="A_sentinel-&gt;S_refund_bot" style="stroke: #A80036; stroke-width: 1.0;"/><polygon fill="#A80036" points="1062.22,713.1058,1052.3942,712.4319,1057.5227,714.8191,1055.1355,719.9476,1062.22,713.1058" style="stroke: #A80036; stroke-width: 1.0;"/><text fill="#000000" font-family="sans-serif" font-size="13" lengthAdjust="spacingAndGlyphs" textLength="7" x="529" y="775.0029">L</text><!--MD5=[e3ba72a927a0c8f22ebc934e51a99c4a]
link A_sentinel to S_adversarial_matrix--><path d="M211.3,518.8758 C292.03,520.5558 407.73,522.7058 509,523.5958 C529.89,523.7758 535.14,524.7258 556,523.5958 C695.7,516.0258 854.09,497.9458 966.95,483.4258 " fill="none" id="A_sentinel-&gt;S_adversarial_matrix" style="stroke: #A80036; stroke-width: 1.0;"/><polygon fill="#A80036" points="971.8,482.7958,962.3603,479.9865,966.8415,483.4389,963.3892,487.9201,971.8,482.7958" style="stroke: #A80036; stroke-width: 1.0;"/><text fill="#000000" font-family="sans-serif" font-size="13" lengthAdjust="spacingAndGlyphs" textLength="7" x="529" y="519.4929">L</text><!--MD5=[4d38258fe5713240f79178c8f0a564f1]
link A_policy_author to S_corporate_mandate--><path d="M760.4,570.9258 C831.67,565.8758 936.44,558.4358 1014.08,552.9358 " fill="none" id="A_policy_author-&gt;S_corporate_mandate" style="stroke: #A80036; stroke-width: 1.0;"/><polygon fill="#A80036" points="1019.06,552.5758,1009.8068,549.2027,1014.0718,552.9189,1010.3556,557.1839,1019.06,552.5758" style="stroke: #A80036; stroke-width: 1.0;"/><text fill="#000000" font-family="sans-serif" font-size="13" lengthAdjust="spacingAndGlyphs" textLength="10" x="845" y="557.9229">U</text><!--MD5=[a555a19cf56dd7aa1d8135a531a572aa]
link A_policy_author to S_archive_ledger--><path d="M737.5,596.4958 C750.66,603.3458 763.54,612.2458 773,623.5958 C802.98,659.5758 777.94,685.0358 803,724.5958 C842.58,787.0758 866.06,793.6758 927,835.5958 C971.1,865.9358 1025.82,893.1358 1065.29,911.1358 " fill="none" id="A_policy_author-&gt;S_archive_ledger" style="stroke: #A80036; stroke-width: 1.0;"/><polygon fill="#A80036" points="1069.62,913.1058,1063.0906,905.7324,1065.0706,911.0314,1059.7716,913.0114,1069.62,913.1058" style="stroke: #A80036; stroke-width: 1.0;"/><text fill="#000000" font-family="sans-serif" font-size="13" lengthAdjust="spacingAndGlyphs" textLength="7" x="846.5" y="720.4929">L</text><!--MD5=[f16f1368a0a2a925f6f4c27496318672]
link A_policy_author to S_refund_policy--><path d="M698.73,556.9658 C718.88,534.5058 751.34,495.9858 773,458.5958 C790.79,427.8858 777.2,408.9658 803,384.5958 C835.08,354.2958 857.39,372.0458 897,352.5958 C969.32,317.0758 1046.11,261.6458 1087.25,230.2958 " fill="none" id="A_policy_author-&gt;S_refund_policy" style="stroke: #A80036; stroke-width: 1.0; stroke-dasharray: 7.0,7.0;"/><polygon fill="#A80036" points="1091.13,227.3258,1081.5479,229.6027,1087.1542,230.3578,1086.399,235.964,1091.13,227.3258" style="stroke: #A80036; stroke-width: 1.0;"/><text fill="#000000" font-family="sans-serif" font-size="13" lengthAdjust="spacingAndGlyphs" textLength="56" x="822" y="348.4929">produces</text><!--MD5=[1f315c851024521662ecbbf1866fffc7]
link A_implementer to S_refund_policy--><path d="M740.25,284.5858 C760.08,278.3458 782.37,271.7458 803,266.5958 C863.75,251.4258 931.93,237.9958 989.24,227.7058 " fill="none" id="A_implementer-&gt;S_refund_policy" style="stroke: #A80036; stroke-width: 1.0;"/><polygon fill="#A80036" points="993.97,226.8558,984.4032,224.5156,989.0493,227.7427,985.8222,232.3888,993.97,226.8558" style="stroke: #A80036; stroke-width: 1.0;"/><text fill="#000000" font-family="sans-serif" font-size="13" lengthAdjust="spacingAndGlyphs" textLength="10" x="845" y="243.0129">U</text><!--MD5=[0511a72cb753f24877ce925606ffe55e]
link A_implementer to S_rest_app--><path d="M706.31,284.6858 C730.46,266.6058 767.99,239.8758 803,220.5958 C887.76,173.9358 991.94,132.0158 1056.54,107.6758 " fill="none" id="A_implementer-&gt;S_rest_app" style="stroke: #A80036; stroke-width: 1.0;"/><polygon fill="#A80036" points="1060.86,106.0558,1051.0285,105.4706,1056.1784,107.8115,1053.8375,112.9613,1060.86,106.0558" style="stroke: #A80036; stroke-width: 1.0;"/><text fill="#000000" font-family="sans-serif" font-size="13" lengthAdjust="spacingAndGlyphs" textLength="7" x="846.5" y="170.3129">L</text><!--MD5=[ae5bf553171963544790a88c1899cb63]
link A_implementer to S_customer_db--><path d="M711.93,324.5158 C732.78,339.5058 758.83,361.9758 773,388.5958 C816.47,470.2758 749.43,519.1558 803,594.5958 C830.28,633.0058 866.18,607.9558 897,643.5958 C923.48,674.2158 898.55,700.8058 927,729.5958 C948.47,751.3158 977.29,766.2458 1006,776.4858 " fill="none" id="A_implementer-&gt;S_customer_db" style="stroke: #A80036; stroke-width: 1.0;"/><polygon fill="#A80036" points="1010.69,778.1058,1003.5012,771.3737,1005.9669,776.4649,1000.8757,778.9306,1010.69,778.1058" style="stroke: #A80036; stroke-width: 1.0;"/><text fill="#000000" font-family="sans-serif" font-size="13" lengthAdjust="spacingAndGlyphs" textLength="7" x="846.5" y="590.4929">L</text><!--MD5=[7b72dea2f3450eba1537ae0cb5daa4f1]
link A_implementer to S_refund_bot--><path d="M704.08,324.5158 C723.25,341.0558 750.68,365.5258 773,388.5958 C832.19,449.7858 846.75,465.8758 897,534.5958 C911.85,554.9058 908.9,565.1258 927,582.5958 C966.75,620.9858 1022.42,651.1158 1063.32,670.0658 " fill="none" id="A_implementer-&gt;S_refund_bot" style="stroke: #A80036; stroke-width: 1.0; stroke-dasharray: 7.0,7.0;"/><polygon fill="#A80036" points="1067.62,672.0358,1061.1098,664.6455,1063.076,669.9496,1057.7719,671.9158,1067.62,672.0358" style="stroke: #A80036; stroke-width: 1.0;"/><text fill="#000000" font-family="sans-serif" font-size="13" lengthAdjust="spacingAndGlyphs" textLength="56" x="822" y="416.5729">produces</text><!--MD5=[82d556e68af0df9fcbf1dd0e9acc2809]
link A_exerciser to S_refund_policy--><path d="M416.52,406.5858 C446.86,372.3258 513.9,302.7258 586,267.5958 C693.14,215.3958 826.41,200.1958 932.7,198.0258 " fill="none" id="A_exerciser-&gt;S_refund_policy" style="stroke: #A80036; stroke-width: 1.0;"/><polygon fill="#A80036" points="937.51,197.9358,928.4318,194.1166,932.511,198.0358,928.5918,202.115,937.51,197.9358" style="stroke: #A80036; stroke-width: 1.0;"/><text fill="#000000" font-family="sans-serif" font-size="13" lengthAdjust="spacingAndGlyphs" textLength="10" x="674.5" y="207.9829">U</text><!--MD5=[ec23e4a0d3bb16984bcc1a841e77aaab]
link A_exerciser to S_rest_app--><path d="M408.18,406.6958 C430.12,359.0558 492.75,238.4358 586,184.5958 C699.18,119.2458 846.48,95.6958 957.3,87.8058 " fill="none" id="A_exerciser-&gt;S_rest_app" style="stroke: #A80036; stroke-width: 1.0;"/><polygon fill="#A80036" points="962.04,87.4858,952.7868,84.1127,957.0518,87.8289,953.3356,92.0939,962.04,87.4858" style="stroke: #A80036; stroke-width: 1.0;"/><text fill="#000000" font-family="sans-serif" font-size="13" lengthAdjust="spacingAndGlyphs" textLength="7" x="676" y="111.4429">L</text><!--MD5=[30b2bd22fad81ad1712cf0f5754541c7]
link A_exerciser to S_archive_ledger--><path d="M406.79,446.6158 C426.96,499.2958 488.55,643.1158 586,721.5958 C714.94,825.4358 901.23,883.9158 1015.57,912.0958 " fill="none" id="A_exerciser-&gt;S_archive_ledger" style="stroke: #A80036; stroke-width: 1.0;"/><polygon fill="#A80036" points="1020.16,913.2158,1012.3654,907.1956,1015.3026,912.0301,1010.4681,914.9674,1020.16,913.2158" style="stroke: #A80036; stroke-width: 1.0;"/><text fill="#000000" font-family="sans-serif" font-size="13" lengthAdjust="spacingAndGlyphs" textLength="7" x="676" y="717.4929">L</text><!--MD5=[f91e270de67979730a04a9350a6f73ea]
link A_exerciser to S_adversarial_matrix--><path d="M479.43,430.6058 C594.17,436.3558 808.05,447.0758 956.38,454.5158 " fill="none" id="A_exerciser-&gt;S_adversarial_matrix" style="stroke: #A80036; stroke-width: 1.0; stroke-dasharray: 7.0,7.0;"/><polygon fill="#A80036" points="961,454.7458,952.2053,450.3127,956.0059,454.5026,951.816,458.3032,961,454.7458" style="stroke: #A80036; stroke-width: 1.0;"/><text fill="#000000" font-family="sans-serif" font-size="13" lengthAdjust="spacingAndGlyphs" textLength="56" x="651.5" y="432.3629">produces</text><!--MD5=[cb1cedd0cd5b38444e780ade0e7ee8fc]
link A_policy_author to S_refund_bot--><path d="M730.83,596.5958 C745.37,603.7858 760.63,612.8358 773,623.5958 C790.58,638.8858 782.8,654.9758 803,666.5958 C851.7,694.6158 911.85,704.3558 966.46,705.9658 " fill="none" id="A_policy_author-&gt;S_refund_bot" style="stroke: #FF0000; stroke-width: 1.0; stroke-dasharray: 7.0,7.0;"/><polygon fill="#FF0000" points="971.23,706.0858,962.3358,701.8558,966.2317,705.9573,962.1302,709.8532,971.23,706.0858" style="stroke: #FF0000; stroke-width: 1.0;"/><text fill="#000000" font-family="sans-serif" font-size="13" lengthAdjust="spacingAndGlyphs" textLength="92" x="804" y="662.4929">✗ must not see</text><!--MD5=[07f7f64c8429fbada0f76212b0bdb832]
link A_implementer to S_adversarial_matrix--><path d="M773.31,304.3158 C812.35,306.5558 857.74,312.3058 897,325.5958 C972.69,351.2058 1049.3,407.0558 1089.25,438.9758 " fill="none" id="A_implementer-&gt;S_adversarial_matrix" style="stroke: #FF0000; stroke-width: 1.0; stroke-dasharray: 7.0,7.0;"/><polygon fill="#FF0000" points="1092.76,441.7958,1088.2427,433.0441,1088.8598,438.6671,1083.2368,439.2843,1092.76,441.7958" style="stroke: #FF0000; stroke-width: 1.0;"/><text fill="#000000" font-family="sans-serif" font-size="13" lengthAdjust="spacingAndGlyphs" textLength="92" x="804" y="302.6629">✗ must not see</text><!--MD5=[6fcd2a24685cf93d9d44179be8e1940d]
link A_exerciser to S_refund_bot--><path d="M411.38,446.4158 C437.41,488.0058 503.75,584.5058 586,632.5958 C700.96,699.8158 853.92,710.5558 966.23,706.9958 " fill="none" id="A_exerciser-&gt;S_refund_bot" style="stroke: #FF0000; stroke-width: 1.0; stroke-dasharray: 7.0,7.0;"/><polygon fill="#FF0000" points="971.04,706.8258,961.9079,703.1375,966.043,706.9977,962.1828,711.1328,971.04,706.8258" style="stroke: #FF0000; stroke-width: 1.0;"/><text fill="#000000" font-family="sans-serif" font-size="13" lengthAdjust="spacingAndGlyphs" textLength="92" x="633.5" y="628.4929">✗ must not see</text><!--MD5=[945bcb7aa66ccda65e91e731990f0e70]
link A_exerciser to A_policy_author--><path d="M449.46,446.5658 C480.67,459.6158 521.38,477.7058 556,496.5958 C587.51,513.7958 621.56,536.3758 645.74,553.1658 " fill="none" id="A_exerciser-&gt;A_policy_author" style="stroke: #0000FF; stroke-width: 1.0;"/><polygon fill="#0000FF" points="649.81,556.0058,644.6993,547.5868,645.7032,553.1539,640.1361,554.1578,649.81,556.0058" style="stroke: #0000FF; stroke-width: 1.0;"/><text fill="#000000" font-family="sans-serif" font-size="13" lengthAdjust="spacingAndGlyphs" textLength="45" x="510" y="469.1629">catches</text><!--MD5=[11131312ba3848239124113e0e091658]
link A_exerciser to A_implementer--><path d="M445.26,406.5858 C495.13,384.7858 574.74,349.9658 626.82,327.1958 " fill="none" id="A_exerciser-&gt;A_implementer" style="stroke: #0000FF; stroke-width: 1.0;"/><polygon fill="#0000FF" points="631.33,325.2258,621.4813,325.1686,626.7492,327.2299,624.6879,332.4978,631.33,325.2258" style="stroke: #0000FF; stroke-width: 1.0;"/><text fill="#000000" font-family="sans-serif" font-size="13" lengthAdjust="spacingAndGlyphs" textLength="45" x="510" y="354.1929">catches</text><!--MD5=[7b2ba98715a0d64db676df08bab5052e]
link A_sentinel to A_exerciser--><path d="M173.42,496.6258 C219.19,482.3158 280.78,463.0758 327.81,448.3758 " fill="none" id="A_sentinel-&gt;A_exerciser" style="stroke: #0000FF; stroke-width: 1.0;"/><polygon fill="#0000FF" points="332.32,446.9658,322.5347,445.8491,327.5501,448.4654,324.9339,453.4808,332.32,446.9658" style="stroke: #0000FF; stroke-width: 1.0;"/><text fill="#000000" font-family="sans-serif" font-size="13" lengthAdjust="spacingAndGlyphs" textLength="45" x="242" y="456.7829">catches</text><rect fill="#DDDDDD" height="147.4754" rx="5" ry="5" style="stroke: #000000; stroke-width: 1.0;" width="238" x="1081" y="975.5158"/><text fill="#000000" font-family="sans-serif" font-size="14" font-weight="bold" lengthAdjust="spacingAndGlyphs" textLength="46" x="1091" y="997.4818">Colour</text><text fill="#000000" font-family="sans-serif" font-size="14" font-weight="bold" lengthAdjust="spacingAndGlyphs" textLength="60" x="1145" y="997.4818">Meaning</text><rect fill="#E8541E" height="19.0679" style="stroke: none; stroke-width: 1.0;" width="54" x="1087" y="1001.5838"/><text fill="#000000" font-family="sans-serif" font-size="14" lengthAdjust="spacingAndGlyphs" textLength="0" x="1091" y="1016.5497"/><text fill="#000000" font-family="sans-serif" font-size="14" lengthAdjust="spacingAndGlyphs" textLength="86" x="1145" y="1016.5497">Agent (actor)</text><rect fill="#C9E7CB" height="19.0679" style="stroke: none; stroke-width: 1.0;" width="54" x="1087" y="1020.6517"/><text fill="#000000" font-family="sans-serif" font-size="14" lengthAdjust="spacingAndGlyphs" textLength="0" x="1091" y="1035.6176"/><text fill="#000000" font-family="sans-serif" font-size="14" lengthAdjust="spacingAndGlyphs" textLength="151" x="1145" y="1035.6176">Upper-bound material</text><rect fill="#F3CBD0" height="19.0679" style="stroke: none; stroke-width: 1.0;" width="54" x="1087" y="1039.7196"/><text fill="#000000" font-family="sans-serif" font-size="14" lengthAdjust="spacingAndGlyphs" textLength="0" x="1091" y="1054.6855"/><text fill="#000000" font-family="sans-serif" font-size="14" lengthAdjust="spacingAndGlyphs" textLength="118" x="1145" y="1054.6855">Executable oracle</text><rect fill="#E2E2E2" height="19.0679" style="stroke: none; stroke-width: 1.0;" width="54" x="1087" y="1058.7875"/><text fill="#000000" font-family="sans-serif" font-size="14" lengthAdjust="spacingAndGlyphs" textLength="0" x="1091" y="1073.7534"/><text fill="#000000" font-family="sans-serif" font-size="14" lengthAdjust="spacingAndGlyphs" textLength="49" x="1145" y="1073.7534">Artifact</text><rect fill="#F4CCCC" height="19.0679" style="stroke: none; stroke-width: 1.0;" width="54" x="1087" y="1077.8554"/><text fill="#000000" font-family="sans-serif" font-size="14" lengthAdjust="spacingAndGlyphs" textLength="0" x="1091" y="1092.8214"/><text fill="#000000" font-family="sans-serif" font-size="14" lengthAdjust="spacingAndGlyphs" textLength="164" x="1145" y="1092.8214">Rationale (must-not-see)</text><rect fill="#D9D2E9" height="19.0679" style="stroke: none; stroke-width: 1.0;" width="54" x="1087" y="1096.9233"/><text fill="#000000" font-family="sans-serif" font-size="14" lengthAdjust="spacingAndGlyphs" textLength="0" x="1091" y="1111.8893"/><text fill="#000000" font-family="sans-serif" font-size="14" lengthAdjust="spacingAndGlyphs" textLength="119" x="1145" y="1111.8893">Human judgment</text><line style="stroke: #000000; stroke-width: 1.0;" x1="1087" x2="1313" y1="982.5158" y2="982.5158"/><line style="stroke: #000000; stroke-width: 1.0;" x1="1087" x2="1313" y1="1001.5838" y2="1001.5838"/><line style="stroke: #000000; stroke-width: 1.0;" x1="1087" x2="1313" y1="1020.6517" y2="1020.6517"/><line style="stroke: #000000; stroke-width: 1.0;" x1="1087" x2="1313" y1="1039.7196" y2="1039.7196"/><line style="stroke: #000000; stroke-width: 1.0;" x1="1087" x2="1313" y1="1058.7875" y2="1058.7875"/><line style="stroke: #000000; stroke-width: 1.0;" x1="1087" x2="1313" y1="1077.8554" y2="1077.8554"/><line style="stroke: #000000; stroke-width: 1.0;" x1="1087" x2="1313" y1="1096.9233" y2="1096.9233"/><line style="stroke: #000000; stroke-width: 1.0;" x1="1087" x2="1313" y1="1115.9913" y2="1115.9913"/><line style="stroke: #000000; stroke-width: 1.0;" x1="1087" x2="1087" y1="982.5158" y2="1115.9913"/><line style="stroke: #000000; stroke-width: 1.0;" x1="1141" x2="1141" y1="982.5158" y2="1115.9913"/><line style="stroke: #000000; stroke-width: 1.0;" x1="1313" x2="1313" y1="982.5158" y2="1115.9913"/><!--MD5=[6e1d3e88b707169f9802f9048de8940e]
@startuml instance-b
title instance-b (base)
left to right direction
skinparam rectangleBorderColor #555
skinparam shadowing false

rectangle "Gate sentinel / orchestrator" as A_sentinel #E8541E
rectangle "Refund policy author" as A_policy_author #E8541E
rectangle "Refund-bot implementer" as A_implementer #E8541E
rectangle "Adversarial exerciser" as A_exerciser #E8541E

rectangle "Vague corporate mandate" as S_corporate_mandate #C9E7CB
rectangle "POL_REFUND_042 refund policy (authored clauses)" as S_refund_policy #C9E7CB
rectangle "Frozen headless REST app (compute plane)" as S_rest_app #F3CBD0
rectangle "Frozen customer/account state" as S_customer_db #F3CBD0
rectangle "Adjudicated case archive + signature (invariant plane)" as S_archive_ledger #F3CBD0
rectangle "Implementer's refund-bot decision logic" as S_refund_bot #E2E2E2
rectangle "Exerciser's multi-turn adversarial scenarios" as S_adversarial_matrix #E2E2E2

A_sentinel - -> S_refund_policy : U
A_sentinel - -> S_rest_app : L
A_sentinel - -> S_customer_db : L
A_sentinel - -> S_archive_ledger : L
A_sentinel - -> S_refund_bot : L
A_sentinel - -> S_adversarial_matrix : L
A_policy_author - -> S_corporate_mandate : U
A_policy_author - -> S_archive_ledger : L
A_policy_author ..> S_refund_policy : produces
A_implementer - -> S_refund_policy : U
A_implementer - -> S_rest_app : L
A_implementer - -> S_customer_db : L
A_implementer ..> S_refund_bot : produces
A_exerciser - -> S_refund_policy : U
A_exerciser - -> S_rest_app : L
A_exerciser - -> S_archive_ledger : L
A_exerciser ..> S_adversarial_matrix : produces

A_policy_author -[#red,dashed]-> S_refund_bot : ✗ must not see
A_implementer -[#red,dashed]-> S_adversarial_matrix : ✗ must not see
A_exerciser -[#red,dashed]-> S_refund_bot : ✗ must not see

A_exerciser -[#blue]-> A_policy_author : catches
A_exerciser -[#blue]-> A_implementer : catches
A_sentinel -[#blue]-> A_exerciser : catches

legend right
|= Colour |= Meaning |
|<#E8541E>| Agent (actor) |
|<#C9E7CB>| Upper-bound material |
|<#F3CBD0>| Executable oracle |
|<#E2E2E2>| Artifact |
|<#F4CCCC>| Rationale (must-not-see) |
|<#D9D2E9>| Human judgment |
endlegend
@enduml

PlantUML version 1.2020.02(Sun Mar 01 11:22:07 CET 2020)
(GPL source distribution)
Java Runtime: OpenJDK Runtime Environment
JVM: OpenJDK 64-Bit Server VM
Java Version: 25.0.3+9-2-26.04.2-Ubuntu
Operating System: Linux
Default Encoding: UTF-8
Language: en
Country: US
--></g></svg>